<svg xmlns="http://www.w3.org/2000/svg" viewBox="0 0 1920 1080"><defs><style>.cls-1,.cls-3,.cls-6{fill:#03392b;}.cls-2,.cls-4,.cls-7{fill:#e7e7aa;}.cls-3,.cls-7{font-size:24px;font-family:Poppins-Medium, Poppins;font-weight:500;}.cls-4{font-size:36px;}.cls-4,.cls-6{font-family:Poppins-Bold, Poppins;font-weight:700;}.cls-5{fill:none;stroke:#e7e7aa;stroke-linecap:round;stroke-linejoin:round;stroke-width:6px;}.cls-6{font-size:19.45px;}</style></defs><g id="background"><rect class="cls-1" width="1920" height="1080"/></g><g id="heart-icon"><g id="icons_Q2" data-name="icons Q2"><path id="Path_74" data-name="Path 74" class="cls-2" d="M473.07,356.37a23.7,23.7,0,0,0-16.81-7.12c-7.72,0-15.83,6.13-19.79,12.86-4-6.73-12.07-12.86-19.78-12.86A24,24,0,0,0,393,373.19a21.39,21.39,0,0,0,.39,3.75h8.11a13.59,13.59,0,0,1-.59-3.75,15.22,15.22,0,0,1,4.75-11.08,15,15,0,0,1,11.08-4.75c4.35,0,10.09,3.95,12.86,8.7l5.14,8.9a2.16,2.16,0,0,0,3.56,0l5.15-8.9c2.77-4.75,8.5-8.7,12.86-8.7a15,15,0,0,1,11.08,4.74,15.26,15.26,0,0,1,4.74,11.08c0,3.56-1.78,7.32-5.34,11.68H440.23L436.47,391l-10.09-17a2.17,2.17,0,0,0-3-.53,2.05,2.05,0,0,0-.53.53l-6.33,10.88H402.84a4,4,0,0,0-4,3.9,3.49,3.49,0,0,0,.05.65,4.14,4.14,0,0,0,4.15,3.36h17.81l3.76-6.13,10.09,17a2.18,2.18,0,0,0,3,.52,2.14,2.14,0,0,0,.52-.52l6.33-10.88h15l-23.15,24.73-15.83-16.83H409.77l25.32,27.11a2,2,0,0,0,2.77,0c5.93-6.33,28.29-30.07,32.25-34.62s9.89-11.87,9.89-20a23.57,23.57,0,0,0-6.93-16.83Z"/></g></g><g id="_text_health" data-name="
text health"><g id="_Groep_text_3_" data-name="&lt;Groep text 3&gt;"><rect class="cls-2" x="248" y="479" width="415" height="82" rx="8.05"/><text class="cls-3" transform="translate(282.75 513.78)">Verkleint de kans op hart- <tspan x="0" y="28.8">en vaatziekten.</tspan></text></g><g id="_Groep_text_2_" data-name="&lt;Groep text 2&gt;"><rect class="cls-2" x="248" y="590" width="415" height="82" rx="8.05"/><text class="cls-3" transform="translate(282.48 624.07)">Helpt veroudering tegen te <tspan x="0" y="28.8">gaan.</tspan></text></g><g id="_Groep_text_1_" data-name="&lt;Groep text 1&gt;"><rect class="cls-2" x="248" y="701" width="415" height="82" rx="8.05"/><text class="cls-3" transform="translate(280.48 747.07)">Helpt je gewicht te verliezen</text></g></g><g id="titel"><text class="cls-4" transform="translate(245.45 166.27)">De avocado wordt gezien als een superfood. Super gezond met veel voordelen:</text></g><g id="avocado-vitamines_info" data-name="avocado-vitamines info"><g id="_Groep_arrow_" data-name="&lt;Groep arrow&gt;"><path class="cls-5" d="M1137.21,510.34a167.75,167.75,0,0,0,134.21-16.14c50.52-29.65,75.37-77.21,83.85-95.39"/><line class="cls-5" x1="1355.27" y1="398.81" x2="1367.26" y2="440.01"/><line class="cls-5" x1="1355.27" y1="398.81" x2="1316.04" y2="416.17"/></g><g id="_Groep_arrow_2" data-name="&lt;Groep arrow&gt;"><path class="cls-5" d="M1137.09,802.7a167.76,167.76,0,0,0,105.37,84.67c56.53,15.39,107.9-.1,126.83-6.74"/><line class="cls-5" x1="1369.29" y1="880.63" x2="1348.22" y2="918.01"/><line class="cls-5" x1="1369.29" y1="880.63" x2="1329.45" y2="864.71"/></g><g id="_Groep_vitamines_letters_" data-name="&lt;Groep vitamines letters&gt;"><circle class="cls-2" cx="1586.09" cy="378.88" r="18.09"/><circle class="cls-2" cx="1638.91" cy="424.04" r="18.09"/><circle class="cls-2" cx="1525.4" cy="400.79" r="18.09"/><circle class="cls-2" cx="1582.41" cy="466.81" r="18.09"/><rect class="cls-2" x="1583.14" y="384.8" width="5.89" height="78.47"/><rect class="cls-2" x="1580.19" y="363.67" width="5.89" height="99.58" transform="translate(1025.95 1951.91) rotate(-84.73)"/><text class="cls-6" transform="translate(1517.79 407.57)">B</text><text class="cls-6" transform="translate(1578.7 384.32)">C</text><text class="cls-6" transform="translate(1635.02 431)">E</text><text class="cls-6" transform="translate(1577.51 474.49)">K</text></g><g id="_Groep_arrow_3" data-name="&lt;Groep arrow&gt;"><path class="cls-5" d="M1183.46,646a167.74,167.74,0,0,0,132,29c57.47-11.35,96.6-48.06,110.6-62.42"/><line class="cls-5" x1="1426.09" y1="612.54" x2="1423.84" y2="655.38"/><line class="cls-5" x1="1426.09" y1="612.54" x2="1383.33" y2="615.99"/></g><text class="cls-7" transform="translate(1361.3 584.83)">Kalium, Zink, Ijzer</text><text class="cls-7" transform="translate(1293.56 373.36)">Bevat vitamines:</text><text class="cls-7" transform="translate(1406.83 871.84)">Onverzadigd vetten<tspan x="0" y="28.8">(Oliezuur)</tspan></text></g></svg>