<?xml version="1.0" encoding="utf-8"?>
<!-- Generator: Adobe Illustrator 24.1.2, SVG Export Plug-In . SVG Version: 6.00 Build 0)  -->
<svg version="1.1" id="Layer_1" xmlns="http://www.w3.org/2000/svg" xmlns:xlink="http://www.w3.org/1999/xlink" x="0px" y="0px"
	 viewBox="0 0 1916.3 1080.8" style="enable-background:new 0 0 1916.3 1080.8;" xml:space="preserve">
<style type="text/css">
	.st0{fill:#E6E6A9;}
	.st1{fill:#03392B;}
	.st2{font-family:'Poppins-Bold';}
	.st3{font-size:60px;}
	.st4{fill:#E6E6A9;stroke:#FFFFFF;stroke-width:10;stroke-miterlimit:10;}
	.st5{fill:#FFFFFF;stroke:#FFFFFF;stroke-width:12.82;stroke-linecap:round;stroke-linejoin:round;}
	.st6{fill:none;stroke:#E6E6A9;stroke-width:13;stroke-miterlimit:10;}
	.st7{fill:#FFFFFF;}
</style>
<rect class="st0" width="1916.3" height="1080.8"/>
<g id="titel">
	<text transform="matrix(1 0 0 1 38.67 498.87)" class="st1 st2 st3">Nu wil je vast een </text>
	<text transform="matrix(1 0 0 1 38.67 570.87)" class="st1 st2 st3">avocado gaan eten?</text>
</g>
<g id="background">
	<path id="Path_81" class="st1" d="M1916.3,1080.8c0,0-735.7-113-916.2-629.4C876.4,97.5,0,0,0,0h1916.3V1080.8z"/>
</g>
<g id="persoon">
	<path id="_haar_" class="st4" d="M820.6,395.5l-46,3c-12.4-6.2-19.5-18.3-17.8-29.7c1.3-8.9,7.4-14.5,9.7-16.3
		c-13.9-9.3-17.6-28.2-8.3-42.1c3.5-5.2,8.5-9.2,14.3-11.4c-9-4.9-14.5-13.9-14.1-23c0.6-12.3,12-23.4,26.7-23.8
		c-8.2-11.9-7.4-27.6,1.5-37.9c10-11.6,28.2-13.9,41.6-4.4c-0.4-2.7-2-14.2,5.2-23c8.7-10.7,27.1-13.2,43.1-3.7
		c0.6-2.5,2.7-10.1,9.7-14.9c8.7-5.9,21.2-5.1,31.2,2.2c4.5-8,13-12.9,22.2-12.7c13.6,0.4,20.4,12,20.8,12.6
		c4.7-9.2,13.5-15.3,23-15.6c12.8-0.4,25,9.8,27.5,24.5c1-0.8,12-9.7,25.3-5.9c11.6,3.3,20,14.8,20,28.2
		c15.4-4.4,31.2,0.5,39.4,11.9c7.5,10.4,5.7,22.4,5.2,25.2c2,0.6,17.9,5.7,24.5,22.3c5.8,14.6,0.2,27.4-0.8,29.7
		c1.3,0.7,17.5,10.3,18.6,29c0.8,13-6.3,22.2-8.2,24.5c1.2,1.2,11.9,12.2,9.7,28.2c-2.5,18.1-19.2,25.6-20.1,26l-43.4-9L820.6,395.5
		z"/>
	<path id="_gezicht_" class="st5" d="M795.3,475.1c11.8,17.9,29.7,24.4,36.3,26.4c13.4,64.5,72,108.6,133.9,103.8
		c55.2-4.2,102.6-46.6,114.1-103.8c6.3-2.3,28.6-11.1,40.3-34.7c3.6-7.2,15.5-31.3,2.3-50.6c-11.7-17.2-34.6-17.6-37.3-17.6
		c1.3-7.8,0.8-15.9-1.5-23.5c-16.8-52-122.1-53.7-126.8-53.8c-51.6-0.3-125.9,17.6-134.4,56.5c-1.1,5.5-1.1,11.2,0.2,16.7
		c-5.5,1.1-20.9,5-30.7,18.7C777.4,433.5,785.6,460.3,795.3,475.1z"/>
	<g id="_Groep_bril_">
		<path class="st6" d="M850.1,414.4h78.7c3.3,0,6,2.7,6,6v47.7c0,3.3-2.7,6-6,6h-78.7c-3.3,0-6-2.7-6-6v-47.7
			C844.1,417.1,846.8,414.4,850.1,414.4z"/>
		<path class="st6" d="M980.1,411.8h78.7c3.3,0,6,2.7,6,6v47.7c0,3.3-2.7,6-6,6h-78.7c-3.3,0-6-2.7-6-6v-47.7
			C974,414.5,976.8,411.8,980.1,411.8z"/>
		<line class="st6" x1="934.9" y1="441.7" x2="972.8" y2="441.7"/>
	</g>
	<path class="st4" d="M595.6,926.2c19-83.1,49.4-163.3,90.1-238.2c38.7-52.2,93.9-89.9,156.6-107.1c4,5,48.9,58.9,120.9,53.5
		c59.7-4.4,94.2-46.4,99.9-53.5c65.1,16.4,121.7,56.5,158.9,112.4c39.9,73.2,69.6,151.6,88.3,232.9H595.6z"/>
	<path class="st7" d="M616.4,926c6.7-11.8,14.3-23,22.7-33.7c9.2-11.6,14.5-18.2,24.1-24.3c5.7-3.7,11.7-5.9,23.8-10.5
		c19.8-7.4,22.8-5.8,24-4.6c2.8,2.8,1.2,9.1-0.3,12.5c-3.8,8.7-11.9,10.6-25.1,19.1c-6.4,4.1-12.4,8.7-18.1,13.7
		c8-1.3,19.7-3.4,33.5-7.1c20.9-5.5,29.6-9.8,36.2-4.9c4.7,3.5,7.8,11.2,5.1,17.5s-10.3,8-11.3,8.2c6.3,0.3,10.5,5.2,10.2,9
		c-0.4,4.1-6,8.4-12.7,6.8L616.4,926z"/>
	<path class="st7" d="M722.7,877.1c5.9-1.3,14.1-2,20,2.5c7.5,5.9,6.7,17.5,9.3,17.5s3.7-10.8,7.6-24.7c2.1-7.5,4.7-14.9,7.7-22.2
		l13.3,8.7c5.2-6.7,41.4-53.5,51.2-86.9c3.8-13.1,2.8-21.3,0.8-27.1c-3.4-10.2-10.8-16.5-15-19.6L722.7,877.1z"/>
	<path id="mond" class="st6" d="M1011.4,515.8c-36.3,26.4-85.5,26.4-121.8,0"/>
	<g id="hand">
		<path class="st7" d="M1171,925.6c0,0-10.8,3.6-9.5,12.7c1.3,9,13.1,9.1,13.1,9.1s-11.4,4.2-6.6,10.3c4.9,6.2,115.1-5.4,115.1-5.4
			v-28.3L1171,925.6z"/>
		<path id="_x3C_Path_x3E_" class="st7" d="M1283.1,923.9c-6.7-11.8-14.3-23.1-22.7-33.7c-9.1-11.6-14.5-18.2-24.1-24.4
			c-5.7-3.7-11.7-5.9-23.8-10.5c-19.8-7.4-22.8-5.8-24-4.6c-2.8,2.8-1.2,9.1,0.3,12.5c3.8,8.7,11.9,10.6,25.1,19.1
			c6.4,4.1,12.4,8.7,18.1,13.7c-8-1.3-19.7-3.4-33.5-7.1c-20.9-5.5-29.6-9.8-36.2-4.9c-4.7,3.5-7.8,11.2-5.1,17.5s10.3,8,11.3,8.2
			c-6.3,0.3-10.5,5.2-10.2,9c0.4,4.1,6,8.4,12.7,6.8L1283.1,923.9z"/>
		<polygon class="st7" points="1282.3,922.4 1283.1,923.9 1283.1,926.2 1171,925.6 1172.3,922.4 		"/>
	</g>
	<path class="st1" d="M516.5,928h868c8.8,0,16,7.2,16,16v10.7c0,8.8-7.2,16-16,16h-868c-8.8,0-16-7.2-16-16V944
		C500.5,935.2,507.7,928,516.5,928z"/>
	
		<image style="overflow:visible;" width="934" height="329" xlink:href="../images/bord.png"  transform="matrix(-0.4022 0 0 -0.4022 1140.7926 962.5813)">
	</image>
	<g id="vork_x5F_avocado">
		
			<image style="overflow:visible;" width="322" height="456" xlink:href="../images/avocado.png"  transform="matrix(-1.686887e-07 -0.5492 0.5492 -1.686887e-07 836.6301 936.8898)">
		</image>
		<path id="vork" class="st7" d="M1072.7,807.8c13.5,14.9,30.6,26,49.7,32.3c8.1,16.1,16.2,32.1,24.3,48.2c0.2-1,1.7-9.3,9.5-13.5
			c4.4-2.3,9.5-2.7,14.2-1.3c-15.1-15.9-20.2-30.2-22-40.5c-1.3-7.6-0.7-12.4-1.5-37c-0.4-11.7-0.8-21.3-1.1-27.5
			c-6.5-13.9-12.7-25.1-17.4-33.2c-11.6-19.9-16.2-24.3-21.3-24.2c-4.6,0-9.8,3.8-10.6,8c-0.7,3.5,1.7,6.5,4,9.7
			c0,0,9.2,12.5,21.6,36.9c1.2,2.4,2.9,5.8,4.7,10.2c0,0.5,0,4.4-3,6.7s-7.9,1.9-11.3-1.4c-11.7-23-21.1-40.5-26-48.9
			c-1-1.7-3.1-5.3-7-6.3c-4.2-1.1-9.7,1.1-11,4.7c-1.1,3,0.8,6.3,1.5,7.4c4.6,7.8,14.3,26.8,27.4,53c0.2,2.2-0.6,4.3-2,5.9
			c-2.5,2.6-7.2,2.9-11,0.4c-12.3-19.2-20.8-33.3-26-43.2c-1.3-2.5-4-8-8.8-8.6c-3.7-0.5-8.2,2-9.4,5.5c-1.1,3.2,0.9,6.5,1.8,8
			C1046.6,766.4,1057.6,784.2,1072.7,807.8z"/>
	</g>
</g>
<g id="avocado_bord">
</g>
<g id="tekst-keerzijde">
</g>
<circle class="st0" cx="1011.4" cy="515.8" r="6.5"/>
<circle class="st0" cx="889.6" cy="515.8" r="6.5"/>
</svg>
