<svg xmlns="http://www.w3.org/2000/svg" xmlns:xlink="http://www.w3.org/1999/xlink" viewBox="0 0 1916.27 1080.84"><defs><style>.cls-1,.cls-10,.cls-12{fill:#03392b;}.cls-2,.cls-7{fill:#e6e6a9;}.cls-2,.cls-3,.cls-4,.cls-5,.cls-9{stroke:#e7e7a9;}.cls-2,.cls-6{stroke-miterlimit:10;stroke-width:2.14px;}.cls-3,.cls-6,.cls-8{fill:#fff;}.cls-13,.cls-3,.cls-4,.cls-5,.cls-8,.cls-9{stroke-linecap:round;stroke-linejoin:round;}.cls-3,.cls-4{stroke-width:12.82px;}.cls-4,.cls-5,.cls-9{fill:none;}.cls-5{stroke-width:12.49px;}.cls-6,.cls-8{stroke:#fff;}.cls-8{stroke-width:1.77px;}.cls-9{stroke-width:10px;}.cls-10{font-size:60px;font-family:Poppins-Bold, Poppins;font-weight:700;}.cls-11,.cls-13{fill:#e7e7aa;}.cls-12{font-size:25.21px;font-family:Poppins-Regular, Poppins;}.cls-13{stroke:#e7e7aa;stroke-width:0.5px;}.cls-14{font-size:24px;font-family:Poppins-Medium, Poppins;font-weight:500;}.cls-14,.cls-15{fill:#043a2b;}</style></defs><g id="background"><path id="Path_81" data-name="Path 81" class="cls-1" d="M1920,1080s-735.7-113-916.21-629.42C880.1,96.71,3.73-.84,3.73-.84H1920Z" transform="translate(-3.73 0.84)"/></g><g id="persoon"><path id="_haar_" data-name="&lt;haar&gt;" class="cls-2" d="M824.37,393.67l-46,3c-12.41-6.18-19.47-18.31-17.83-29.71,1.27-8.88,7.42-14.48,9.65-16.34a30.32,30.32,0,0,1,6-53.48c-9-4.85-14.54-13.86-14.12-23,.58-12.31,11.95-23.4,26.74-23.77-8.17-11.87-7.38-27.58,1.49-37.88,10-11.6,28.17-13.89,41.6-4.45-.44-2.71-2-14.25,5.2-23,8.74-10.66,27.11-13.21,43.08-3.71.57-2.5,2.66-10.08,9.65-14.86,8.65-5.91,21.24-5.15,31.2,2.23A24.86,24.86,0,0,1,943.21,156c13.6.41,20.44,12,20.8,12.63,4.66-9.2,13.51-15.33,23-15.6,12.77-.37,25,9.84,27.48,24.51,1-.84,12-9.67,25.26-5.94,11.62,3.27,20,14.78,20,28.23,15.42-4.42,31.23.5,39.37,11.88,7.47,10.43,5.7,22.38,5.2,25.25,2,.61,17.91,5.68,24.51,22.29,5.8,14.57.23,27.42-.8,29.71,1.28.73,17.5,10.32,18.63,29,.79,13-6.31,22.24-8.17,24.51,1.21,1.2,11.9,12.19,9.65,28.23-2.53,18.14-19.22,25.61-20.11,26l-43.37-8.95Z" transform="translate(-3.73 0.84)"/><path id="_gezicht_" data-name="&lt;gezicht&gt;" class="cls-3" d="M799.05,473.3c11.76,17.94,29.68,24.38,36.35,26.4,13.36,64.52,72,108.6,133.85,103.84,55.22-4.25,102.6-46.64,114.07-103.84,6.35-2.27,28.64-11.15,40.28-34.66,3.57-7.21,15.48-31.28,2.33-50.56-11.74-17.2-34.58-17.63-37.33-17.64a50.48,50.48,0,0,0-1.52-23.45c-16.79-52-122.13-53.72-126.79-53.75-51.64-.34-125.87,17.58-134.37,56.51a38.4,38.4,0,0,0,.25,16.73c-5.45,1.09-20.94,4.95-30.73,18.69C781.11,431.69,789.33,458.48,799.05,473.3Z" transform="translate(-3.73 0.84)"/><g id="_Groep_bril_" data-name="&lt;Groep bril&gt;"><rect class="cls-4" x="844.1" y="413.41" width="90.79" height="59.81" rx="6.04"/><rect class="cls-4" x="974.05" y="410.83" width="90.79" height="59.81" rx="6.04"/><line class="cls-5" x1="934.89" y1="440.74" x2="972.84" y2="440.74"/></g><path class="cls-2" d="M599.37,924.41a935.88,935.88,0,0,1,90.12-238.23A290,290,0,0,1,846.11,579.11c4,5,48.92,58.86,120.86,53.54,59.68-4.42,94.18-46.36,99.89-53.54a269.74,269.74,0,0,1,158.86,112.43,915.82,915.82,0,0,1,88.33,232.87Z" transform="translate(-3.73 0.84)"/><path class="cls-6" d="M620.14,924.18a268.91,268.91,0,0,1,22.67-33.69c9.19-11.61,14.47-18.16,24.11-24.35,5.69-3.66,11.73-5.93,23.81-10.47,19.75-7.42,22.78-5.79,24-4.59,2.82,2.83,1.19,9.14-.29,12.53-3.76,8.65-11.86,10.63-25.11,19.08a141.7,141.7,0,0,0-18.07,13.69c8-1.28,19.66-3.43,33.54-7.08,20.91-5.49,29.58-9.82,36.18-4.92,4.67,3.47,7.84,11.22,5.08,17.5s-10.32,8-11.29,8.19c6.35.3,10.5,5.23,10.16,9-.36,4.06-6,8.42-12.7,6.78Z" transform="translate(-3.73 0.84)"/><path class="cls-6" d="M1286.82,922.05a267.42,267.42,0,0,0-22.67-33.69C1255,876.75,1249.68,870.19,1240,864c-5.69-3.66-11.73-5.93-23.81-10.47-19.75-7.41-22.78-5.79-24-4.59-2.82,2.84-1.18,9.14.29,12.53,3.76,8.65,11.86,10.63,25.12,19.08a143.43,143.43,0,0,1,18.06,13.69c-8-1.28-19.66-3.43-33.54-7.07-20.91-5.49-29.58-9.83-36.18-4.92-4.67,3.47-7.84,11.22-5.08,17.5s10.32,8,11.29,8.18c-6.35.3-10.5,5.23-10.16,9,.37,4.06,6,8.42,12.7,6.78Z" transform="translate(-3.73 0.84)"/><rect class="cls-7" x="502.68" y="924.94" width="899.96" height="42.71"/><path class="cls-8" d="M1076.4,806a115.63,115.63,0,0,0,49.74,32.27q12.13,24.08,24.29,48.15c.16-1,1.65-9.31,9.52-13.54a19,19,0,0,1,14.2-1.33c-15.09-15.91-20.22-30.15-22-40.45-1.34-7.58-.73-12.41-1.5-37-.37-11.74-.8-21.33-1.11-27.55-6.54-13.86-12.68-25.07-17.39-33.18-11.55-19.91-16.22-24.31-21.29-24.25-4.63.05-9.77,3.82-10.61,8.05-.71,3.51,1.69,6.54,4,9.7,0,0,9.19,12.46,21.56,36.91,1.22,2.39,2.89,5.85,4.69,10.15,0,.5,0,4.43-3,6.67s-7.9,1.91-11.3-1.38c-11.71-23-21.11-40.52-26-48.88-1-1.68-3.13-5.28-7-6.29-4.22-1.1-9.69,1.08-11,4.66-1.13,3,.85,6.27,1.54,7.44,4.61,7.79,14.29,26.8,27.42,53a8.09,8.09,0,0,1-2,5.92c-2.54,2.56-7.17,2.91-11,.42-12.33-19.2-20.82-33.27-26-43.24-1.26-2.46-4-8-8.78-8.63-3.72-.52-8.2,2-9.37,5.49-1.09,3.21.87,6.55,1.78,8C1050.28,764.56,1061.31,782.37,1076.4,806Z" transform="translate(-3.73 0.84)"/><path class="cls-8" d="M726.42,875.24c5.89-1.28,14.13-2,20,2.54,7.53,5.93,6.7,17.46,9.28,17.45s3.73-10.76,7.62-24.72a188.32,188.32,0,0,1,7.7-22.16l13.32,8.74c5.25-6.73,41.44-53.54,51.2-86.91,3.85-13.14,2.76-21.32.8-27.11-3.44-10.2-10.75-16.51-14.95-19.59Z" transform="translate(-3.73 0.84)"/><path id="mond" class="cls-9" d="M1015.11,514a103.47,103.47,0,0,1-121.76,0" transform="translate(-3.73 0.84)"/></g><g id="avocado_bord" data-name="avocado bord"><image id="bord" width="934" height="329" transform="translate(1174.59 1035.76) rotate(180) scale(0.48)" xlink:href="../weg-projectinformation/bord.png"/><image width="322" height="456" transform="translate(836.63 731.41) rotate(-6.87) scale(0.65)" xlink:href="../weg-projectinformation/MicrosoftTeams-image%20(3).png"/></g><g id="titel"><text class="cls-10" transform="translate(38.67 498.87)">Nu wil je vast een <tspan x="0" y="72">avocado gaan eten?</tspan></text></g><g id="tekst-keerzijde"><text x="-3.73" y="0.84"/></g><g id="tekst-keerzijde-info"><g id="_Groep_" data-name="&lt;Groep &gt;"><rect class="cls-11" x="1235.27" y="320.28" width="505" height="98.57" rx="9.74"/><text class="cls-12" transform="translate(1312.6 364.53)">Waar moet je aan denken als <tspan x="57.39" y="30.26">je een avocado eet?</tspan></text></g><polygon id="_" data-name="&lt;&gt;" class="cls-13" points="1251.74 404.03 1258.83 446.75 1292.28 419.25 1251.74 404.03"/><g id="hand"><g id="invisible_box" data-name="invisible box"><text class="cls-14" transform="translate(965.09 542.25)"> </text></g><g id="icons_Q2" data-name="icons Q2"><path id="Path_293" data-name="Path 293" class="cls-15" d="M971.23,547.38a6,6,0,0,0-2.81,1.91,6.15,6.15,0,0,0-6,.14l-1.29,1a6,6,0,0,0-6.9-.66l-1.09.63-2.39-4.13a6.28,6.28,0,0,0-8.5-2.58,7.37,7.37,0,0,0-1,.67,6.41,6.41,0,0,0-1.21,8l9.29,16.1-4.11-1.1a6.11,6.11,0,0,0-4.75.57,5.76,5.76,0,0,0-2.76,3.76,5.19,5.19,0,0,0,.47,4.08,10,10,0,0,0,3.93,3.54c2.68,1.64,18.54,10.76,23.25,13.4a2.38,2.38,0,0,0,2.48,0l20.45-11.81A2.49,2.49,0,0,0,989.5,578l-4.59-16.5a1.55,1.55,0,0,0-.27-.71l-6-10.34A6.53,6.53,0,0,0,971.23,547.38Zm13,30-17.72,10.24c-5.77-3.2-19.53-11.21-22-12.69-.23-.16-2.33-1.27-2.14-2l.57-.76a1.42,1.42,0,0,1,.95-.12L954,575a2.52,2.52,0,0,0,2.93-2,2.56,2.56,0,0,0-.22-1.59l-12.5-21.64a1.26,1.26,0,1,1,2.18-1.26l8.79,15.23a2.38,2.38,0,0,0,3.21,1l.11-.06h0a2.51,2.51,0,0,0,.92-3.43l-3.14-5.44a1.19,1.19,0,0,1,2-1.29l.06.1,3.76,6.52a2.5,2.5,0,0,0,3.43.92h0a2.5,2.5,0,0,0,.92-3.43l-1.88-3.26a1.2,1.2,0,0,1,2-1.38,1.18,1.18,0,0,1,.11.19l3.14,5.43a2.5,2.5,0,0,0,3.43.92h0a2.39,2.39,0,0,0,.88-3.26.41.41,0,0,1-.07-.11L972.14,554a1.24,1.24,0,0,1,.45-1.71,1.26,1.26,0,0,1,1.72.46l6,10.33a1.65,1.65,0,0,1,.26.71Z" transform="translate(-3.73 0.84)"/></g></g></g></svg>