<svg xmlns="http://www.w3.org/2000/svg" xmlns:xlink="http://www.w3.org/1999/xlink" viewBox="0 0 1920 1080"><defs><style>.cls-1,.cls-6{fill:#e6e6a9;}.cls-2,.cls-20,.cls-21,.cls-22,.cls-23,.cls-24,.cls-25,.cls-26,.cls-27,.cls-28,.cls-29,.cls-3,.cls-7{fill:none;}.cls-15,.cls-17,.cls-2,.cls-3,.cls-5,.cls-7{stroke:#03392b;}.cls-15,.cls-17,.cls-2,.cls-20,.cls-21,.cls-22,.cls-23,.cls-24,.cls-25,.cls-26,.cls-27,.cls-28,.cls-29{stroke-linecap:round;stroke-linejoin:round;}.cls-15,.cls-2,.cls-3{stroke-width:6px;}.cls-3,.cls-5,.cls-7{stroke-miterlimit:10;}.cls-4,.cls-6{font-size:48px;}.cls-10,.cls-11,.cls-13,.cls-30,.cls-4,.cls-5,.cls-8,.cls-9{fill:#03392b;}.cls-10,.cls-14,.cls-30,.cls-4,.cls-6,.cls-8{font-family:Poppins-Bold, Poppins;font-weight:700;}.cls-5{stroke-width:1.64px;}.cls-7{stroke-width:6.43px;}.cls-18,.cls-8{font-size:36px;}.cls-10,.cls-13,.cls-16{font-size:21px;}.cls-11,.cls-14{font-size:24px;}.cls-11{font-family:Poppins-Medium, Poppins;font-weight:500;}.cls-12{fill:#ff6f64;opacity:0.73;}.cls-13{font-family:Poppins-Regular, Poppins;}.cls-15,.cls-17{fill:#1a9ae2;}.cls-16,.cls-18{fill:#fff;font-family:Poppins-SemiBold, Poppins;font-weight:600;}.cls-17{stroke-width:9.4px;}.cls-19{fill:#754c24;}.cls-20,.cls-22,.cls-27{stroke:#bf8251;}.cls-20{stroke-width:0.75px;}.cls-21{stroke:url(#Naamloos_verloop_16);}.cls-22{stroke-width:1.03px;}.cls-23,.cls-24,.cls-26{stroke-width:1.38px;}.cls-23{stroke:url(#Naamloos_verloop_16-2);}.cls-24{stroke:url(#Naamloos_verloop_16-3);}.cls-25{stroke:url(#Naamloos_verloop_16-4);}.cls-26{stroke:url(#Naamloos_verloop_16-5);}.cls-27{stroke-width:0.54px;}.cls-28,.cls-29{stroke-width:0.72px;}.cls-28{stroke:url(#Naamloos_verloop_16-6);}.cls-29{stroke:url(#Naamloos_verloop_16-7);}.cls-30{font-size:60px;}</style><radialGradient id="Naamloos_verloop_16" cx="1104.52" cy="786.97" r="25.41" gradientUnits="userSpaceOnUse"><stop offset="0" stop-color="#754c24"/><stop offset="1" stop-color="#c69c6d"/></radialGradient><radialGradient id="Naamloos_verloop_16-2" cx="915.63" cy="627.8" r="34.95" gradientTransform="matrix(0.92, 0.39, -0.39, 0.92, 369.07, -390.5)" xlink:href="#Naamloos_verloop_16"/><radialGradient id="Naamloos_verloop_16-3" cx="933.03" cy="1047.31" r="34.95" gradientTransform="translate(-313.36 1473.01) rotate(-72.93)" xlink:href="#Naamloos_verloop_16"/><radialGradient id="Naamloos_verloop_16-4" cx="953.01" cy="690.18" r="25.41" gradientTransform="translate(-166.45 1413.31) rotate(-67.55)" xlink:href="#Naamloos_verloop_16"/><radialGradient id="Naamloos_verloop_16-5" cx="1039.99" cy="1132.42" r="34.95" gradientTransform="translate(-175.24 -108.3) rotate(-7.67)" xlink:href="#Naamloos_verloop_16"/><radialGradient id="Naamloos_verloop_16-6" cx="1050.33" cy="877.57" r="18.22" gradientTransform="translate(354.22 -296.83) rotate(19.4)" xlink:href="#Naamloos_verloop_16"/><radialGradient id="Naamloos_verloop_16-7" cx="1051.66" cy="916.06" r="18.22" gradientTransform="translate(1567.7 -329.26) rotate(77.01)" xlink:href="#Naamloos_verloop_16"/></defs><g id="achtergrond"><rect class="cls-1" width="1920" height="1080"/></g><g id="arrow"><g id="_Groep_arrow_" data-name="&lt;Groep arrow&gt;"><path class="cls-2" d="M1102,628c19.3,6.52,47.78,12.66,78,4,45.29-13,55.82-48.11,91.46-58.38,23.66-6.81,60.8-3.37,118.68,45.23"/><line class="cls-2" x1="1395.27" y1="621.7" x2="1353.28" y2="630.48"/><line class="cls-2" x1="1395.27" y1="621.7" x2="1380.99" y2="581.24"/></g><g id="_Groep_arrow_2" data-name="&lt;Groep arrow&gt;"><path class="cls-2" d="M1116,741c12.43-9.1,34.09-22.23,62-24,62-3.92,90.94,52.2,152,59.27,25.48,3,65.19-1.66,118.73-45.08"/><line class="cls-2" x1="1448.7" y1="731.19" x2="1440.03" y2="773.2"/><line class="cls-2" x1="1448.7" y1="731.19" x2="1405.91" y2="728.17"/></g><g id="_Groep_arrow_3" data-name="&lt;Groep arrow&gt;"><path class="cls-2" d="M1024,920c32.9,46.1,58.28,55.15,76,54,34.18-2.23,43.06-42.66,87-49,31.16-4.5,41.18,13.75,75,13,34.59-.76,64.32-20.74,88.3-44.9"/><line class="cls-2" x1="1350.3" y1="893.1" x2="1349.58" y2="935.99"/><line class="cls-2" x1="1350.3" y1="893.1" x2="1307.68" y2="898.08"/></g><g id="_Groep_arrow_4" data-name="&lt;Groep arrow&gt;"><path class="cls-2" d="M974.82,443.07c-.49-11.75.91-27.49,11.23-38.67,19.69-21.3,57.74-10.78,112.26-6.43a623,623,0,0,0,120.14-2.23"/><line class="cls-2" x1="1223.03" y1="394.81" x2="1195.07" y2="427.36"/><line class="cls-2" x1="1223.03" y1="394.81" x2="1187.06" y2="371.43"/></g></g><g id="alternatief_optie_bnt" data-name="alternatief optie bnt"><g id="alternatief"><rect class="cls-3" x="58" y="161" width="872" height="112"/><text class="cls-4" transform="translate(218.14 233.44)">Avocado Alternatief</text></g><g id="avocado_goed_houdend" data-name="avocado goed houdend"><rect class="cls-5" x="990" y="161" width="872" height="112"/><text class="cls-6" transform="translate(1300.26 229.31)">Avocado tips</text></g><rect id="content_alternatief" data-name="content alternatief" class="cls-7" x="60" y="317" width="1804" height="713"/><text class="cls-8" transform="translate(87.42 373.03)">Pindakaas</text><path class="cls-9" d="M93.52,407.32v6.51H89.93V399.09h3.59v6.47l4.92-6.47h4.22L97,406.32l5.92,7.51H98.48Z"/><path class="cls-9" d="M104.23,399a2.15,2.15,0,1,1,2.15,1.93A2,2,0,0,1,104.23,399Zm.34,3.15h3.59v11.71h-3.59Z"/><path class="cls-9" d="M116,414A6,6,0,0,1,116,402a5.52,5.52,0,0,1,5.84,5.84,9.65,9.65,0,0,1-.06,1h-8.13a2.17,2.17,0,0,0,2.23,2.24,1.92,1.92,0,0,0,1.87-1.13h3.82A5.48,5.48,0,0,1,116,414Zm-2.33-7.16h4.5a2,2,0,0,0-2.21-2A2.22,2.22,0,0,0,113.64,406.84Z"/><path class="cls-9" d="M128.47,414c-3.13,0-5.23-1.74-5.4-4h3.55a1.65,1.65,0,0,0,1.81,1.37c.92,0,1.4-.42,1.4-.95,0-1.89-6.38-.52-6.38-4.83,0-2,1.7-3.63,4.77-3.63s4.7,1.68,4.93,4h-3.32a1.53,1.53,0,0,0-1.72-1.32c-.84,0-1.3.33-1.3.9,0,1.87,6.34.54,6.4,4.91C133.21,412.47,131.41,414,128.47,414Z"/><path class="cls-9" d="M142.6,402.12l2.54,8.35,2.54-8.35h3.82l-4.15,11.71h-4.43l-4.16-11.71Z"/><path class="cls-9" d="M158.35,414a6,6,0,1,1,6.13-6A5.81,5.81,0,0,1,158.35,414Zm0-3.11c1.28,0,2.48-.94,2.48-2.91s-1.18-2.92-2.44-2.92S156,406,156,408,157.05,410.89,158.35,410.89Z"/><path class="cls-9" d="M171.73,414a6,6,0,1,1,6.13-6A5.81,5.81,0,0,1,171.73,414Zm0-3.11c1.28,0,2.47-.94,2.47-2.91s-1.17-2.92-2.43-2.92-2.44.92-2.44,2.92S170.43,410.89,171.73,410.89Z"/><path class="cls-9" d="M183.36,413.83h-3.59V402.12h3.59v1.95A4.37,4.37,0,0,1,187,402v3.8h-1c-1.7,0-2.69.59-2.69,2.61Z"/><path class="cls-9" d="M194.55,401.84h-2.07v-3.33h5.81v15.32h-3.74Z"/><path class="cls-9" d="M206.65,398.19c4.37,0,5.9,3.28,5.9,7.77s-1.53,7.81-5.9,7.81-5.9-3.28-5.9-7.81S202.28,398.19,206.65,398.19Zm0,3.36c-2.12,0-2.37,2.06-2.37,4.41s.25,4.45,2.37,4.45,2.37-2,2.37-4.45S208.77,401.55,206.65,401.55Z"/><path class="cls-9" d="M220.34,398.19c4.37,0,5.9,3.28,5.9,7.77s-1.53,7.81-5.9,7.81-5.9-3.28-5.9-7.81S216,398.19,220.34,398.19Zm0,3.36c-2.12,0-2.37,2.06-2.37,4.41s.25,4.45,2.37,4.45,2.37-2,2.37-4.45S222.46,401.55,220.34,401.55Z"/><path class="cls-9" d="M231.35,398.82a3.55,3.55,0,1,1-3.51,3.55A3.27,3.27,0,0,1,231.35,398.82Zm-1,3.55c0,1,.37,1.43,1,1.43s1-.44,1-1.43-.4-1.45-1-1.45S230.32,401.36,230.32,402.37Zm8.31-3.32h3.47L234,413.83h-3.46Zm2.69,7.92a3.55,3.55,0,1,1-3.49,3.55A3.25,3.25,0,0,1,241.32,407Zm-1,3.55c0,1,.38,1.42,1,1.42s1-.44,1-1.42-.4-1.45-1-1.45S240.29,409.53,240.29,410.52Z"/><path class="cls-9" d="M258.41,402c2.88,0,5.17,2.31,5.17,6s-2.29,6.05-5.17,6.05a4.23,4.23,0,0,1-3.61-1.8v7.22h-3.59v-17.3h3.59v1.66A4.13,4.13,0,0,1,258.41,402Zm-1.07,3.13a2.91,2.91,0,1,0,2.59,2.87A2.63,2.63,0,0,0,257.34,405.08Z"/><path class="cls-9" d="M265.13,399a2.15,2.15,0,1,1,2.15,1.93A2,2,0,0,1,265.13,399Zm.34,3.15h3.59v11.71h-3.59Z"/><path class="cls-9" d="M279.75,407.47a2.26,2.26,0,1,0-4.49,0v6.36h-3.59V402.12h3.59v1.55A4.27,4.27,0,0,1,278.8,402c2.71,0,4.52,1.85,4.52,5v6.84h-3.57Z"/><path class="cls-9" d="M290.27,402a4.3,4.3,0,0,1,3.61,1.78V398.3h3.59v15.53h-3.59v-1.68a4.05,4.05,0,0,1-3.61,1.85c-2.88,0-5.16-2.35-5.16-6.05S287.39,402,290.27,402Zm1.05,3.13a2.61,2.61,0,0,0-2.56,2.87,2.65,2.65,0,0,0,2.56,2.92,2.92,2.92,0,0,0,0-5.79Z"/><path class="cls-9" d="M304.53,402a4.08,4.08,0,0,1,3.61,1.83v-1.66h3.59v11.71h-3.59v-1.66a4.14,4.14,0,0,1-3.63,1.83c-2.86,0-5.15-2.35-5.15-6.05S301.65,402,304.53,402Zm1.05,3.13A2.61,2.61,0,0,0,303,408a2.65,2.65,0,0,0,2.56,2.92,2.92,2.92,0,0,0,0-5.79Z"/><path class="cls-9" d="M314.34,398.3h3.59v8.58l3.55-4.76h4.43L321,408l4.92,5.83H321.5l-3.57-4.91v4.91h-3.59Z"/><path class="cls-9" d="M331.77,402a4.08,4.08,0,0,1,3.61,1.83v-1.66H339v11.71h-3.59v-1.66a4.14,4.14,0,0,1-3.63,1.83c-2.86,0-5.15-2.35-5.15-6.05S328.89,402,331.77,402Zm1.05,3.13a2.61,2.61,0,0,0-2.57,2.87,2.65,2.65,0,0,0,2.57,2.92,2.92,2.92,0,0,0,0-5.79Z"/><path class="cls-9" d="M346,402a4.08,4.08,0,0,1,3.62,1.83v-1.66h3.59v11.71h-3.59v-1.66A4.15,4.15,0,0,1,346,414c-2.85,0-5.14-2.35-5.14-6.05S343.15,402,346,402Zm1.05,3.13a2.61,2.61,0,0,0-2.56,2.87,2.65,2.65,0,0,0,2.56,2.92,2.92,2.92,0,0,0,0-5.79Z"/><path class="cls-9" d="M360.6,414c-3.13,0-5.23-1.74-5.4-4h3.55a1.65,1.65,0,0,0,1.81,1.37c.92,0,1.4-.42,1.4-.95,0-1.89-6.38-.52-6.38-4.83,0-2,1.7-3.63,4.77-3.63s4.7,1.68,4.93,4H362a1.53,1.53,0,0,0-1.72-1.32c-.84,0-1.3.33-1.3.9,0,1.87,6.34.54,6.4,4.91C365.34,412.47,363.54,414,360.6,414Z"/><path class="cls-9" d="M369.23,414a2,2,0,1,1,2.12-1.93A2,2,0,0,1,369.23,414Z"/><path class="cls-9" d="M387.1,407.77h-5.59v6.06h-3.59V399.09h3.59v5.78h5.59v-5.78h3.59v14.74H387.1Z"/><path class="cls-9" d="M392.94,399a2.14,2.14,0,1,1,2.14,1.93A2,2,0,0,1,392.94,399Zm.33,3.15h3.59v11.71h-3.59Z"/><path class="cls-9" d="M404.68,414a6,6,0,0,1,0-12.05,5.52,5.52,0,0,1,5.83,5.84,9.65,9.65,0,0,1-.06,1h-8.13a2.18,2.18,0,0,0,2.23,2.24,1.91,1.91,0,0,0,1.87-1.13h3.82A5.48,5.48,0,0,1,404.68,414Zm-2.33-7.16h4.49a2,2,0,0,0-2.21-2A2.21,2.21,0,0,0,402.35,406.84Z"/><path class="cls-9" d="M416,413.83h-3.59V402.12H416v1.95a4.35,4.35,0,0,1,3.67-2.08v3.8h-1c-1.7,0-2.68.59-2.68,2.61Z"/><path class="cls-9" d="M434.18,405l-5,5.9h5.09v3h-9.1V411l4.87-5.9h-4.82v-3h8.94Z"/><path class="cls-9" d="M435.92,399a2.15,2.15,0,1,1,2.15,1.93A2,2,0,0,1,435.92,399Zm.34,3.15h3.59v11.71h-3.59Z"/><path class="cls-9" d="M443,405.1h-1.43v-3H443v-2.86h3.59v2.86H449v3h-2.35v4.7c0,.69.3,1,1.09,1H449v3h-1.82c-2.44,0-4.14-1-4.14-4.07Z"/><path class="cls-9" d="M451.55,405.1h-1.43v-3h1.43v-2.86h3.59v2.86h2.35v3h-2.35v4.7c0,.69.29,1,1.09,1h1.28v3h-1.83c-2.43,0-4.13-1-4.13-4.07Z"/><path class="cls-9" d="M464.71,414a6,6,0,0,1,0-12.05,5.52,5.52,0,0,1,5.84,5.84,9.65,9.65,0,0,1-.06,1h-8.13a2.17,2.17,0,0,0,2.23,2.24,1.91,1.91,0,0,0,1.87-1.13h3.82A5.48,5.48,0,0,1,464.71,414Zm-2.33-7.16h4.5a2,2,0,0,0-2.21-2A2.22,2.22,0,0,0,462.38,406.84Z"/><path class="cls-9" d="M480.53,407.47a2.26,2.26,0,1,0-4.5,0v6.36h-3.59V402.12H476v1.55a4.31,4.31,0,0,1,3.55-1.68c2.71,0,4.52,1.85,4.52,5v6.84h-3.57Z"/><path class="cls-9" d="M493.78,402.12l2.54,8.35,2.54-8.35h3.82l-4.16,11.71h-4.43l-4.15-11.71Z"/><path class="cls-9" d="M508.65,402a4.08,4.08,0,0,1,3.61,1.83v-1.66h3.59v11.71h-3.59v-1.66a4.15,4.15,0,0,1-3.64,1.83c-2.85,0-5.14-2.35-5.14-6.05S505.77,402,508.65,402Zm1.05,3.13a2.61,2.61,0,0,0-2.57,2.87,2.65,2.65,0,0,0,2.57,2.92,2.92,2.92,0,0,0,0-5.79Z"/><path class="cls-9" d="M522.9,402a4.08,4.08,0,0,1,3.62,1.83v-1.66h3.59v11.71h-3.59v-1.66a4.16,4.16,0,0,1-3.64,1.83c-2.85,0-5.14-2.35-5.14-6.05S520,402,522.9,402Zm1.05,3.13a2.61,2.61,0,0,0-2.56,2.87,2.65,2.65,0,0,0,2.56,2.92,2.92,2.92,0,0,0,0-5.79Z"/><path class="cls-9" d="M532.71,398.3h3.59v8.58l3.55-4.76h4.43L539.41,408l4.91,5.83h-4.45l-3.57-4.91v4.91h-3.59Z"/><path class="cls-9" d="M554.59,402a4.06,4.06,0,0,1,3.61,1.83v-1.66h3.59v11.69c0,3.13-1.8,5.8-5.85,5.8-3.49,0-5.76-1.77-6.07-4.56h3.55a2.21,2.21,0,0,0,2.35,1.45c1.36,0,2.43-.71,2.43-2.69v-1.66a4.14,4.14,0,0,1-3.61,1.85c-2.87,0-5.16-2.35-5.16-6.05S551.72,402,554.59,402Zm1,3.13a2.61,2.61,0,0,0-2.56,2.87,2.65,2.65,0,0,0,2.56,2.92,2.92,2.92,0,0,0,0-5.79Z"/><path class="cls-9" d="M569.61,414a6,6,0,0,1,0-12.05,5.52,5.52,0,0,1,5.83,5.84,9.65,9.65,0,0,1-.06,1h-8.12a2.16,2.16,0,0,0,2.22,2.24,1.9,1.9,0,0,0,1.87-1.13h3.82A5.47,5.47,0,0,1,569.61,414Zm-2.33-7.16h4.49a2,2,0,0,0-2.2-2A2.22,2.22,0,0,0,567.28,406.84Z"/><path class="cls-9" d="M582.54,414a6,6,0,0,1,0-12.05,5.52,5.52,0,0,1,5.84,5.84,9.65,9.65,0,0,1-.06,1h-8.13a2.17,2.17,0,0,0,2.23,2.24,1.91,1.91,0,0,0,1.87-1.13h3.82A5.48,5.48,0,0,1,582.54,414Zm-2.33-7.16h4.5a2,2,0,0,0-2.21-2A2.22,2.22,0,0,0,580.21,406.84Z"/><path class="cls-9" d="M598.36,407.47a2.26,2.26,0,1,0-4.5,0v6.36h-3.59V402.12h3.59v1.55a4.31,4.31,0,0,1,3.55-1.68c2.71,0,4.52,1.85,4.52,5v6.84h-3.57Z"/><path class="cls-9" d="M94.7,439.2c-3.13,0-5.23-1.74-5.4-4h3.55a1.65,1.65,0,0,0,1.81,1.37c.92,0,1.4-.42,1.4-.95,0-1.89-6.38-.52-6.38-4.83,0-2,1.7-3.63,4.77-3.63s4.7,1.68,4.93,4H96.06a1.53,1.53,0,0,0-1.72-1.32c-.84,0-1.3.33-1.3.9,0,1.87,6.34.54,6.41,4.91C99.45,437.67,97.64,439.2,94.7,439.2Z"/><path class="cls-9" d="M113.22,439h-3.59v-1.59a4.25,4.25,0,0,1-3.55,1.72c-2.71,0-4.53-1.87-4.53-5v-6.84h3.57v6.36a2.27,2.27,0,1,0,4.51,0v-6.36h3.59Z"/><path class="cls-9" d="M115.47,424.17a2.14,2.14,0,1,1,2.14,1.93A2,2,0,0,1,115.47,424.17Zm.34,3.15h3.59V439h-3.59Z"/><path class="cls-9" d="M122,423.5h3.59v8.58l3.55-4.76h4.43l-4.87,5.88,4.91,5.83h-4.45l-3.57-4.91V439H122Z"/><path class="cls-9" d="M140.19,439.2a6,6,0,0,1,0-12.05A5.52,5.52,0,0,1,146,433,9.65,9.65,0,0,1,146,434h-8.13a2.17,2.17,0,0,0,2.23,2.24,1.91,1.91,0,0,0,1.87-1.13h3.82A5.48,5.48,0,0,1,140.19,439.2ZM137.85,432h4.5a2,2,0,0,0-2.21-2A2.22,2.22,0,0,0,137.85,432Z"/><path class="cls-9" d="M151.5,439h-3.59V427.32h3.59v1.95a4.37,4.37,0,0,1,3.68-2.08V431h-1c-1.7,0-2.69.59-2.69,2.61Z"/><path class="cls-9" d="M157.34,435.4H161l-2.67,6.8H156Z"/><path class="cls-9" d="M175.78,430.17l-5,5.9h5.08v3h-9.09v-2.85l4.87-5.9h-4.83v-3h8.95Z"/><path class="cls-9" d="M183.19,439.2a6,6,0,1,1,6.13-6A5.81,5.81,0,0,1,183.19,439.2Zm0-3.11c1.28,0,2.48-.94,2.48-2.91s-1.18-2.92-2.44-2.92-2.43.92-2.43,2.92S181.89,436.09,183.19,436.09Z"/><path class="cls-9" d="M202.81,439h-3.6v-1.59a4.25,4.25,0,0,1-3.54,1.72c-2.71,0-4.54-1.87-4.54-5v-6.84h3.57v6.36a2.27,2.27,0,1,0,4.51,0v-6.36h3.6Z"/><path class="cls-9" d="M206,430.3h-1.43v-3H206v-2.86h3.59v2.86h2.35v3h-2.35V435c0,.69.29,1,1.09,1h1.28v3h-1.83c-2.43,0-4.13-1-4.13-4.07Z"/><path class="cls-9" d="M223.7,439.2a6,6,0,1,1,6.13-6A5.81,5.81,0,0,1,223.7,439.2Zm0-3.11c1.28,0,2.48-.94,2.48-2.91s-1.18-2.92-2.44-2.92-2.43.92-2.43,2.92S222.4,436.09,223.7,436.09Z"/><path class="cls-9" d="M232.1,430.3h-1.3v-3h1.3V427c0-3.06,1.89-4.58,5.46-4.39v3.05c-1.39-.09-1.87.33-1.87,1.57v.11h1.93v3h-1.93V439H232.1Z"/><path class="cls-9" d="M249.09,439.2a6,6,0,1,1,6.13-6A5.81,5.81,0,0,1,249.09,439.2Zm0-3.11c1.28,0,2.48-.94,2.48-2.91s-1.18-2.92-2.44-2.92-2.43.92-2.43,2.92S247.79,436.09,249.09,436.09Z"/><path class="cls-9" d="M257.13,423.5h3.59V439h-3.59Z"/><path class="cls-9" d="M263,424.17a2.14,2.14,0,1,1,2.14,1.93A2,2,0,0,1,263,424.17Zm.34,3.15h3.59V439h-3.59Z"/><path class="cls-9" d="M274.73,439.2a6,6,0,0,1,0-12.05,5.53,5.53,0,0,1,5.84,5.84,7.71,7.71,0,0,1-.07,1.05h-8.12a2.16,2.16,0,0,0,2.22,2.24,1.9,1.9,0,0,0,1.87-1.13h3.82A5.46,5.46,0,0,1,274.73,439.2ZM272.4,432h4.49a2,2,0,0,0-2.2-2A2.22,2.22,0,0,0,272.4,432Z"/><path class="cls-9" d="M291.36,427.15A4.08,4.08,0,0,1,295,429v-1.66h3.59V439H295v-1.66a4.14,4.14,0,0,1-3.63,1.83c-2.86,0-5.14-2.35-5.14-6.05S288.48,427.15,291.36,427.15Zm1.05,3.13a2.61,2.61,0,0,0-2.56,2.87,2.65,2.65,0,0,0,2.56,2.92,2.92,2.92,0,0,0,0-5.79Z"/><path class="cls-9" d="M305.62,427.15a4.08,4.08,0,0,1,3.61,1.83v-1.66h3.59V439h-3.59v-1.66a4.14,4.14,0,0,1-3.63,1.83c-2.86,0-5.14-2.35-5.14-6.05S302.74,427.15,305.62,427.15Zm1.05,3.13a2.61,2.61,0,0,0-2.56,2.87,2.65,2.65,0,0,0,2.56,2.92,2.92,2.92,0,0,0,0-5.79Z"/><path class="cls-9" d="M323.51,432.67a2.26,2.26,0,1,0-4.49,0V439h-3.59V427.32H319v1.55a4.28,4.28,0,0,1,3.55-1.68c2.7,0,4.51,1.85,4.51,5V439h-3.57Z"/><path class="cls-9" d="M334.6,430.3h-1.43v-3h1.43v-2.86h3.59v2.86h2.35v3h-2.35V435c0,.69.29,1,1.09,1h1.28v3h-1.82c-2.44,0-4.14-1-4.14-4.07Z"/><path class="cls-9" d="M347.89,439.2a6,6,0,1,1,6.13-6A5.81,5.81,0,0,1,347.89,439.2Zm0-3.11c1.28,0,2.48-.94,2.48-2.91s-1.18-2.92-2.44-2.92-2.43.92-2.43,2.92S346.59,436.09,347.89,436.09Z"/><path class="cls-9" d="M361.14,439.2a6,6,0,0,1,0-12.05A5.52,5.52,0,0,1,367,433a9.65,9.65,0,0,1-.06,1.05h-8.13a2.17,2.17,0,0,0,2.23,2.24,1.92,1.92,0,0,0,1.87-1.13h3.82A5.48,5.48,0,0,1,361.14,439.2ZM358.81,432h4.5a2,2,0,0,0-2.21-2A2.22,2.22,0,0,0,358.81,432Z"/><path class="cls-9" d="M373.32,427.15a4.06,4.06,0,0,1,3.61,1.83v-1.66h3.59V439c0,3.13-1.8,5.8-5.85,5.8-3.49,0-5.76-1.77-6.07-4.56h3.55a2.21,2.21,0,0,0,2.35,1.45c1.36,0,2.43-.71,2.43-2.69v-1.66a4.14,4.14,0,0,1-3.61,1.85c-2.87,0-5.16-2.35-5.16-6.05S370.45,427.15,373.32,427.15Zm1.05,3.13a2.61,2.61,0,0,0-2.56,2.87,2.65,2.65,0,0,0,2.56,2.92,2.92,2.92,0,0,0,0-5.79Z"/><path class="cls-9" d="M388.34,439.2a6,6,0,0,1,0-12.05,5.52,5.52,0,0,1,5.83,5.84,9.65,9.65,0,0,1-.06,1.05H386a2.16,2.16,0,0,0,2.22,2.24,1.9,1.9,0,0,0,1.87-1.13h3.82A5.47,5.47,0,0,1,388.34,439.2ZM386,432h4.49a2,2,0,0,0-2.2-2A2.22,2.22,0,0,0,386,432Z"/><path class="cls-9" d="M398.8,427.32l2.54,8.35,2.54-8.35h3.82L403.54,439h-4.43L395,427.32Z"/><path class="cls-9" d="M414.55,439.2a6,6,0,1,1,6.13-6A5.81,5.81,0,0,1,414.55,439.2Zm0-3.11c1.28,0,2.47-.94,2.47-2.91s-1.17-2.92-2.43-2.92-2.44.92-2.44,2.92S413.24,436.09,414.55,436.09Z"/><path class="cls-9" d="M427.8,439.2a6,6,0,0,1,0-12.05,5.52,5.52,0,0,1,5.83,5.84,9.65,9.65,0,0,1-.06,1.05h-8.12a2.16,2.16,0,0,0,2.22,2.24,1.9,1.9,0,0,0,1.87-1.13h3.82A5.47,5.47,0,0,1,427.8,439.2ZM425.47,432H430a2,2,0,0,0-2.21-2A2.21,2.21,0,0,0,425.47,432Z"/><path class="cls-9" d="M440,427.15a4.06,4.06,0,0,1,3.61,1.83v-1.66h3.59V439c0,3.13-1.81,5.8-5.86,5.8-3.48,0-5.75-1.77-6.07-4.56h3.55a2.21,2.21,0,0,0,2.35,1.45c1.37,0,2.44-.71,2.44-2.69v-1.66A4.14,4.14,0,0,1,440,439.2c-2.88,0-5.17-2.35-5.17-6.05S437.1,427.15,440,427.15Zm1,3.13a2.6,2.6,0,0,0-2.56,2.87,2.64,2.64,0,0,0,2.56,2.92,2.92,2.92,0,0,0,0-5.79Z"/><path class="cls-9" d="M454.24,427.15a4.31,4.31,0,0,1,3.61,1.78V423.5h3.59V439h-3.59v-1.68a4.05,4.05,0,0,1-3.61,1.85c-2.88,0-5.17-2.35-5.17-6.05S451.36,427.15,454.24,427.15Zm1.05,3.13a2.61,2.61,0,0,0-2.57,2.87,2.65,2.65,0,0,0,2.57,2.92,2.92,2.92,0,0,0,0-5.79Z"/><path class="cls-9" d="M467.28,427.32h3.59l1.66,8.37,2-8.37h3.8l2,8.33,1.64-8.33h3.38L482.14,439h-4l-1.84-7.6-1.91,7.6h-3.95Z"/><path class="cls-9" d="M491.13,427.15a4.07,4.07,0,0,1,3.61,1.83v-1.66h3.59V439h-3.59v-1.66a4.14,4.14,0,0,1-3.63,1.83c-2.85,0-5.14-2.35-5.14-6.05S488.26,427.15,491.13,427.15Zm1.05,3.13a2.61,2.61,0,0,0-2.56,2.87,2.65,2.65,0,0,0,2.56,2.92,2.92,2.92,0,0,0,0-5.79Z"/><path class="cls-9" d="M505.39,427.15A4.08,4.08,0,0,1,509,429v-1.66h3.59V439H509v-1.66a4.14,4.14,0,0,1-3.63,1.83c-2.86,0-5.14-2.35-5.14-6.05S502.51,427.15,505.39,427.15Zm1.05,3.13a2.61,2.61,0,0,0-2.56,2.87,2.65,2.65,0,0,0,2.56,2.92,2.92,2.92,0,0,0,0-5.79Z"/><path class="cls-9" d="M518.79,439H515.2V427.32h3.59v1.95a4.37,4.37,0,0,1,3.67-2.08V431h-1c-1.7,0-2.69.59-2.69,2.61Z"/><path class="cls-9" d="M528.64,427.15a4.3,4.3,0,0,1,3.61,1.78V423.5h3.59V439h-3.59v-1.68a4.05,4.05,0,0,1-3.61,1.85c-2.88,0-5.17-2.35-5.17-6.05S525.76,427.15,528.64,427.15Zm1.05,3.13a2.6,2.6,0,0,0-2.56,2.87,2.64,2.64,0,0,0,2.56,2.92,2.92,2.92,0,0,0,0-5.79Z"/><path class="cls-9" d="M543.78,439.2a6,6,0,1,1,6.13-6A5.81,5.81,0,0,1,543.78,439.2Zm0-3.11c1.28,0,2.48-.94,2.48-2.91s-1.18-2.92-2.44-2.92-2.44.92-2.44,2.92S542.48,436.09,543.78,436.09Z"/><path class="cls-9" d="M557.16,439.2a6,6,0,1,1,6.13-6A5.81,5.81,0,0,1,557.16,439.2Zm0-3.11c1.28,0,2.47-.94,2.47-2.91s-1.17-2.92-2.43-2.92-2.44.92-2.44,2.92S555.85,436.09,557.16,436.09Z"/><path class="cls-9" d="M568.79,439H565.2V427.32h3.59v1.95a4.37,4.37,0,0,1,3.67-2.08V431h-1c-1.7,0-2.69.59-2.69,2.61Z"/><path class="cls-9" d="M578.64,423.5h3.59v5.39a4.3,4.3,0,0,1,3.61-1.7c2.67,0,4.45,1.85,4.45,5V439h-3.57v-6.36a2.26,2.26,0,1,0-4.49,0V439h-3.59Z"/><path class="cls-9" d="M598,439.2a6,6,0,0,1,0-12.05,5.53,5.53,0,0,1,5.84,5.84,7.71,7.71,0,0,1-.07,1.05h-8.12a2.16,2.16,0,0,0,2.22,2.24,1.9,1.9,0,0,0,1.87-1.13h3.82A5.46,5.46,0,0,1,598,439.2ZM595.67,432h4.49a2,2,0,0,0-2.2-2A2.22,2.22,0,0,0,595.67,432Z"/><path class="cls-9" d="M606.3,430.3h-1.43v-3h1.43v-2.86h3.59v2.86h2.35v3h-2.35V435c0,.69.29,1,1.09,1h1.28v3h-1.83c-2.43,0-4.13-1-4.13-4.07Z"/><path class="cls-9" d="M95.14,464.4a6,6,0,0,1,0-12,5.53,5.53,0,0,1,5.84,5.84,9.65,9.65,0,0,1-.06,1.05H92.79A2.17,2.17,0,0,0,95,461.48a1.9,1.9,0,0,0,1.86-1.13h3.83A5.48,5.48,0,0,1,95.14,464.4Zm-2.33-7.16H97.3a2,2,0,0,0-2.2-2A2.22,2.22,0,0,0,92.81,457.24Z"/><path class="cls-9" d="M108.08,464.4a6,6,0,0,1,0-12,5.52,5.52,0,0,1,5.83,5.84,9.65,9.65,0,0,1-.06,1.05h-8.12a2.16,2.16,0,0,0,2.22,2.24,1.9,1.9,0,0,0,1.87-1.13h3.82A5.47,5.47,0,0,1,108.08,464.4Zm-2.33-7.16h4.49a2,2,0,0,0-2.2-2A2.22,2.22,0,0,0,105.75,457.24Z"/><path class="cls-9" d="M123.89,457.87a2.26,2.26,0,1,0-4.49,0v6.36h-3.59V452.52h3.59v1.55a4.27,4.27,0,0,1,3.54-1.68c2.71,0,4.52,1.85,4.52,5v6.84h-3.57Z"/><path class="cls-9" d="M138.86,452.35a4.06,4.06,0,0,1,3.61,1.83v-1.66h3.59v11.69c0,3.13-1.8,5.8-5.85,5.8-3.49,0-5.76-1.77-6.07-4.56h3.55A2.21,2.21,0,0,0,140,466.9c1.36,0,2.43-.71,2.43-2.69v-1.66a4.14,4.14,0,0,1-3.61,1.85c-2.87,0-5.16-2.35-5.16-6S136,452.35,138.86,452.35Zm1,3.13a2.61,2.61,0,0,0-2.56,2.87,2.65,2.65,0,0,0,2.56,2.92,2.92,2.92,0,0,0,0-5.79Z"/><path class="cls-9" d="M153.88,464.4a6,6,0,0,1,0-12,5.52,5.52,0,0,1,5.83,5.84,9.65,9.65,0,0,1-.06,1.05h-8.12a2.16,2.16,0,0,0,2.22,2.24,1.9,1.9,0,0,0,1.87-1.13h3.82A5.47,5.47,0,0,1,153.88,464.4Zm-2.33-7.16H156a2,2,0,0,0-2.2-2A2.22,2.22,0,0,0,151.55,457.24Z"/><path class="cls-9" d="M169.94,455.37l-5,5.9h5.08v3H161v-2.85l4.87-5.9H161v-3h8.94Z"/><path class="cls-9" d="M177.35,464.4a6,6,0,1,1,6.14-6A5.82,5.82,0,0,1,177.35,464.4Zm0-3.11c1.29,0,2.48-.94,2.48-2.91s-1.17-2.92-2.43-2.92-2.44.92-2.44,2.92S176.05,461.29,177.35,461.29Z"/><path class="cls-9" d="M193.48,457.87a2.26,2.26,0,1,0-4.49,0v6.36H185.4V452.52H189v1.55a4.28,4.28,0,0,1,3.55-1.68c2.71,0,4.51,1.85,4.51,5v6.84h-3.57Z"/><path class="cls-9" d="M204,452.35a4.32,4.32,0,0,1,3.62,1.78V448.7h3.59v15.53h-3.59v-1.68A4.07,4.07,0,0,1,204,464.4c-2.87,0-5.16-2.35-5.16-6S201.13,452.35,204,452.35Zm1.05,3.13a2.61,2.61,0,0,0-2.56,2.87,2.65,2.65,0,0,0,2.56,2.92,2.92,2.92,0,0,0,0-5.79Z"/><path class="cls-9" d="M219,464.4a6,6,0,0,1,0-12,5.53,5.53,0,0,1,5.84,5.84,9.74,9.74,0,0,1-.07,1.05h-8.12a2.16,2.16,0,0,0,2.22,2.24,1.9,1.9,0,0,0,1.87-1.13h3.82A5.46,5.46,0,0,1,219,464.4Zm-2.33-7.16h4.49a2,2,0,0,0-2.2-2A2.22,2.22,0,0,0,216.69,457.24Z"/><path class="cls-9" d="M231.2,448.7h3.59v8.58l3.55-4.76h4.43l-4.87,5.88,4.91,5.83h-4.45l-3.57-4.91v4.91H231.2Z"/><path class="cls-9" d="M249.38,464.4a6,6,0,0,1,0-12,5.52,5.52,0,0,1,5.84,5.84,9.65,9.65,0,0,1-.06,1.05H247a2.17,2.17,0,0,0,2.23,2.24,1.91,1.91,0,0,0,1.87-1.13H255A5.48,5.48,0,0,1,249.38,464.4Zm-2.33-7.16h4.5a2,2,0,0,0-2.21-2A2.22,2.22,0,0,0,247.05,457.24Z"/><path class="cls-9" d="M268.68,464.23h-3.59v-1.59a4.25,4.25,0,0,1-3.55,1.72c-2.71,0-4.53-1.87-4.53-5v-6.84h3.57v6.36a2.27,2.27,0,1,0,4.51,0v-6.36h3.59Z"/><path class="cls-9" d="M279.6,455.37l-5,5.9h5.08v3h-9.09v-2.85l4.87-5.9h-4.83v-3h8.94Z"/><path class="cls-9" d="M286.89,464.4a6,6,0,0,1,0-12,5.53,5.53,0,0,1,5.84,5.84,7.71,7.71,0,0,1-.07,1.05h-8.12a2.16,2.16,0,0,0,2.22,2.24,1.9,1.9,0,0,0,1.87-1.13h3.82A5.46,5.46,0,0,1,286.89,464.4Zm-2.33-7.16h4.49a2,2,0,0,0-2.2-2A2.22,2.22,0,0,0,284.56,457.24Z"/><path class="cls-9" d="M298.73,449.37a2.15,2.15,0,1,1,2.15,1.93A2,2,0,0,1,298.73,449.37Zm.34,3.15h3.59v11.71h-3.59Z"/><path class="cls-9" d="M310,464.4c-3.13,0-5.23-1.74-5.39-4h3.54a1.65,1.65,0,0,0,1.81,1.37c.92,0,1.41-.42,1.41-.95,0-1.89-6.39-.52-6.39-4.83,0-2,1.7-3.63,4.77-3.63s4.7,1.68,4.93,4H311.4a1.55,1.55,0,0,0-1.73-1.32c-.84,0-1.3.33-1.3.9,0,1.87,6.34.54,6.41,4.91C314.78,462.87,313,464.4,310,464.4Z"/><path class="cls-9" d="M318.66,464.4a2,2,0,1,1,2.12-1.93A2,2,0,0,1,318.66,464.4Z"/><path class="cls-9" d="M333.17,458.94H331v5.29h-3.59V449.49h5.81c3.61,0,5.42,2,5.42,4.75C338.59,456.67,336.93,458.94,333.17,458.94Zm-.27-2.85c1.43,0,2-.72,2-1.85s-.61-1.85-2-1.85H331v3.7Z"/><path class="cls-9" d="M340.12,449.37a2.15,2.15,0,1,1,2.15,1.93A2,2,0,0,1,340.12,449.37Zm.34,3.15h3.59v11.71h-3.59Z"/><path class="cls-9" d="M354.74,457.87a2.26,2.26,0,1,0-4.49,0v6.36h-3.59V452.52h3.59v1.55a4.27,4.27,0,0,1,3.54-1.68c2.71,0,4.52,1.85,4.52,5v6.84h-3.57Z"/><path class="cls-9" d="M365.26,452.35a4.3,4.3,0,0,1,3.61,1.78V448.7h3.59v15.53h-3.59v-1.68a4.05,4.05,0,0,1-3.61,1.85c-2.88,0-5.16-2.35-5.16-6S362.38,452.35,365.26,452.35Zm1.05,3.13a2.61,2.61,0,0,0-2.56,2.87,2.65,2.65,0,0,0,2.56,2.92,2.92,2.92,0,0,0,0-5.79Z"/><path class="cls-9" d="M379.52,452.35a4.08,4.08,0,0,1,3.61,1.83v-1.66h3.59v11.71h-3.59v-1.66a4.14,4.14,0,0,1-3.63,1.83c-2.86,0-5.15-2.35-5.15-6S376.64,452.35,379.52,452.35Zm1.05,3.13a2.61,2.61,0,0,0-2.56,2.87,2.65,2.65,0,0,0,2.56,2.92,2.92,2.92,0,0,0,0-5.79Z"/><path class="cls-9" d="M389.05,455.12l1.1-5.63h3.67l-2.35,5.63Z"/><path class="cls-9" d="M400.69,464.4c-3.13,0-5.23-1.74-5.4-4h3.55a1.64,1.64,0,0,0,1.8,1.37c.93,0,1.41-.42,1.41-.95,0-1.89-6.38-.52-6.38-4.83,0-2,1.7-3.63,4.76-3.63s4.71,1.68,4.94,4h-3.32a1.53,1.53,0,0,0-1.72-1.32c-.84,0-1.3.33-1.3.9,0,1.87,6.34.54,6.4,4.91C405.43,462.87,403.63,464.4,400.69,464.4Z"/><path class="cls-9" d="M414.82,452.52l2.54,8.35,2.54-8.35h3.82l-4.16,11.71h-4.43L411,452.52Z"/><path class="cls-9" d="M429.69,452.35a4.08,4.08,0,0,1,3.61,1.83v-1.66h3.59v11.71H433.3v-1.66a4.14,4.14,0,0,1-3.63,1.83c-2.86,0-5.15-2.35-5.15-6S426.81,452.35,429.69,452.35Zm1.05,3.13a2.6,2.6,0,0,0-2.56,2.87,2.64,2.64,0,0,0,2.56,2.92,2.92,2.92,0,0,0,0-5.79Z"/><path class="cls-9" d="M439.49,448.7h3.59v15.53h-3.59Z"/><path class="cls-9" d="M445.69,448.7h3.59v15.53h-3.59Z"/><path class="cls-9" d="M457.09,464.4a6,6,0,0,1,0-12,5.53,5.53,0,0,1,5.84,5.84,9.65,9.65,0,0,1-.06,1.05h-8.13a2.17,2.17,0,0,0,2.23,2.24,1.9,1.9,0,0,0,1.86-1.13h3.83A5.48,5.48,0,0,1,457.09,464.4Zm-2.33-7.16h4.49a2,2,0,0,0-2.2-2A2.22,2.22,0,0,0,454.76,457.24Z"/><path class="cls-9" d="M472.9,457.87a2.26,2.26,0,1,0-4.49,0v6.36h-3.59V452.52h3.59v1.55a4.28,4.28,0,0,1,3.55-1.68c2.71,0,4.51,1.85,4.51,5v6.84H472.9Z"/><path class="cls-9" d="M488.76,464.4a6,6,0,1,1,6.13-6A5.81,5.81,0,0,1,488.76,464.4Zm0-3.11c1.28,0,2.48-.94,2.48-2.91s-1.18-2.92-2.44-2.92-2.43.92-2.43,2.92S487.46,461.29,488.76,461.29Z"/><path class="cls-9" d="M504.89,457.87a2.26,2.26,0,1,0-4.5,0v6.36H496.8V452.52h3.59v1.55a4.31,4.31,0,0,1,3.55-1.68c2.71,0,4.52,1.85,4.52,5v6.84h-3.57Z"/><path class="cls-9" d="M515.41,452.35a4.3,4.3,0,0,1,3.61,1.78V448.7h3.59v15.53H519v-1.68a4.05,4.05,0,0,1-3.61,1.85c-2.88,0-5.17-2.35-5.17-6S512.53,452.35,515.41,452.35Zm1.05,3.13a2.6,2.6,0,0,0-2.56,2.87,2.64,2.64,0,0,0,2.56,2.92,2.92,2.92,0,0,0,0-5.79Z"/><path class="cls-9" d="M530.42,464.4a6,6,0,0,1,0-12,5.53,5.53,0,0,1,5.84,5.84,9.65,9.65,0,0,1-.06,1.05h-8.13a2.17,2.17,0,0,0,2.23,2.24,1.92,1.92,0,0,0,1.87-1.13H536A5.48,5.48,0,0,1,530.42,464.4Zm-2.33-7.16h4.49a2,2,0,0,0-2.2-2A2.22,2.22,0,0,0,528.09,457.24Z"/><path class="cls-9" d="M541.74,464.23h-3.59V452.52h3.59v2a4.37,4.37,0,0,1,3.68-2.08v3.8h-1c-1.7,0-2.69.59-2.69,2.6Z"/><path class="cls-9" d="M558.79,452.35c2.88,0,5.17,2.31,5.17,6s-2.29,6-5.17,6a4.23,4.23,0,0,1-3.61-1.8v7.22h-3.59v-17.3h3.59v1.66A4.13,4.13,0,0,1,558.79,452.35Zm-1.07,3.13a2.91,2.91,0,1,0,2.58,2.87A2.63,2.63,0,0,0,557.72,455.48Z"/><path class="cls-9" d="M571.06,464.4a6,6,0,0,1,0-12,5.52,5.52,0,0,1,5.83,5.84,9.65,9.65,0,0,1-.06,1.05h-8.12a2.16,2.16,0,0,0,2.22,2.24,1.9,1.9,0,0,0,1.87-1.13h3.82A5.47,5.47,0,0,1,571.06,464.4Zm-2.33-7.16h4.49a2,2,0,0,0-2.21-2A2.21,2.21,0,0,0,568.73,457.24Z"/><path class="cls-9" d="M590.35,464.23h-3.59v-1.59a4.25,4.25,0,0,1-3.54,1.72c-2.71,0-4.54-1.87-4.54-5v-6.84h3.57v6.36a2.27,2.27,0,1,0,4.51,0v-6.36h3.59Z"/><path class="cls-9" d="M592.94,448.7h3.59v15.53h-3.59Z"/><path class="cls-9" d="M598.92,455.37h9.24v3h-9.24Z"/><path class="cls-9" d="M92.66,477.72l2.54,8.35,2.54-8.35h3.83l-4.16,11.71H93l-4.16-11.71Z"/><path class="cls-9" d="M106.67,489.43h-3.59V477.72h3.59v1.95a4.37,4.37,0,0,1,3.67-2.08v3.8h-1c-1.7,0-2.69.59-2.69,2.61Z"/><path class="cls-9" d="M123.64,489.43h-3.59v-1.59a4.28,4.28,0,0,1-3.55,1.72c-2.71,0-4.54-1.87-4.54-5v-6.84h3.57v6.36a2.27,2.27,0,1,0,4.52,0v-6.36h3.59Z"/><path class="cls-9" d="M131.39,477.55A5.36,5.36,0,0,1,137,482h-3.82a1.84,1.84,0,0,0-1.87-1.34c-1.28,0-2.16,1-2.16,3s.88,3,2.16,3a1.82,1.82,0,0,0,1.87-1.35H137a5.43,5.43,0,0,1-5.62,4.41,6,6,0,0,1,0-12.05Z"/><path class="cls-9" d="M138.93,473.9h3.59v5.39a4.33,4.33,0,0,1,3.61-1.7c2.66,0,4.45,1.85,4.45,5v6.84H147v-6.36a2.26,2.26,0,1,0-4.49,0v6.36h-3.59Z"/><path class="cls-9" d="M153.65,480.7h-1.43v-3h1.43v-2.86h3.59v2.86h2.35v3h-2.35v4.7c0,.7.29,1,1.09,1h1.28v3h-1.83c-2.43,0-4.13-1-4.13-4.07Z"/><path class="cls-9" d="M166.81,489.6a6,6,0,0,1,0-12.05,5.52,5.52,0,0,1,5.84,5.84,9.65,9.65,0,0,1-.06,1.05h-8.13a2.17,2.17,0,0,0,2.23,2.24,1.91,1.91,0,0,0,1.87-1.13h3.82A5.48,5.48,0,0,1,166.81,489.6Zm-2.33-7.16H169a2,2,0,0,0-2.21-2A2.22,2.22,0,0,0,164.48,482.44Z"/><path class="cls-9" d="M182.63,483.07a2.26,2.26,0,1,0-4.5,0v6.36h-3.59V477.72h3.59v1.55a4.33,4.33,0,0,1,3.55-1.68c2.71,0,4.52,1.85,4.52,5v6.84h-3.57Z"/><path class="cls-9" d="M193.23,469.49h3.47l-5.63,23.87H187.6Z"/><path class="cls-9" d="M210.74,483.07a2.26,2.26,0,1,0-4.49,0v6.36h-3.59V477.72h3.59v1.55a4.31,4.31,0,0,1,3.55-1.68c2.71,0,4.51,1.85,4.51,5v6.84h-3.57Z"/><path class="cls-9" d="M222.15,489.6a6,6,0,1,1,6.13-6A5.81,5.81,0,0,1,222.15,489.6Zm0-3.11c1.28,0,2.47-.94,2.47-2.91s-1.17-2.92-2.43-2.92-2.44.92-2.44,2.92S220.85,486.49,222.15,486.49Z"/><path class="cls-9" d="M230.76,480.7h-1.43v-3h1.43v-2.86h3.59v2.86h2.35v3h-2.35v4.7c0,.7.29,1,1.09,1h1.28v3h-1.83c-2.43,0-4.13-1-4.13-4.07Z"/><path class="cls-9" d="M243.92,489.6a6,6,0,0,1,0-12.05,5.52,5.52,0,0,1,5.84,5.84,9.65,9.65,0,0,1-.06,1.05h-8.13a2.17,2.17,0,0,0,2.23,2.24,1.91,1.91,0,0,0,1.87-1.13h3.82A5.48,5.48,0,0,1,243.92,489.6Zm-2.33-7.16h4.5a2,2,0,0,0-2.21-2A2.22,2.22,0,0,0,241.59,482.44Z"/><path class="cls-9" d="M259.74,483.07a2.26,2.26,0,1,0-4.5,0v6.36h-3.59V477.72h3.59v1.55a4.33,4.33,0,0,1,3.55-1.68c2.71,0,4.52,1.85,4.52,5v6.84h-3.57Z"/><path class="cls-9" d="M275.47,489.6a6,6,0,0,1,0-12.05,5.52,5.52,0,0,1,5.83,5.84,9.65,9.65,0,0,1-.06,1.05h-8.13a2.18,2.18,0,0,0,2.23,2.24,1.91,1.91,0,0,0,1.87-1.13H281A5.48,5.48,0,0,1,275.47,489.6Zm-2.33-7.16h4.49a2,2,0,0,0-2.21-2A2.21,2.21,0,0,0,273.14,482.44Z"/><path class="cls-9" d="M291.28,483.07a2.26,2.26,0,1,0-4.49,0v6.36h-3.6V477.72h3.6v1.55a4.3,4.3,0,0,1,3.54-1.68c2.71,0,4.52,1.85,4.52,5v6.84h-3.57Z"/><path class="cls-9" d="M309,477.55c2.9,0,5.17,2.31,5.17,6s-2.29,6.05-5.17,6.05a4.13,4.13,0,0,1-3.61-1.8v1.63H301.8V473.9h3.59v5.48A4.13,4.13,0,0,1,309,477.55Zm-1.07,3.13a2.91,2.91,0,1,0,2.58,2.87A2.63,2.63,0,0,0,307.93,480.68Z"/><path class="cls-9" d="M321.27,489.6a6,6,0,0,1,0-12.05,5.52,5.52,0,0,1,5.83,5.84,9.65,9.65,0,0,1-.06,1.05h-8.13a2.18,2.18,0,0,0,2.23,2.24,1.91,1.91,0,0,0,1.87-1.13h3.82A5.48,5.48,0,0,1,321.27,489.6Zm-2.33-7.16h4.49a2,2,0,0,0-2.21-2A2.21,2.21,0,0,0,318.94,482.44Z"/><path class="cls-9" d="M331.72,477.72l2.55,8.35,2.54-8.35h3.82l-4.16,11.71H332l-4.16-11.71Z"/><path class="cls-9" d="M346.59,477.55a4.08,4.08,0,0,1,3.61,1.83v-1.66h3.59v11.71H350.2v-1.65a4.16,4.16,0,0,1-3.63,1.82c-2.85,0-5.14-2.35-5.14-6.05S343.72,477.55,346.59,477.55Zm1.05,3.13a2.61,2.61,0,0,0-2.56,2.87,2.65,2.65,0,0,0,2.56,2.92,2.92,2.92,0,0,0,0-5.79Z"/><path class="cls-9" d="M357,480.7h-1.43v-3H357v-2.86h3.59v2.86h2.35v3h-2.35v4.7c0,.7.29,1,1.09,1h1.28v3H361.1c-2.43,0-4.13-1-4.13-4.07Z"/><path class="cls-9" d="M365.49,480.7h-1.43v-3h1.43v-2.86h3.59v2.86h2.35v3h-2.35v4.7c0,.7.3,1,1.09,1h1.29v3h-1.83c-2.44,0-4.14-1-4.14-4.07Z"/><path class="cls-9" d="M378.66,489.6a6,6,0,0,1,0-12.05,5.53,5.53,0,0,1,5.84,5.84,9.74,9.74,0,0,1-.07,1.05h-8.12a2.16,2.16,0,0,0,2.22,2.24,1.9,1.9,0,0,0,1.87-1.13h3.82A5.46,5.46,0,0,1,378.66,489.6Zm-2.33-7.16h4.49a2,2,0,0,0-2.2-2A2.22,2.22,0,0,0,376.33,482.44Z"/><path class="cls-9" d="M394.47,483.07a2.26,2.26,0,1,0-4.49,0v6.36h-3.59V477.72H390v1.55a4.31,4.31,0,0,1,3.55-1.68c2.7,0,4.51,1.85,4.51,5v6.84h-3.57Z"/><path class="cls-9" d="M407.72,477.72l2.54,8.35,2.54-8.35h3.82l-4.15,11.71H408l-4.16-11.71Z"/><path class="cls-9" d="M423.35,489.6a6,6,0,0,1,0-12.05,5.52,5.52,0,0,1,5.83,5.84,9.65,9.65,0,0,1-.06,1.05H421a2.18,2.18,0,0,0,2.23,2.24,1.91,1.91,0,0,0,1.87-1.13h3.82A5.48,5.48,0,0,1,423.35,489.6ZM421,482.44h4.49a2,2,0,0,0-2.21-2A2.21,2.21,0,0,0,421,482.44Z"/><path class="cls-9" d="M436.28,489.6a6,6,0,0,1,0-12.05,5.53,5.53,0,0,1,5.84,5.84,9.65,9.65,0,0,1-.06,1.05h-8.13a2.17,2.17,0,0,0,2.23,2.24,1.9,1.9,0,0,0,1.86-1.13h3.83A5.48,5.48,0,0,1,436.28,489.6ZM434,482.44h4.49a2,2,0,0,0-2.2-2A2.22,2.22,0,0,0,434,482.44Z"/><path class="cls-9" d="M444,473.9h3.59v15.53H444Z"/><path class="cls-9" d="M457.39,477.72l2.54,8.35,2.54-8.35h3.82l-4.16,11.71H457.7l-4.16-11.71Z"/><path class="cls-9" d="M473,489.6a6,6,0,0,1,0-12.05,5.53,5.53,0,0,1,5.84,5.84,7.71,7.71,0,0,1-.07,1.05h-8.12a2.17,2.17,0,0,0,2.22,2.24,1.9,1.9,0,0,0,1.87-1.13h3.82A5.46,5.46,0,0,1,473,489.6Zm-2.33-7.16h4.49a2,2,0,0,0-2.2-2A2.22,2.22,0,0,0,470.68,482.44Z"/><path class="cls-9" d="M489.08,480.57l-5,5.9h5.08v3h-9.09v-2.85l4.87-5.9h-4.83v-3h8.95Z"/><path class="cls-9" d="M496.36,489.6a6,6,0,0,1,0-12.05,5.53,5.53,0,0,1,5.84,5.84,9.65,9.65,0,0,1-.06,1.05H494a2.17,2.17,0,0,0,2.23,2.24,1.9,1.9,0,0,0,1.86-1.13h3.83A5.48,5.48,0,0,1,496.36,489.6ZM494,482.44h4.49a2,2,0,0,0-2.2-2A2.22,2.22,0,0,0,494,482.44Z"/><path class="cls-9" d="M504.09,473.9h3.59v15.53h-3.59Z"/><path class="cls-9" d="M515.05,489.6c-3.13,0-5.23-1.74-5.39-4h3.54A1.65,1.65,0,0,0,515,487c.92,0,1.41-.42,1.41-.95,0-1.89-6.39-.52-6.39-4.83,0-2,1.7-3.63,4.77-3.63s4.7,1.68,4.93,4h-3.31a1.55,1.55,0,0,0-1.72-1.32c-.84,0-1.31.33-1.31.9,0,1.87,6.34.55,6.41,4.91C519.8,488.07,518,489.6,515.05,489.6Z"/><path class="cls-9" d="M523.68,489.6a2,2,0,1,1,2.12-1.93A2,2,0,0,1,523.68,489.6Z"/><text class="cls-8" transform="translate(89.76 571.47)">Het is duurzaam</text><text class="cls-10" transform="translate(91.99 610.87)">Heeft een lage klimaatbelasting (meeste worden in <tspan x="0" y="25.2">Nederland geoogst)</tspan></text><text class="cls-11" transform="translate(1253.79 659.2)">Bevat geen suiker, zout of olie</text><text class="cls-11" transform="translate(1475.9 712.75)">Helpt met het verlagen van <tspan x="0" y="28.8">de LDL-cholesterol (houdt </tspan><tspan x="0" y="57.6">de bloedvaten gezond)</tspan></text><text class="cls-11" transform="translate(1378.9 859.95)">Rijk aan koolhydraten, eiwitten, B <tspan x="0" y="28.8">vitnamines en minelaren, zoals </tspan><tspan x="0" y="57.6">ijzer, calcium etc.</tspan></text><rect class="cls-12" x="90" y="711" width="662" height="252" rx="4.64"/><text class="cls-13" transform="translate(110.22 767.19)">In veel andere varianten van pindakaas zijn suiker, zout, olie <tspan x="0" y="25.2">of palmvet aan toegevoegd. Dit is minder gezond en staat </tspan><tspan x="0" y="50.4">ook niet in de schijf van vijf, vergelijken met pindakaas waar </tspan><tspan x="0" y="75.6">puur 100% pinda’s in zitten zonder toevoegingen.</tspan><tspan x="0" y="126">Varianten waarbij “Palmvet” toegevoegd zijn niet duur</tspan><tspan x="566.19" y="126">-</tspan><tspan x="0" y="151.2">zaam, omdat hiervoor palmbomen geoogst moeten </tspan><tspan x="0" y="176.4">worden en andere bomen/ bossen gekapt moeten worden.</tspan></text><text class="cls-14" transform="translate(110.99 735.67)">Pas op:</text></g><g id="afb-pindakaas"><path id="achtergrond-avocado" class="cls-9" d="M981.14,433.47c-19.58-.85-49.49,8.7-69.23,34.2-28.27,36.5-45.47,97.86-64.7,141.71-28.12,64.15-47.35,126.85-49.29,171.55-4.19,96.61,73,147.73,161.58,151.57s169.91-40.41,174.1-137c1.94-44.7-11.8-108.83-34.27-175.17-15.35-45.35-27.18-108-52.18-146.78-17.47-27.11-46.44-39.21-66-40.06"/><image width="657" height="993" transform="translate(875 595) scale(0.3)" xlink:href="afbeeldingen/pot-pindakaas.png"/></g><g id="water_druppels-brood" data-name="water druppels-brood"><path class="cls-15" d="M1404.94,341.86c-6.33,13.2-14.8,31.94-23.48,55-18.26,48.54-16.49,60.53-13,68.89,5.22,12.64,18.29,26.66,35.07,27.32,16.49.66,30.37-11.84,36.7-23.48,11.74-21.57,1.52-47.56-11.28-80.11A289.64,289.64,0,0,0,1404.94,341.86Z"/><text class="cls-16" transform="translate(1386.36 435.82)">100 <tspan x="0" y="25.2">liter</tspan></text><image id="broodjePinda" width="667" height="703" transform="translate(1238 341) scale(0.15)" xlink:href="afbeeldingen/broodjePinda.png"/><image id="broodjeAvocado" width="901" height="896" transform="matrix(0.11, 0.11, -0.11, 0.11, 1643.92, 321)" xlink:href="afbeeldingen/broodje-avocado.png"/><path class="cls-17" d="M1762.25,354.47c-9.93,20.68-23.2,50-36.81,86.22-28.61,76.07-25.83,94.85-20.41,108,8.19,19.8,28.66,41.77,55,42.81,25.84,1,47.6-18.56,57.52-36.79,18.39-33.81,2.38-74.53-17.68-125.54A455.77,455.77,0,0,0,1762.25,354.47Z"/><text class="cls-18" transform="translate(1727.36 504.7)">400 <tspan x="0" y="43.2">liter</tspan></text><text class="cls-8" transform="translate(1496.26 421.37)">VS</text></g><g id="pindakaas"><path id="pinda_vorm" data-name="pinda vorm" class="cls-19" d="M1117.79,758.6c-.94-.26-8.38-2.16-14.5,2.5-5.67,4.32-7.82,12.49-5,20-8.77,3.59-14.33,11.67-14,20,.32,7.84,5.75,12.89,7,14a20.17,20.17,0,0,0,24-28c6.57-4.1,10.12-11.23,9-18A17.16,17.16,0,0,0,1117.79,758.6Z"/><path class="cls-20" d="M1112.43,758.12a29.92,29.92,0,0,0-12,23,35.1,35.1,0,0,0-12,30"/><path class="cls-20" d="M1116.93,758.62a59,59,0,0,0-12.41,25.66,49.94,49.94,0,0,0-13.09,30.84"/><path class="cls-20" d="M1094.43,815.12A49.8,49.8,0,0,0,1108.05,787a104.89,104.89,0,0,0,11.38-26.85"/><path class="cls-20" d="M1122.43,764.12a42.05,42.05,0,0,1-10,20.85,36.06,36.06,0,0,1-14,30.15"/><path class="cls-20" d="M1103.93,761.62a25.81,25.81,0,0,1,20,9"/><path class="cls-20" d="M1098.43,768.12a29.52,29.52,0,0,1,24,11"/><path class="cls-20" d="M1097.43,775.12a42.19,42.19,0,0,1,21,9"/><path class="cls-20" d="M1098.43,781.38a29.4,29.4,0,0,0,17,6.74"/><path class="cls-20" d="M1092.82,784.75a31,31,0,0,0,24.11,9.74"/><path class="cls-20" d="M1087.82,789.62a45.76,45.76,0,0,0,28.61,12.5"/><path class="cls-20" d="M1085,795.87a44.22,44.22,0,0,0,28.44,11.25"/><path class="cls-20" d="M1084.41,801.5a47.69,47.69,0,0,0,24,11.12"/><path id="pinda_vorm-2" data-name="pinda vorm" class="cls-21" d="M1117.93,758.62c-1-.26-8.39-2.16-14.5,2.5-5.67,4.33-7.83,12.49-5,20-8.78,3.59-14.34,11.67-14,20,.32,7.84,5.75,12.89,7,14a20.17,20.17,0,0,0,24-28c6.56-4.1,10.11-11.23,9-18A17.29,17.29,0,0,0,1117.93,758.62Z"/><path id="pinda_vorm-3" data-name="pinda vorm" class="cls-19" d="M1000.61,515c-1.06-.83-9.47-7.22-19.71-4.58-9.49,2.45-16.59,11.64-17,22.67-13-.15-24.41,7.12-28.43,17.85-3.79,10.11.39,19.41,1.39,21.48a27.74,27.74,0,0,0,45.37-22.65c10.51-1.68,18.81-8.82,21-18C1005.17,523.74,1001.71,517,1000.61,515Z"/><path class="cls-22" d="M994.06,511.55a41.19,41.19,0,0,0-27.49,22.72,48.28,48.28,0,0,0-31.24,31.6"/><path class="cls-22" d="M999.5,514.59a81,81,0,0,0-29.43,25.87A68.64,68.64,0,0,0,937,572.54"/><path class="cls-22" d="M940.79,574.14a68.56,68.56,0,0,0,32.31-28.38,144.55,144.55,0,0,0,28.76-27.93"/><path class="cls-22" d="M1003.53,524.5a57.93,57.93,0,0,1-23.75,21.09,49.62,49.62,0,0,1-33.92,30.69"/><path class="cls-22" d="M981.42,511.44A35.5,35.5,0,0,1,1002,533.53"/><path class="cls-22" d="M971,516.74a40.55,40.55,0,0,1,24.53,26.76"/><path class="cls-22" d="M966,525.07a57.92,57.92,0,0,1,21.8,22.63"/><path class="cls-22" d="M963.89,533.54a40.49,40.49,0,0,0,17.94,17.62"/><path class="cls-22" d="M955,534.81A42.58,42.58,0,0,0,980.33,560"/><path class="cls-22" d="M946.06,538.3a62.83,62.83,0,0,0,29.55,31.13"/><path class="cls-22" d="M939.13,544.71a60.78,60.78,0,0,0,30,29.45"/><path class="cls-22" d="M935.39,551.53a65.44,65.44,0,0,0,24.47,26.93"/><path id="pinda_vorm-4" data-name="pinda vorm" class="cls-23" d="M1000.76,515.12c-1.06-.83-9.47-7.22-19.7-4.58-9.5,2.45-16.59,11.64-17,22.67-13-.15-24.4,7.12-28.42,17.85-3.79,10.11.39,19.41,1.38,21.48a27.74,27.74,0,0,0,45.37-22.65c10.51-1.68,18.82-8.82,21-18C1005.33,523.84,1001.86,517.08,1000.76,515.12Z"/><path id="pinda_vorm-5" data-name="pinda vorm" class="cls-19" d="M929.73,859.54c-.73,1.14-6.23,10.15-2.57,20.06,3.4,9.2,13.26,15.33,24.27,14.65,1.18,13,9.56,23.56,20.64,26.47,10.44,2.75,19.27-2.35,21.23-3.55a27.73,27.73,0,0,0-27.12-42.85c-2.74-10.28-10.68-17.82-20-19.09C937.94,854.11,931.57,858.24,929.73,859.54Z"/><path class="cls-22" d="M926.93,866.4a41.1,41.1,0,0,0,25.39,25.05,48.25,48.25,0,0,0,34.6,27.88"/><path class="cls-22" d="M929.41,860.69a81,81,0,0,0,28.71,26.66A68.74,68.74,0,0,0,993.38,917"/><path class="cls-22" d="M994.59,913.06a68.48,68.48,0,0,0-31.51-29.27,144.48,144.48,0,0,0-16.53-15.68A142.78,142.78,0,0,0,932.39,858"/><path class="cls-22" d="M938.86,855.68a57.63,57.63,0,0,1,23.38,21.49,49.64,49.64,0,0,1,34,30.63"/><path class="cls-22" d="M928.1,879A35.53,35.53,0,0,1,948,856.33"/><path class="cls-22" d="M934.43,888.84a40.59,40.59,0,0,1,24.14-27.11"/><path class="cls-22" d="M943.23,893a57.53,57.53,0,0,1,8.38-13.25A58.62,58.62,0,0,1,963.53,869"/><path class="cls-22" d="M951.86,894.19a40.37,40.37,0,0,0,15.72-19.63"/><path class="cls-22" d="M954,902.92a42.54,42.54,0,0,0,22.53-27.76"/><path class="cls-22" d="M958.41,911.45a62.87,62.87,0,0,0,28-32.55"/><path class="cls-22" d="M965.48,917.7a60.76,60.76,0,0,0,26.27-32.84"/><path class="cls-22" d="M972.64,920.73A65.59,65.59,0,0,0,997,893.65"/><path id="pinda_vorm-6" data-name="pinda vorm" class="cls-24" d="M929.81,859.37c-.72,1.14-6.22,10.16-2.57,20.07,3.4,9.2,13.26,15.33,24.28,14.64,1.17,13,9.55,23.56,20.64,26.48,10.43,2.74,19.26-2.36,21.22-3.55a27.73,27.73,0,0,0-27.12-42.85c-2.74-10.29-10.68-17.83-20-19.1C938,854,931.65,858.08,929.81,859.37Z"/><path id="pinda_vorm-7" data-name="pinda vorm" class="cls-19" d="M814.18,772.92c-.6.78-5.2,6.93-3.23,14.36,1.83,6.89,8.55,12,16.58,12.26,0,9.48,5.31,17.71,13.14,20.57,7.37,2.7,14.11-.39,15.61-1.12a20.17,20.17,0,0,0-16.72-32.87c-1.28-7.64-6.52-13.64-13.2-15.19A17.23,17.23,0,0,0,814.18,772.92Z"/><path class="cls-20" d="M811.69,777.7A29.9,29.9,0,0,0,817,788.53a30.27,30.27,0,0,0,11.41,9.05,35.1,35.1,0,0,0,23.15,22.54"/><path class="cls-20" d="M813.87,773.74a58.87,58.87,0,0,0,19,21.26,49.78,49.78,0,0,0,7.86,12,50.41,50.41,0,0,0,15.65,11.88"/><path class="cls-20" d="M857.49,816.1a49.8,49.8,0,0,0-20.81-23.34,105.62,105.62,0,0,0-10.91-12.48,104,104,0,0,0-9.56-8.28"/><path class="cls-20" d="M821.05,770.75a42,42,0,0,1,15.47,17.16,36,36,0,0,1,22.5,24.5"/><path class="cls-20" d="M811.68,786.9a25.78,25.78,0,0,1,16-15"/><path class="cls-20" d="M815.58,794.46a29.54,29.54,0,0,1,19.33-18"/><path class="cls-20" d="M821.67,798.06a42.11,42.11,0,0,1,16.34-16"/><path class="cls-20" d="M827.84,799.52a29.46,29.46,0,0,0,12.72-13.13"/><path class="cls-20" d="M828.81,806A31,31,0,0,0,847,787.43"/><path class="cls-20" d="M831.4,812.47a45.72,45.72,0,0,0,22.48-21.66"/><path class="cls-20" d="M836.1,817.48a44.19,44.19,0,0,0,21.26-22"/><path class="cls-20" d="M841.08,820.16a47.77,47.77,0,0,0,19.45-17.95"/><path id="pinda_vorm-8" data-name="pinda vorm" class="cls-25" d="M814.25,772.81c-.6.78-5.2,6.93-3.23,14.36,1.83,6.89,8.56,12,16.58,12.26,0,9.48,5.31,17.7,13.14,20.57,7.37,2.7,14.11-.39,15.61-1.12A20.18,20.18,0,0,0,839.63,786c-1.28-7.63-6.52-13.63-13.2-15.19A17.28,17.28,0,0,0,814.25,772.81Z"/><path id="pinda_vorm-9" data-name="pinda vorm" class="cls-19" d="M1019.45,834.11c-1.34-.18-11.83-1.4-19.3,6.07-6.93,6.93-8.38,18.45-3.14,28.17-11.3,6.5-17.4,18.54-15.41,29.82,1.87,10.63,10.2,16.52,12.11,17.8a27.73,27.73,0,0,0,27.56-42.56c8.2-6.79,11.72-17.17,9-26.18C1027.81,839.3,1021.39,835.24,1019.45,834.11Z"/><path class="cls-22" d="M1012.05,834.45A41.13,41.13,0,0,0,999.92,868a48.2,48.2,0,0,0-10.85,43.08"/><path class="cls-22" d="M1018.27,834.3a81.07,81.07,0,0,0-12.2,37.24A68.76,68.76,0,0,0,993.89,916"/><path class="cls-22" d="M998,915.42a68.59,68.59,0,0,0,13.4-40.86A143.82,143.82,0,0,0,1022,835.89"/><path class="cls-22" d="M1026.78,840.79A57.92,57.92,0,0,1,1017,871a49.59,49.59,0,0,1-13.61,43.67"/><path class="cls-22" d="M1001.11,840.77a35.48,35.48,0,0,1,28.9,8.6"/><path class="cls-22" d="M994.8,850.64a40.6,40.6,0,0,1,34.73,10.59"/><path class="cls-22" d="M994.73,860.36a57.94,57.94,0,0,1,30.27,8.42"/><path class="cls-22" d="M997.24,868.71a40.49,40.49,0,0,0,24.4,6.07"/><path class="cls-22" d="M990.21,874.33a42.54,42.54,0,0,0,34.64,8.85"/><path class="cls-22" d="M984.3,881.88a62.78,62.78,0,0,0,41.27,11.79"/><path class="cls-22" d="M981.59,890.92A60.77,60.77,0,0,0,1022.4,901"/><path class="cls-22" d="M981.83,898.69a65.43,65.43,0,0,0,34.77,10.76"/><path id="pinda_vorm-10" data-name="pinda vorm" class="cls-26" d="M1019.63,834.12c-1.33-.18-11.82-1.41-19.3,6.07-6.93,6.93-8.37,18.45-3.14,28.17-11.3,6.5-17.4,18.53-15.41,29.82,1.88,10.63,10.2,16.51,12.11,17.79a27.73,27.73,0,0,0,27.57-42.56c8.19-6.79,11.72-17.16,9-26.18C1028,839.31,1021.58,835.25,1019.63,834.12Z"/><path id="pinda_vorm-11" data-name="pinda vorm" class="cls-19" d="M1069.17,863.76c-.58-.4-5.16-3.46-10.4-1.76-4.86,1.57-8.27,6.58-8.14,12.33-6.79.34-12.48,4.48-14.23,10.19a12.33,12.33,0,1,0,24.29-2.08c5.42-1.21,9.51-5.19,10.37-10A12.38,12.38,0,0,0,1069.17,863.76Z"/><path class="cls-27" d="M1065.65,862.16a21.45,21.45,0,0,0-13.59,12.7,25.16,25.16,0,0,0-8.94,6,25.53,25.53,0,0,0-6.32,11.45"/><path class="cls-27" d="M1068.58,863.57a42.29,42.29,0,0,0-14.5,14.39,35.94,35.94,0,0,0-16.2,17.74"/><path class="cls-27" d="M1039.91,896.42a36.08,36.08,0,0,0,10.33-7.76,35.64,35.64,0,0,0,5.59-8,75.19,75.19,0,0,0,14.08-15.44"/><path class="cls-27" d="M1071,868.6a30.08,30.08,0,0,1-11.7,11.73,25.82,25.82,0,0,1-16.68,17"/><path class="cls-27" d="M1059.07,862.5a18.51,18.51,0,0,1,11.38,10.85"/><path class="cls-27" d="M1053.8,865.59a21.11,21.11,0,0,1,13.61,13.15"/><path class="cls-27" d="M1051.46,870.08a30.19,30.19,0,0,1,12.06,11.09"/><path class="cls-27" d="M1050.65,874.56a21,21,0,0,0,9.89,8.6"/><path class="cls-27" d="M1046.05,875.5a22.16,22.16,0,0,0,14,12.32"/><path class="cls-27" d="M1041.52,877.6a32.74,32.74,0,0,0,16.36,15.27"/><path class="cls-27" d="M1038.11,881.15a31.66,31.66,0,0,0,16.55,14.38"/><path class="cls-27" d="M1036.38,884.82A34.08,34.08,0,0,0,1050,898.06"/><path id="pinda_vorm-12" data-name="pinda vorm" class="cls-28" d="M1069.25,863.81c-.58-.4-5.16-3.46-10.4-1.76-4.86,1.57-8.26,6.58-8.14,12.33-6.79.34-12.48,4.48-14.23,10.19a12.33,12.33,0,1,0,24.3-2.09c5.41-1.2,9.51-5.18,10.37-10A12.35,12.35,0,0,0,1069.25,863.81Z"/><path id="pinda_vorm-13" data-name="pinda vorm" class="cls-19" d="M933.41,906.09c0-.7.16-6.21-4.08-9.73-3.94-3.26-10-3.45-14.78-.27-3.92-5.55-10.46-8.13-16.23-6.55a12.33,12.33,0,1,0,14.78,19.4c3.92,3.92,9.47,5.25,14,3.38A12.36,12.36,0,0,0,933.41,906.09Z"/><path class="cls-27" d="M932.88,902.26a21.51,21.51,0,0,0-18-4.67A25.13,25.13,0,0,0,892,894"/><path class="cls-27" d="M933.25,905.49A42.06,42.06,0,0,0,913.33,901a35.6,35.6,0,0,0-9.58-3.75,36.13,36.13,0,0,0-14.07-.43"/><path class="cls-27" d="M890.16,898.87a35.81,35.81,0,0,0,21.86,5,75.22,75.22,0,0,0,20.59,3.62"/><path class="cls-27" d="M930.3,910.22a30.31,30.31,0,0,1-16.17-3.59,25.87,25.87,0,0,1-23.33-5"/><path class="cls-27" d="M929.06,896.89A18.48,18.48,0,0,1,926,912.31"/><path class="cls-27" d="M923.64,894.1a21.13,21.13,0,0,1-3.82,18.53"/><path class="cls-27" d="M918.58,894.52a30.2,30.2,0,0,1-.32,8.17,29.82,29.82,0,0,1-2.58,7.95"/><path class="cls-27" d="M914.37,896.23a21.12,21.12,0,0,0-2,13"/><path class="cls-27" d="M911.12,892.86a22.19,22.19,0,0,0-2.92,18.41"/><path class="cls-27" d="M906.91,890.15A33.09,33.09,0,0,0,903,900.33a32.61,32.61,0,0,0-.21,11.82"/><path class="cls-27" d="M902.09,889.18a31.7,31.7,0,0,0-3.28,21.68"/><path class="cls-27" d="M898.06,889.68a34.11,34.11,0,0,0-3.9,18.57"/><path id="pinda_vorm-14" data-name="pinda vorm" class="cls-29" d="M933.41,906.19c0-.71.16-6.21-4.08-9.73-3.93-3.26-10-3.46-14.78-.27-3.92-5.55-10.46-8.14-16.22-6.56A12.33,12.33,0,1,0,913.1,909c3.92,3.93,9.48,5.26,14,3.39A12.33,12.33,0,0,0,933.41,906.19Z"/></g><g id="titel"><text class="cls-30" transform="translate(516.22 107.37)">Eet duurzamer of met mate</text></g></svg>