<svg xmlns="http://www.w3.org/2000/svg" xmlns:xlink="http://www.w3.org/1999/xlink" viewBox="0 0 1920 1430"><defs><style>.cls-1,.cls-12{fill:#e6e6a9;}.cls-2,.cls-7{font-size:36px;}.cls-10,.cls-11,.cls-13,.cls-2,.cls-26,.cls-3,.cls-4,.cls-6,.cls-9{fill:#03392b;}.cls-12,.cls-13,.cls-2,.cls-26,.cls-4,.cls-7{font-family:Poppins-Bold, Poppins;font-weight:700;}.cls-12,.cls-4,.cls-9{font-size:18px;}.cls-17,.cls-18,.cls-19,.cls-20,.cls-21,.cls-22,.cls-23,.cls-24,.cls-25,.cls-5{fill:none;}.cls-11,.cls-5,.cls-6{stroke:#03392b;stroke-miterlimit:10;}.cls-15,.cls-5,.cls-6{stroke-width:4px;}.cls-7{fill:#e7e7aa;}.cls-8{fill:#fff;}.cls-9{font-family:Poppins-Medium, Poppins;font-weight:500;}.cls-10{stroke:#043a2b;}.cls-10,.cls-15,.cls-17,.cls-18,.cls-19,.cls-20,.cls-21,.cls-22,.cls-23,.cls-24,.cls-25{stroke-linecap:round;stroke-linejoin:round;}.cls-10,.cls-18,.cls-19,.cls-20,.cls-21,.cls-22,.cls-23,.cls-24,.cls-25{stroke-width:2px;}.cls-13{font-size:28px;}.cls-14{fill:#f53d04;}.cls-15{fill:#d4f1f9;stroke:#83d7ee;}.cls-16{fill:#754c24;}.cls-17{stroke:#bf8251;}.cls-18{stroke:url(#Naamloos_verloop_16);}.cls-19{stroke:url(#Naamloos_verloop_16-2);}.cls-20{stroke:url(#Naamloos_verloop_16-3);}.cls-21{stroke:url(#Naamloos_verloop_16-4);}.cls-22{stroke:url(#Naamloos_verloop_16-5);}.cls-23{stroke:url(#Naamloos_verloop_16-6);}.cls-24{stroke:url(#Naamloos_verloop_16-7);}.cls-25{stroke:url(#Naamloos_verloop_16-8);}.cls-26{font-size:60px;}</style><radialGradient id="Naamloos_verloop_16" cx="849.75" cy="551.41" r="35.25" gradientTransform="matrix(0.92, 0.39, -0.39, 0.92, 369.07, -390.5)" gradientUnits="userSpaceOnUse"><stop offset="0" stop-color="#754c24"/><stop offset="1" stop-color="#c69c6d"/></radialGradient><radialGradient id="Naamloos_verloop_16-2" cx="1010.27" cy="978.62" r="35.25" gradientTransform="translate(-313.36 1473.01) rotate(-72.93)" xlink:href="#Naamloos_verloop_16"/><radialGradient id="Naamloos_verloop_16-3" cx="978.55" cy="803.18" r="18.85" gradientTransform="translate(354.22 -296.83) rotate(19.4)" xlink:href="#Naamloos_verloop_16"/><radialGradient id="Naamloos_verloop_16-4" cx="889.75" cy="547.58" r="18.85" gradientTransform="translate(35.13 1087.58) rotate(-67.95)" xlink:href="#Naamloos_verloop_16"/><radialGradient id="Naamloos_verloop_16-5" cx="599.82" cy="591.55" r="18.85" gradientTransform="translate(35.13 1087.58) rotate(-67.95)" xlink:href="#Naamloos_verloop_16"/><radialGradient id="Naamloos_verloop_16-6" cx="758.39" cy="804.93" r="18.85" gradientTransform="translate(5.89 1315.99) rotate(-74.79)" xlink:href="#Naamloos_verloop_16"/><radialGradient id="Naamloos_verloop_16-7" cx="1083.32" cy="1059.43" r="35.25" gradientTransform="matrix(0.99, 0.15, -0.15, 0.99, -48.81, -437.76)" xlink:href="#Naamloos_verloop_16"/><radialGradient id="Naamloos_verloop_16-8" cx="712.59" cy="725.29" r="18.85" gradientTransform="translate(5.89 1315.99) rotate(-74.79)" xlink:href="#Naamloos_verloop_16"/></defs><g id="achtergrond"><rect class="cls-1" width="1920" height="1430"/></g><g id="informatie-pindakaas"><g id="duurzaam-text"><text class="cls-2" transform="translate(75.76 796.47)">Het is duurzaam</text><path class="cls-3" d="M86,832.44H81.18v5.21H78.1V825h3.08v5H86v-5h3.08v12.64H86Z"/><path class="cls-3" d="M95.73,837.79a5.17,5.17,0,0,1,0-10.33,4.73,4.73,0,0,1,5,5c0,.29,0,.6,0,.9h-7a1.86,1.86,0,0,0,1.91,1.93,1.63,1.63,0,0,0,1.6-1h3.28A4.7,4.7,0,0,1,95.73,837.79Zm-2-6.14h3.85a1.73,1.73,0,0,0-1.89-1.73A1.91,1.91,0,0,0,93.73,831.65Z"/><path class="cls-3" d="M106.81,837.79a5.17,5.17,0,0,1,0-10.33,4.73,4.73,0,0,1,5,5c0,.29,0,.6,0,.9h-7a1.86,1.86,0,0,0,1.91,1.93,1.63,1.63,0,0,0,1.6-1h3.27A4.68,4.68,0,0,1,106.81,837.79Zm-2-6.14h3.86a1.74,1.74,0,0,0-1.89-1.73A1.92,1.92,0,0,0,104.81,831.65Z"/><path class="cls-3" d="M113.74,830.16h-1.11V827.6h1.11v-.29c0-2.63,1.62-3.92,4.68-3.76v2.61c-1.18-.07-1.6.29-1.6,1.35v.09h1.66v2.56h-1.66v7.49h-3.08Z"/><path class="cls-3" d="M120.4,830.16h-1.22V827.6h1.22v-2.45h3.08v2.45h2v2.56h-2v4c0,.59.25.85.94.85h1.1v2.61H124c-2.09,0-3.55-.89-3.55-3.5Z"/><path class="cls-3" d="M135.5,837.79a5.17,5.17,0,0,1,0-10.33,4.73,4.73,0,0,1,5,5c0,.29,0,.6,0,.9h-7a1.86,1.86,0,0,0,1.91,1.93,1.63,1.63,0,0,0,1.6-1h3.28A4.7,4.7,0,0,1,135.5,837.79Zm-2-6.14h3.85a1.74,1.74,0,0,0-1.89-1.73A1.91,1.91,0,0,0,133.51,831.65Z"/><path class="cls-3" d="M146.59,837.79a5.17,5.17,0,0,1,0-10.33,4.73,4.73,0,0,1,5,5,6.92,6.92,0,0,1-.06.9h-7a1.85,1.85,0,0,0,1.9,1.93,1.65,1.65,0,0,0,1.61-1h3.27A4.68,4.68,0,0,1,146.59,837.79Zm-2-6.14h3.86a1.74,1.74,0,0,0-1.89-1.73A1.92,1.92,0,0,0,144.59,831.65Z"/><path class="cls-3" d="M160.15,832.19a1.94,1.94,0,1,0-3.86,0v5.46h-3.08v-10h3.08v1.33a3.73,3.73,0,0,1,3.05-1.44c2.32,0,3.87,1.59,3.87,4.29v5.87h-3.06Z"/><path class="cls-3" d="M169.16,824.32h3.08v13.33h-3.08Z"/><path class="cls-3" d="M178.29,827.46a3.51,3.51,0,0,1,3.1,1.56V827.6h3.08v10h-3.08v-1.43a3.54,3.54,0,0,1-3.12,1.57c-2.45,0-4.41-2-4.41-5.18S175.82,827.46,178.29,827.46Zm.9,2.68a2.24,2.24,0,0,0-2.2,2.47,2.27,2.27,0,0,0,2.2,2.5,2.5,2.5,0,0,0,0-5Z"/><path class="cls-3" d="M190.51,827.46a3.48,3.48,0,0,1,3.1,1.56V827.6h3.08v10a4.64,4.64,0,0,1-5,5c-3,0-4.93-1.51-5.2-3.91h3a1.9,1.9,0,0,0,2,1.24c1.17,0,2.09-.61,2.09-2.3v-1.42a3.56,3.56,0,0,1-3.1,1.58c-2.47,0-4.43-2-4.43-5.18S188,827.46,190.51,827.46Zm.9,2.68a2.23,2.23,0,0,0-2.19,2.47,2.21,2.21,0,1,0,2.19-2.47Z"/><path class="cls-3" d="M203.38,837.79a5.17,5.17,0,0,1,0-10.33,4.73,4.73,0,0,1,5,5,6.92,6.92,0,0,1-.06.9h-7a1.86,1.86,0,0,0,1.91,1.93,1.65,1.65,0,0,0,1.61-1h3.27A4.69,4.69,0,0,1,203.38,837.79Zm-2-6.14h3.86a1.74,1.74,0,0,0-1.89-1.73A1.92,1.92,0,0,0,201.38,831.65Z"/><path class="cls-3" d="M213.82,824.32h3.08v7.37l3-4.09h3.8l-4.18,5,4.22,5H220l-3.06-4.22v4.22h-3.08Z"/><path class="cls-3" d="M224.94,824.32H228v13.33h-3.08Z"/><path class="cls-3" d="M230,824.9a1.83,1.83,0,1,1,1.83,1.66A1.7,1.7,0,0,1,230,824.9Zm.28,2.7h3.08v10h-3.08Z"/><path class="cls-3" d="M249.41,832.19a1.93,1.93,0,1,0-3.85,0v5.46H242.5v-5.46a1.93,1.93,0,1,0-3.86,0v5.46h-3.08v-10h3.08v1.26a3.56,3.56,0,0,1,2.94-1.37,3.76,3.76,0,0,1,3.42,1.88,4,4,0,0,1,3.38-1.88c2.49,0,4.09,1.59,4.09,4.29v5.87h-3.06Z"/><path class="cls-3" d="M258.44,827.46a3.5,3.5,0,0,1,3.1,1.56V827.6h3.08v10h-3.08v-1.43a3.54,3.54,0,0,1-3.11,1.57c-2.45,0-4.42-2-4.42-5.18S256,827.46,258.44,827.46Zm.9,2.68a2.23,2.23,0,0,0-2.19,2.47,2.21,2.21,0,1,0,2.19-2.47Z"/><path class="cls-3" d="M270.67,827.46a3.49,3.49,0,0,1,3.09,1.56V827.6h3.08v10h-3.08v-1.43a3.54,3.54,0,0,1-3.11,1.57c-2.45,0-4.41-2-4.41-5.18S268.2,827.46,270.67,827.46Zm.89,2.68a2.23,2.23,0,0,0-2.19,2.47,2.27,2.27,0,0,0,2.19,2.5,2.5,2.5,0,0,0,0-5Z"/><path class="cls-3" d="M279.56,830.16h-1.23V827.6h1.23v-2.45h3.07v2.45h2v2.56h-2v4c0,.59.26.85.94.85h1.1v2.61H283.1c-2.09,0-3.54-.89-3.54-3.5Z"/><path class="cls-3" d="M292.55,827.46c2.49,0,4.43,2,4.43,5.15s-2,5.18-4.43,5.18a3.52,3.52,0,0,1-3.09-1.55v1.41h-3.08V824.32h3.08V829A3.52,3.52,0,0,1,292.55,827.46Zm-.92,2.68a2.5,2.5,0,0,0,0,5,2.27,2.27,0,0,0,2.22-2.5A2.24,2.24,0,0,0,291.63,830.14Z"/><path class="cls-3" d="M303.06,837.79a5.17,5.17,0,0,1,0-10.33,4.73,4.73,0,0,1,5,5c0,.29,0,.6-.05.9h-7a1.86,1.86,0,0,0,1.91,1.93,1.63,1.63,0,0,0,1.6-1h3.28A4.7,4.7,0,0,1,303.06,837.79Zm-2-6.14h3.85a1.74,1.74,0,0,0-1.89-1.73A1.91,1.91,0,0,0,301.07,831.65Z"/><path class="cls-3" d="M309.69,824.32h3.08v13.33h-3.08Z"/><path class="cls-3" d="M318.81,827.46a3.5,3.5,0,0,1,3.1,1.56V827.6H325v10h-3.08v-1.43a3.54,3.54,0,0,1-3.11,1.57c-2.45,0-4.42-2-4.42-5.18S316.35,827.46,318.81,827.46Zm.9,2.68a2.23,2.23,0,0,0-2.19,2.47,2.21,2.21,0,1,0,2.19-2.47Z"/><path class="cls-3" d="M331.31,837.79c-2.69,0-4.49-1.49-4.63-3.44h3a1.41,1.41,0,0,0,1.55,1.17c.79,0,1.21-.36,1.21-.81,0-1.62-5.48-.45-5.48-4.14,0-1.71,1.46-3.11,4.09-3.11s4,1.44,4.23,3.42h-2.84a1.33,1.33,0,0,0-1.48-1.14c-.72,0-1.12.29-1.12.78,0,1.6,5.44.47,5.5,4.21C335.38,836.48,333.83,837.79,331.31,837.79Z"/><path class="cls-3" d="M337.75,830.16h-1.23V827.6h1.23v-2.45h3.08v2.45h2v2.56h-2v4c0,.59.25.85.93.85h1.1v2.61H341.3c-2.09,0-3.55-.89-3.55-3.5Z"/><path class="cls-3" d="M344.28,824.9a1.84,1.84,0,1,1,1.84,1.66A1.71,1.71,0,0,1,344.28,824.9Zm.29,2.7h3.08v10h-3.08Z"/><path class="cls-3" d="M356.81,832.19a1.93,1.93,0,1,0-3.85,0v5.46h-3.08v-10H353v1.33a3.69,3.69,0,0,1,3-1.44c2.32,0,3.87,1.59,3.87,4.29v5.87h-3.06Z"/><path class="cls-3" d="M365.83,827.46a3.48,3.48,0,0,1,3.1,1.56V827.6H372v10a4.63,4.63,0,0,1-5,5c-3,0-4.93-1.51-5.2-3.91h3a1.89,1.89,0,0,0,2,1.24c1.17,0,2.09-.61,2.09-2.3v-1.42a3.56,3.56,0,0,1-3.1,1.58c-2.47,0-4.43-2-4.43-5.18S363.36,827.46,365.83,827.46Zm.9,2.68a2.24,2.24,0,0,0-2.2,2.47,2.27,2.27,0,0,0,2.2,2.5,2.5,2.5,0,0,0,0-5Z"/><path class="cls-3" d="M382.19,841.41c-2.32-2.23-3.69-6-3.69-10s1.37-7.88,3.87-10.17h3v.29a14.38,14.38,0,0,0-.17,19.62v.29Z"/><path class="cls-3" d="M400.48,832.19a1.93,1.93,0,1,0-3.85,0v5.46h-3.06v-5.46a1.93,1.93,0,1,0-3.86,0v5.46h-3.07v-10h3.07v1.26a3.56,3.56,0,0,1,2.94-1.37,3.75,3.75,0,0,1,3.42,1.88,4,4,0,0,1,3.39-1.88c2.48,0,4.08,1.59,4.08,4.29v5.87h-3.06Z"/><path class="cls-3" d="M410.16,837.79a5.17,5.17,0,0,1,0-10.33,4.73,4.73,0,0,1,5,5,6.92,6.92,0,0,1-.06.9h-7a1.85,1.85,0,0,0,1.9,1.93,1.64,1.64,0,0,0,1.61-1h3.27A4.68,4.68,0,0,1,410.16,837.79Zm-2-6.14H412a1.74,1.74,0,0,0-1.89-1.73A1.92,1.92,0,0,0,408.16,831.65Z"/><path class="cls-3" d="M421.25,837.79a5.17,5.17,0,0,1,0-10.33,4.73,4.73,0,0,1,5,5,6.92,6.92,0,0,1-.06.9h-7a1.86,1.86,0,0,0,1.91,1.93,1.65,1.65,0,0,0,1.61-1H426A4.69,4.69,0,0,1,421.25,837.79Zm-2-6.14h3.85a1.73,1.73,0,0,0-1.89-1.73A1.91,1.91,0,0,0,419.25,831.65Z"/><path class="cls-3" d="M432,837.79c-2.68,0-4.48-1.49-4.63-3.44h3.05a1.41,1.41,0,0,0,1.54,1.17c.8,0,1.21-.36,1.21-.81,0-1.62-5.47-.45-5.47-4.14,0-1.71,1.46-3.11,4.08-3.11s4,1.44,4.24,3.42h-2.85a1.32,1.32,0,0,0-1.48-1.14c-.72,0-1.11.29-1.11.78,0,1.6,5.44.47,5.49,4.21C436,836.48,434.48,837.79,432,837.79Z"/><path class="cls-3" d="M438.4,830.16h-1.22V827.6h1.22v-2.45h3.08v2.45h2v2.56h-2v4c0,.59.25.85.94.85h1.1v2.61H442c-2.09,0-3.55-.89-3.55-3.5Z"/><path class="cls-3" d="M449.69,837.79a5.17,5.17,0,0,1,0-10.33,4.74,4.74,0,0,1,5,5,6.92,6.92,0,0,1-.06.9h-7a1.86,1.86,0,0,0,1.91,1.93,1.62,1.62,0,0,0,1.6-1h3.28A4.69,4.69,0,0,1,449.69,837.79Zm-2-6.14h3.85a1.73,1.73,0,0,0-1.89-1.73A1.91,1.91,0,0,0,447.69,831.65Z"/><path class="cls-3" d="M459.08,827.6h3.08l1.43,7.18,1.69-7.18h3.26l1.71,7.15,1.4-7.15h2.9l-2.72,10h-3.4l-1.59-6.52-1.63,6.52h-3.39Z"/><path class="cls-3" d="M480.29,837.79a5.17,5.17,0,1,1,5.26-5.17A5,5,0,0,1,480.29,837.79Zm0-2.66c1.1,0,2.12-.81,2.12-2.51s-1-2.5-2.08-2.5-2.09.79-2.09,2.5S479.17,835.13,480.29,835.13Z"/><path class="cls-3" d="M490.26,837.65h-3.08v-10h3.08v1.67a3.74,3.74,0,0,1,3.15-1.78v3.26h-.84c-1.46,0-2.31.5-2.31,2.23Z"/><path class="cls-3" d="M498.7,827.46a3.68,3.68,0,0,1,3.1,1.53v-4.67h3.08v13.33H501.8v-1.44a3.49,3.49,0,0,1-3.1,1.58c-2.46,0-4.43-2-4.43-5.18S496.24,827.46,498.7,827.46Zm.9,2.68a2.23,2.23,0,0,0-2.19,2.47,2.21,2.21,0,1,0,2.19-2.47Z"/><path class="cls-3" d="M511.57,837.79a5.17,5.17,0,0,1,0-10.33,4.73,4.73,0,0,1,5,5,6.92,6.92,0,0,1-.06.9h-7a1.86,1.86,0,0,0,1.91,1.93,1.63,1.63,0,0,0,1.6-1h3.27A4.68,4.68,0,0,1,511.57,837.79Zm-2-6.14h3.86a1.74,1.74,0,0,0-1.89-1.73A1.92,1.92,0,0,0,509.57,831.65Z"/><path class="cls-3" d="M525.13,832.19a1.94,1.94,0,1,0-3.86,0v5.46H518.2v-10h3.07v1.33a3.73,3.73,0,0,1,3.05-1.44c2.32,0,3.87,1.59,3.87,4.29v5.87h-3.06Z"/><path class="cls-3" d="M533.86,824.9a1.83,1.83,0,1,1,1.83,1.66A1.7,1.7,0,0,1,533.86,824.9Zm.28,2.7h3.08v10h-3.08Z"/><path class="cls-3" d="M546.39,832.19a1.94,1.94,0,1,0-3.86,0v5.46h-3.08v-10h3.08v1.33a3.73,3.73,0,0,1,3.05-1.44c2.32,0,3.87,1.59,3.87,4.29v5.87h-3.06Z"/><path class="cls-3" d="M566.71,825v12.64h-3.08l-5.15-7.8v7.8H555.4V825h3.08l5.15,7.83V825Z"/><path class="cls-3" d="M573.4,837.79a5.17,5.17,0,0,1,0-10.33,4.73,4.73,0,0,1,5,5,6.92,6.92,0,0,1-.06.9h-7a1.85,1.85,0,0,0,1.9,1.93,1.64,1.64,0,0,0,1.61-1h3.27A4.68,4.68,0,0,1,573.4,837.79Zm-2-6.14h3.86a1.74,1.74,0,0,0-1.89-1.73A1.92,1.92,0,0,0,571.4,831.65Z"/><path class="cls-3" d="M583.84,827.46a3.68,3.68,0,0,1,3.1,1.53v-4.67H590v13.33h-3.08v-1.44a3.49,3.49,0,0,1-3.1,1.58c-2.46,0-4.43-2-4.43-5.18S581.38,827.46,583.84,827.46Zm.9,2.68a2.23,2.23,0,0,0-2.19,2.47,2.21,2.21,0,1,0,2.19-2.47Z"/><path class="cls-3" d="M596.71,837.79a5.17,5.17,0,0,1,0-10.33,4.73,4.73,0,0,1,5,5,6.92,6.92,0,0,1-.06.9h-7a1.85,1.85,0,0,0,1.9,1.93,1.64,1.64,0,0,0,1.61-1h3.27A4.68,4.68,0,0,1,596.71,837.79Zm-2-6.14h3.86a1.74,1.74,0,0,0-1.89-1.73A1.92,1.92,0,0,0,594.71,831.65Z"/><path class="cls-3" d="M606.41,837.65h-3.08v-10h3.08v1.67a3.76,3.76,0,0,1,3.15-1.78v3.26h-.84c-1.46,0-2.31.5-2.31,2.23Z"/><path class="cls-3" d="M610.86,830.05h7.92v2.56h-7.92Z"/><path class="cls-3" d="M78.1,845.92h3.08v13.33H78.1Z"/><path class="cls-3" d="M87.23,849.06a3.51,3.51,0,0,1,3.1,1.56V849.2h3.08v10H90.33v-1.42a3.56,3.56,0,0,1-3.12,1.56c-2.45,0-4.41-2-4.41-5.18S84.76,849.06,87.23,849.06Zm.9,2.68a2.24,2.24,0,0,0-2.2,2.47,2.27,2.27,0,0,0,2.2,2.5,2.5,2.5,0,0,0,0-5Z"/><path class="cls-3" d="M102.57,853.79a1.94,1.94,0,1,0-3.86,0v5.46H95.63v-10h3.08v1.33a3.73,3.73,0,0,1,3.05-1.44c2.32,0,3.87,1.59,3.87,4.29v5.87h-3.06Z"/><path class="cls-3" d="M111.58,849.06a3.68,3.68,0,0,1,3.1,1.53v-4.67h3.08v13.33h-3.08v-1.44a3.47,3.47,0,0,1-3.1,1.58c-2.46,0-4.43-2-4.43-5.18S109.12,849.06,111.58,849.06Zm.9,2.68a2.23,2.23,0,0,0-2.19,2.47,2.21,2.21,0,1,0,2.19-2.47Z"/><path class="cls-3" d="M127.62,849.06a3.48,3.48,0,0,1,3.1,1.56V849.2h3.08v10a4.64,4.64,0,0,1-5,5c-3,0-4.93-1.51-5.2-3.91h3a1.9,1.9,0,0,0,2,1.24c1.17,0,2.09-.61,2.09-2.3v-1.42a3.56,3.56,0,0,1-3.1,1.58c-2.47,0-4.43-2-4.43-5.18S125.15,849.06,127.62,849.06Zm.9,2.68a2.24,2.24,0,0,0-2.2,2.47,2.27,2.27,0,0,0,2.2,2.5,2.5,2.5,0,0,0,0-5Z"/><path class="cls-3" d="M140.49,859.39a5.17,5.17,0,0,1,0-10.33,4.73,4.73,0,0,1,5,5,6.92,6.92,0,0,1-.06.9h-7a1.86,1.86,0,0,0,1.91,1.93,1.65,1.65,0,0,0,1.61-1h3.27A4.69,4.69,0,0,1,140.49,859.39Zm-2-6.14h3.86a1.74,1.74,0,0,0-1.9-1.73A1.91,1.91,0,0,0,138.49,853.25Z"/><path class="cls-3" d="M151.69,859.39a5.17,5.17,0,1,1,5.25-5.17A5,5,0,0,1,151.69,859.39Zm0-2.66c1.1,0,2.12-.81,2.12-2.51s-1-2.5-2.09-2.5-2.09.79-2.09,2.5S150.57,856.73,151.69,856.73Z"/><path class="cls-3" d="M163.15,859.39a5.17,5.17,0,1,1,5.26-5.17A5,5,0,0,1,163.15,859.39Zm0-2.66a2.2,2.2,0,0,0,2.13-2.51c0-1.71-1-2.5-2.09-2.5s-2.09.79-2.09,2.5S162,856.73,163.15,856.73Z"/><path class="cls-3" d="M173.86,849.06a3.48,3.48,0,0,1,3.1,1.56V849.2H180v10a4.64,4.64,0,0,1-5,5c-3,0-4.93-1.51-5.2-3.91h3a1.9,1.9,0,0,0,2,1.24c1.17,0,2.09-.61,2.09-2.3v-1.42a3.56,3.56,0,0,1-3.1,1.58c-2.46,0-4.43-2-4.43-5.18S171.4,849.06,173.86,849.06Zm.9,2.68a2.23,2.23,0,0,0-2.19,2.47,2.21,2.21,0,1,0,2.19-2.47Z"/><path class="cls-3" d="M186.35,859.39c-2.68,0-4.48-1.49-4.62-3.44h3a1.41,1.41,0,0,0,1.55,1.17c.79,0,1.2-.36,1.2-.81,0-1.62-5.47-.45-5.47-4.14,0-1.71,1.46-3.11,4.09-3.11s4,1.44,4.23,3.42h-2.85a1.32,1.32,0,0,0-1.47-1.14c-.72,0-1.12.29-1.12.78,0,1.6,5.44.46,5.49,4.21C190.42,858.08,188.87,859.39,186.35,859.39Z"/><path class="cls-3" d="M192.8,851.76h-1.23V849.2h1.23v-2.45h3.08v2.45h2v2.56h-2v4c0,.59.25.85.93.85h1.1v2.61h-1.57c-2.08,0-3.54-.88-3.54-3.5Z"/><path class="cls-3" d="M198.79,863v-.29a14.4,14.4,0,0,0-.16-19.62v-.29h3c2.51,2.28,3.87,6.1,3.87,10.17s-1.36,7.8-3.69,10Z"/></g><g id="pinda-voordelen"><text class="cls-2" transform="translate(75.42 379.03)">Pindakaas</text><text class="cls-4" transform="translate(76.63 417.61)">Kies voor 100% pindakaas. Hier zitten vaak geen suiker, zout <tspan x="0" y="21.6">of olie aan toegevoegd waardoor het een gezonde keuze is. </tspan><tspan x="0" y="43.2">Pinda’s vallen onder peulvruchten/ noten en bevatten veel </tspan><tspan x="0" y="64.8">vezels.</tspan><tspan x="0" y="108">Voordelen:</tspan><tspan x="0" y="129.6">-</tspan><tspan x="0" y="194.4">-</tspan><tspan x="0" y="259.2">-</tspan></text><text class="cls-4" transform="translate(102.11 548.24)">Helpt met het verlagen van de LDL-cholesterol (houdt de <tspan x="0" y="21.6">bloedvaten gezond).</tspan><tspan x="0" y="64.8">Rijk aan koolhydraten, eiwitten, vitamines B en minera</tspan><tspan x="504.21" y="64.8">-</tspan><tspan x="0" y="86.4">len zoals, ijzer, calcium etc.</tspan><tspan x="0" y="129.6">Bevat geen suiker, zout of olie</tspan></text></g></g><g id="buttons"><g id="avocado-tips"><rect class="cls-5" x="990" y="161" width="872" height="112"/><text class="cls-2" transform="translate(1340.26 227.43)">Avocado tips</text></g><g id="alternatief"><rect class="cls-6" x="58" y="161" width="872" height="112"/><text class="cls-7" transform="translate(283.14 226.56)">Avocado Alternatief</text></g><g id="deel-bnt"><rect class="cls-8" x="1559" y="1309" width="247" height="58" rx="10.71"/><text class="cls-9" transform="translate(1601.87 1344.69)">Deel deze informatie</text><g id="pijl-group"><path class="cls-10" d="M1590.86,1335l-18.61,2.61a9.4,9.4,0,0,1,8.22,5.43,9.69,9.69,0,0,1-.34,8.06Q1585.49,1343,1590.86,1335Z"/></g></g></g><g id="pas_op_text" data-name="pas op text"><g id="group-pasOp"><rect class="cls-11" x="1194.47" y="517.5" width="611.5" height="302" rx="30"/><text class="cls-12" transform="translate(1242.58 572.6)">Pas op:</text><path class="cls-1" d="M1245.37,594.54h2.05v12.51h-2.05Z"/><path class="cls-1" d="M1257.16,601.51c0-1.82-1-2.76-2.48-2.76s-2.51.94-2.51,2.76v5.54h-2.05v-9.92h2.05v1.14a4.06,4.06,0,0,1,7,2.93v5.85h-2Z"/><path class="cls-1" d="M1267.51,597.13l2.81,8.09,2.81-8.09h2.18l-3.78,9.92h-2.45l-3.77-9.92Z"/><path class="cls-1" d="M1281.12,607.22a4.81,4.81,0,0,1-4.95-5.13,4.75,4.75,0,0,1,4.95-5.12,4.62,4.62,0,0,1,4.82,4.88,5.72,5.72,0,0,1-.07,1h-7.58a2.74,2.74,0,0,0,2.83,2.63,2.4,2.4,0,0,0,2.34-1.39h2.21A4.52,4.52,0,0,1,1281.12,607.22Zm-2.81-6h5.49a2.57,2.57,0,0,0-2.77-2.5A2.71,2.71,0,0,0,1278.31,601.2Z"/><path class="cls-1" d="M1292.22,607.22a4.82,4.82,0,0,1-5-5.13,4.75,4.75,0,0,1,5-5.12,4.63,4.63,0,0,1,4.83,4.88,6.86,6.86,0,0,1-.07,1h-7.58a2.72,2.72,0,0,0,2.82,2.63,2.41,2.41,0,0,0,2.35-1.39h2.21A4.53,4.53,0,0,1,1292.22,607.22Zm-2.8-6h5.49a2.58,2.58,0,0,0-2.78-2.5A2.7,2.7,0,0,0,1289.42,601.2Z"/><path class="cls-1" d="M1299.06,593.73h2.06v13.32h-2.06Z"/><path class="cls-1" d="M1312.49,597a4.21,4.21,0,0,1,3.44,1.6v-1.44H1318v9.92h-2.07v-1.47a4.29,4.29,0,0,1-3.47,1.64c-2.58,0-4.65-2.11-4.65-5.17S1309.88,597,1312.49,597Zm.43,1.78a3,3,0,0,0-3,3.3,3.12,3.12,0,0,0,3,3.38,3.36,3.36,0,0,0,0-6.68Z"/><path class="cls-1" d="M1327.74,601.51c0-1.82-1-2.76-2.49-2.76s-2.5.94-2.5,2.76v5.54h-2v-9.92h2v1.14a4.05,4.05,0,0,1,7,2.93v5.85h-2Z"/><path class="cls-1" d="M1336.4,597a4.57,4.57,0,0,1,3.42,1.55v-4.79h2.07v13.32h-2.07v-1.49a4.12,4.12,0,0,1-3.44,1.66c-2.61,0-4.68-2.11-4.68-5.17S1333.77,597,1336.4,597Zm.41,1.78a3.05,3.05,0,0,0-3,3.3,3.13,3.13,0,0,0,3,3.38,3.36,3.36,0,0,0,0-6.68Z"/><path class="cls-1" d="M1348.85,607.22a4.82,4.82,0,0,1-4.95-5.13,4.75,4.75,0,0,1,4.95-5.12,4.63,4.63,0,0,1,4.83,4.88,6.86,6.86,0,0,1-.07,1H1346a2.72,2.72,0,0,0,2.82,2.63,2.4,2.4,0,0,0,2.34-1.39h2.22A4.54,4.54,0,0,1,1348.85,607.22Zm-2.81-6h5.49a2.57,2.57,0,0,0-2.77-2.5A2.71,2.71,0,0,0,1346,601.2Z"/><path class="cls-1" d="M1357.74,607.05h-2v-9.92h2v1.44a3.24,3.24,0,0,1,3-1.6v2.13h-.52c-1.51,0-2.45.63-2.45,2.73Z"/><path class="cls-1" d="M1366.87,607.22a4.81,4.81,0,0,1-4.95-5.13,4.75,4.75,0,0,1,4.95-5.12,4.63,4.63,0,0,1,4.83,4.88,5.73,5.73,0,0,1-.08,1H1364a2.74,2.74,0,0,0,2.83,2.63,2.4,2.4,0,0,0,2.34-1.39h2.21A4.52,4.52,0,0,1,1366.87,607.22Zm-2.81-6h5.49a2.57,2.57,0,0,0-2.77-2.5A2.71,2.71,0,0,0,1364.06,601.2Z"/><path class="cls-1" d="M1379.41,597.13l2.81,8.09,2.81-8.09h2.18l-3.78,9.92H1381l-3.76-9.92Z"/><path class="cls-1" d="M1392.75,597a4.21,4.21,0,0,1,3.44,1.6v-1.44h2.07v9.92h-2.07v-1.47a4.29,4.29,0,0,1-3.47,1.64c-2.58,0-4.65-2.11-4.65-5.17S1390.14,597,1392.75,597Zm.43,1.78a3,3,0,0,0-3,3.3,3.12,3.12,0,0,0,3,3.38,3.36,3.36,0,0,0,0-6.68Z"/><path class="cls-1" d="M1403,607.05h-2v-9.92h2v1.44a3.24,3.24,0,0,1,3-1.6v2.13h-.52c-1.51,0-2.45.63-2.45,2.73Z"/><path class="cls-1" d="M1407.6,594.51a1.31,1.31,0,1,1,2.61,0,1.31,1.31,0,1,1-2.61,0Zm.27,2.62h2.05v9.92h-2.05Z"/><path class="cls-1" d="M1416.62,597a4.23,4.23,0,0,1,3.44,1.6v-1.44h2.07v9.92h-2.07v-1.47a4.29,4.29,0,0,1-3.48,1.64c-2.57,0-4.64-2.11-4.64-5.17S1414,597,1416.62,597Zm.43,1.78a3,3,0,0,0-3,3.3,3.12,3.12,0,0,0,3,3.38,3.36,3.36,0,0,0,0-6.68Z"/><path class="cls-1" d="M1431.87,601.51c0-1.82-1-2.76-2.49-2.76s-2.5.94-2.5,2.76v5.54h-2.05v-9.92h2.05v1.14a3.82,3.82,0,0,1,2.95-1.3,3.86,3.86,0,0,1,4.07,4.23v5.85h-2Z"/><path class="cls-1" d="M1436.83,598.81h-1.17v-1.68h1.17v-2.46h2.07v2.46h2.42v1.68h-2.42v5.49c0,.74.29,1,1.16,1h1.26v1.71h-1.62c-1.77,0-2.87-.73-2.87-2.75Z"/><path class="cls-1" d="M1447.47,607.22a4.82,4.82,0,0,1-5-5.13,4.75,4.75,0,0,1,5-5.12,4.63,4.63,0,0,1,4.83,4.88,6.86,6.86,0,0,1-.07,1h-7.58a2.72,2.72,0,0,0,2.82,2.63,2.4,2.4,0,0,0,2.34-1.39H1452A4.54,4.54,0,0,1,1447.47,607.22Zm-2.81-6h5.49a2.57,2.57,0,0,0-2.77-2.5A2.71,2.71,0,0,0,1444.66,601.2Z"/><path class="cls-1" d="M1461.35,601.51c0-1.82-1-2.76-2.48-2.76s-2.51.94-2.51,2.76v5.54h-2v-9.92h2v1.14a4.06,4.06,0,0,1,7,2.93v5.85h-2Z"/><path class="cls-1" d="M1471.7,597.13l2.81,8.09,2.81-8.09h2.17l-3.78,9.92h-2.45l-3.76-9.92Z"/><path class="cls-1" d="M1485,597a4.24,4.24,0,0,1,3.44,1.6v-1.44h2.07v9.92h-2.07v-1.47a4.29,4.29,0,0,1-3.48,1.64c-2.57,0-4.64-2.11-4.64-5.17S1482.43,597,1485,597Zm.43,1.78a3.05,3.05,0,0,0-3,3.3,3.13,3.13,0,0,0,3,3.38,3.36,3.36,0,0,0,0-6.68Z"/><path class="cls-1" d="M1500.28,601.51c0-1.82-1-2.76-2.48-2.76s-2.5.94-2.5,2.76v5.54h-2.06v-9.92h2.06v1.14a3.8,3.8,0,0,1,3-1.3,3.87,3.87,0,0,1,4.07,4.23v5.85h-2Z"/><path class="cls-1" d="M1515.11,597c2.62,0,4.67,2,4.67,5.08s-2,5.17-4.67,5.17a4.5,4.5,0,0,1-3.45-1.6v6.15h-2.05V597.13h2.05v1.46A4.31,4.31,0,0,1,1515.11,597Zm-.44,1.78a3.36,3.36,0,0,0,0,6.68,3.13,3.13,0,0,0,3-3.38A3.05,3.05,0,0,0,1514.67,598.75Z"/><path class="cls-1" d="M1521.54,594.51a1.31,1.31,0,1,1,1.31,1.31A1.3,1.3,0,0,1,1521.54,594.51Zm.27,2.62h2v9.92h-2Z"/><path class="cls-1" d="M1533.6,601.51c0-1.82-1-2.76-2.48-2.76s-2.51.94-2.51,2.76v5.54h-2v-9.92h2v1.14a4.06,4.06,0,0,1,7,2.93v5.85h-2Z"/><path class="cls-1" d="M1542.26,597a4.57,4.57,0,0,1,3.42,1.55v-4.79h2.07v13.32h-2.07v-1.49a4.12,4.12,0,0,1-3.44,1.66c-2.61,0-4.68-2.11-4.68-5.17S1539.63,597,1542.26,597Zm.41,1.78a3,3,0,0,0-3,3.3,3.12,3.12,0,0,0,3,3.38,3.36,3.36,0,0,0,0-6.68Z"/><path class="cls-1" d="M1554.44,597a4.21,4.21,0,0,1,3.44,1.6v-1.44H1560v9.92h-2.07v-1.47a4.29,4.29,0,0,1-3.47,1.64c-2.58,0-4.65-2.11-4.65-5.17S1551.83,597,1554.44,597Zm.44,1.78a3.05,3.05,0,0,0-3,3.3,3.13,3.13,0,0,0,3,3.38,3.36,3.36,0,0,0,0-6.68Z"/><path class="cls-1" d="M1562.65,593.73h2v7.74l3.6-4.34h2.85l-4.57,5,4.57,4.95h-2.77l-3.68-4.26v4.26h-2Z"/><path class="cls-1" d="M1576.62,597a4.23,4.23,0,0,1,3.44,1.6v-1.44h2.07v9.92h-2.07v-1.47a4.29,4.29,0,0,1-3.48,1.64c-2.57,0-4.64-2.11-4.64-5.17S1574,597,1576.62,597Zm.43,1.78a3.05,3.05,0,0,0-3,3.3,3.13,3.13,0,0,0,3,3.38,3.36,3.36,0,0,0,0-6.68Z"/><path class="cls-1" d="M1588.82,597a4.21,4.21,0,0,1,3.44,1.6v-1.44h2.07v9.92h-2.07v-1.47a4.29,4.29,0,0,1-3.47,1.64c-2.58,0-4.65-2.11-4.65-5.17S1586.21,597,1588.82,597Zm.44,1.78a3.05,3.05,0,0,0-3,3.3,3.13,3.13,0,0,0,3,3.38,3.36,3.36,0,0,0,0-6.68Z"/><path class="cls-1" d="M1600.63,607.22c-2.38,0-4.05-1.41-4.14-3.21h2.13a1.81,1.81,0,0,0,2,1.48c1.18,0,1.81-.51,1.81-1.19,0-1.94-5.76-.83-5.76-4.47,0-1.58,1.48-2.86,3.82-2.86s3.73,1.21,3.83,3.19h-2a1.64,1.64,0,0,0-1.85-1.46c-1.1,0-1.68.45-1.68,1.12,0,2,5.6.88,5.71,4.46C1604.43,606,1603,607.22,1600.63,607.22Z"/><path class="cls-1" d="M1617.64,598.81l-4.5,6.57h4.5v1.67h-6.88v-1.67l4.52-6.57h-4.52v-1.68h6.88Z"/><path class="cls-1" d="M1619.53,594.51a1.31,1.31,0,1,1,1.31,1.31A1.3,1.3,0,0,1,1619.53,594.51Zm.27,2.62h2v9.92h-2Z"/><path class="cls-1" d="M1626.6,597.13V609c0,2-1.08,2.77-2.84,2.77h-1.06V610h.7c.86,0,1.15-.3,1.15-1V597.13Zm-2.32-2.62a1.31,1.31,0,1,1,2.61,0,1.31,1.31,0,1,1-2.61,0Z"/><path class="cls-1" d="M1636.34,601.51c0-1.82-1-2.76-2.48-2.76s-2.5.94-2.5,2.76v5.54h-2.06v-9.92h2.06v1.14a3.8,3.8,0,0,1,3-1.3,3.87,3.87,0,0,1,4.07,4.23v5.85h-2Z"/><path class="cls-1" d="M1649.27,607.22c-2.38,0-4-1.41-4.15-3.21h2.13a1.81,1.81,0,0,0,2,1.48c1.19,0,1.82-.51,1.82-1.19,0-1.94-5.76-.83-5.76-4.47,0-1.58,1.47-2.86,3.81-2.86s3.73,1.21,3.84,3.19h-2a1.64,1.64,0,0,0-1.86-1.46c-1.1,0-1.67.45-1.67,1.12,0,2,5.6.88,5.71,4.46C1653.07,606,1651.61,607.22,1649.27,607.22Z"/><path class="cls-1" d="M1664.26,607.05h-2v-1.18a3.71,3.71,0,0,1-2.94,1.33,3.87,3.87,0,0,1-4.08-4.23v-5.84h2v5.53c0,1.82,1,2.76,2.49,2.76s2.5-.94,2.5-2.76v-5.53h2Z"/><path class="cls-1" d="M1666.69,594.51a1.31,1.31,0,1,1,1.31,1.31A1.3,1.3,0,0,1,1666.69,594.51Zm.27,2.62h2v9.92h-2Z"/><path class="cls-1" d="M1671.71,593.73h2v7.74l3.6-4.34h2.85l-4.57,5,4.57,4.95h-2.77l-3.68-4.26v4.26h-2Z"/><path class="cls-1" d="M1686,607.22a4.82,4.82,0,0,1-5-5.13,4.75,4.75,0,0,1,5-5.12,4.63,4.63,0,0,1,4.83,4.88,5.73,5.73,0,0,1-.08,1h-7.58a2.74,2.74,0,0,0,2.83,2.63,2.4,2.4,0,0,0,2.34-1.39h2.21A4.52,4.52,0,0,1,1686,607.22Zm-2.81-6h5.49a2.57,2.57,0,0,0-2.77-2.5A2.71,2.71,0,0,0,1683.14,601.2Z"/><path class="cls-1" d="M1694.84,607.05h-2v-9.92h2v1.44a3.24,3.24,0,0,1,3-1.6v2.13h-.52c-1.51,0-2.45.63-2.45,2.73Z"/><path class="cls-1" d="M1699.72,604.59H1702l-2.18,5h-1.33Z"/><path class="cls-1" d="M1714.75,598.81l-4.5,6.57h4.5v1.67h-6.88v-1.67l4.52-6.57h-4.52v-1.68h6.88Z"/><path class="cls-1" d="M1721.21,607.22a4.84,4.84,0,0,1-5-5.13,5.06,5.06,0,1,1,10.12,0A5,5,0,0,1,1721.21,607.22Zm0-1.79a3,3,0,0,0,3-3.34,3,3,0,0,0-3-3.34c-1.54,0-2.93,1.08-2.93,3.34S1719.66,605.43,1721.21,605.43Z"/><path class="cls-1" d="M1737.38,607.05h-2.06v-1.18a3.69,3.69,0,0,1-2.93,1.33,3.88,3.88,0,0,1-4.09-4.23v-5.84h2v5.53c0,1.82,1,2.76,2.48,2.76s2.5-.94,2.5-2.76v-5.53h2.06Z"/><path class="cls-1" d="M1740.4,598.81h-1.17v-1.68h1.17v-2.46h2.07v2.46h2.41v1.68h-2.41v5.49c0,.74.29,1,1.15,1h1.26v1.71h-1.62c-1.76,0-2.86-.73-2.86-2.75Z"/><path class="cls-1" d="M1746.79,604.59H1749l-2.18,5h-1.33Z"/><path class="cls-1" d="M1249.67,628.82a4.84,4.84,0,0,1-5-5.13,5.06,5.06,0,1,1,10.12,0A5,5,0,0,1,1249.67,628.82Zm0-1.78a3.06,3.06,0,0,0,3-3.35,3,3,0,0,0-3-3.33c-1.55,0-2.94,1.08-2.94,3.33S1248.12,627,1249.67,627Z"/><path class="cls-1" d="M1256.85,615.33h2.06v13.33h-2.06Z"/><path class="cls-1" d="M1261.34,616.11a1.31,1.31,0,1,1,1.31,1.31A1.3,1.3,0,0,1,1261.34,616.11Zm.27,2.62h2.05v9.93h-2.05Z"/><path class="cls-1" d="M1270.62,628.82a4.82,4.82,0,0,1-4.95-5.13,4.75,4.75,0,0,1,4.95-5.12,4.63,4.63,0,0,1,4.83,4.88,6.86,6.86,0,0,1-.07,1h-7.58a2.72,2.72,0,0,0,2.82,2.63,2.4,2.4,0,0,0,2.35-1.39h2.21A4.53,4.53,0,0,1,1270.62,628.82Zm-2.8-6h5.49a2.57,2.57,0,0,0-2.77-2.5A2.7,2.7,0,0,0,1267.82,622.8Z"/><path class="cls-1" d="M1286.45,628.82a4.84,4.84,0,0,1-5-5.13,5.06,5.06,0,1,1,10.12,0A5,5,0,0,1,1286.45,628.82Zm0-1.78a3.06,3.06,0,0,0,3-3.35,3,3,0,0,0-3-3.33c-1.55,0-2.93,1.08-2.93,3.33S1284.9,627,1286.45,627Z"/><path class="cls-1" d="M1293.88,620.41h-1.17v-1.68h1.17V618c0-2.28,1.17-3.28,3.76-3.28v1.72c-1.26,0-1.69.43-1.69,1.56v.7h1.84v1.68H1296v8.25h-2.07Z"/><path class="cls-1" d="M1309.79,618.57c2.61,0,4.67,2,4.67,5.08s-2.06,5.17-4.67,5.17a4.48,4.48,0,0,1-3.46-1.61v6.16h-2V618.73h2v1.46A4.35,4.35,0,0,1,1309.79,618.57Zm-.45,1.79a3.36,3.36,0,0,0,0,6.68,3.14,3.14,0,0,0,3-3.39A3,3,0,0,0,1309.34,620.36Z"/><path class="cls-1" d="M1320.48,618.57a4.21,4.21,0,0,1,3.44,1.6v-1.44H1326v9.93h-2.07v-1.48a4.26,4.26,0,0,1-3.47,1.64c-2.58,0-4.65-2.11-4.65-5.17S1317.87,618.57,1320.48,618.57Zm.44,1.79a3,3,0,0,0-3,3.29,3.13,3.13,0,0,0,3,3.39,3.36,3.36,0,0,0,0-6.68Z"/><path class="cls-1" d="M1328.69,615.33h2v13.33h-2Z"/><path class="cls-1" d="M1347.5,623.11c0-1.82-1-2.75-2.48-2.75s-2.5.93-2.5,2.75v5.55h-2v-5.55c0-1.82-1-2.75-2.48-2.75s-2.5.93-2.5,2.75v5.55h-2.06v-9.93h2.06v1.14a3.76,3.76,0,0,1,2.93-1.3,4.11,4.11,0,0,0,7,0,3.88,3.88,0,0,1,4.09,4.23v5.86h-2Z"/><path class="cls-1" d="M1353.17,618.73l2.81,8.09,2.81-8.09H1361l-3.78,9.93h-2.45l-3.77-9.93Z"/><path class="cls-1" d="M1366.78,628.82a4.81,4.81,0,0,1-5-5.13,4.75,4.75,0,0,1,5-5.12,4.63,4.63,0,0,1,4.83,4.88,5.73,5.73,0,0,1-.08,1H1364a2.74,2.74,0,0,0,2.83,2.63,2.4,2.4,0,0,0,2.34-1.39h2.21A4.52,4.52,0,0,1,1366.78,628.82Zm-2.81-6h5.49a2.57,2.57,0,0,0-2.77-2.5A2.71,2.71,0,0,0,1364,622.8Z"/><path class="cls-1" d="M1373.94,620.41h-1.17v-1.68h1.17v-2.46H1376v2.46h2.42v1.68H1376v5.49c0,.74.29,1.05,1.16,1.05h1.26v1.71h-1.62c-1.77,0-2.87-.74-2.87-2.76Z"/><path class="cls-1" d="M1389,618.57a4.21,4.21,0,0,1,3.44,1.6v-1.44h2.07v9.93h-2.07v-1.48a4.26,4.26,0,0,1-3.47,1.64c-2.58,0-4.65-2.11-4.65-5.17S1386.38,618.57,1389,618.57Zm.43,1.79a3,3,0,0,0-3,3.29,3.13,3.13,0,0,0,3,3.39,3.36,3.36,0,0,0,0-6.68Z"/><path class="cls-1" d="M1401.2,618.57a4.21,4.21,0,0,1,3.43,1.6v-1.44h2.08v9.93h-2.08v-1.48a4.24,4.24,0,0,1-3.47,1.64c-2.58,0-4.65-2.11-4.65-5.17S1398.58,618.57,1401.2,618.57Zm.43,1.79a3,3,0,0,0-3,3.29,3.13,3.13,0,0,0,3,3.39,3.36,3.36,0,0,0,0-6.68Z"/><path class="cls-1" d="M1416.44,623.11c0-1.82-1-2.75-2.48-2.75s-2.51.93-2.51,2.75v5.55h-2v-9.93h2v1.14a4.06,4.06,0,0,1,7,2.93v5.86h-2Z"/><path class="cls-1" d="M1426.09,620.41h-1.17v-1.68h1.17v-2.46h2.07v2.46h2.41v1.68h-2.41v5.49c0,.74.29,1.05,1.15,1.05h1.26v1.71H1429c-1.76,0-2.86-.74-2.86-2.76Z"/><path class="cls-1" d="M1436.76,628.82a4.84,4.84,0,0,1-5-5.13,5.06,5.06,0,1,1,10.12,0A5,5,0,0,1,1436.76,628.82Zm0-1.78a3.06,3.06,0,0,0,3-3.35,3,3,0,0,0-3-3.33c-1.55,0-2.94,1.08-2.94,3.33S1435.21,627,1436.76,627Z"/><path class="cls-1" d="M1448.21,628.82a4.82,4.82,0,0,1-5-5.13,4.75,4.75,0,0,1,5-5.12,4.63,4.63,0,0,1,4.83,4.88,5.73,5.73,0,0,1-.08,1h-7.58a2.74,2.74,0,0,0,2.83,2.63,2.4,2.4,0,0,0,2.34-1.39h2.22A4.54,4.54,0,0,1,1448.21,628.82Zm-2.81-6h5.49a2.57,2.57,0,0,0-2.77-2.5A2.71,2.71,0,0,0,1445.4,622.8Z"/><path class="cls-1" d="M1459.05,618.57a4.23,4.23,0,0,1,3.44,1.6v-1.44h2.07v10.09a4.5,4.5,0,0,1-4.85,4.73c-2.64,0-4.61-1.31-4.86-3.51h2a2.75,2.75,0,0,0,2.82,1.73,2.64,2.64,0,0,0,2.78-2.95v-1.66a4.27,4.27,0,0,1-3.44,1.66c-2.61,0-4.69-2.11-4.69-5.17A4.73,4.73,0,0,1,1459.05,618.57Zm.43,1.79a3,3,0,0,0-3,3.29,3.13,3.13,0,0,0,3,3.39,3.36,3.36,0,0,0,0-6.68Z"/><path class="cls-1" d="M1471.52,628.82a4.82,4.82,0,0,1-5-5.13,4.75,4.75,0,0,1,5-5.12,4.63,4.63,0,0,1,4.83,4.88,5.73,5.73,0,0,1-.08,1h-7.58a2.74,2.74,0,0,0,2.83,2.63,2.4,2.4,0,0,0,2.34-1.39h2.22A4.54,4.54,0,0,1,1471.52,628.82Zm-2.81-6h5.49a2.57,2.57,0,0,0-2.77-2.5A2.71,2.71,0,0,0,1468.71,622.8Z"/><path class="cls-1" d="M1479.39,618.73l2.8,8.09,2.81-8.09h2.18l-3.78,9.93H1481l-3.76-9.93Z"/><path class="cls-1" d="M1493,628.82a4.84,4.84,0,0,1-5-5.13,5.06,5.06,0,1,1,10.12,0A5,5,0,0,1,1493,628.82Zm0-1.78a3.06,3.06,0,0,0,3-3.35,3,3,0,0,0-3-3.33c-1.54,0-2.93,1.08-2.93,3.33S1491.48,627,1493,627Z"/><path class="cls-1" d="M1504.48,628.82a4.81,4.81,0,0,1-5-5.13,4.75,4.75,0,0,1,5-5.12,4.63,4.63,0,0,1,4.82,4.88,5.72,5.72,0,0,1-.07,1h-7.58a2.73,2.73,0,0,0,2.83,2.63,2.4,2.4,0,0,0,2.34-1.39H1509A4.53,4.53,0,0,1,1504.48,628.82Zm-2.81-6h5.49a2.57,2.57,0,0,0-2.77-2.5A2.7,2.7,0,0,0,1501.67,622.8Z"/><path class="cls-1" d="M1515.31,618.57a4.22,4.22,0,0,1,3.44,1.6v-1.44h2.07v10.09a4.49,4.49,0,0,1-4.84,4.73c-2.65,0-4.61-1.31-4.86-3.51h2a2.77,2.77,0,0,0,2.83,1.73,2.64,2.64,0,0,0,2.77-2.95v-1.66a4.25,4.25,0,0,1-3.44,1.66c-2.61,0-4.68-2.11-4.68-5.17S1512.7,618.57,1515.31,618.57Zm.44,1.79a3,3,0,0,0-3,3.29,3.13,3.13,0,0,0,3,3.39,3.36,3.36,0,0,0,0-6.68Z"/><path class="cls-1" d="M1527.54,618.57a4.57,4.57,0,0,1,3.42,1.55v-4.79H1533v13.33H1531v-1.5a4.12,4.12,0,0,1-3.44,1.66c-2.61,0-4.68-2.11-4.68-5.17S1524.91,618.57,1527.54,618.57Zm.41,1.79a3,3,0,0,0-3,3.29,3.13,3.13,0,0,0,3,3.39,3.36,3.36,0,0,0,0-6.68Z"/><path class="cls-1" d="M1536.55,628.78a1.32,1.32,0,1,1,1.3-1.31A1.29,1.29,0,0,1,1536.55,628.78Z"/><path class="cls-1" d="M1555.47,622.44c0,3.86-2.63,6.22-6.64,6.22h-4.09V616.14h4.09C1552.84,616.14,1555.47,618.57,1555.47,622.44Zm-6.64,4.54c3,0,4.54-1.69,4.54-4.54s-1.59-4.62-4.54-4.62h-2V627Z"/><path class="cls-1" d="M1557.23,616.11a1.31,1.31,0,1,1,2.61,0,1.31,1.31,0,1,1-2.61,0Zm.27,2.62h2.06v9.93h-2.06Z"/><path class="cls-1" d="M1562.58,620.41h-1.17v-1.68h1.17v-2.46h2.07v2.46h2.41v1.68h-2.41v5.49c0,.74.29,1.05,1.15,1.05h1.26v1.71h-1.62c-1.76,0-2.86-.74-2.86-2.76Z"/><path class="cls-1" d="M1573.36,616.11a1.31,1.31,0,1,1,2.61,0,1.31,1.31,0,1,1-2.61,0Zm.27,2.62h2v9.93h-2Z"/><path class="cls-1" d="M1582,628.82c-2.38,0-4.06-1.41-4.15-3.21H1580a1.81,1.81,0,0,0,2,1.48c1.19,0,1.82-.51,1.82-1.19,0-1.94-5.76-.83-5.76-4.46,0-1.59,1.47-2.87,3.81-2.87s3.73,1.21,3.84,3.19h-2.05a1.65,1.65,0,0,0-1.86-1.46c-1.1,0-1.67.45-1.67,1.12,0,2,5.6.88,5.7,4.46C1585.78,627.56,1584.33,628.82,1582,628.82Z"/><path class="cls-1" d="M1606.74,623.11c0-1.82-1-2.75-2.49-2.75s-2.5.93-2.5,2.75v5.55h-2v-5.55c0-1.82-1-2.75-2.49-2.75s-2.5.93-2.5,2.75v5.55h-2v-9.93h2v1.14a3.76,3.76,0,0,1,2.93-1.3,4.11,4.11,0,0,0,7,0,3.88,3.88,0,0,1,4.09,4.23v5.86h-2Z"/><path class="cls-1" d="M1611.11,616.11a1.31,1.31,0,1,1,1.31,1.31A1.3,1.3,0,0,1,1611.11,616.11Zm.27,2.62h2v9.93h-2Z"/><path class="cls-1" d="M1623.17,623.11c0-1.82-1-2.75-2.49-2.75s-2.5.93-2.5,2.75v5.55h-2v-9.93h2v1.14a4.05,4.05,0,0,1,7,2.93v5.86h-2Z"/><path class="cls-1" d="M1631.83,618.57a4.57,4.57,0,0,1,3.42,1.55v-4.79h2.07v13.33h-2.07v-1.5a4.12,4.12,0,0,1-3.44,1.66c-2.61,0-4.68-2.11-4.68-5.17S1629.2,618.57,1631.83,618.57Zm.41,1.79a3,3,0,0,0-3,3.29,3.13,3.13,0,0,0,3,3.39,3.36,3.36,0,0,0,0-6.68Z"/><path class="cls-1" d="M1644.28,628.82a4.82,4.82,0,0,1-5-5.13,4.75,4.75,0,0,1,5-5.12,4.63,4.63,0,0,1,4.83,4.88,6.86,6.86,0,0,1-.07,1h-7.58a2.72,2.72,0,0,0,2.82,2.63,2.4,2.4,0,0,0,2.34-1.39h2.22A4.54,4.54,0,0,1,1644.28,628.82Zm-2.81-6H1647a2.57,2.57,0,0,0-2.77-2.5A2.71,2.71,0,0,0,1641.47,622.8Z"/><path class="cls-1" d="M1653.17,628.66h-2.05v-9.93h2.05v1.44a3.24,3.24,0,0,1,3-1.6v2.13h-.52c-1.51,0-2.45.63-2.45,2.73Z"/><path class="cls-1" d="M1666.71,618.57a4.22,4.22,0,0,1,3.44,1.6v-1.44h2.07v10.09a4.5,4.5,0,0,1-4.84,4.73c-2.65,0-4.61-1.31-4.87-3.51h2a2.75,2.75,0,0,0,2.83,1.73,2.64,2.64,0,0,0,2.77-2.95v-1.66a4.25,4.25,0,0,1-3.44,1.66c-2.61,0-4.68-2.11-4.68-5.17S1664.1,618.57,1666.71,618.57Zm.43,1.79a3,3,0,0,0-3,3.29,3.13,3.13,0,0,0,3,3.39,3.36,3.36,0,0,0,0-6.68Z"/><path class="cls-1" d="M1679.18,628.82a4.82,4.82,0,0,1-5-5.13,4.75,4.75,0,0,1,5-5.12,4.63,4.63,0,0,1,4.83,4.88,6.86,6.86,0,0,1-.07,1h-7.58a2.72,2.72,0,0,0,2.82,2.63,2.39,2.39,0,0,0,2.34-1.39h2.22A4.54,4.54,0,0,1,1679.18,628.82Zm-2.8-6h5.49a2.58,2.58,0,0,0-2.78-2.5A2.7,2.7,0,0,0,1676.38,622.8Z"/><path class="cls-1" d="M1692.34,620.41l-4.5,6.57h4.5v1.68h-6.88V627l4.52-6.57h-4.52v-1.68h6.88Z"/><path class="cls-1" d="M1698.8,628.82a4.84,4.84,0,0,1-5-5.13,5.06,5.06,0,1,1,10.12,0A5,5,0,0,1,1698.8,628.82Zm0-1.78a3.06,3.06,0,0,0,3-3.35,3,3,0,0,0-3-3.33c-1.55,0-2.94,1.08-2.94,3.33S1697.25,627,1698.8,627Z"/><path class="cls-1" d="M1713,623.11c0-1.82-1-2.75-2.48-2.75s-2.5.93-2.5,2.75v5.55H1706v-9.93H1708v1.14a3.8,3.8,0,0,1,3-1.3,3.87,3.87,0,0,1,4.07,4.23v5.86h-2Z"/><path class="cls-1" d="M1721.68,618.57a4.54,4.54,0,0,1,3.42,1.55v-4.79h2.07v13.33h-2.07v-1.5a4.12,4.12,0,0,1-3.44,1.66c-2.61,0-4.68-2.11-4.68-5.17S1719.05,618.57,1721.68,618.57Zm.41,1.79a3,3,0,0,0-3,3.29,3.13,3.13,0,0,0,3,3.39,3.36,3.36,0,0,0,0-6.68Z"/><path class="cls-1" d="M1738.82,628.82a4.81,4.81,0,0,1-5-5.13,4.75,4.75,0,0,1,5-5.12,4.63,4.63,0,0,1,4.82,4.88,6.86,6.86,0,0,1-.07,1H1736a2.72,2.72,0,0,0,2.83,2.63,2.4,2.4,0,0,0,2.34-1.39h2.21A4.53,4.53,0,0,1,1738.82,628.82Zm-2.81-6h5.49a2.57,2.57,0,0,0-2.77-2.5A2.7,2.7,0,0,0,1736,622.8Z"/><path class="cls-1" d="M1752.7,623.11c0-1.82-1-2.75-2.49-2.75s-2.5.93-2.5,2.75v5.55h-2v-9.93h2v1.14a3.8,3.8,0,0,1,3-1.3,3.87,3.87,0,0,1,4.07,4.23v5.86h-2Z"/><path class="cls-1" d="M1249,650.42c-2.38,0-4-1.41-4.14-3.21H1247a1.81,1.81,0,0,0,2,1.48c1.18,0,1.81-.51,1.81-1.19,0-1.94-5.76-.83-5.76-4.46,0-1.59,1.48-2.87,3.82-2.87s3.73,1.21,3.83,3.19h-2.05a1.64,1.64,0,0,0-1.85-1.46c-1.1,0-1.68.45-1.68,1.12,0,2,5.6.88,5.71,4.46C1252.77,649.16,1251.31,650.42,1249,650.42Z"/><path class="cls-1" d="M1255.31,642h-1.17v-1.68h1.17v-2.46h2.07v2.46h2.41V642h-2.41v5.49c0,.74.29,1,1.15,1h1.26v1.71h-1.62c-1.77,0-2.86-.73-2.86-2.75Z"/><path class="cls-1" d="M1265.67,640.17a4.21,4.21,0,0,1,3.44,1.6v-1.44h2.07v9.92h-2.07v-1.47a4.27,4.27,0,0,1-3.47,1.64c-2.58,0-4.65-2.11-4.65-5.17S1263.06,640.17,1265.67,640.17Zm.44,1.78a3.05,3.05,0,0,0-3,3.3,3.13,3.13,0,0,0,3,3.38,3.36,3.36,0,0,0,0-6.68Z"/><path class="cls-1" d="M1277.88,640.17a4.23,4.23,0,0,1,3.44,1.6v-1.44h2.07v9.92h-2.07v-1.47a4.29,4.29,0,0,1-3.48,1.64c-2.57,0-4.64-2.11-4.64-5.17S1275.27,640.17,1277.88,640.17Zm.43,1.78a3.05,3.05,0,0,0-3,3.3,3.13,3.13,0,0,0,3,3.38,3.36,3.36,0,0,0,0-6.68Z"/><path class="cls-1" d="M1286.41,642h-1.17v-1.68h1.17v-2.46h2.07v2.46h2.41V642h-2.41v5.49c0,.74.29,1,1.15,1h1.26v1.71h-1.62c-1.76,0-2.86-.73-2.86-2.75Z"/><path class="cls-1" d="M1301.76,650.42a4.84,4.84,0,0,1-5-5.13,5.06,5.06,0,1,1,10.12,0A5,5,0,0,1,1301.76,650.42Zm0-1.79a3.05,3.05,0,0,0,3-3.34,3,3,0,0,0-3-3.34c-1.55,0-2.94,1.09-2.94,3.34S1300.22,648.63,1301.76,648.63Z"/><path class="cls-1" d="M1313.25,650.42a4.84,4.84,0,0,1-5-5.13,5.06,5.06,0,1,1,10.12,0A5,5,0,0,1,1313.25,650.42Zm0-1.79a3,3,0,0,0,3-3.34,3,3,0,0,0-3-3.34c-1.55,0-2.93,1.09-2.93,3.34S1311.7,648.63,1313.25,648.63Z"/><path class="cls-1" d="M1320.43,636.93h2v7.74l3.6-4.34h2.85l-4.58,5,4.58,5h-2.77l-3.68-4.26v4.26h-2Z"/><path class="cls-1" d="M1342.12,644.71c0-1.82-1-2.76-2.48-2.76s-2.51.94-2.51,2.76v5.54h-2.05v-9.92h2.05v1.14a4.06,4.06,0,0,1,7,2.93v5.85h-2Z"/><path class="cls-1" d="M1346.49,637.71a1.31,1.31,0,1,1,2.61,0,1.31,1.31,0,1,1-2.61,0Zm.27,2.62h2v9.92h-2Z"/><path class="cls-1" d="M1355.78,650.42a4.82,4.82,0,0,1-5-5.13,4.75,4.75,0,0,1,5-5.12,4.63,4.63,0,0,1,4.83,4.88,6.86,6.86,0,0,1-.07,1H1353a2.72,2.72,0,0,0,2.82,2.63,2.4,2.4,0,0,0,2.34-1.39h2.22A4.54,4.54,0,0,1,1355.78,650.42Zm-2.81-6h5.49a2.57,2.57,0,0,0-2.77-2.5A2.71,2.71,0,0,0,1353,644.4Z"/><path class="cls-1" d="M1362.94,642h-1.17v-1.68h1.17v-2.46H1365v2.46h2.42V642H1365v5.49c0,.74.29,1,1.16,1h1.26v1.71h-1.62c-1.77,0-2.87-.73-2.87-2.75Z"/><path class="cls-1" d="M1373.73,637.71A1.31,1.31,0,1,1,1375,639,1.3,1.3,0,0,1,1373.73,637.71Zm.27,2.62h2v9.92h-2Z"/><path class="cls-1" d="M1385.79,644.71c0-1.82-1-2.76-2.49-2.76s-2.5.94-2.5,2.76v5.54h-2v-9.92h2v1.14a3.82,3.82,0,0,1,3-1.3,3.86,3.86,0,0,1,4.07,4.23v5.85h-2Z"/><path class="cls-1" d="M1399.12,640.17a4.54,4.54,0,0,1,3.42,1.55v-4.79h2.08v13.32h-2.08v-1.49a4.08,4.08,0,0,1-3.43,1.66c-2.61,0-4.69-2.11-4.69-5.17A4.73,4.73,0,0,1,1399.12,640.17Zm.42,1.78a3.05,3.05,0,0,0-3,3.3,3.13,3.13,0,0,0,3,3.38,3.36,3.36,0,0,0,0-6.68Z"/><path class="cls-1" d="M1411.58,650.42a4.82,4.82,0,0,1-4.95-5.13,4.75,4.75,0,0,1,4.95-5.12,4.63,4.63,0,0,1,4.83,4.88,5.73,5.73,0,0,1-.08,1h-7.58a2.74,2.74,0,0,0,2.83,2.63,2.4,2.4,0,0,0,2.34-1.39h2.22A4.54,4.54,0,0,1,1411.58,650.42Zm-2.81-6h5.49a2.57,2.57,0,0,0-2.77-2.5A2.71,2.71,0,0,0,1408.77,644.4Z"/><path class="cls-1" d="M1426.7,650.42c-2.38,0-4-1.41-4.14-3.21h2.12a1.81,1.81,0,0,0,2,1.48c1.19,0,1.82-.51,1.82-1.19,0-1.94-5.76-.83-5.76-4.46,0-1.59,1.48-2.87,3.82-2.87s3.72,1.21,3.83,3.19h-2a1.64,1.64,0,0,0-1.85-1.46c-1.1,0-1.68.45-1.68,1.12,0,2,5.6.88,5.71,4.46C1430.5,649.16,1429,650.42,1426.7,650.42Z"/><path class="cls-1" d="M1436.89,640.17a4.32,4.32,0,0,1,4.57,3.3h-2.21a2.33,2.33,0,0,0-2.36-1.57c-1.66,0-2.76,1.22-2.76,3.39s1.1,3.4,2.76,3.4a2.27,2.27,0,0,0,2.36-1.57h2.21a4.45,4.45,0,0,1-4.57,3.3c-2.85,0-4.86-2-4.86-5.13S1434,640.17,1436.89,640.17Z"/><path class="cls-1" d="M1443.51,636.93h2v4.56a3.94,3.94,0,0,1,3.08-1.32c2.22,0,3.94,1.46,3.94,4.23v5.85h-2v-5.54c0-1.82-1-2.76-2.48-2.76s-2.51.94-2.51,2.76v5.54h-2Z"/><path class="cls-1" d="M1454.92,637.71a1.31,1.31,0,1,1,2.61,0,1.31,1.31,0,1,1-2.61,0Zm.27,2.62h2v9.92h-2Z"/><path class="cls-1" d="M1462,640.33V652.2c0,2-1.08,2.77-2.85,2.77h-1.06v-1.73h.7c.87,0,1.15-.3,1.15-1V640.33Zm-2.33-2.62a1.31,1.31,0,1,1,2.61,0,1.31,1.31,0,1,1-2.61,0Z"/><path class="cls-1" d="M1465,642h-1.17v-1.68H1465v-.7c0-2.28,1.17-3.28,3.76-3.28v1.72c-1.26,0-1.69.43-1.69,1.56v.7h1.84V642H1467v8.24H1465Z"/><path class="cls-1" d="M1476.38,640.33l2.81,8.09,2.81-8.09h2.17l-3.78,9.92h-2.45l-3.76-9.92Z"/><path class="cls-1" d="M1489.72,640.17a4.24,4.24,0,0,1,3.44,1.6v-1.44h2.07v9.92h-2.07v-1.47a4.31,4.31,0,0,1-3.48,1.64c-2.57,0-4.65-2.11-4.65-5.17A4.73,4.73,0,0,1,1489.72,640.17Zm.43,1.78a3.05,3.05,0,0,0-3,3.3,3.13,3.13,0,0,0,3,3.38,3.36,3.36,0,0,0,0-6.68Z"/><path class="cls-1" d="M1505,644.71c0-1.82-1-2.76-2.48-2.76s-2.5.94-2.5,2.76v5.54h-2.06v-9.92H1500v1.14a3.8,3.8,0,0,1,3-1.3,3.87,3.87,0,0,1,4.07,4.23v5.85h-2Z"/><path class="cls-1" d="M1515.31,640.33l2.81,8.09,2.81-8.09h2.18l-3.78,9.92h-2.45l-3.77-9.92Z"/><path class="cls-1" d="M1524.38,637.71a1.31,1.31,0,1,1,2.61,0,1.31,1.31,0,1,1-2.61,0Zm.27,2.62h2v9.92h-2Z"/><path class="cls-1" d="M1531.46,640.33V652.2c0,2-1.08,2.77-2.85,2.77h-1.06v-1.73h.7c.87,0,1.15-.3,1.15-1V640.33Zm-2.33-2.62a1.31,1.31,0,1,1,2.61,0,1.31,1.31,0,1,1-2.61,0Z"/><path class="cls-1" d="M1534.41,642h-1.17v-1.68h1.17v-.7c0-2.28,1.17-3.28,3.76-3.28v1.72c-1.26,0-1.69.43-1.69,1.56v.7h1.84V642h-1.84v8.24h-2.07Z"/><path class="cls-1" d="M1540.15,647.79h2.23l-2.18,5h-1.33Z"/><path class="cls-1" d="M1548.59,637.71a1.31,1.31,0,1,1,1.32,1.31A1.31,1.31,0,0,1,1548.59,637.71Zm.27,2.62h2.05v9.92h-2.05Z"/><path class="cls-1" d="M1560.65,644.71c0-1.82-1-2.76-2.48-2.76s-2.5.94-2.5,2.76v5.54h-2.06v-9.92h2.06v1.14a3.8,3.8,0,0,1,2.95-1.3,3.87,3.87,0,0,1,4.07,4.23v5.85h-2Z"/><path class="cls-1" d="M1571,640.33l2.81,8.09,2.81-8.09h2.18l-3.78,9.92h-2.45l-3.77-9.92Z"/><path class="cls-1" d="M1584.61,650.42a4.81,4.81,0,0,1-4.95-5.13,4.75,4.75,0,0,1,4.95-5.12,4.62,4.62,0,0,1,4.82,4.88,5.72,5.72,0,0,1-.07,1h-7.58a2.74,2.74,0,0,0,2.83,2.63,2.4,2.4,0,0,0,2.34-1.39h2.21A4.52,4.52,0,0,1,1584.61,650.42Zm-2.81-6h5.49a2.57,2.57,0,0,0-2.77-2.5A2.71,2.71,0,0,0,1581.8,644.4Z"/><path class="cls-1" d="M1593.5,650.25h-2v-9.92h2v1.44a3.24,3.24,0,0,1,3-1.6v2.13H1596c-1.51,0-2.45.63-2.45,2.73Z"/><path class="cls-1" d="M1602.36,640.17a4.23,4.23,0,0,1,3.44,1.6v-1.44h2.07v10.09a4.5,4.5,0,0,1-4.85,4.73c-2.64,0-4.61-1.31-4.86-3.51h2a2.75,2.75,0,0,0,2.82,1.73,2.64,2.64,0,0,0,2.78-3v-1.66a4.25,4.25,0,0,1-3.44,1.66c-2.61,0-4.69-2.11-4.69-5.17A4.73,4.73,0,0,1,1602.36,640.17Zm.43,1.78a3.05,3.05,0,0,0-3,3.3,3.13,3.13,0,0,0,3,3.38,3.36,3.36,0,0,0,0-6.68Z"/><path class="cls-1" d="M1614.83,650.42a4.82,4.82,0,0,1-4.95-5.13,4.75,4.75,0,0,1,4.95-5.12,4.63,4.63,0,0,1,4.83,4.88,5.73,5.73,0,0,1-.08,1H1612a2.74,2.74,0,0,0,2.83,2.63,2.4,2.4,0,0,0,2.34-1.39h2.22A4.54,4.54,0,0,1,1614.83,650.42Zm-2.81-6h5.49a2.57,2.57,0,0,0-2.77-2.5A2.71,2.71,0,0,0,1612,644.4Z"/><path class="cls-1" d="M1621.67,636.93h2v13.32h-2Z"/><path class="cls-1" d="M1626.15,637.71a1.31,1.31,0,1,1,2.61,0,1.31,1.31,0,1,1-2.61,0Zm.27,2.62h2v9.92h-2Z"/><path class="cls-1" d="M1633.23,640.33V652.2c0,2-1.08,2.77-2.85,2.77h-1.06v-1.73h.7c.87,0,1.15-.3,1.15-1V640.33Zm-2.33-2.62a1.31,1.31,0,1,1,2.61,0,1.31,1.31,0,1,1-2.61,0Z"/><path class="cls-1" d="M1635.93,636.93h2v7.74l3.6-4.34h2.84l-4.57,5,4.57,5h-2.77L1638,646v4.26h-2Z"/><path class="cls-1" d="M1650.16,650.42a4.82,4.82,0,0,1-5-5.13,4.75,4.75,0,0,1,5-5.12,4.63,4.63,0,0,1,4.83,4.88,6.86,6.86,0,0,1-.07,1h-7.58a2.72,2.72,0,0,0,2.82,2.63,2.39,2.39,0,0,0,2.34-1.39h2.22A4.54,4.54,0,0,1,1650.16,650.42Zm-2.8-6h5.49a2.58,2.58,0,0,0-2.78-2.5A2.7,2.7,0,0,0,1647.36,644.4Z"/><path class="cls-1" d="M1664,644.71c0-1.82-1-2.76-2.48-2.76s-2.5.94-2.5,2.76v5.54H1657v-9.92h2.06v1.14a3.8,3.8,0,0,1,3-1.3,3.87,3.87,0,0,1,4.07,4.23v5.85h-2Z"/><path class="cls-1" d="M1687.43,644.71c0-1.82-1-2.76-2.49-2.76s-2.5.94-2.5,2.76v5.54h-2v-5.54c0-1.82-1-2.76-2.48-2.76s-2.5.94-2.5,2.76v5.54h-2.06v-9.92h2.06v1.14a3.76,3.76,0,0,1,2.93-1.3,4.12,4.12,0,0,0,7,0,3.88,3.88,0,0,1,4.09,4.23v5.85h-2Z"/><path class="cls-1" d="M1696.33,650.42a4.82,4.82,0,0,1-4.95-5.13,4.75,4.75,0,0,1,4.95-5.12,4.63,4.63,0,0,1,4.83,4.88,6.86,6.86,0,0,1-.07,1h-7.58a2.72,2.72,0,0,0,2.82,2.63,2.39,2.39,0,0,0,2.34-1.39h2.22A4.54,4.54,0,0,1,1696.33,650.42Zm-2.81-6h5.5a2.58,2.58,0,0,0-2.78-2.5A2.71,2.71,0,0,0,1693.52,644.4Z"/><path class="cls-1" d="M1703.5,642h-1.17v-1.68h1.17v-2.46h2.07v2.46H1708V642h-2.41v5.49c0,.74.28,1,1.15,1H1708v1.71h-1.62c-1.77,0-2.86-.73-2.86-2.75Z"/><path class="cls-1" d="M1720.06,640.17c2.61,0,4.66,2,4.66,5.08s-2,5.17-4.66,5.17a4.48,4.48,0,0,1-3.46-1.61V655h-2V640.33h2v1.46A4.33,4.33,0,0,1,1720.06,640.17Zm-.45,1.78a3.36,3.36,0,1,0,3,3.3A3,3,0,0,0,1719.61,642Z"/><path class="cls-1" d="M1726.48,637.71a1.31,1.31,0,1,1,2.61,0,1.31,1.31,0,1,1-2.61,0Zm.27,2.62h2v9.92h-2Z"/><path class="cls-1" d="M1738.54,644.71c0-1.82-1-2.76-2.48-2.76s-2.5.94-2.5,2.76v5.54h-2.06v-9.92h2.06v1.14a3.8,3.8,0,0,1,3-1.3,3.87,3.87,0,0,1,4.07,4.23v5.85h-2Z"/><path class="cls-1" d="M1747.2,640.17a4.54,4.54,0,0,1,3.42,1.55v-4.79h2.07v13.32h-2.07v-1.49a4.12,4.12,0,0,1-3.44,1.66c-2.61,0-4.68-2.11-4.68-5.17S1744.57,640.17,1747.2,640.17Zm.41,1.78a3,3,0,0,0-3,3.3,3.12,3.12,0,0,0,3,3.38,3.36,3.36,0,0,0,0-6.68Z"/><path class="cls-1" d="M1759.39,640.17a4.24,4.24,0,0,1,3.44,1.6v-1.44h2.07v9.92h-2.07v-1.47a4.29,4.29,0,0,1-3.48,1.64c-2.57,0-4.64-2.11-4.64-5.17S1756.78,640.17,1759.39,640.17Zm.43,1.78a3.05,3.05,0,0,0-3,3.3,3.13,3.13,0,0,0,3,3.38,3.36,3.36,0,0,0,0-6.68Z"/><path class="cls-1" d="M1767.81,642.87h7.4v1.73h-7.4Z"/><path class="cls-1" d="M1245.37,658.53h2.05v7.74l3.6-4.34h2.85l-4.58,5,4.58,5h-2.77l-3.68-4.27v4.27h-2.05Z"/><path class="cls-1" d="M1259.34,661.77a4.2,4.2,0,0,1,3.44,1.61v-1.45h2.07v9.93h-2.07v-1.48a4.27,4.27,0,0,1-3.48,1.64c-2.57,0-4.64-2.11-4.64-5.17S1256.73,661.77,1259.34,661.77Zm.43,1.78a3.05,3.05,0,0,0-3,3.3,3.13,3.13,0,0,0,3,3.39,3.36,3.36,0,0,0,0-6.69Z"/><path class="cls-1" d="M1271.54,661.77a4.19,4.19,0,0,1,3.44,1.61v-1.45h2.07v9.93H1275v-1.48a4.26,4.26,0,0,1-3.47,1.64c-2.58,0-4.65-2.11-4.65-5.17S1268.93,661.77,1271.54,661.77Zm.44,1.78a3.05,3.05,0,0,0-3,3.3,3.13,3.13,0,0,0,3,3.39,3.36,3.36,0,0,0,0-6.69Z"/><path class="cls-1" d="M1283.35,672c-2.38,0-4-1.41-4.14-3.21h2.12a1.82,1.82,0,0,0,2,1.48c1.18,0,1.81-.5,1.81-1.19,0-1.94-5.76-.83-5.76-4.46,0-1.59,1.48-2.87,3.82-2.87s3.73,1.21,3.83,3.19h-2a1.64,1.64,0,0,0-1.85-1.46c-1.1,0-1.68.45-1.68,1.12,0,2,5.6.88,5.71,4.46C1287.15,670.76,1285.69,672,1283.35,672Z"/><path class="cls-1" d="M1292.87,661.93H1295l2.07,8,2.11-8h2.14l2,8,2-8h2l-3.08,9.93h-2.16l-2-7.33-2,7.33H1296Z"/><path class="cls-1" d="M1312.89,661.77a4.2,4.2,0,0,1,3.44,1.61v-1.45h2.07v9.93h-2.07v-1.48a4.27,4.27,0,0,1-3.48,1.64c-2.57,0-4.64-2.11-4.64-5.17S1310.28,661.77,1312.89,661.77Zm.43,1.78a3.05,3.05,0,0,0-3,3.3,3.13,3.13,0,0,0,3,3.39,3.36,3.36,0,0,0,0-6.69Z"/><path class="cls-1" d="M1325.09,661.77a4.19,4.19,0,0,1,3.44,1.61v-1.45h2.07v9.93h-2.07v-1.48a4.26,4.26,0,0,1-3.47,1.64c-2.58,0-4.65-2.11-4.65-5.17S1322.48,661.77,1325.09,661.77Zm.44,1.78a3.05,3.05,0,0,0-3,3.3,3.13,3.13,0,0,0,3,3.39,3.36,3.36,0,0,0,0-6.69Z"/><path class="cls-1" d="M1335.35,671.86h-2v-9.93h2v1.45a3.23,3.23,0,0,1,3-1.61v2.13h-.52c-1.51,0-2.45.63-2.45,2.73Z"/><path class="cls-1" d="M1350.4,661.77c2.61,0,4.66,2,4.66,5.08s-2,5.17-4.66,5.17a4.5,4.5,0,0,1-3.46-1.6v6.15h-2V661.93h2v1.46A4.33,4.33,0,0,1,1350.4,661.77Zm-.45,1.78a3.36,3.36,0,0,0,0,6.69,3.14,3.14,0,0,0,3-3.39A3.06,3.06,0,0,0,1350,663.55Z"/><path class="cls-1" d="M1366.08,671.86h-2v-1.19a3.72,3.72,0,0,1-2.94,1.33,3.88,3.88,0,0,1-4.09-4.23v-5.84h2v5.53c0,1.82,1,2.76,2.48,2.76s2.51-.94,2.51-2.76v-5.53h2Z"/><path class="cls-1" d="M1377.76,671.86h-2v-1.19a3.72,3.72,0,0,1-2.94,1.33,3.87,3.87,0,0,1-4.08-4.23v-5.84h2v5.53c0,1.82,1,2.76,2.49,2.76s2.5-.94,2.5-2.76v-5.53h2Z"/><path class="cls-1" d="M1382.51,671.86h-2v-9.93h2v1.45a3.23,3.23,0,0,1,3-1.61v2.13H1385c-1.51,0-2.45.63-2.45,2.73Z"/><path class="cls-1" d="M1393.18,660.6h-1.67v-1.87h3.74v13.13h-2.07Z"/><path class="cls-1" d="M1402.76,658.5c3.67,0,4.68,2.88,4.68,6.62s-1,6.7-4.68,6.7-4.68-2.88-4.68-6.7S1399.09,658.5,1402.76,658.5Zm0,1.87c-2.39,0-2.66,2.3-2.66,4.75s.27,4.83,2.66,4.83,2.67-2.25,2.67-4.83S1405.16,660.37,1402.76,660.37Z"/><path class="cls-1" d="M1414.3,658.5c3.67,0,4.68,2.88,4.68,6.62s-1,6.7-4.68,6.7-4.68-2.88-4.68-6.7S1410.63,658.5,1414.3,658.5Zm0,1.87c-2.4,0-2.67,2.3-2.67,4.75s.27,4.83,2.67,4.83,2.66-2.25,2.66-4.83S1416.69,660.37,1414.3,660.37Z"/><path class="cls-1" d="M1423.57,659.09a2.82,2.82,0,1,1-2.74,2.81A2.61,2.61,0,0,1,1423.57,659.09Zm-1.14,2.81c0,1.11.44,1.58,1.14,1.58s1.13-.47,1.13-1.58-.45-1.57-1.13-1.57S1422.43,660.78,1422.43,661.9Zm7.37-2.58h2l-7.18,12.54h-2Zm1.1,7.13a2.82,2.82,0,1,1-2.74,2.81A2.6,2.6,0,0,1,1430.9,666.45Zm-1.16,2.81c0,1.12.45,1.57,1.14,1.57s1.13-.45,1.13-1.57-.45-1.56-1.13-1.56S1429.74,668.15,1429.74,669.26Z"/><path class="cls-1" d="M1445.91,661.77c2.61,0,4.66,2,4.66,5.08s-2,5.17-4.66,5.17a4.5,4.5,0,0,1-3.46-1.6v6.15h-2V661.93h2v1.46A4.33,4.33,0,0,1,1445.91,661.77Zm-.45,1.78a3.36,3.36,0,0,0,0,6.69,3.14,3.14,0,0,0,3-3.39A3.05,3.05,0,0,0,1445.46,663.55Z"/><path class="cls-1" d="M1452.33,659.31a1.31,1.31,0,1,1,2.61,0,1.31,1.31,0,1,1-2.61,0Zm.27,2.62h2.05v9.93h-2.05Z"/><path class="cls-1" d="M1464.39,666.31c0-1.82-1-2.76-2.48-2.76s-2.5.94-2.5,2.76v5.55h-2.06v-9.93h2.06v1.14a3.8,3.8,0,0,1,2.95-1.3,3.87,3.87,0,0,1,4.07,4.23v5.86h-2Z"/><path class="cls-1" d="M1473.05,661.77a4.56,4.56,0,0,1,3.42,1.55v-4.79h2.07v13.33h-2.07v-1.5A4.12,4.12,0,0,1,1473,672c-2.61,0-4.68-2.11-4.68-5.17S1470.42,661.77,1473.05,661.77Zm.41,1.78a3,3,0,0,0-3,3.3,3.13,3.13,0,0,0,3,3.39,3.36,3.36,0,0,0,0-6.69Z"/><path class="cls-1" d="M1485.24,661.77a4.18,4.18,0,0,1,3.43,1.61v-1.45h2.08v9.93h-2.08v-1.48a4.24,4.24,0,0,1-3.47,1.64c-2.58,0-4.65-2.11-4.65-5.17S1482.62,661.77,1485.24,661.77Zm.43,1.78a3.05,3.05,0,0,0-3,3.3,3.13,3.13,0,0,0,3,3.39,3.36,3.36,0,0,0,0-6.69Z"/><path class="cls-1" d="M1492.67,663.63l1.1-4.29H1496l-1.89,4.29Z"/><path class="cls-1" d="M1501.4,672c-2.38,0-4.05-1.41-4.14-3.21h2.12a1.82,1.82,0,0,0,2,1.48c1.19,0,1.82-.5,1.82-1.19,0-1.94-5.76-.83-5.76-4.46,0-1.59,1.48-2.87,3.82-2.87s3.72,1.21,3.83,3.19h-2a1.64,1.64,0,0,0-1.85-1.46c-1.1,0-1.68.45-1.68,1.12,0,2,5.6.88,5.71,4.46C1505.2,670.76,1503.74,672,1501.4,672Z"/><path class="cls-1" d="M1511.82,659.31a1.31,1.31,0,1,1,1.31,1.31A1.3,1.3,0,0,1,1511.82,659.31Zm.27,2.62h2.05v9.93h-2.05Z"/><path class="cls-1" d="M1523.88,666.31c0-1.82-1-2.76-2.48-2.76s-2.51.94-2.51,2.76v5.55h-2.05v-9.93h2.05v1.14a4.06,4.06,0,0,1,7,2.93v5.86h-2Z"/><path class="cls-1" d="M1539.52,663.61l-4.5,6.57h4.5v1.68h-6.87v-1.68l4.52-6.57h-4.52v-1.68h6.87Z"/><path class="cls-1" d="M1541.41,659.31a1.31,1.31,0,1,1,2.61,0,1.31,1.31,0,1,1-2.61,0Zm.27,2.62h2v9.93h-2Z"/><path class="cls-1" d="M1546.76,663.61h-1.17v-1.68h1.17v-2.46h2.07v2.46h2.41v1.68h-2.41v5.49c0,.74.29,1,1.15,1h1.26v1.72h-1.62c-1.76,0-2.86-.74-2.86-2.76Z"/><path class="cls-1" d="M1553.45,663.61h-1.17v-1.68h1.17v-2.46h2.07v2.46h2.42v1.68h-2.42v5.49c0,.74.29,1,1.16,1h1.26v1.72h-1.62c-1.77,0-2.87-.74-2.87-2.76Z"/><path class="cls-1" d="M1564.09,672a4.82,4.82,0,0,1-4.95-5.13,4.75,4.75,0,0,1,4.95-5.12,4.63,4.63,0,0,1,4.83,4.88,6.86,6.86,0,0,1-.07,1h-7.58a2.72,2.72,0,0,0,2.82,2.63,2.4,2.4,0,0,0,2.34-1.39h2.22A4.54,4.54,0,0,1,1564.09,672Zm-2.81-6h5.5a2.58,2.58,0,0,0-2.78-2.5A2.71,2.71,0,0,0,1561.28,666Z"/><path class="cls-1" d="M1578,666.31c0-1.82-1-2.76-2.48-2.76s-2.51.94-2.51,2.76v5.55h-2v-9.93h2v1.14a4.06,4.06,0,0,1,7,2.93v5.86h-2Z"/><path class="cls-1" d="M1593.61,663.61l-4.5,6.57h4.5v1.68h-6.88v-1.68l4.52-6.57h-4.52v-1.68h6.88Z"/><path class="cls-1" d="M1600.07,672a4.84,4.84,0,0,1-5-5.13,5.06,5.06,0,1,1,10.12,0A5,5,0,0,1,1600.07,672Zm0-1.78a3.06,3.06,0,0,0,3-3.35,3,3,0,0,0-3-3.34c-1.55,0-2.94,1.09-2.94,3.34S1598.53,670.24,1600.07,670.24Z"/><path class="cls-1" d="M1614.29,666.31c0-1.82-1-2.76-2.48-2.76s-2.5.94-2.5,2.76v5.55h-2.06v-9.93h2.06v1.14a3.8,3.8,0,0,1,3-1.3,3.87,3.87,0,0,1,4.07,4.23v5.86h-2Z"/><path class="cls-1" d="M1623,661.77a4.54,4.54,0,0,1,3.42,1.55v-4.79h2.07v13.33h-2.07v-1.5a4.12,4.12,0,0,1-3.44,1.66c-2.61,0-4.68-2.11-4.68-5.17S1620.32,661.77,1623,661.77Zm.42,1.78a3,3,0,0,0-3,3.3,3.13,3.13,0,0,0,3,3.39,3.36,3.36,0,0,0,0-6.69Z"/><path class="cls-1" d="M1635.41,672a4.81,4.81,0,0,1-5-5.13,4.75,4.75,0,0,1,5-5.12,4.63,4.63,0,0,1,4.82,4.88,6.86,6.86,0,0,1-.07,1h-7.58a2.73,2.73,0,0,0,2.83,2.63,2.4,2.4,0,0,0,2.34-1.39H1640A4.53,4.53,0,0,1,1635.41,672Zm-2.81-6h5.49a2.57,2.57,0,0,0-2.77-2.5A2.7,2.7,0,0,0,1632.6,666Z"/><path class="cls-1" d="M1644.3,671.86h-2v-9.93h2v1.45a3.23,3.23,0,0,1,3-1.61v2.13h-.52c-1.51,0-2.45.63-2.45,2.73Z"/><path class="cls-1" d="M1654.16,663.61H1653v-1.68h1.17v-2.46h2.07v2.46h2.41v1.68h-2.41v5.49c0,.74.29,1,1.15,1h1.26v1.72H1657c-1.76,0-2.86-.74-2.86-2.76Z"/><path class="cls-1" d="M1664.84,672a4.84,4.84,0,0,1-5-5.13,5.06,5.06,0,1,1,10.12,0A5,5,0,0,1,1664.84,672Zm0-1.78a3.06,3.06,0,0,0,3-3.35,3,3,0,0,0-3-3.34c-1.55,0-2.93,1.09-2.93,3.34S1663.29,670.24,1664.84,670.24Z"/><path class="cls-1" d="M1676.28,672a4.82,4.82,0,0,1-5-5.13,4.75,4.75,0,0,1,5-5.12,4.63,4.63,0,0,1,4.83,4.88,6.86,6.86,0,0,1-.07,1h-7.58a2.72,2.72,0,0,0,2.82,2.63,2.39,2.39,0,0,0,2.34-1.39h2.22A4.54,4.54,0,0,1,1676.28,672Zm-2.8-6H1679a2.58,2.58,0,0,0-2.78-2.5A2.7,2.7,0,0,0,1673.48,666Z"/><path class="cls-1" d="M1684.15,661.93,1687,670l2.81-8.09H1692l-3.78,9.93h-2.45l-3.77-9.93Z"/><path class="cls-1" d="M1697.79,672a4.84,4.84,0,0,1-5-5.13,5.06,5.06,0,1,1,10.12,0A5,5,0,0,1,1697.79,672Zm0-1.78a3.06,3.06,0,0,0,3-3.35,3,3,0,0,0-3-3.34c-1.55,0-2.94,1.09-2.94,3.34S1696.25,670.24,1697.79,670.24Z"/><path class="cls-1" d="M1709.24,672a4.82,4.82,0,0,1-5-5.13,4.75,4.75,0,0,1,5-5.12,4.63,4.63,0,0,1,4.83,4.88,6.86,6.86,0,0,1-.07,1h-7.58a2.72,2.72,0,0,0,2.82,2.63,2.4,2.4,0,0,0,2.34-1.39h2.22A4.54,4.54,0,0,1,1709.24,672Zm-2.81-6h5.49a2.57,2.57,0,0,0-2.77-2.5A2.71,2.71,0,0,0,1706.43,666Z"/><path class="cls-1" d="M1720.08,661.77a4.21,4.21,0,0,1,3.44,1.61v-1.45h2.07V672a4.5,4.5,0,0,1-4.85,4.73c-2.64,0-4.61-1.31-4.86-3.51h2a2.75,2.75,0,0,0,2.82,1.73,2.64,2.64,0,0,0,2.78-3v-1.66a4.25,4.25,0,0,1-3.44,1.66c-2.61,0-4.68-2.11-4.68-5.17S1717.47,661.77,1720.08,661.77Zm.43,1.78a3.05,3.05,0,0,0-3,3.3,3.13,3.13,0,0,0,3,3.39,3.36,3.36,0,0,0,0-6.69Z"/><path class="cls-1" d="M1728,659.31a1.31,1.31,0,1,1,2.61,0,1.31,1.31,0,1,1-2.61,0Zm.28,2.62h2v9.93h-2Z"/><path class="cls-1" d="M1740.08,666.31c0-1.82-1-2.76-2.49-2.76s-2.5.94-2.5,2.76v5.55h-2v-9.93h2v1.14a3.82,3.82,0,0,1,3-1.3,3.86,3.86,0,0,1,4.07,4.23v5.86h-2Z"/><path class="cls-1" d="M1744.93,664.47h7.4v1.73h-7.4Z"/><path class="cls-1" d="M1249.37,683.37a4.23,4.23,0,0,1,3.44,1.6v-1.44h2.07v10.09a4.5,4.5,0,0,1-4.85,4.73c-2.64,0-4.61-1.31-4.86-3.51h2a2.75,2.75,0,0,0,2.82,1.73,2.64,2.64,0,0,0,2.78-3V692a4.25,4.25,0,0,1-3.44,1.66c-2.61,0-4.68-2.11-4.68-5.17S1246.76,683.37,1249.37,683.37Zm.43,1.78a3.05,3.05,0,0,0-3,3.3,3.13,3.13,0,0,0,3,3.38,3.36,3.36,0,0,0,0-6.68Z"/><path class="cls-1" d="M1261.84,693.62a4.82,4.82,0,0,1-4.95-5.13,4.75,4.75,0,0,1,4.95-5.12,4.63,4.63,0,0,1,4.83,4.88,5.73,5.73,0,0,1-.08,1H1259a2.74,2.74,0,0,0,2.83,2.63,2.4,2.4,0,0,0,2.34-1.39h2.22A4.54,4.54,0,0,1,1261.84,693.62Zm-2.81-6h5.49a2.57,2.57,0,0,0-2.77-2.5A2.71,2.71,0,0,0,1259,687.6Z"/><path class="cls-1" d="M1275.72,687.91c0-1.82-1-2.76-2.48-2.76s-2.51.94-2.51,2.76v5.55h-2v-9.93h2v1.14a4.05,4.05,0,0,1,7,2.93v5.86h-2Z"/><path class="cls-1" d="M1281.19,693.58a1.32,1.32,0,1,1,1.3-1.31A1.3,1.3,0,0,1,1281.19,693.58Z"/><path class="cls-1" d="M1254,724.14h2.16l-4.7,12.52h-2.38l-4.72-12.52h2.2l3.71,10.41Z"/><path class="cls-1" d="M1261.86,726.57a4.23,4.23,0,0,1,3.44,1.6v-1.44h2.07v9.93h-2.07v-1.48a4.27,4.27,0,0,1-3.48,1.64c-2.57,0-4.64-2.11-4.64-5.17S1259.25,726.57,1261.86,726.57Zm.43,1.78a3.05,3.05,0,0,0-3,3.3,3.13,3.13,0,0,0,3,3.39,3.36,3.36,0,0,0,0-6.69Z"/><path class="cls-1" d="M1272.12,736.66h-2v-9.93h2v1.44a3.23,3.23,0,0,1,3-1.6v2.13h-.52c-1.52,0-2.45.63-2.45,2.73Z"/><path class="cls-1" d="M1276.71,724.11a1.31,1.31,0,1,1,1.31,1.31A1.3,1.3,0,0,1,1276.71,724.11Zm.27,2.62h2v9.93h-2Z"/><path class="cls-1" d="M1285.73,726.57a4.24,4.24,0,0,1,3.44,1.6v-1.44h2.07v9.93h-2.07v-1.48a4.27,4.27,0,0,1-3.48,1.64c-2.57,0-4.65-2.11-4.65-5.17A4.73,4.73,0,0,1,1285.73,726.57Zm.43,1.78a3.05,3.05,0,0,0-3,3.3,3.13,3.13,0,0,0,3,3.39,3.36,3.36,0,0,0,0-6.69Z"/><path class="cls-1" d="M1301,731.11c0-1.82-1-2.76-2.48-2.76s-2.5.94-2.5,2.76v5.55h-2.06v-9.93H1296v1.14a3.8,3.8,0,0,1,3-1.3,3.87,3.87,0,0,1,4.07,4.23v5.86h-2Z"/><path class="cls-1" d="M1305.94,728.41h-1.17v-1.68h1.17v-2.46H1308v2.46h2.41v1.68H1308v5.49c0,.74.29,1,1.15,1h1.26v1.72h-1.62c-1.76,0-2.86-.74-2.86-2.76Z"/><path class="cls-1" d="M1316.58,736.82a4.81,4.81,0,0,1-4.95-5.13,4.75,4.75,0,0,1,4.95-5.12,4.62,4.62,0,0,1,4.82,4.88,5.72,5.72,0,0,1-.07,1h-7.58a2.74,2.74,0,0,0,2.83,2.63,2.4,2.4,0,0,0,2.34-1.39h2.21A4.52,4.52,0,0,1,1316.58,736.82Zm-2.81-6h5.49a2.57,2.57,0,0,0-2.77-2.5A2.71,2.71,0,0,0,1313.77,730.8Z"/><path class="cls-1" d="M1330.46,731.11c0-1.82-1-2.76-2.49-2.76s-2.5.94-2.5,2.76v5.55h-2v-9.93h2v1.14a3.82,3.82,0,0,1,3-1.3,3.86,3.86,0,0,1,4.07,4.23v5.86h-2Z"/><path class="cls-1" d="M1338.61,726.73h2.09l2.07,8,2.1-8H1347l2,7.94,2.06-7.94h2l-3.08,9.93h-2.16l-2-7.33-2,7.33h-2.16Z"/><path class="cls-1" d="M1358.63,726.57a4.21,4.21,0,0,1,3.43,1.6v-1.44h2.08v9.93h-2.08v-1.48a4.24,4.24,0,0,1-3.47,1.64c-2.58,0-4.65-2.11-4.65-5.17S1356,726.57,1358.63,726.57Zm.43,1.78a3.05,3.05,0,0,0-3,3.3,3.13,3.13,0,0,0,3,3.39,3.36,3.36,0,0,0,0-6.69Z"/><path class="cls-1" d="M1370.83,726.57a4.23,4.23,0,0,1,3.44,1.6v-1.44h2.07v9.93h-2.07v-1.48a4.27,4.27,0,0,1-3.48,1.64c-2.57,0-4.64-2.11-4.64-5.17S1368.22,726.57,1370.83,726.57Zm.43,1.78a3.05,3.05,0,0,0-3,3.3,3.13,3.13,0,0,0,3,3.39,3.36,3.36,0,0,0,0-6.69Z"/><path class="cls-1" d="M1381.09,736.66h-2v-9.93h2v1.44a3.24,3.24,0,0,1,3-1.6v2.13h-.52c-1.51,0-2.45.63-2.45,2.73Z"/><path class="cls-1" d="M1391.46,726.57c2.63,0,4.66,2,4.66,5.08s-2,5.17-4.66,5.17a4.21,4.21,0,0,1-3.46-1.61v1.45h-2V723.33h2v4.88A4.25,4.25,0,0,1,1391.46,726.57Zm-.45,1.78a3.36,3.36,0,0,0,0,6.69,3.13,3.13,0,0,0,3-3.39A3,3,0,0,0,1391,728.35Z"/><path class="cls-1" d="M1397.88,724.11a1.31,1.31,0,1,1,2.61,0,1.31,1.31,0,1,1-2.61,0Zm.27,2.62h2.06v9.93h-2.06Z"/><path class="cls-1" d="M1405,726.73V738.6c0,2-1.08,2.77-2.85,2.77h-1.06v-1.73h.7c.87,0,1.15-.3,1.15-1V726.73Zm-2.33-2.62a1.31,1.31,0,1,1,1.32,1.31A1.31,1.31,0,0,1,1402.63,724.11Z"/><path class="cls-1" d="M1414.77,724.14l-1.1,4.29h-2.23l1.89-4.29Zm3.24,0-1.1,4.29h-2.23l1.89-4.29Z"/><path class="cls-1" d="M1424.33,731.58h-2.27v5.08H1420V724.14h4.33c3,0,4.42,1.69,4.42,3.73C1428.75,729.65,1427.58,731.58,1424.33,731.58Zm0-1.68c1.6,0,2.32-.77,2.32-2s-.72-2-2.32-2h-2.27v4.08Z"/><path class="cls-1" d="M1434.71,726.57a4.21,4.21,0,0,1,3.44,1.6v-1.44h2.07v9.93h-2.07v-1.48a4.27,4.27,0,0,1-3.48,1.64c-2.57,0-4.64-2.11-4.64-5.17S1432.1,726.57,1434.71,726.57Zm.43,1.78a3,3,0,0,0-3,3.3,3.13,3.13,0,0,0,3,3.39,3.36,3.36,0,0,0,0-6.69Z"/><path class="cls-1" d="M1442.92,723.33h2v13.33h-2Z"/><path class="cls-1" d="M1461.73,731.11c0-1.82-1-2.76-2.48-2.76s-2.5.94-2.5,2.76v5.55h-2v-5.55c0-1.82-1-2.76-2.48-2.76s-2.51.94-2.51,2.76v5.55h-2v-9.93h2v1.14a4.1,4.1,0,0,1,6.5.67,4.07,4.07,0,0,1,7.55,2.26v5.86h-2Z"/><path class="cls-1" d="M1467.4,726.73l2.81,8.09,2.81-8.09h2.17l-3.78,9.93H1469l-3.76-9.93Z"/><path class="cls-1" d="M1481,736.82a4.82,4.82,0,0,1-5-5.13,4.76,4.76,0,0,1,5-5.12,4.63,4.63,0,0,1,4.82,4.88,6.86,6.86,0,0,1-.07,1h-7.58a2.72,2.72,0,0,0,2.83,2.63,2.4,2.4,0,0,0,2.34-1.39h2.21A4.53,4.53,0,0,1,1481,736.82Zm-2.81-6h5.49a2.57,2.57,0,0,0-2.77-2.5A2.7,2.7,0,0,0,1478.2,730.8Z"/><path class="cls-1" d="M1488.17,728.41H1487v-1.68h1.17v-2.46h2.07v2.46h2.41v1.68h-2.41v5.49c0,.74.29,1,1.15,1h1.26v1.72H1491c-1.76,0-2.86-.74-2.86-2.76Z"/><path class="cls-1" d="M1494,728.43l1.1-4.29h2.24l-1.89,4.29Zm3.25,0,1.09-4.29h2.24l-1.89,4.29Z"/><path class="cls-1" d="M1507.34,728.41h-1.17v-1.68h1.17v-2.46h2.07v2.46h2.41v1.68h-2.41v5.49c0,.74.29,1,1.15,1h1.26v1.72h-1.62c-1.76,0-2.86-.74-2.86-2.76Z"/><path class="cls-1" d="M1518,736.82a4.84,4.84,0,0,1-5-5.13,5.06,5.06,0,1,1,10.12,0A5,5,0,0,1,1518,736.82Zm0-1.78a3.06,3.06,0,0,0,3-3.35,3,3,0,0,0-3-3.34c-1.55,0-2.94,1.09-2.94,3.34S1516.47,735,1518,735Z"/><path class="cls-1" d="M1529.46,736.82a4.82,4.82,0,0,1-5-5.13,4.75,4.75,0,0,1,5-5.12,4.63,4.63,0,0,1,4.83,4.88,5.73,5.73,0,0,1-.08,1h-7.58a2.74,2.74,0,0,0,2.83,2.63,2.4,2.4,0,0,0,2.34-1.39H1534A4.54,4.54,0,0,1,1529.46,736.82Zm-2.81-6h5.49a2.57,2.57,0,0,0-2.77-2.5A2.71,2.71,0,0,0,1526.65,730.8Z"/><path class="cls-1" d="M1540.3,726.57a4.23,4.23,0,0,1,3.44,1.6v-1.44h2.07v10.09a4.5,4.5,0,0,1-4.85,4.73c-2.64,0-4.61-1.31-4.86-3.51h2a2.75,2.75,0,0,0,2.82,1.73,2.64,2.64,0,0,0,2.78-2.95v-1.66a4.25,4.25,0,0,1-3.44,1.66c-2.61,0-4.68-2.11-4.68-5.17S1537.69,726.57,1540.3,726.57Zm.43,1.78a3.05,3.05,0,0,0-3,3.3,3.13,3.13,0,0,0,3,3.39,3.36,3.36,0,0,0,0-6.69Z"/><path class="cls-1" d="M1552.77,736.82a4.82,4.82,0,0,1-5-5.13,4.75,4.75,0,0,1,5-5.12,4.63,4.63,0,0,1,4.83,4.88,6.86,6.86,0,0,1-.07,1H1550a2.72,2.72,0,0,0,2.82,2.63,2.4,2.4,0,0,0,2.34-1.39h2.22A4.54,4.54,0,0,1,1552.77,736.82Zm-2.81-6h5.49a2.57,2.57,0,0,0-2.77-2.5A2.71,2.71,0,0,0,1550,730.8Z"/><path class="cls-1" d="M1560.64,726.73l2.81,8.09,2.8-8.09h2.18l-3.78,9.93h-2.45l-3.76-9.93Z"/><path class="cls-1" d="M1574.28,736.82a4.84,4.84,0,0,1-5-5.13,5.06,5.06,0,1,1,10.12,0A5,5,0,0,1,1574.28,736.82Zm0-1.78a3.06,3.06,0,0,0,3-3.35,3,3,0,0,0-3-3.34c-1.54,0-2.93,1.09-2.93,3.34S1572.73,735,1574.28,735Z"/><path class="cls-1" d="M1585.73,736.82a4.81,4.81,0,0,1-5-5.13,4.75,4.75,0,0,1,5-5.12,4.62,4.62,0,0,1,4.82,4.88,5.72,5.72,0,0,1-.07,1h-7.58a2.74,2.74,0,0,0,2.83,2.63,2.4,2.4,0,0,0,2.34-1.39h2.21A4.52,4.52,0,0,1,1585.73,736.82Zm-2.81-6h5.49a2.57,2.57,0,0,0-2.77-2.5A2.71,2.71,0,0,0,1582.92,730.8Z"/><path class="cls-1" d="M1596.57,726.57a4.2,4.2,0,0,1,3.43,1.6v-1.44h2.08v10.09a4.5,4.5,0,0,1-4.85,4.73c-2.65,0-4.61-1.31-4.86-3.51h2a2.77,2.77,0,0,0,2.83,1.73,2.64,2.64,0,0,0,2.77-2.95v-1.66a4.23,4.23,0,0,1-3.43,1.66c-2.62,0-4.69-2.11-4.69-5.17S1594,726.57,1596.57,726.57Zm.43,1.78a3.05,3.05,0,0,0-3,3.3,3.13,3.13,0,0,0,3,3.39,3.36,3.36,0,0,0,0-6.69Z"/><path class="cls-1" d="M1608.79,726.57a4.57,4.57,0,0,1,3.42,1.55v-4.79h2.07v13.33h-2.07v-1.5a4.12,4.12,0,0,1-3.44,1.66c-2.61,0-4.68-2.11-4.68-5.17S1606.16,726.57,1608.79,726.57Zm.41,1.78a3.05,3.05,0,0,0-3,3.3,3.13,3.13,0,0,0,3,3.39,3.36,3.36,0,0,0,0-6.69Z"/><path class="cls-1" d="M1621.39,724.11a1.31,1.31,0,1,1,1.31,1.31A1.3,1.3,0,0,1,1621.39,724.11Zm.27,2.62h2v9.93h-2Z"/><path class="cls-1" d="M1630,736.82c-2.38,0-4-1.41-4.14-3.21H1628a1.81,1.81,0,0,0,2,1.48c1.19,0,1.82-.51,1.82-1.19,0-1.94-5.76-.83-5.76-4.46,0-1.59,1.48-2.87,3.82-2.87s3.72,1.21,3.83,3.19h-2a1.64,1.64,0,0,0-1.86-1.46c-1.09,0-1.67.45-1.67,1.12,0,2,5.6.88,5.71,4.46C1633.81,735.56,1632.35,736.82,1630,736.82Z"/><path class="cls-1" d="M1636,734.19h2.23l-2.18,5h-1.33Z"/><path class="cls-1" d="M1651.07,728.41l-4.5,6.57h4.5v1.68h-6.88V735l4.52-6.57h-4.52v-1.68h6.88Z"/><path class="cls-1" d="M1653,724.11a1.31,1.31,0,1,1,1.31,1.31A1.3,1.3,0,0,1,1653,724.11Zm.27,2.62h2v9.93h-2Z"/><path class="cls-1" d="M1660,726.73V738.6c0,2-1.08,2.77-2.84,2.77h-1.07v-1.73h.71c.86,0,1.15-.3,1.15-1V726.73Zm-2.32-2.62a1.31,1.31,0,1,1,1.31,1.31A1.3,1.3,0,0,1,1657.71,724.11Z"/><path class="cls-1" d="M1669.77,731.11c0-1.82-1-2.76-2.48-2.76s-2.51.94-2.51,2.76v5.55h-2v-9.93h2v1.14a4.06,4.06,0,0,1,7,2.93v5.86h-2Z"/><path class="cls-1" d="M1686.13,731.11c0-1.82-1-2.76-2.48-2.76s-2.51.94-2.51,2.76v5.55h-2.05v-9.93h2.05v1.14a4.06,4.06,0,0,1,7,2.93v5.86h-2Z"/><path class="cls-1" d="M1690.5,724.11a1.31,1.31,0,1,1,2.61,0,1.31,1.31,0,1,1-2.61,0Zm.27,2.62h2.06v9.93h-2.06Z"/><path class="cls-1" d="M1699.79,736.82a4.82,4.82,0,0,1-5-5.13,4.75,4.75,0,0,1,5-5.12,4.63,4.63,0,0,1,4.83,4.88,6.86,6.86,0,0,1-.07,1H1697a2.72,2.72,0,0,0,2.82,2.63,2.39,2.39,0,0,0,2.34-1.39h2.22A4.54,4.54,0,0,1,1699.79,736.82Zm-2.81-6h5.5a2.58,2.58,0,0,0-2.78-2.5A2.71,2.71,0,0,0,1697,730.8Z"/><path class="cls-1" d="M1707,728.41h-1.17v-1.68H1707v-2.46H1709v2.46h2.41v1.68H1709v5.49c0,.74.28,1,1.15,1h1.26v1.72h-1.62c-1.77,0-2.86-.74-2.86-2.76Z"/><path class="cls-1" d="M1722,726.57a4.54,4.54,0,0,1,3.42,1.55v-4.79h2.07v13.33h-2.07v-1.5a4.12,4.12,0,0,1-3.44,1.66c-2.61,0-4.68-2.11-4.68-5.17S1719.39,726.57,1722,726.57Zm.42,1.78a3.05,3.05,0,0,0-3,3.3,3.13,3.13,0,0,0,3,3.39,3.36,3.36,0,0,0,0-6.69Z"/><path class="cls-1" d="M1739.2,736.66h-2.06v-1.19a3.69,3.69,0,0,1-2.93,1.33,3.88,3.88,0,0,1-4.09-4.23v-5.84h2v5.53c0,1.82,1,2.76,2.48,2.76s2.5-.94,2.5-2.76v-5.53h2.06Z"/><path class="cls-1" d="M1750.88,736.66h-2.05v-1.19a3.72,3.72,0,0,1-2.94,1.33,3.88,3.88,0,0,1-4.09-4.23v-5.84h2v5.53c0,1.82,1,2.76,2.48,2.76s2.51-.94,2.51-2.76v-5.53h2.05Z"/><path class="cls-1" d="M1755.63,736.66h-2.05v-9.93h2.05v1.44a3.22,3.22,0,0,1,3-1.6v2.13h-.52c-1.52,0-2.45.63-2.45,2.73Z"/><path class="cls-1" d="M1760.7,729.27h7.4V731h-7.4Z"/><path class="cls-1" d="M1251.69,750l-4.5,6.57h4.5v1.67h-6.88v-1.67l4.52-6.57h-4.52v-1.68h6.88Z"/><path class="cls-1" d="M1257.85,748.17a4.21,4.21,0,0,1,3.43,1.6v-1.44h2.08v9.92h-2.08v-1.47a4.27,4.27,0,0,1-3.47,1.64c-2.58,0-4.65-2.11-4.65-5.17S1255.23,748.17,1257.85,748.17Zm.43,1.78a3.05,3.05,0,0,0-3,3.3,3.13,3.13,0,0,0,3,3.38,3.36,3.36,0,0,0,0-6.68Z"/><path class="cls-1" d="M1270.05,748.17a4.23,4.23,0,0,1,3.44,1.6v-1.44h2.07v9.92h-2.07v-1.47a4.29,4.29,0,0,1-3.48,1.64c-2.57,0-4.64-2.11-4.64-5.17S1267.44,748.17,1270.05,748.17Zm.43,1.78a3.05,3.05,0,0,0-3,3.3,3.13,3.13,0,0,0,3,3.38,3.36,3.36,0,0,0,0-6.68Z"/><path class="cls-1" d="M1292.32,752.71c0-1.82-1-2.76-2.49-2.76s-2.5.94-2.5,2.76v5.54h-2v-5.54c0-1.82-1-2.76-2.49-2.76s-2.5.94-2.5,2.76v5.54h-2v-9.92h2v1.14a3.79,3.79,0,0,1,2.93-1.3,3.85,3.85,0,0,1,3.57,2,4.07,4.07,0,0,1,7.54,2.27v5.85h-2Z"/><path class="cls-1" d="M1305.94,758.42a4.84,4.84,0,0,1-5-5.13,5.06,5.06,0,1,1,10.12,0A5,5,0,0,1,1305.94,758.42Zm0-1.79a3,3,0,0,0,3-3.34,3,3,0,0,0-3-3.34c-1.55,0-2.94,1.09-2.94,3.34S1304.39,756.63,1305.94,756.63Z"/><path class="cls-1" d="M1327.18,752.71c0-1.82-1-2.76-2.48-2.76s-2.5.94-2.5,2.76v5.54h-2v-5.54c0-1.82-1-2.76-2.48-2.76s-2.51.94-2.51,2.76v5.54h-2.05v-9.92h2.05v1.14a4.11,4.11,0,0,1,6.5.66,4.07,4.07,0,0,1,7.55,2.27v5.85h-2Z"/><path class="cls-1" d="M1335.84,748.17a4.57,4.57,0,0,1,3.42,1.55v-4.79h2.07v13.32h-2.07v-1.49a4.12,4.12,0,0,1-3.44,1.66c-2.61,0-4.68-2.11-4.68-5.17S1333.21,748.17,1335.84,748.17Zm.41,1.78a3,3,0,0,0-3,3.3,3.12,3.12,0,0,0,3,3.38,3.36,3.36,0,0,0,0-6.68Z"/><path class="cls-1" d="M1348,748.17a4.21,4.21,0,0,1,3.44,1.6v-1.44h2.07v9.92h-2.07v-1.47a4.27,4.27,0,0,1-3.47,1.64c-2.58,0-4.65-2.11-4.65-5.17S1345.41,748.17,1348,748.17Zm.44,1.78a3.05,3.05,0,0,0-3,3.3,3.13,3.13,0,0,0,3,3.38,3.36,3.36,0,0,0,0-6.68Z"/><path class="cls-1" d="M1356.56,750h-1.17v-1.68h1.17v-2.46h2.07v2.46H1361V750h-2.41v5.49c0,.74.28,1,1.15,1H1361v1.71h-1.62c-1.77,0-2.86-.73-2.86-2.75Z"/><path class="cls-1" d="M1367.61,744.93h2.05v4.56a3.92,3.92,0,0,1,3.08-1.32c2.21,0,3.94,1.46,3.94,4.23v5.85h-2v-5.54c0-1.82-1-2.76-2.49-2.76s-2.5.94-2.5,2.76v5.54h-2.05Z"/><path class="cls-1" d="M1379,745.71a1.31,1.31,0,1,1,1.31,1.31A1.3,1.3,0,0,1,1379,745.71Zm.27,2.62h2v9.92h-2Z"/><path class="cls-1" d="M1388.31,758.42a4.81,4.81,0,0,1-5-5.13,4.75,4.75,0,0,1,5-5.12,4.62,4.62,0,0,1,4.82,4.88,5.72,5.72,0,0,1-.07,1h-7.58a2.73,2.73,0,0,0,2.83,2.63,2.4,2.4,0,0,0,2.34-1.39h2.21A4.53,4.53,0,0,1,1388.31,758.42Zm-2.81-6H1391a2.57,2.57,0,0,0-2.77-2.5A2.7,2.7,0,0,0,1385.5,752.4Z"/><path class="cls-1" d="M1397.2,758.25h-2v-9.92h2v1.44a3.24,3.24,0,0,1,3-1.6v2.13h-.52c-1.51,0-2.45.63-2.45,2.73Z"/><path class="cls-1" d="M1403.08,748.33l2.81,8.09,2.81-8.09h2.18l-3.78,9.92h-2.45l-3.76-9.92Z"/><path class="cls-1" d="M1416.73,758.42a4.84,4.84,0,0,1-5-5.13,5.06,5.06,0,1,1,10.12,0A5,5,0,0,1,1416.73,758.42Zm0-1.79a3,3,0,0,0,3-3.34,3,3,0,0,0-3-3.34c-1.55,0-2.93,1.09-2.93,3.34S1415.18,756.63,1416.73,756.63Z"/><path class="cls-1" d="M1428.21,758.42a4.84,4.84,0,0,1-5-5.13,5.06,5.06,0,1,1,10.12,0A5,5,0,0,1,1428.21,758.42Zm0-1.79a3.05,3.05,0,0,0,3-3.34,3,3,0,0,0-3-3.34c-1.55,0-2.94,1.09-2.94,3.34S1426.67,756.63,1428.21,756.63Z"/><path class="cls-1" d="M1437.45,758.25h-2.06v-9.92h2.06v1.44a3.22,3.22,0,0,1,3-1.6v2.13h-.53c-1.51,0-2.44.63-2.44,2.73Z"/><path class="cls-1" d="M1452.49,748.17c2.62,0,4.67,2,4.67,5.08s-2.05,5.17-4.67,5.17a4.47,4.47,0,0,1-3.45-1.61V763h-2V748.33h2v1.46A4.31,4.31,0,0,1,1452.49,748.17ZM1452,750a3.36,3.36,0,0,0,0,6.68,3.13,3.13,0,0,0,3-3.38A3.06,3.06,0,0,0,1452,750Z"/><path class="cls-1" d="M1463.19,748.17a4.21,4.21,0,0,1,3.43,1.6v-1.44h2.08v9.92h-2.08v-1.47a4.26,4.26,0,0,1-3.47,1.64c-2.57,0-4.65-2.11-4.65-5.17A4.73,4.73,0,0,1,1463.19,748.17Zm.43,1.78a3.05,3.05,0,0,0-3,3.3,3.13,3.13,0,0,0,3,3.38,3.36,3.36,0,0,0,0-6.68Z"/><path class="cls-1" d="M1471.39,744.93h2.06v13.32h-2.06Z"/><path class="cls-1" d="M1490.21,752.71c0-1.82-1-2.76-2.49-2.76s-2.5.94-2.5,2.76v5.54h-2v-5.54c0-1.82-1-2.76-2.49-2.76s-2.5.94-2.5,2.76v5.54h-2v-9.92h2v1.14a3.76,3.76,0,0,1,2.93-1.3,4.12,4.12,0,0,0,7,0,3.88,3.88,0,0,1,4.09,4.23v5.85h-2Z"/><path class="cls-1" d="M1500.36,748.17c2.63,0,4.66,2,4.66,5.08s-2,5.17-4.66,5.17a4.21,4.21,0,0,1-3.46-1.61v1.44h-2.05V744.93h2.05v4.88A4.25,4.25,0,0,1,1500.36,748.17Zm-.45,1.78a3.36,3.36,0,1,0,3,3.3A3,3,0,0,0,1499.91,750Z"/><path class="cls-1" d="M1511.35,758.42a4.84,4.84,0,0,1-5-5.13,5.06,5.06,0,1,1,10.12,0A5,5,0,0,1,1511.35,758.42Zm0-1.79a3.05,3.05,0,0,0,3.05-3.34,3,3,0,0,0-3-3.34c-1.55,0-2.94,1.09-2.94,3.34S1509.81,756.63,1511.35,756.63Z"/><path class="cls-1" d="M1532.6,752.71c0-1.82-1-2.76-2.49-2.76s-2.5.94-2.5,2.76v5.54h-2v-5.54c0-1.82-1-2.76-2.49-2.76s-2.5.94-2.5,2.76v5.54h-2v-9.92h2v1.14a3.76,3.76,0,0,1,2.93-1.3,4.12,4.12,0,0,0,7,0,3.88,3.88,0,0,1,4.09,4.23v5.85h-2Z"/><path class="cls-1" d="M1541.5,758.42a4.82,4.82,0,0,1-5-5.13,4.75,4.75,0,0,1,5-5.12,4.63,4.63,0,0,1,4.83,4.88,6.86,6.86,0,0,1-.07,1h-7.58a2.72,2.72,0,0,0,2.82,2.63,2.39,2.39,0,0,0,2.34-1.39h2.22A4.54,4.54,0,0,1,1541.5,758.42Zm-2.8-6h5.49a2.58,2.58,0,0,0-2.78-2.5A2.7,2.7,0,0,0,1538.7,752.4Z"/><path class="cls-1" d="M1555.38,752.71c0-1.82-1-2.76-2.48-2.76s-2.51.94-2.51,2.76v5.54h-2.05v-9.92h2.05v1.14a4.06,4.06,0,0,1,7,2.93v5.85h-2Z"/><path class="cls-1" d="M1568.7,748.17a4.22,4.22,0,0,1,3.44,1.6v-1.44h2.07v10.09a4.5,4.5,0,0,1-4.84,4.73c-2.65,0-4.61-1.31-4.86-3.51h2a2.76,2.76,0,0,0,2.83,1.73,2.64,2.64,0,0,0,2.77-3v-1.66a4.25,4.25,0,0,1-3.44,1.66c-2.61,0-4.68-2.11-4.68-5.17S1566.09,748.17,1568.7,748.17Zm.43,1.78a3,3,0,0,0-3,3.3,3.12,3.12,0,0,0,3,3.38,3.36,3.36,0,0,0,0-6.68Z"/><path class="cls-1" d="M1581.17,758.42a4.82,4.82,0,0,1-5-5.13,4.75,4.75,0,0,1,5-5.12,4.63,4.63,0,0,1,4.83,4.88,6.86,6.86,0,0,1-.07,1h-7.58a2.72,2.72,0,0,0,2.82,2.63,2.4,2.4,0,0,0,2.35-1.39h2.21A4.53,4.53,0,0,1,1581.17,758.42Zm-2.8-6h5.49a2.58,2.58,0,0,0-2.78-2.5A2.7,2.7,0,0,0,1578.37,752.4Z"/><path class="cls-1" d="M1592.32,758.42a4.84,4.84,0,0,1-5-5.13,5.06,5.06,0,1,1,10.12,0A5,5,0,0,1,1592.32,758.42Zm0-1.79a3,3,0,0,0,3-3.34,3,3,0,0,0-3-3.34c-1.55,0-2.93,1.09-2.93,3.34S1590.77,756.63,1592.32,756.63Z"/><path class="cls-1" d="M1603.8,758.42a4.84,4.84,0,0,1-5-5.13,5.06,5.06,0,1,1,10.12,0A5,5,0,0,1,1603.8,758.42Zm0-1.79a3,3,0,0,0,3-3.34,3,3,0,0,0-3-3.34c-1.54,0-2.93,1.09-2.93,3.34S1602.25,756.63,1603.8,756.63Z"/><path class="cls-1" d="M1615,748.17a4.22,4.22,0,0,1,3.44,1.6v-1.44h2.07v10.09a4.5,4.5,0,0,1-4.85,4.73c-2.64,0-4.6-1.31-4.86-3.51h2a2.75,2.75,0,0,0,2.82,1.73,2.64,2.64,0,0,0,2.78-3v-1.66a4.25,4.25,0,0,1-3.44,1.66c-2.61,0-4.68-2.11-4.68-5.17S1612.37,748.17,1615,748.17Zm.43,1.78a3.05,3.05,0,0,0-3,3.3,3.13,3.13,0,0,0,3,3.38,3.36,3.36,0,0,0,0-6.68Z"/><path class="cls-1" d="M1626.79,758.42c-2.38,0-4-1.41-4.14-3.21h2.12a1.81,1.81,0,0,0,2,1.48c1.19,0,1.82-.51,1.82-1.19,0-1.94-5.76-.83-5.76-4.46,0-1.59,1.47-2.87,3.81-2.87s3.73,1.21,3.84,3.19h-2a1.65,1.65,0,0,0-1.86-1.46c-1.1,0-1.67.45-1.67,1.12,0,2,5.6.88,5.71,4.46C1630.59,757.16,1629.13,758.42,1626.79,758.42Z"/><path class="cls-1" d="M1633.12,750H1632v-1.68h1.17v-2.46h2.07v2.46h2.41V750h-2.41v5.49c0,.74.29,1,1.15,1h1.26v1.71H1636c-1.76,0-2.86-.73-2.86-2.75Z"/><path class="cls-1" d="M1658.24,752.71c0-1.82-1-2.76-2.49-2.76s-2.5.94-2.5,2.76v5.54h-2v-5.54c0-1.82-1-2.76-2.48-2.76s-2.5.94-2.5,2.76v5.54h-2.06v-9.92h2.06v1.14a3.76,3.76,0,0,1,2.93-1.3,4.12,4.12,0,0,0,7,0,3.88,3.88,0,0,1,4.09,4.23v5.85h-2Z"/><path class="cls-1" d="M1667.18,758.42a4.84,4.84,0,0,1-5-5.13,5.06,5.06,0,1,1,10.12,0A5,5,0,0,1,1667.18,758.42Zm0-1.79a3,3,0,0,0,3-3.34,3,3,0,0,0-3-3.34c-1.55,0-2.93,1.09-2.93,3.34S1665.63,756.63,1667.18,756.63Z"/><path class="cls-1" d="M1678.63,758.42a4.82,4.82,0,0,1-5-5.13,4.76,4.76,0,0,1,5-5.12,4.62,4.62,0,0,1,4.82,4.88,6.86,6.86,0,0,1-.07,1h-7.58a2.72,2.72,0,0,0,2.83,2.63,2.4,2.4,0,0,0,2.34-1.39h2.21A4.53,4.53,0,0,1,1678.63,758.42Zm-2.81-6h5.49a2.57,2.57,0,0,0-2.77-2.5A2.7,2.7,0,0,0,1675.82,752.4Z"/><path class="cls-1" d="M1685.79,750h-1.17v-1.68h1.17v-2.46h2.07v2.46h2.41V750h-2.41v5.49c0,.74.29,1,1.15,1h1.26v1.71h-1.62c-1.76,0-2.86-.73-2.86-2.75Z"/><path class="cls-1" d="M1696.43,758.42a4.81,4.81,0,0,1-5-5.13,4.75,4.75,0,0,1,5-5.12,4.62,4.62,0,0,1,4.82,4.88,5.72,5.72,0,0,1-.07,1h-7.58a2.74,2.74,0,0,0,2.83,2.63,2.4,2.4,0,0,0,2.34-1.39H1701A4.53,4.53,0,0,1,1696.43,758.42Zm-2.81-6h5.49a2.57,2.57,0,0,0-2.77-2.5A2.7,2.7,0,0,0,1693.62,752.4Z"/><path class="cls-1" d="M1710.31,752.71c0-1.82-1-2.76-2.49-2.76s-2.5.94-2.5,2.76v5.54h-2v-9.92h2v1.14a3.82,3.82,0,0,1,3-1.3,3.87,3.87,0,0,1,4.07,4.23v5.85h-2Z"/><path class="cls-1" d="M1244.2,769.93h2.09l2.07,8,2.11-8h2.14l2,8,2.06-8h2l-3.07,9.93h-2.16l-2-7.33-2,7.33h-2.16Z"/><path class="cls-1" d="M1264.52,780a4.84,4.84,0,0,1-5-5.13,5.06,5.06,0,1,1,10.12,0A5,5,0,0,1,1264.52,780Zm0-1.78a3.06,3.06,0,0,0,3-3.35,3,3,0,0,0-3-3.34c-1.55,0-2.94,1.09-2.94,3.34S1263,778.24,1264.52,778.24Z"/><path class="cls-1" d="M1273.76,779.86h-2.06v-9.93h2.06v1.45a3.2,3.2,0,0,1,3-1.61v2.13h-.52c-1.52,0-2.45.63-2.45,2.73Z"/><path class="cls-1" d="M1282.63,769.77a4.54,4.54,0,0,1,3.42,1.55v-4.79h2.07v13.33h-2.07v-1.5a4.12,4.12,0,0,1-3.44,1.66c-2.61,0-4.68-2.11-4.68-5.17S1280,769.77,1282.63,769.77Zm.41,1.78a3,3,0,0,0-3,3.3,3.13,3.13,0,0,0,3,3.39,3.36,3.36,0,0,0,0-6.69Z"/><path class="cls-1" d="M1295.09,780a4.81,4.81,0,0,1-4.95-5.13,4.75,4.75,0,0,1,4.95-5.12,4.63,4.63,0,0,1,4.82,4.88,6.86,6.86,0,0,1-.07,1h-7.58a2.73,2.73,0,0,0,2.83,2.63,2.4,2.4,0,0,0,2.34-1.39h2.21A4.53,4.53,0,0,1,1295.09,780Zm-2.81-6h5.49a2.57,2.57,0,0,0-2.77-2.5A2.7,2.7,0,0,0,1292.28,774Z"/><path class="cls-1" d="M1309,774.31c0-1.82-1-2.76-2.49-2.76s-2.5.94-2.5,2.76v5.55h-2v-9.93h2v1.14a3.8,3.8,0,0,1,3-1.3A3.87,3.87,0,0,1,1311,774v5.86h-2Z"/><path class="cls-1" d="M1313.63,777.39h2.23l-2.18,5h-1.33Z"/><path class="cls-1" d="M1336.4,774.31c0-1.82-1-2.76-2.49-2.76s-2.5.94-2.5,2.76v5.55h-2v-5.55c0-1.82-1-2.76-2.49-2.76s-2.5.94-2.5,2.76v5.55h-2.05v-9.93h2.05v1.14a4.1,4.1,0,0,1,6.5.67,4.06,4.06,0,0,1,7.54,2.26v5.86h-2Z"/><path class="cls-1" d="M1345.31,780a4.82,4.82,0,0,1-5-5.13,4.76,4.76,0,0,1,5-5.12,4.63,4.63,0,0,1,4.82,4.88,6.86,6.86,0,0,1-.07,1h-7.58a2.72,2.72,0,0,0,2.83,2.63,2.4,2.4,0,0,0,2.34-1.39h2.21A4.53,4.53,0,0,1,1345.31,780Zm-2.81-6H1348a2.57,2.57,0,0,0-2.77-2.5A2.7,2.7,0,0,0,1342.5,774Z"/><path class="cls-1" d="M1352.47,771.61h-1.17v-1.68h1.17v-2.46h2.07v2.46H1357v1.68h-2.41v5.49c0,.74.29,1,1.15,1H1357v1.72h-1.62c-1.76,0-2.86-.74-2.86-2.76Z"/><path class="cls-1" d="M1367.52,769.77a4.22,4.22,0,0,1,3.44,1.61v-1.45H1373v9.93H1371v-1.48a4.27,4.27,0,0,1-3.48,1.64c-2.57,0-4.64-2.11-4.64-5.17S1364.91,769.77,1367.52,769.77Zm.43,1.78a3.05,3.05,0,0,0-3,3.3,3.13,3.13,0,0,0,3,3.39,3.36,3.36,0,0,0,0-6.69Z"/><path class="cls-1" d="M1375.72,766.53h2.06v13.33h-2.06Z"/><path class="cls-1" d="M1384.08,780c-2.38,0-4-1.41-4.14-3.21h2.12a1.81,1.81,0,0,0,2,1.48c1.19,0,1.82-.5,1.82-1.19,0-1.94-5.76-.83-5.76-4.46,0-1.59,1.47-2.87,3.82-2.87s3.72,1.21,3.83,3.19h-2a1.64,1.64,0,0,0-1.86-1.46c-1.09,0-1.67.45-1.67,1.12,0,2,5.6.88,5.71,4.46C1387.88,778.76,1386.42,780,1384.08,780Z"/><path class="cls-1" d="M1395.79,769.93l2.81,8.09,2.81-8.09h2.18l-3.78,9.93h-2.45l-3.76-9.93Z"/><path class="cls-1" d="M1409.4,780a4.82,4.82,0,0,1-5-5.13,4.75,4.75,0,0,1,5-5.12,4.63,4.63,0,0,1,4.83,4.88,6.86,6.86,0,0,1-.07,1h-7.58a2.72,2.72,0,0,0,2.82,2.63,2.39,2.39,0,0,0,2.34-1.39H1414A4.54,4.54,0,0,1,1409.4,780Zm-2.81-6h5.49a2.57,2.57,0,0,0-2.77-2.5A2.71,2.71,0,0,0,1406.59,774Z"/><path class="cls-1" d="M1418.29,779.86h-2v-9.93h2v1.45a3.23,3.23,0,0,1,3-1.61v2.13h-.52c-1.51,0-2.45.63-2.45,2.73Z"/><path class="cls-1" d="M1424.18,769.93,1427,778l2.81-8.09H1432l-3.79,9.93h-2.44l-3.77-9.93Z"/><path class="cls-1" d="M1437.82,780a4.84,4.84,0,0,1-5-5.13,5.06,5.06,0,1,1,10.12,0A5,5,0,0,1,1437.82,780Zm0-1.78a3.06,3.06,0,0,0,3-3.35,3,3,0,0,0-3-3.34c-1.55,0-2.94,1.09-2.94,3.34S1436.28,778.24,1437.82,778.24Z"/><path class="cls-1" d="M1445,766.53h2.06v13.33H1445Z"/><path class="cls-1" d="M1453.75,769.77a4.2,4.2,0,0,1,3.44,1.61v-1.45h2.07V780a4.49,4.49,0,0,1-4.84,4.73c-2.65,0-4.61-1.31-4.86-3.51h2a2.77,2.77,0,0,0,2.83,1.73,2.64,2.64,0,0,0,2.77-3v-1.66a4.25,4.25,0,0,1-3.44,1.66c-2.61,0-4.68-2.11-4.68-5.17S1451.14,769.77,1453.75,769.77Zm.44,1.78a3.05,3.05,0,0,0-3,3.3,3.13,3.13,0,0,0,3,3.39,3.36,3.36,0,0,0,0-6.69Z"/><path class="cls-1" d="M1466.23,780a4.81,4.81,0,0,1-5-5.13,4.75,4.75,0,0,1,5-5.12,4.63,4.63,0,0,1,4.82,4.88,5.72,5.72,0,0,1-.07,1h-7.58a2.73,2.73,0,0,0,2.83,2.63,2.4,2.4,0,0,0,2.34-1.39h2.21A4.53,4.53,0,0,1,1466.23,780Zm-2.81-6h5.49a2.57,2.57,0,0,0-2.77-2.5A2.7,2.7,0,0,0,1463.42,774Z"/><path class="cls-1" d="M1480.11,774.31c0-1.82-1-2.76-2.49-2.76s-2.5.94-2.5,2.76v5.55h-2v-9.93h2v1.14a3.82,3.82,0,0,1,3-1.3,3.87,3.87,0,0,1,4.07,4.23v5.86h-2Z"/><path class="cls-1" d="M1490.45,769.93l2.81,8.09,2.81-8.09h2.18l-3.78,9.93H1492l-3.76-9.93Z"/><path class="cls-1" d="M1503.79,769.77a4.19,4.19,0,0,1,3.44,1.61v-1.45h2.07v9.93h-2.07v-1.48a4.26,4.26,0,0,1-3.47,1.64c-2.58,0-4.65-2.11-4.65-5.17S1501.18,769.77,1503.79,769.77Zm.43,1.78a3,3,0,0,0-3,3.3,3.13,3.13,0,0,0,3,3.39,3.36,3.36,0,0,0,0-6.69Z"/><path class="cls-1" d="M1519,774.31c0-1.82-1-2.76-2.49-2.76s-2.5.94-2.5,2.76v5.55h-2v-9.93h2v1.14a4.05,4.05,0,0,1,7,2.93v5.86h-2Z"/><path class="cls-1" d="M1532.66,780a4.84,4.84,0,0,1-5-5.13,5.06,5.06,0,1,1,10.12,0A5,5,0,0,1,1532.66,780Zm0-1.78a3.06,3.06,0,0,0,3-3.35,3,3,0,0,0-3-3.34c-1.55,0-2.94,1.09-2.94,3.34S1531.12,778.24,1532.66,778.24Z"/><path class="cls-1" d="M1546.88,774.31c0-1.82-1-2.76-2.48-2.76s-2.5.94-2.5,2.76v5.55h-2.06v-9.93h2.06v1.14a3.8,3.8,0,0,1,2.95-1.3,3.87,3.87,0,0,1,4.07,4.23v5.86h-2Z"/><path class="cls-1" d="M1551.85,771.61h-1.17v-1.68h1.17v-2.46h2.07v2.46h2.41v1.68h-2.41v5.49c0,.74.29,1,1.15,1h1.26v1.72h-1.62c-1.76,0-2.86-.74-2.86-2.76Z"/><path class="cls-1" d="M1563.73,769.77c2.63,0,4.67,2,4.67,5.08s-2.06,5.17-4.67,5.17a4.23,4.23,0,0,1-3.46-1.6v1.44h-2V766.53h2v4.88A4.26,4.26,0,0,1,1563.73,769.77Zm-.45,1.78a3.36,3.36,0,0,0,0,6.69,3.14,3.14,0,0,0,3-3.39A3.06,3.06,0,0,0,1563.28,771.55Z"/><path class="cls-1" d="M1574.73,780a4.84,4.84,0,0,1-5-5.13,5.06,5.06,0,1,1,10.12,0A5,5,0,0,1,1574.73,780Zm0-1.78a3.06,3.06,0,0,0,3-3.35,3,3,0,0,0-3-3.34c-1.54,0-2.93,1.09-2.93,3.34S1573.18,778.24,1574.73,778.24Z"/><path class="cls-1" d="M1585.51,780c-2.38,0-4-1.41-4.14-3.21h2.13a1.81,1.81,0,0,0,2,1.48c1.18,0,1.81-.5,1.81-1.19,0-1.94-5.76-.83-5.76-4.46,0-1.59,1.48-2.87,3.82-2.87s3.73,1.21,3.83,3.19h-2a1.64,1.64,0,0,0-1.85-1.46c-1.1,0-1.68.45-1.68,1.12,0,2,5.6.88,5.71,4.46C1589.31,778.76,1587.85,780,1585.51,780Z"/><path class="cls-1" d="M1595.12,780c-2.37,0-4-1.41-4.14-3.21h2.13a1.81,1.81,0,0,0,2,1.48c1.19,0,1.82-.5,1.82-1.19,0-1.94-5.77-.83-5.77-4.46,0-1.59,1.48-2.87,3.82-2.87s3.73,1.21,3.84,3.19h-2.06a1.63,1.63,0,0,0-1.85-1.46c-1.1,0-1.68.45-1.68,1.12,0,2,5.6.88,5.71,4.46C1598.92,778.76,1597.46,780,1595.12,780Z"/><path class="cls-1" d="M1600.86,767.31a1.31,1.31,0,1,1,2.61,0,1.31,1.31,0,1,1-2.61,0Zm.27,2.62h2.06v9.93h-2.06Z"/><path class="cls-1" d="M1612.93,774.31c0-1.82-1-2.76-2.49-2.76s-2.5.94-2.5,2.76v5.55h-2v-9.93h2v1.14a3.8,3.8,0,0,1,3-1.3A3.87,3.87,0,0,1,1615,774v5.86h-2Z"/><path class="cls-1" d="M1621.56,769.77a4.18,4.18,0,0,1,3.44,1.61v-1.45h2.07V780a4.49,4.49,0,0,1-4.84,4.73c-2.65,0-4.61-1.31-4.86-3.51h2a2.77,2.77,0,0,0,2.83,1.73,2.64,2.64,0,0,0,2.77-3v-1.66a4.24,4.24,0,0,1-3.44,1.66c-2.61,0-4.68-2.11-4.68-5.17S1619,769.77,1621.56,769.77Zm.44,1.78a3.05,3.05,0,0,0-3,3.3,3.13,3.13,0,0,0,3,3.39,3.36,3.36,0,0,0,0-6.69Z"/><path class="cls-1" d="M1630.6,780a1.32,1.32,0,1,1,1.3-1.31A1.29,1.29,0,0,1,1630.6,780Z"/></g></g><g id="waterverbruik"><g id="group-broodPinda"><text class="cls-4" transform="translate(1004.97 1243.17)">Pindakaas van 15 gram = 60 liter</text><text class="cls-4" transform="translate(994.78 1216.04)">1 boterham van 30 gram = 40 liter</text><text class="cls-13" transform="translate(995.34 990.01)">Boterham met<tspan x="0" y="33.6">pindakaas = </tspan><tspan class="cls-14" x="186.48" y="33.6">100 liter</tspan></text><path class="cls-15" d="M1121.49,1044.46c-5.61,11.67-13.09,28.24-20.77,48.65-16.14,42.92-14.58,53.52-11.52,60.91,4.62,11.17,16.18,23.57,31,24.16,14.58.58,26.86-10.47,32.45-20.76,10.38-19.08,1.35-42.05-10-70.84A257.61,257.61,0,0,0,1121.49,1044.46Z"/><image id="afbeelding-broodje-pinda" width="667" height="703" transform="matrix(0.12, -0.08, 0.09, 0.13, 1275, 958.82)" xlink:href="afbeeldingen%20kopie/broodjePinda.png"/></g><g id="group-broodAvocado"><text class="cls-4" transform="translate(438.88 1322.5)">1 boterham van 30 gram = 40 liter</text><text class="cls-4" transform="translate(401.71 1352.14)">Halve avocado van 90 gram = 180 liter</text><text class="cls-13" transform="translate(462.16 981.01)">Boterham met<tspan x="0" y="33.6">avocado = </tspan><tspan class="cls-14" x="158.53" y="33.6">220 liter</tspan></text><path class="cls-15" d="M580.62,1028.83c-10.6,22.07-24.77,53.42-39.29,92-30.54,81.19-27.58,101.24-21.79,115.23,8.74,21.13,30.6,44.58,58.66,45.7,27.59,1.09,50.81-19.82,61.4-39.28,19.63-36.09,2.54-79.56-18.88-134A485.53,485.53,0,0,0,580.62,1028.83Z"/><image id="afbeelding-broodje-avocado" width="901" height="896" transform="translate(740 928) scale(0.11)" xlink:href="afbeeldingen%20kopie/broodje-avocado.png"/></g></g><g id="pindakaas"><path id="achtergrond-avocado" class="cls-3" d="M936.14,352.47c-19.58-.85-49.49,8.7-69.23,34.2-28.27,36.5-45.47,97.86-64.7,141.71-28.12,64.15-47.35,126.85-49.29,171.55-4.19,96.61,73,147.73,161.58,151.57s169.91-40.41,174.1-137c1.94-44.7-11.8-108.83-34.27-175.17-15.35-45.35-27.18-108-52.18-146.78-17.47-27.11-46.44-39.21-66-40.06"/><image id="afbeelding-potjePindakaas" width="657" height="993" transform="translate(824 500) scale(0.29)" xlink:href="afbeeldingen%20kopie/pot-pindakaas.png"/><g id="groep-pinda"><path id="pinda_vorm" data-name="pinda vorm" class="cls-16" d="M969.61,419c-1.06-.83-9.47-7.22-19.71-4.58-9.49,2.45-16.59,11.64-17,22.67-13-.15-24.41,7.12-28.43,17.85-3.79,10.11.39,19.41,1.39,21.48a27.74,27.74,0,0,0,45.37-22.65c10.51-1.68,18.81-8.82,21-18C974.17,427.74,970.71,421,969.61,419Z"/><path class="cls-17" d="M963.06,415.55a41.19,41.19,0,0,0-27.49,22.72,48.28,48.28,0,0,0-31.24,31.6"/><path class="cls-17" d="M968.5,418.59a81,81,0,0,0-29.43,25.87A68.64,68.64,0,0,0,906,476.54"/><path class="cls-17" d="M909.79,478.14a68.56,68.56,0,0,0,32.31-28.38,144.55,144.55,0,0,0,28.76-27.93"/><path class="cls-17" d="M972.53,428.5a57.93,57.93,0,0,1-23.75,21.09,49.62,49.62,0,0,1-33.92,30.69"/><path class="cls-17" d="M950.42,415.44A35.5,35.5,0,0,1,971,437.53"/><path class="cls-17" d="M940,420.74a40.55,40.55,0,0,1,24.53,26.76"/><path class="cls-17" d="M935,429.07a57.92,57.92,0,0,1,21.8,22.63"/><path class="cls-17" d="M932.89,437.54a40.49,40.49,0,0,0,17.94,17.62"/><path class="cls-17" d="M924,438.81A42.58,42.58,0,0,0,949.33,464"/><path class="cls-17" d="M915.06,442.3a62.83,62.83,0,0,0,29.55,31.13"/><path class="cls-17" d="M908.13,448.71a60.78,60.78,0,0,0,30,29.45"/><path class="cls-17" d="M904.39,455.53a65.44,65.44,0,0,0,24.47,26.93"/><path id="pinda_vorm-2" data-name="pinda vorm" class="cls-18" d="M969.76,419.12c-1.06-.83-9.47-7.22-19.7-4.58-9.5,2.45-16.59,11.64-17,22.67-13-.15-24.4,7.12-28.42,17.85-3.79,10.11.39,19.41,1.38,21.48a27.74,27.74,0,0,0,45.37-22.65c10.51-1.68,18.82-8.82,21-18C974.33,427.84,970.86,421.08,969.76,419.12Z"/><path id="pinda_vorm-3" data-name="pinda vorm" class="cls-16" d="M886.73,765.54c-.73,1.14-6.23,10.15-2.57,20.06,3.4,9.2,13.26,15.33,24.27,14.65,1.18,13,9.56,23.56,20.64,26.47,10.44,2.75,19.27-2.35,21.23-3.55a27.73,27.73,0,0,0-27.12-42.85c-2.74-10.28-10.68-17.82-20-19.09C894.94,760.11,888.57,764.24,886.73,765.54Z"/><path class="cls-17" d="M883.93,772.4a41.1,41.1,0,0,0,25.39,25.05,48.25,48.25,0,0,0,34.6,27.88"/><path class="cls-17" d="M886.41,766.69a81,81,0,0,0,28.71,26.66A68.74,68.74,0,0,0,950.38,823"/><path class="cls-17" d="M951.59,819.06a68.48,68.48,0,0,0-31.51-29.27,144.48,144.48,0,0,0-16.53-15.68A142.78,142.78,0,0,0,889.39,764"/><path class="cls-17" d="M895.86,761.68a57.63,57.63,0,0,1,23.38,21.49,49.64,49.64,0,0,1,34,30.63"/><path class="cls-17" d="M885.1,785A35.53,35.53,0,0,1,905,762.33"/><path class="cls-17" d="M891.43,794.84a40.59,40.59,0,0,1,24.14-27.11"/><path class="cls-17" d="M900.23,799a57.53,57.53,0,0,1,8.38-13.25A58.62,58.62,0,0,1,920.53,775"/><path class="cls-17" d="M908.86,800.19a40.37,40.37,0,0,0,15.72-19.63"/><path class="cls-17" d="M911,808.92a42.54,42.54,0,0,0,22.53-27.76"/><path class="cls-17" d="M915.41,817.45a62.87,62.87,0,0,0,28-32.55"/><path class="cls-17" d="M922.48,823.7a60.76,60.76,0,0,0,26.27-32.84"/><path class="cls-17" d="M929.64,826.73A65.59,65.59,0,0,0,954,799.65"/><path id="pinda_vorm-4" data-name="pinda vorm" class="cls-19" d="M886.81,765.37c-.72,1.14-6.22,10.16-2.57,20.07,3.4,9.2,13.26,15.33,24.28,14.64,1.17,13,9.55,23.56,20.64,26.48,10.43,2.74,19.26-2.36,21.22-3.55a27.73,27.73,0,0,0-27.12-42.85c-2.74-10.29-10.68-17.83-20-19.1C895,760,888.65,764.08,886.81,765.37Z"/><path id="pinda_vorm-5" data-name="pinda vorm" class="cls-16" d="M1026.17,769.76c-.58-.4-5.16-3.46-10.4-1.76-4.86,1.57-8.27,6.58-8.14,12.33-6.79.34-12.48,4.48-14.23,10.19a12.33,12.33,0,1,0,24.29-2.08c5.42-1.21,9.51-5.19,10.37-10A12.38,12.38,0,0,0,1026.17,769.76Z"/><path class="cls-17" d="M1022.65,768.16a21.45,21.45,0,0,0-13.59,12.7,25.16,25.16,0,0,0-8.94,6,25.53,25.53,0,0,0-6.32,11.45"/><path class="cls-17" d="M1025.58,769.57a42.29,42.29,0,0,0-14.5,14.39,35.94,35.94,0,0,0-16.2,17.74"/><path class="cls-17" d="M996.91,802.42a36.08,36.08,0,0,0,10.33-7.76,35.64,35.64,0,0,0,5.59-8,75.19,75.19,0,0,0,14.08-15.44"/><path class="cls-17" d="M1028,774.6a30.08,30.08,0,0,1-11.7,11.73,25.82,25.82,0,0,1-16.68,17"/><path class="cls-17" d="M1016.07,768.5a18.51,18.51,0,0,1,11.38,10.85"/><path class="cls-17" d="M1010.8,771.59a21.11,21.11,0,0,1,13.61,13.15"/><path class="cls-17" d="M1008.46,776.08a30.19,30.19,0,0,1,12.06,11.09"/><path class="cls-17" d="M1007.65,780.56a21,21,0,0,0,9.89,8.6"/><path class="cls-17" d="M1003.05,781.5a22.16,22.16,0,0,0,14,12.32"/><path class="cls-17" d="M998.52,783.6a32.74,32.74,0,0,0,16.36,15.27"/><path class="cls-17" d="M995.11,787.15a31.66,31.66,0,0,0,16.55,14.38"/><path class="cls-17" d="M993.38,790.82A34.08,34.08,0,0,0,1007,804.06"/><path id="pinda_vorm-6" data-name="pinda vorm" class="cls-20" d="M1026.25,769.81c-.58-.4-5.16-3.46-10.4-1.76-4.86,1.57-8.26,6.58-8.14,12.33-6.79.34-12.48,4.48-14.23,10.19a12.33,12.33,0,1,0,24.3-2.09c5.41-1.2,9.51-5.18,10.37-10A12.35,12.35,0,0,0,1026.25,769.81Z"/><path id="pinda_vorm-7" data-name="pinda vorm" class="cls-16" d="M861.37,452c-.43.56-3.69,5-2.24,10.3,1.34,4.93,6.19,8.57,11.94,8.71,0,6.79,3.9,12.67,9.52,14.68a12.33,12.33,0,1,0-1-24.36c-1-5.47-4.74-9.75-9.54-10.83A12.34,12.34,0,0,0,861.37,452Z"/><path class="cls-17" d="M859.61,455.41a21.6,21.6,0,0,0,3.82,7.74,21.84,21.84,0,0,0,8.23,6.43,25.13,25.13,0,0,0,16.7,16"/><path class="cls-17" d="M861.15,452.56a42.14,42.14,0,0,0,13.71,15.15,35.83,35.83,0,0,0,17,17"/><path class="cls-17" d="M892.64,482.71a35.82,35.82,0,0,0-15-16.63,76.6,76.6,0,0,0-7.88-8.89,74.92,74.92,0,0,0-6.9-5.89"/><path class="cls-17" d="M866.28,450.38a30.25,30.25,0,0,1,11.18,12.22,25.87,25.87,0,0,1,16.25,17.46"/><path class="cls-17" d="M859.64,462a18.73,18.73,0,0,1,4.76-7,18.39,18.39,0,0,1,6.61-3.9"/><path class="cls-17" d="M862.48,467.41a21.14,21.14,0,0,1,13.77-13"/><path class="cls-17" d="M866.87,470a30.14,30.14,0,0,1,11.63-11.54"/><path class="cls-17" d="M871.29,471a21,21,0,0,0,9.06-9.49"/><path class="cls-17" d="M872,475.61a22.17,22.17,0,0,0,13-13.4"/><path class="cls-17" d="M873.92,480.24a32.79,32.79,0,0,0,16-15.64"/><path class="cls-17" d="M877.31,483.8a31.65,31.65,0,0,0,15.12-15.86"/><path class="cls-17" d="M880.89,485.7a34.06,34.06,0,0,0,13.85-13"/><path id="pinda_vorm-8" data-name="pinda vorm" class="cls-21" d="M861.42,451.89c-.43.57-3.69,5-2.24,10.31,1.34,4.93,6.19,8.56,11.94,8.71,0,6.79,3.9,12.66,9.52,14.68a12.33,12.33,0,1,0-1-24.37c-.95-5.46-4.74-9.74-9.54-10.82A12.41,12.41,0,0,0,861.42,451.89Z"/><path id="pinda_vorm-9" data-name="pinda vorm" class="cls-16" d="M793.29,737.21c-.43.56-3.69,5-2.24,10.31,1.35,4.93,6.19,8.56,11.94,8.7,0,6.8,3.9,12.67,9.53,14.69a12.33,12.33,0,1,0-1-24.37c-.95-5.46-4.74-9.74-9.53-10.82A12.37,12.37,0,0,0,793.29,737.21Z"/><path class="cls-17" d="M791.53,740.65a21.45,21.45,0,0,0,12.05,14.16,25.15,25.15,0,0,0,16.71,16.05"/><path class="cls-17" d="M793.07,737.8a43,43,0,0,0,5.62,8.07,42.25,42.25,0,0,0,8.09,7.07,35.72,35.72,0,0,0,17,17"/><path class="cls-17" d="M824.56,768a35.88,35.88,0,0,0-7.28-10.68,35.52,35.52,0,0,0-7.76-5.95,74.71,74.71,0,0,0-14.78-14.78"/><path class="cls-17" d="M798.21,735.62a30.32,30.32,0,0,1,11.17,12.22,25.93,25.93,0,0,1,16.26,17.45"/><path class="cls-17" d="M791.57,747.24a18.47,18.47,0,0,1,11.36-10.87"/><path class="cls-17" d="M794.41,752.64a21.17,21.17,0,0,1,13.76-13"/><path class="cls-17" d="M798.79,755.19a30.2,30.2,0,0,1,11.63-11.53"/><path class="cls-17" d="M803.22,756.21a21.09,21.09,0,0,0,9-9.48"/><path class="cls-17" d="M804,760.85a22.43,22.43,0,0,0,7.75-5.07,22.15,22.15,0,0,0,5.2-8.33"/><path class="cls-17" d="M805.84,765.48a32.76,32.76,0,0,0,16-15.65"/><path class="cls-17" d="M809.23,769a31.69,31.69,0,0,0,15.13-15.87"/><path class="cls-17" d="M812.81,770.94a34.11,34.11,0,0,0,13.86-13"/><path id="pinda_vorm-10" data-name="pinda vorm" class="cls-22" d="M793.34,737.13c-.43.56-3.69,5-2.24,10.31,1.35,4.93,6.19,8.56,11.94,8.7,0,6.8,3.9,12.67,9.53,14.69a12.33,12.33,0,1,0-1-24.37c-1-5.46-4.75-9.74-9.54-10.82A12.37,12.37,0,0,0,793.34,737.13Z"/><path id="pinda_vorm-11" data-name="pinda vorm" class="cls-16" d="M964.51,780.91c-.35.6-3.07,5.39-1,10.5,1.92,4.73,7.16,7.76,12.89,7.22.83,6.75,5.38,12.11,11.2,13.45A12.33,12.33,0,1,0,983.76,788c-1.6-5.31-5.87-9.11-10.76-9.61A12.32,12.32,0,0,0,964.51,780.91Z"/><path class="cls-17" d="M963.17,784.53a21.43,21.43,0,0,0,13.66,12.63,25.12,25.12,0,0,0,18.49,13.94"/><path class="cls-17" d="M964.37,781.51a42.23,42.23,0,0,0,15.41,13.41,35.74,35.74,0,0,0,6.67,7.83,36.17,36.17,0,0,0,12.2,7"/><path class="cls-17" d="M999.22,807.71A35.89,35.89,0,0,0,982.31,793a75.63,75.63,0,0,0-8.89-7.89,74,74,0,0,0-7.55-5"/><path class="cls-17" d="M969.21,778.74a30.38,30.38,0,0,1,6.35,4,30,30,0,0,1,6.19,6.85A25.83,25.83,0,0,1,1000,804.94"/><path class="cls-17" d="M964,791.07a18.46,18.46,0,0,1,10-12.14"/><path class="cls-17" d="M967.46,796.1a21.17,21.17,0,0,1,4.71-9.12,21.38,21.38,0,0,1,7.41-5.42"/><path class="cls-17" d="M972.11,798.11a30.31,30.31,0,0,1,10.18-12.84"/><path class="cls-17" d="M976.63,798.59a21.11,21.11,0,0,0,7.86-10.49"/><path class="cls-17" d="M977.91,803.11a22.25,22.25,0,0,0,11.27-14.85"/><path class="cls-17" d="M980.33,807.48a32.68,32.68,0,0,0,14-17.44"/><path class="cls-17" d="M984.13,810.61a31.71,31.71,0,0,0,13.13-17.55"/><path class="cls-17" d="M987.91,812.07a34.22,34.22,0,0,0,12.21-14.52"/><path id="pinda_vorm-12" data-name="pinda vorm" class="cls-23" d="M964.55,780.82c-.35.61-3.07,5.4-1,10.5,1.92,4.74,7.16,7.77,12.89,7.22.83,6.75,5.38,12.12,11.2,13.45a12.33,12.33,0,1,0-3.85-24.08c-1.6-5.31-5.87-9.11-10.76-9.61A12.42,12.42,0,0,0,964.55,780.82Z"/><path id="pinda_vorm-13" data-name="pinda vorm" class="cls-16" d="M890.73,733.56c-1.24-.54-11-4.63-20.23.47-8.58,4.73-13.17,15.4-10.84,26.19-12.66,3.11-21.86,13-23.09,24.37-1.15,10.73,5.21,18.7,6.69,20.46a27.74,27.74,0,0,0,38.31-33.23c9.75-4.25,16-13.23,15.88-22.66C897.32,740.87,892.28,735.19,890.73,733.56Z"/><path class="cls-17" d="M883.52,731.83a41.13,41.13,0,0,0-21,28.85,48.31,48.31,0,0,0-22.39,38.38"/><path class="cls-17" d="M889.54,733.42a81.1,81.1,0,0,0-22.06,32.38,68.73,68.73,0,0,0-24,39.31"/><path class="cls-17" d="M847.52,805.71a68.6,68.6,0,0,0,24.22-35.53A144.43,144.43,0,0,0,892.64,736"/><path class="cls-17" d="M895.91,742a57.85,57.85,0,0,1-17.74,26.34A49.63,49.63,0,0,1,853,806.52"/><path class="cls-17" d="M871.26,734.87a35.48,35.48,0,0,1,25.38,16.28"/><path class="cls-17" d="M862.46,742.6a40.57,40.57,0,0,1,30.42,19.81"/><path class="cls-17" d="M859.69,751.92a58,58,0,0,1,26.74,16.48"/><path class="cls-17" d="M859.78,760.63a40.37,40.37,0,0,0,21.76,12.61"/><path class="cls-17" d="M851.47,764.08a42.56,42.56,0,0,0,30.82,18.12"/><path class="cls-17" d="M843.69,769.69a62.87,62.87,0,0,0,36.38,22.79"/><path class="cls-17" d="M838.57,777.62a60.75,60.75,0,0,0,36.41,21"/><path class="cls-17" d="M836.65,785.16a65.39,65.39,0,0,0,30.41,20"/><path id="pinda_vorm-14" data-name="pinda vorm" class="cls-24" d="M890.9,733.62c-1.23-.54-11-4.63-20.22.47-8.59,4.73-13.18,15.4-10.85,26.19-12.66,3.1-21.86,13-23.08,24.37-1.15,10.73,5.21,18.7,6.69,20.46a27.73,27.73,0,0,0,38.3-33.23c9.76-4.25,16-13.24,15.88-22.66C897.49,740.93,892.46,735.25,890.9,733.62Z"/><path id="pinda_vorm-15" data-name="pinda vorm" class="cls-16" d="M875.65,804.21c-.36.61-3.08,5.4-1,10.5,1.92,4.74,7.16,7.77,12.89,7.22.83,6.75,5.38,12.12,11.2,13.45a12.33,12.33,0,1,0-3.85-24.08c-1.6-5.31-5.87-9.11-10.76-9.61A12.32,12.32,0,0,0,875.65,804.21Z"/><path class="cls-17" d="M874.3,807.83A21.49,21.49,0,0,0,888,820.46a25.22,25.22,0,0,0,18.49,13.95"/><path class="cls-17" d="M875.5,804.81a42,42,0,0,0,15.41,13.41,35.76,35.76,0,0,0,18.87,14.86"/><path class="cls-17" d="M910.35,831a35.78,35.78,0,0,0-16.91-14.72,76.55,76.55,0,0,0-8.89-7.9,75.09,75.09,0,0,0-7.54-5"/><path class="cls-17" d="M880.34,802a30.23,30.23,0,0,1,12.55,10.81,25.84,25.84,0,0,1,18.21,15.39"/><path class="cls-17" d="M875.13,814.37a18.5,18.5,0,0,1,10-12.14"/><path class="cls-17" d="M878.59,819.4a21.16,21.16,0,0,1,12.12-14.53"/><path class="cls-17" d="M883.24,821.41a30.31,30.31,0,0,1,10.18-12.84"/><path class="cls-17" d="M887.76,821.89a21,21,0,0,0,7.86-10.49"/><path class="cls-17" d="M889,826.41a22.19,22.19,0,0,0,11.27-14.85"/><path class="cls-17" d="M891.47,830.78a32.72,32.72,0,0,0,14-17.44"/><path class="cls-17" d="M895.26,833.91a31.71,31.71,0,0,0,13.13-17.55"/><path class="cls-17" d="M899,835.37a34.16,34.16,0,0,0,7.53-6.87,33.63,33.63,0,0,0,4.68-7.65"/><path id="pinda_vorm-16" data-name="pinda vorm" class="cls-25" d="M875.69,804.12c-.36.61-3.08,5.4-1,10.5,1.92,4.74,7.16,7.77,12.89,7.22.83,6.75,5.38,12.12,11.2,13.45a12.33,12.33,0,1,0-3.85-24.08c-1.6-5.31-5.87-9.11-10.76-9.61A12.37,12.37,0,0,0,875.69,804.12Z"/></g></g><g id="titel"><text class="cls-26" transform="translate(516.22 107.37)">Eet duurzamer of met mate</text></g></svg>