<svg id="Laag_1" data-name="Laag 1" xmlns="http://www.w3.org/2000/svg" xmlns:xlink="http://www.w3.org/1999/xlink" viewBox="0 0 1933.175 1206.533"><defs><style>.cls-1{fill:none;}.cls-13,.cls-2{fill:#e7e7a9;}.cls-3{fill:#af9f94;}.cls-4{fill:#c6b6ac;}.cls-5{fill:#b5a499;}.cls-6{clip-path:url(#clip-path);}.cls-7{fill:#a5958b;}.cls-8{clip-path:url(#clip-path-2);}.cls-9{fill:#9b8d80;}.cls-10{fill:#84786a;}.cls-11,.cls-12{fill:#033b2b;}.cls-12,.cls-13{font-size:36px;font-family:Poppins-Bold, Poppins;font-weight:700;}.cls-14{clip-path:url(#clip-path-3);}</style><clipPath id="clip-path" transform="translate(10.175 0.333)"><path class="cls-1" d="M-2,288.635l188.8-15.964,201.836-40.707H445.47l39.122-27.936h92.846s64.236,35.918,102.055,40.707S807.2,266.367,807.2,266.367l44.669-7.265L1014,452.28-2,456.1Z"/></clipPath><clipPath id="clip-path-2" transform="translate(10.175 0.333)"><path class="cls-1" d="M775.919,431.183,909.371,421.1l110.946-37.619,31.812-37.376,28.907-7.786h33.495s72.8-120.694,89.7-125.366c0,0,.995-32.7,5.965-35.04s21.871-6.229,33.8-4.672,41.754,4.672,41.754,4.672l96.43-93.44s17.894-15.573,25.847-16.352,31.812-33.482,31.812-33.482h64.791l66.433,20.245,27.836,8.565s48.712,70.859,81.518,82.539,67.6,54.507,67.6,54.507l40.76,58.4S1910.059,334.789,1920,354.854v117.4L857.281,618.642Z"/></clipPath><clipPath id="clip-path-3" transform="translate(10.175 0.333)"><path class="cls-1" d="M1920,513.667s-46,1.625-90.5,21.979-130.594,49.981-161.046,55.668-168.417,33.05-260.935,21.368c0,0-43.45-.814-76.984-8.748,0,0-100.947-28.412-134.241-34.173C1196.293,569.761,1353,688,1287,822s-77.62,213.247-77.62,213.247H1920Z"/></clipPath></defs><path class="cls-2" d="M-2.238-.333V545.45q.129,3.355.263,6.71C-.616,586.169,2,620.734-.66,654.728c-.406,5.188-.96,10.394-1.578,15.613V770.712a6.117,6.117,0,0,1,.531,3.117c-.134,1.369-.32,2.728-.531,4.081V1080H1920V-.333Z" transform="translate(10.175 0.333)"/><polygon id="Berg" class="cls-3" points="1746.173 196.382 1868.476 157.975 1930.234 177.178 1933.175 419.207 1746.173 419.207 1746.173 196.382"/><path id="Berg-2" data-name="Berg" class="cls-4" d="M-2.238,208.3,73.2,196.455H158.87L280.4,172.488l239.825,50.6,90.338,6.983s209.969-104.849,422.2-62.241V293.655l-1035,9.987Z" transform="translate(10.175 0.333)"/><path id="Berg-3" data-name="Berg" class="cls-5" d="M776,257.588l93.3-32.262,117.823-30.565,157.445-96.119h38.264l52.449,19.1,36.494-3.057s20.854,35.456,72.988,41.569v222.7H776Z" transform="translate(10.175 0.333)"/><g id="Berg_met_foto" data-name="Berg met foto"><g class="cls-6"><image width="540" height="360" transform="translate(0 58.557) scale(1.836 1.826)" xlink:href="../Desktop/PRI_87738611.jpg"/></g></g><path id="Berg-4" data-name="Berg" class="cls-7" d="M1077.886,383.553s-36.717-44.911-81.594-44.911H903.807s-107.674,86.024-133.045,93.639V642.428l307.124,7.849Z" transform="translate(10.175 0.333)"/><g id="Berg_met_foto-2" data-name="Berg met foto"><g class="cls-8"><image width="1140" height="641" transform="matrix(-1.122, 0, 0, 1.122, 1927.901, 5.333)" xlink:href="../Desktop/avocado-plantation-chile-drought.jpg"/></g></g><path id="Berg-5" data-name="Berg" class="cls-9" d="M1155.558,564.063c-44.221-31.44-117.589-29.693-117.589-29.693l-36.181-22.707-76.382-27.947-56.622-43.074s-174.535-19.806-190.841-22.154-243.07-92.847-243.07-92.847H330.427l-34.171,27.074s-44.221,82.094-64.322,94.321-74.372,29.693-74.372,29.693C121.381,509.916,49.018,518.65,49.018,518.65L-1.841,555.357C-.454,588.333,1.919,621.8-.66,654.728c-.406,5.188-.96,10.394-1.578,15.613V770.712a6.117,6.117,0,0,1,.531,3.117c-.134,1.369-.32,2.728-.531,4.081v9.709H1196.225S1199.779,595.5,1155.558,564.063Z" transform="translate(10.175 0.333)"/><path id="Berg-6" data-name="Berg" class="cls-10" d="M3.762,787.619s270.013-134.977,299.9-140.977,70.742-22,70.742-22h70.077l81.369-43,37.862,19,23.913-3,40.851,30s65.567-51,113.986-46,114.18-30,114.18-30l66.756,14,26.9-7,36.865,2,161.41-45,268.314-150.689,62.478-61.311s57.878,17,90.215,0c0,0,29.348-4,76.177,16,0,0,84.691,22,95.65,29s138.495,82,138.495,82h39.854l-2.989,356.977Z" transform="translate(10.175 0.333)"/><path class="cls-2" d="M1655.188,544.162c-362.87,82.43-463.76-95.934-855.612-49.463-246.044,29.179-269.4,106.988-405.342,49.463C296.247,502.7,194.58,414.116,43.8,445.236A346.756,346.756,0,0,0-2.55,458.288c.16,11.4-.281,22.785-.94,34.159,0,.107.015.209.016.319.023,19.808.708,39.6,1.5,59.394C-.616,586.169,2,620.734-.66,654.728c-.606,7.747-1.539,15.535-2.531,23.344q-.1,20.553-1.422,41.092c-.637,9.988-1.354,19.978-1.86,29.974.022.156.039.312.061.468a10.953,10.953,0,0,1-.3,4.719q-.254,6-.361,12.009c3.079,1.146,5.7,4.129,5.369,7.5-.8,8.091-3.119,15.884-4.52,23.838H1917.762V448.9C1861.348,477.277,1769.723,518.143,1655.188,544.162Z" transform="translate(10.175 0.333)"/><path class="cls-11" d="M1867.656,523.667c-53.656,13.5-85.639,35.229-112.9,44a985.041,985.041,0,0,1-150.875,36,926.6,926.6,0,0,1-222.72,7c-97.162-8.929-87.464-24.383-217.588-47-180.884-31.441-282.608-16-306.881-12-49.413,8.149-70.242,17.137-117,30-84.5,23.241-266.418,165.923-377.7,43C185.453,429.667,0,545.467,0,545.467v52.051C.54,613.035.736,628.564,0,644v391.247H1920V513.667A461.738,461.738,0,0,0,1867.656,523.667Z" transform="translate(10.175 0.333)"/><text id="Tekst_1" data-name="Tekst 1" class="cls-12" transform="translate(53.745 75.684)">We zijn aangekomen In Petorca, Chili.<tspan x="0" y="43.2">Waar de avocadoplantage de droge heuvels verlicht</tspan></text><text id="Tekst_2" data-name="Tekst 2" class="cls-13" transform="translate(125.817 810.037)">Er is een duidelijk contrast tussen het droge en dorre <tspan x="0" y="43.2">omringende landschap en de bloeiende plantagebomen</tspan></text><g id="Avocado_bomen" data-name="Avocado bomen"><g class="cls-14"><image width="1560" height="936" transform="translate(746.175 494.333) scale(0.761)" xlink:href="../Desktop/3648-1.jpg"/></g></g></svg>