<svg id="Laag_1" data-name="Laag 1" xmlns="http://www.w3.org/2000/svg" xmlns:xlink="http://www.w3.org/1999/xlink" viewBox="0 0 1925.238 1080.333"><defs><style>.cls-1,.cls-11{fill:#e7e7a9;}.cls-2{fill:#af9f94;}.cls-3{fill:#c6b6ac;}.cls-4{fill:#b5a499;}.cls-5{fill:#a59589;}.cls-6{fill:#a5958b;}.cls-7{fill:#9b8d80;}.cls-8{fill:#84786a;}.cls-10,.cls-9{fill:#033b2b;}.cls-10,.cls-11{font-size:36px;font-family:Poppins-Bold, Poppins;font-weight:700;}</style><image id="image" width="322" height="456" xlink:href="Hele%20avocado.png"/></defs><rect id="Achtergrond" class="cls-1" width="1922.238" height="1080.333"/><g id="Bergen"><polygon class="cls-2" points="1738.237 196.382 1860.54 157.975 1922.297 177.178 1925.238 419.207 1738.237 419.207 1738.237 196.382"/><path class="cls-3" d="M-2.238,208.3,73.2,196.455H158.87L280.4,172.488l239.825,50.6,90.338,6.983s209.969-104.849,422.2-62.241V293.655l-1035,9.987Z" transform="translate(2.238 0.333)"/><path class="cls-4" d="M799.282,243.588l89.48-32.262,113-30.565,151-96.119h36.7l50.3,19.1,35-3.057s20,35.456,70,41.569v222.7H799.282Z" transform="translate(2.238 0.333)"/><path class="cls-2" d="M231.582,300.776l171.18-14.554,183-37.112h51.529l35.471-25.468h84.181s58.241,32.745,92.53,37.111,115.789,19.722,115.789,19.722l40.5-6.623s72,16.736,147,18.192V449.968l-921.18,3.483Z" transform="translate(2.238 0.333)"/><path class="cls-5" d="M775.919,431.183,909.371,421.1l110.946-37.619,31.812-37.376,28.907-7.786h33.495s72.8-120.694,89.7-125.366c0,0,.995-32.7,5.965-35.04s21.871-6.229,33.8-4.672,41.754,4.672,41.754,4.672l96.43-93.44s17.894-15.573,25.847-16.352,31.812-33.482,31.812-33.482h64.791l66.433,20.245,27.836,8.565s48.712,70.859,81.518,82.539,67.6,54.507,67.6,54.507l40.76,58.4S1910.059,334.789,1920,354.854v117.4L857.281,618.642Z" transform="translate(2.238 0.333)"/><path class="cls-6" d="M-2.238,303.553s36.717-44.911,81.594-44.911h92.485s107.674,86.024,133.045,93.639V562.428L-2.238,570.277Z" transform="translate(2.238 0.333)"/><path class="cls-7" d="M-2.238,555.643,49.019,518.65s72.362-8.734,108.543-41.921c0,0,54.272-17.466,74.372-29.693s64.322-94.321,64.322-94.321l34.171-27.073H434.873s226.765,90.5,243.07,92.846,190.84,22.154,190.84,22.154l56.623,43.074,76.382,27.947,36.181,22.707s73.368-1.747,117.589,29.693,40.667,223.556,40.667,223.556H-2.238Z" transform="translate(2.238 0.333)"/><path class="cls-8" d="M3.762,787.619s270.013-134.977,299.9-140.977,70.742-22,70.742-22h70.077l81.369-43,37.862,19,23.913-3,40.851,30s65.567-51,113.986-46,114.18-30,114.18-30l66.756,14,26.9-7,36.865,2,161.41-45,268.314-150.689,62.478-61.311s57.878,17,90.215,0c0,0,29.348-4,76.177,16,0,0,84.691,22,95.65,29s138.495,82,138.495,82h39.854l-2.989,356.977Z" transform="translate(2.238 0.333)"/><path class="cls-1" d="M-2.238,494.7c26.819-17.08,67.22-38.744,117.178-49.463C259.994,414.116,357.8,502.7,452.069,544.162,582.851,601.687,605.32,523.878,842.024,494.7,1219,448.228,1316.06,626.592,1665.156,544.162c110.187-26.018,198.333-66.885,252.606-95.262V797.667h-1920Z" transform="translate(2.238 0.333)"/></g><path id="Avocado_achtergrond" data-name="Avocado achtergrond" class="cls-9" d="M361.986,624.667c111.283,122.923,293.205-19.759,377.7-43,46.763-12.863,67.592-21.851,117.005-30,24.273-4,126-19.441,306.881,12,130.124,22.617,120.426,38.071,217.588,47a926.6,926.6,0,0,0,222.72-7,985.041,985.041,0,0,0,150.875-36c27.261-8.771,59.244-30.5,112.9-44a461.963,461.963,0,0,1,52.344-10v521.58H0V545.467S185.453,429.667,361.986,624.667Z" transform="translate(2.238 0.333)"/><text id="Tekst_1" data-name="Tekst 1" class="cls-10" transform="translate(45.809 75.684)">We zijn aangekomen In Petorca, Chili.<tspan x="0" y="43.2">Waar de avocadoplantage de droge heuvels verlicht</tspan></text><text id="Tekst_2" data-name="Tekst 2" class="cls-11" transform="translate(44.881 952.037)">Er is een duidelijk contrast tussen het droge en dorre <tspan x="0" y="43.2">omringende landschap en de bloeiende plantagebomen</tspan></text><g id="Avocados"><use transform="translate(27.238 557.7) scale(0.199)" xlink:href="#image"/><use transform="translate(126.238 525.333) scale(0.199)" xlink:href="#image"/><use transform="translate(225.238 557.333) scale(0.199)" xlink:href="#image"/><use transform="translate(307.238 633.333) scale(0.199)" xlink:href="#image"/><use transform="translate(395.238 683.333) scale(0.199)" xlink:href="#image"/><use transform="translate(485.238 697.333) scale(0.199)" xlink:href="#image"/><use transform="translate(567.238 671.333) scale(0.199)" xlink:href="#image"/><use transform="translate(654.238 633.333) scale(0.199)" xlink:href="#image"/><use transform="translate(737.238 602.333) scale(0.199)" xlink:href="#image"/><use transform="translate(817.238 573.333) scale(0.199)" xlink:href="#image"/><use transform="translate(908.238 557.333) scale(0.199)" xlink:href="#image"/><use transform="translate(1003.238 570.333) scale(0.199)" xlink:href="#image"/><use transform="translate(1091.238 580.333) scale(0.199)" xlink:href="#image"/><use transform="translate(1181.238 602.333) scale(0.199)" xlink:href="#image"/><use transform="translate(1268.238 625.333) scale(0.199)" xlink:href="#image"/><use transform="translate(1357.238 633.333) scale(0.199)" xlink:href="#image"/><use transform="translate(1449.238 633.333) scale(0.199)" xlink:href="#image"/><use transform="translate(1539.238 619.333) scale(0.199)" xlink:href="#image"/><use transform="translate(1635.238 602.333) scale(0.199)" xlink:href="#image"/><use transform="translate(1730.238 580.333) scale(0.199)" xlink:href="#image"/><use transform="translate(1832.238 559.333) scale(0.199)" xlink:href="#image"/><use transform="translate(1832.238 686.333) scale(0.199)" xlink:href="#image"/><use transform="translate(1832.238 813.333) scale(0.199)" xlink:href="#image"/><use transform="translate(1832.238 926.333) scale(0.199)" xlink:href="#image"/><use transform="translate(27.238 678.333) scale(0.199)" xlink:href="#image"/><use transform="translate(27.238 799.333) scale(0.199)" xlink:href="#image"/><use transform="translate(1722.238 926.333) scale(0.199)" xlink:href="#image"/><use transform="translate(1618.238 923.333) scale(0.199)" xlink:href="#image"/><use transform="translate(1518.238 923.333) scale(0.199)" xlink:href="#image"/><use transform="translate(1417.238 923.333) scale(0.199)" xlink:href="#image"/><use transform="translate(1319.238 923.333) scale(0.199)" xlink:href="#image"/><use transform="translate(1230.238 923.333) scale(0.199)" xlink:href="#image"/><use transform="translate(1132.238 923.333) scale(0.199)" xlink:href="#image"/></g></svg>