        <svg class="chili" version="1.1" id="Laag_1" xmlns="http://www.w3.org/2000/svg"
            xmlns:xlink="http://www.w3.org/1999/xlink" x="0px" y="0px" viewBox="0 0 1925.2 1080.3"
            style="enable-background:new 0 0 1925.2 1080.3;" xml:space="preserve">
            <style type="text/css">
                .st0-4 {
                    fill: #E7E7A9;
                }

                .st1-4 {
                    fill: #AF9F94;
                }

                .st2-4 {
                    fill: #C6B6AC;
                }

                .st3-4 {
                    fill: #B5A499;
                }

                .st4-4 {
                    fill: #A59589;
                }

                .st5-4 {
                    fill: #A5958B;
                }

                .st6-4 {
                    fill: #9B8D80;
                }

                .st7-4 {
                    fill: #84786A;
                }

                .st8-4 {
                    fill: #033B2B;
                }

                .st9-4 {
                    font-family: 'Poppins-Bold';
                }

                .st10-4 {
                    font-size: 36px;
                }
            </style>
            <rect id="Achtergrond" class="st0-4" width="1925.2" height="1080.3" />
            <g id="Bergen">
                <polygon class="st1-4" points="1738.2,196.4 1860.5,158 1925.2,178.1 1925.2,419.2 1738.2,419.2 	" />
                <path class="st2-4"
                    d="M0,208.6l75.4-11.8h85.7l121.5-24l239.8,50.6l90.3,7c0,0,210-104.8,422.2-62.2V294L0,304L0,208.6z" />
                <path class="st3-4"
                    d="M801.5,243.9l89.5-32.3l113-30.6L1155,85h36.7l50.3,19.1l35-3.1c0,0,20,35.5,70,41.6v222.7H801.5V243.9z" />
                <path class="st1-4" d="M228.1,301.6l176.9-15l183-37.1h51.5L675,224h84.2c0,0,58.2,32.7,92.5,37.1s115.8,19.7,115.8,19.7l40.5-6.6
                c0,0,72,16.7,147,18.2v157.9l-921.2,3.5L228.1,301.6z" />
                <path class="st4-4"
                    d="M778.2,431.5l133.5-10.1l110.9-37.6l31.8-37.4l28.9-7.8h33.5c0,0,72.8-120.7,89.7-125.4c0,0,1-32.7,6-35
                s21.9-6.2,33.8-4.7s41.8,4.7,41.8,4.7l96.4-93.4c0,0,17.9-15.6,25.8-16.4s31.8-33.5,31.8-33.5h64.8l66.4,20.2l27.8,8.6
                c0,0,48.7,70.9,81.5,82.5s67.6,54.5,67.6,54.5l40.8,58.4c0,0,124.5,76.9,134.4,97v116L859.5,619L778.2,431.5z" />
                <path class="st5-4"
                    d="M0,303.9c0,0,36.7-44.9,81.6-44.9h92.5c0,0,107.7,86,133,93.6v210.1L0,570.6V303.9z" />
                <path class="st6-4"
                    d="M0,556l51.3-37c0,0,72.4-8.7,108.5-41.9c0,0,54.3-17.5,74.4-29.7s64.3-94.3,64.3-94.3l34.2-27.1h104.4
                c0,0,226.8,90.5,243.1,92.8S871,441,871,441l56.6,43.1L1004,512l36.2,22.7c0,0,73.4-1.7,117.6,29.7s40.7,223.6,40.7,223.6H0V556z" />
                <path class="st7-4" d="M6,788c0,0,270-135,299.9-141s70.7-22,70.7-22h70.1l81.4-43l37.9,19l23.9-3l40.9,30c0,0,65.6-51,114-46
                s114.2-30,114.2-30l66.8,14l26.9-7l36.9,2l161.4-45l268.3-150.7l62.5-61.3c0,0,57.9,17,90.2,0c0,0,29.3-4,76.2,16
                c0,0,84.7,22,95.7,29s138.5,82,138.5,82h43.1v357H6z" />
                <path class="st0-4" d="M0,495c26.8-17.1,67.2-38.7,117.2-49.5C262.2,414.4,360,503,454.3,544.5c130.8,57.5,153.3-20.3,390-49.5
                c377-46.5,474,131.9,823.1,49.5c110.2-26,203.6-67.3,257.8-95.7V798H0L0,495z" />
            </g>
            <path id="Avocado_achtergrond" class="st8-4" d="M363,634.7c111.6,133.4,294-21.4,378.7-46.7c46.9-14,67.8-23.7,117.3-32.6
            c24.3-4.3,126.3-21.1,307.7,13c130.5,24.5,120.8,41.3,218.2,51c74.5,7.2,149.4,4.6,223.3-7.6c51.3-8.7,101.9-21.8,151.3-39.1
            c27.3-9.5,59.4-33.1,113.2-47.8c17.3-4.7,34.8-8.3,52.5-10.9v566.1H0V548.7C0,548.7,186,423,363,634.7z" />
            <text transform="matrix(1 0 0 1 45.809 75.684)" class="st8-4 st9-4 st10-4">We zijn aangekomen In Petorca,
                Chili.</text>
            <text transform="matrix(1 0 0 1 45.809 118.884)" class="st8-4 st9-4 st10-4">Waar de avocadoplantage de droge
                heuvels verlicht</text>
            <text transform="matrix(1 0 0 1 44.881 952.037)" class="st0-4 st9-4 st10-4">Er is een duidelijk contrast
                tussen
                het droge en dorre </text>
            <text transform="matrix(1 0 0 1 44.881 995.237)" class="st0-4 st9-4 st10-4">omringende landschap en de
                bloeiende
                plantagebomen</text>
            <g id="Avocados">
                <g transform="translate(27.238 557.7) scale(0.199)">

                    <image style="overflow:visible;enable-background:new    ;" width="322" height="456" id="image"
                        xlink:href="images/avocado.png">
                    </image>
                </g>
                <g transform="translate(126.238 525.333) scale(0.199)">

                    <image style="overflow:visible;enable-background:new    ;" width="322" height="456" id="image_2_"
                        xlink:href="images/avocado.png">
                    </image>
                </g>
                <g transform="translate(225.238 557.333) scale(0.199)">

                    <image style="overflow:visible;enable-background:new    ;" width="322" height="456" id="image_3_"
                        xlink:href="images/avocado.png">
                    </image>
                </g>
                <g transform="translate(307.238 633.333) scale(0.199)">

                    <image style="overflow:visible;enable-background:new    ;" width="322" height="456" id="image_4_"
                        xlink:href="images/avocado.png">
                    </image>
                </g>
                <g transform="translate(395.238 683.333) scale(0.199)">

                    <image style="overflow:visible;enable-background:new    ;" width="322" height="456" id="image_5_"
                        xlink:href="images/avocado.png">
                    </image>
                </g>
                <g transform="translate(485.238 697.333) scale(0.199)">

                    <image style="overflow:visible;enable-background:new    ;" width="322" height="456" id="image_6_"
                        xlink:href="images/avocado.png">
                    </image>
                </g>
                <g transform="translate(567.238 671.333) scale(0.199)">

                    <image style="overflow:visible;enable-background:new    ;" width="322" height="456" id="image_7_"
                        xlink:href="images/avocado.png">
                    </image>
                </g>
                <g transform="translate(654.238 633.333) scale(0.199)">

                    <image style="overflow:visible;enable-background:new    ;" width="322" height="456" id="image_8_"
                        xlink:href="images/avocado.png">
                    </image>
                </g>
                <g transform="translate(737.238 602.333) scale(0.199)">

                    <image style="overflow:visible;enable-background:new    ;" width="322" height="456" id="image_9_"
                        xlink:href="images/avocado.png">
                    </image>
                </g>
                <g transform="translate(817.238 573.333) scale(0.199)">

                    <image style="overflow:visible;enable-background:new    ;" width="322" height="456" id="image_10_"
                        xlink:href="images/avocado.png">
                    </image>
                </g>
                <g transform="translate(908.238 557.333) scale(0.199)">

                    <image style="overflow:visible;enable-background:new    ;" width="322" height="456" id="image_11_"
                        xlink:href="images/avocado.png">
                    </image>
                </g>
                <g transform="translate(1003.238 570.333) scale(0.199)">

                    <image style="overflow:visible;enable-background:new    ;" width="322" height="456" id="image_12_"
                        xlink:href="images/avocado.png">
                    </image>
                </g>
                <g transform="translate(1091.238 580.333) scale(0.199)">

                    <image style="overflow:visible;enable-background:new    ;" width="322" height="456" id="image_13_"
                        xlink:href="images/avocado.png">
                    </image>
                </g>
                <g transform="translate(1181.238 602.333) scale(0.199)">

                    <image style="overflow:visible;enable-background:new    ;" width="322" height="456" id="image_14_"
                        xlink:href="images/avocado.png">
                    </image>
                </g>
                <g transform="translate(1268.238 625.333) scale(0.199)">

                    <image style="overflow:visible;enable-background:new    ;" width="322" height="456" id="image_15_"
                        xlink:href="images/avocado.png">
                    </image>
                </g>
                <g transform="translate(1357.238 633.333) scale(0.199)">

                    <image style="overflow:visible;enable-background:new    ;" width="322" height="456" id="image_16_"
                        xlink:href="images/avocado.png">
                    </image>
                </g>
                <g transform="translate(1449.238 633.333) scale(0.199)">

                    <image style="overflow:visible;enable-background:new    ;" width="322" height="456" id="image_17_"
                        xlink:href="images/avocado.png">
                    </image>
                </g>
                <g transform="translate(1539.238 619.333) scale(0.199)">

                    <image style="overflow:visible;enable-background:new    ;" width="322" height="456" id="image_18_"
                        xlink:href="images/avocado.png">
                    </image>
                </g>
                <g transform="translate(1635.238 602.333) scale(0.199)">

                    <image style="overflow:visible;enable-background:new    ;" width="322" height="456" id="image_19_"
                        xlink:href="images/avocado.png">
                    </image>
                </g>
                <g transform="translate(1730.238 580.333) scale(0.199)">

                    <image style="overflow:visible;enable-background:new    ;" width="322" height="456" id="image_20_"
                        xlink:href="images/avocado.png">
                    </image>
                </g>
                <g transform="translate(1832.238 559.333) scale(0.199)">

                    <image style="overflow:visible;enable-background:new    ;" width="322" height="456" id="image_21_"
                        xlink:href="images/avocado.png">
                    </image>
                </g>
                <g transform="translate(1832.238 686.333) scale(0.199)">

                    <image style="overflow:visible;enable-background:new    ;" width="322" height="456" id="image_22_"
                        xlink:href="images/avocado.png">
                    </image>
                </g>
                <g transform="translate(1832.238 813.333) scale(0.199)">

                    <image style="overflow:visible;enable-background:new    ;" width="322" height="456" id="image_23_"
                        xlink:href="images/avocado.png">
                    </image>
                </g>
                <g transform="translate(1832.238 926.333) scale(0.199)">

                    <image style="overflow:visible;enable-background:new    ;" width="322" height="456" id="image_24_"
                        xlink:href="images/avocado.png">
                    </image>
                </g>
                <g transform="translate(27.238 678.333) scale(0.199)">

                    <image style="overflow:visible;enable-background:new    ;" width="322" height="456" id="image_25_"
                        xlink:href="images/avocado.png">
                    </image>
                </g>
                <g transform="translate(27.238 799.333) scale(0.199)">

                    <image style="overflow:visible;enable-background:new    ;" width="322" height="456" id="image_26_"
                        xlink:href="images/avocado.png">
                    </image>
                </g>
                <g transform="translate(1722.238 926.333) scale(0.199)">

                    <image style="overflow:visible;enable-background:new    ;" width="322" height="456" id="image_27_"
                        xlink:href="images/avocado.png">
                    </image>
                </g>
                <g transform="translate(1618.238 923.333) scale(0.199)">

                    <image style="overflow:visible;enable-background:new;" width="322" height="456" id="image_28_"
                        xlink:href="images/avocado.png">
                    </image>
                </g>
                <g transform="translate(1518.238 923.333) scale(0.199)">

                    <image style="overflow:visible;enable-background:new    ;" width="322" height="456" id="image_29_"
                        xlink:href="images/avocado.png">
                    </image>
                </g>
                <g transform="translate(1417.238 923.333) scale(0.199)">

                    <image style="overflow:visible;enable-background:new    ;" width="322" height="456" id="image_30_"
                        xlink:href="images/avocado.png">
                    </image>
                </g>
                <g transform="translate(1319.238 923.333) scale(0.199)">

                    <image style="overflow:visible;enable-background:new    ;" width="322" height="456" id="image_31_"
                        xlink:href="images/avocado.png">
                    </image>
                </g>
                <g transform="translate(1230.238 923.333) scale(0.199)">

                    <image style="overflow:visible;enable-background:new    ;" width="322" height="456" id="image_32_"
                        xlink:href="images/avocado.png">
                    </image>
                </g>
                <g transform="translate(1132.238 923.333) scale(0.199)">

                    <image style="overflow:visible;enable-background:new    ;" width="322" height="456" id="image_33_"
                        xlink:href="images/avocado.png">
                    </image>
                </g>
            </g>
        </svg>
