<?xml version="1.0" encoding="utf-8"?>
<!-- Generator: Adobe Illustrator 24.1.2, SVG Export Plug-In . SVG Version: 6.00 Build 0)  -->
<svg version="1.1" id="Layer_1" xmlns="http://www.w3.org/2000/svg" xmlns:xlink="http://www.w3.org/1999/xlink" x="0px" y="0px"
	 viewBox="0 0 1920 1080" style="enable-background:new 0 0 1920 1080;" xml:space="preserve">
<style type="text/css">
	.st0{fill:#03392B;}
	.st1{fill:#E7E7AA;}
	.st2{font-family:'Poppins-Bold';}
	.st3{font-size:36px;}
	.st4{fill:none;stroke:#E7E7AA;stroke-width:6;stroke-linecap:round;stroke-linejoin:round;}
	.st5{font-size:19.45px;}
	.st6{font-family:'Poppins-Medium';}
	.st7{font-size:24px;}
	.st8{font-size:7.4193px;}
</style>
<g id="background">
	<rect class="st0" width="1920" height="1080"/>
</g>
<image style="overflow:visible;" width="901" height="1201" xlink:href="../Documents/School/Jaar 3/Project/project-id/images/menselijk-lichaam.png"  transform="matrix(0.5743 0 0 0.5743 131.6483 284.6533)">
</image>
<g id="heart-icon">
	<g id="icons_Q2">
		<path id="Path_74" class="st1" d="M420.1,229.4c-4.4-4.5-10.5-7.1-16.8-7.1c-7.7,0-15.8,6.1-19.8,12.9c-4-6.7-12.1-12.9-19.8-12.9
			c-13.1,0.2-23.7,10.8-23.7,23.9c0,1.3,0.1,2.5,0.4,3.8h8.1c-0.4-1.2-0.6-2.5-0.6-3.8c0-4.2,1.7-8.2,4.8-11.1
			c2.9-3.1,6.9-4.8,11.1-4.8c4.4,0,10.1,3.9,12.9,8.7l5.1,8.9c0.7,1,2,1.2,3,0.6c0.2-0.1,0.4-0.3,0.6-0.6l5.1-8.9
			c2.8-4.8,8.5-8.7,12.9-8.7c4.2,0,8.2,1.7,11.1,4.7c3,2.9,4.7,6.9,4.7,11.1c0,3.6-1.8,7.3-5.3,11.7h-26.6l-3.8,6.1l-10.1-17
			c-0.7-1-2-1.2-3-0.5c-0.2,0.1-0.4,0.3-0.5,0.5l-6.3,10.9h-13.7c-2.2,0-3.9,1.7-4,3.9c0,0.2,0,0.4,0,0.6c0.4,2,2.1,3.4,4.1,3.4
			h17.8l3.8-6.1l10.1,17c0.7,1,2,1.2,3,0.5c0.2-0.1,0.4-0.3,0.5-0.5l6.3-10.9h15l-23.1,24.7l-15.8-16.8h-10.8l25.3,27.1
			c0.8,0.7,2,0.7,2.8,0c5.9-6.3,28.3-30.1,32.2-34.6s9.9-11.9,9.9-20C427,239.9,424.5,233.8,420.1,229.4L420.1,229.4z"/>
	</g>
</g>
<g id="titel">
	<text transform="matrix(1 0 0 1 245.45 137.27)" class="st1 st2 st3">De avocado wordt gezien als een superfood. Super gezond met veel voordelen:</text>
</g>
<g id="avocado-vitamines_info">
	<g id="_Groep_arrow_">
		<path class="st4" d="M1047.5,398.9c26.2-15.4,43.3-24.8,91.5-11.9c54.3,14.4,74.8,42.4,117,41c24.4-0.8,58.8-11.6,99.3-58.2"/>
		<line class="st4" x1="1357.1" y1="367" x2="1358.1" y2="409.9"/>
		<line class="st4" x1="1357.1" y1="367" x2="1314.8" y2="373.6"/>
	</g>
	<g id="_Groep_vitamines_letters_">
		<circle class="st1" cx="1427.8" cy="286.6" r="18.1"/>
		<circle class="st1" cx="1480.6" cy="331.8" r="18.1"/>
		<circle class="st1" cx="1367.1" cy="308.5" r="18.1"/>
		<circle class="st1" cx="1424.1" cy="374.5" r="18.1"/>
		<rect x="1424.8" y="292.5" class="st1" width="5.9" height="78.5"/>
		
			<rect x="1421.8" y="271.4" transform="matrix(9.184916e-02 -0.9958 0.9958 9.184916e-02 974.091 1710.4163)" class="st1" width="5.9" height="99.6"/>
		<text transform="matrix(1 0 0 1 1359.475 315.295)" class="st0 st2 st5">B</text>
		<text transform="matrix(1 0 0 1 1420.3849 292.045)" class="st0 st2 st5">C</text>
		<text transform="matrix(1 0 0 1 1476.705 338.725)" class="st0 st2 st5">E</text>
		<text transform="matrix(1 0 0 1 1419.1949 382.215)" class="st0 st2 st5">K</text>
	</g>
	<g id="_Groep_arrow_3">
		<path class="st4" d="M1131.1,551.2c22.8-4.9,45.4-4.5,63.9,6.8c35.4,21.5,28.5,66.1,58,85c24.8,15.9,73,12.2,173.1-59.5"/>
		<line class="st4" x1="1426.1" y1="583.5" x2="1423.8" y2="626.4"/>
		<line class="st4" x1="1426.1" y1="583.5" x2="1383.3" y2="587"/>
	</g>
	<text transform="matrix(1 0 0 1 1396.5103 539.9999)" class="st1 st6 st7">Kalium, Zink, Ijzer</text>
	<text transform="matrix(1 0 0 1 1329.4497 253.1158)" class="st1 st6 st7">Bevat vitamines:</text>
	<text transform="matrix(1 0 0 1 1413.9221 828.4403)" class="st1 st6 st7">Onverzadigd vetten</text>
	<text transform="matrix(1 0 0 1 1413.9221 857.2403)" class="st1 st6 st7">(Oliezuur)</text>
	
		<image style="overflow:visible;enable-background:new    ;" width="322" height="456" id="avocado-afb" xlink:href="../Documents/School/Jaar 3/Project/project-id/images/avocado.png"  transform="matrix(1 0 0 1 788 382)">
	</image>
	<g id="_Groep_arrow__1_">
		<path class="st4" d="M774.5,520.8c-9.2-4.5-18.5-9.8-27.7-16.1c-46.3-31.7-56.4-64.9-96.6-77.7c-23.3-7.4-59.3-8.6-113,21.8"/>
		<line class="st4" x1="534.5" y1="450.9" x2="547.9" y2="410.1"/>
		<line class="st4" x1="534.5" y1="450.9" x2="576.7" y2="458.8"/>
	</g>
	<g id="_Groep_arrow__2_">
		<path class="st4" d="M1095.3,750.4c6.2,2.5,24.9,18.2,39.8,30.4c14.7,12,29,24.6,42.7,37.7c27.8,26.6,44.6,39.5,77.1,47.5
			c23.7,5.8,59.7,4.7,111.3-29.1"/>
		<line class="st4" x1="1368.8" y1="834.7" x2="1358.1" y2="876.2"/>
		<line class="st4" x1="1368.8" y1="834.7" x2="1326.2" y2="829.6"/>
	</g>
</g>
<g id="_Groep_text_3_">
	<path class="st1" d="M278.7,470.3l96.3-0.1c1.1,0,2,1,2,2.2l0,18.6c0,1.2-0.9,2.2-2,2.2l-96.3,0.1c-1.1,0-2-1-2-2.2l0-18.6
		C276.7,471.3,277.6,470.3,278.7,470.3z"/>
	<text transform="matrix(0.941 -8.835056e-04 9.389172e-04 1 282.6358 479.7179)" class="st0 st6 st8">Verkleint de kans op </text>
	<text transform="matrix(0.941 -8.835056e-04 9.389172e-04 1 282.6441 488.6212)" class="st0 st6 st8">hart- en vaatziekten.</text>
</g>
<g id="_Groep_text_2_">
	<path class="st1" d="M416.8,342.5h96.1c1.2,0,2.1,0.9,2.1,2.1v18.8c0,1.2-0.9,2.1-2.1,2.1h-96.1c-1.2,0-2.1-0.9-2.1-2.1v-18.8
		C414.7,343.5,415.6,342.5,416.8,342.5z"/>
	<text transform="matrix(1 0 0 1 424.0262 352.0043)" class="st0 st6 st8">Helpt veroudering </text>
	<text transform="matrix(1 0 0 1 424.0262 360.9066)" class="st0 st6 st8">tegen te gaan.</text>
</g>
<g id="_Groep_text_1_">
	<path class="st1" d="M426.1,577.5h96.2c1.1,0,2.1,0.9,2.1,2.1v18.7c0,1.2-0.9,2.1-2.1,2.1h-96.2c-1.1,0-2.1-0.9-2.1-2.1v-18.7
		C424,578.4,425,577.5,426.1,577.5z"/>
	<text transform="matrix(0.9759 0 0 1 433.5018 587.3335)" class="st0 st6 st8">Helpt je gewicht </text>
	<text transform="matrix(0.9759 0 0 1 433.5018 596.2368)" class="st0 st6 st8">te verliezen</text>
</g>
</svg>
