<svg xmlns="http://www.w3.org/2000/svg" viewBox="0 0 1920 1080"><defs><style>.cls-1,.cls-10,.cls-11,.cls-13,.cls-4,.cls-9{fill:#03392b;}.cls-2,.cls-5{fill:none;}.cls-12,.cls-2,.cls-3,.cls-5,.cls-6{stroke:#e7e7aa;}.cls-10,.cls-14,.cls-2,.cls-5,.cls-6{stroke-linecap:round;stroke-linejoin:round;}.cls-2{stroke-width:6px;}.cls-12,.cls-3,.cls-6,.cls-7,.cls-8{fill:#e7e7aa;}.cls-11,.cls-12,.cls-3{stroke-miterlimit:10;}.cls-4{font-size:20px;}.cls-12,.cls-13,.cls-4{font-family:Poppins-Medium, Poppins;font-weight:500;}.cls-10,.cls-11,.cls-5,.cls-6{stroke-width:4px;}.cls-7{font-size:36px;}.cls-7,.cls-9{font-family:Poppins-Bold, Poppins;font-weight:700;}.cls-12,.cls-13,.cls-9{font-size:28px;}.cls-10,.cls-11{stroke:#043a2b;}.cls-14{fill:#e6e6a9;stroke:#e6e6a9;}.cls-15{fill:#053a2c;}</style></defs><g id="background"><rect class="cls-1" width="1920" height="1080"/></g><g id="heart-icon"><path class="cls-2" d="M207.5,300.5a20,20,0,1,1,40-2.58c1.16-11.49,10.77-19.82,21-19.42,8.95.35,16.39,8,18.5,15.5,4.58,16.28-14.85,34.48-25,44a111.56,111.56,0,0,1-14.5,11.5A98.91,98.91,0,0,1,219,329"/><path class="cls-2" d="M212,315h21.83l6.22-11.8,11,22,6.67-10.2,23.23-.8"/></g><g id="_text_health" data-name="
text health"><rect class="cls-3" x="471.5" y="383.5" width="255" height="83" rx="18"/><g id="_Groep_text_3_" data-name="&lt;Groep text 3&gt;"><g id="mineralen-border"><g id="vitamine-waardes"><text class="cls-4" transform="translate(496.41 420.19)">Verkleint de kans op<tspan x="0" y="24">hart- en vaatziekten.</tspan></text></g></g></g><rect class="cls-3" x="521.5" y="618.5" width="211" height="81" rx="18"/><g id="_Groep_text_3_2" data-name="&lt;Groep text 3&gt;"><g id="mineralen-border-2" data-name="mineralen-border"><g id="vitamine-waardes-2" data-name="vitamine-waardes"><text class="cls-4" transform="translate(546.41 655.19)">Helpt je gewicht <tspan x="0" y="24">te verliezen.</tspan></text></g></g></g><rect class="cls-3" x="471.5" y="802.5" width="234" height="83" rx="18"/><g id="_Groep_text_3_3" data-name="&lt;Groep text 3&gt;"><g id="mineralen-border-3" data-name="mineralen-border"><g id="vitamine-waardes-3" data-name="vitamine-waardes"><text class="cls-4" transform="translate(496.41 839.19)">Helpt veroudering <tspan x="0" y="24">tegen te gaan.</tspan></text></g></g></g></g><g id="pijlen"><g id="pijl-group"><line class="cls-5" x1="386" y1="479" x2="438" y2="435"/><polygon class="cls-6" points="440.08 433.26 421.78 437.45 434.56 451.21 440.08 433.26"/></g><g id="pijl-group-2" data-name="pijl-group"><line class="cls-5" x1="431.56" y1="664.81" x2="499.67" y2="664.78"/><polygon class="cls-6" points="502.39 664.79 485.7 656.18 486.58 674.94 502.39 664.79"/></g><g id="pijl-group-3" data-name="pijl-group"><line class="cls-5" x1="354.92" y1="816.93" x2="419.06" y2="839.85"/><polygon class="cls-6" points="421.62 840.78 408.81 827.04 403.31 845.01 421.62 840.78"/></g></g><g id="titel"><text class="cls-7" transform="translate(245.45 137.27)">De avocado wordt gezien als een superfood. Super gezond met veel voordelen:</text></g><g id="avocado-midden"><g id="avocado-achtergrond"><path id="achtergrond-avocado-koelkast" class="cls-8" d="M1008.31,366.11c-19.59,0-49.06,10.83-67.68,37.17C914,441,899.44,503,882.14,547.66,856.81,613,840.32,676.44,840.32,721.18c0,96.7,79.33,144.43,168,144.43s168-47.73,168-144.43c0-44.74-16.5-108.21-41.82-173.52C1117.18,503,1102.65,441,1076,403.28c-18.63-26.34-48.09-37.17-67.69-37.17"/></g></g><g id="voedingstoffen"><g id="vitamines"><rect class="cls-3" x="1342.5" y="276.5" width="348" height="201" rx="30"/><g id="vitamine-waardes-4" data-name="vitamine-waardes"><text class="cls-9" transform="translate(1440.42 327.11)">Vitamines</text><g id="vit-b"><line class="cls-10" x1="1450" y1="357" x2="1450.23" y2="338.16"/><circle class="cls-11" cx="1450.12" cy="375.17" r="16.88"/><text class="cls-12" transform="translate(1442.24 384.56)">B</text></g><g id="vit-c"><line class="cls-10" x1="1491.45" y1="372.91" x2="1492" y2="338"/><circle class="cls-11" cx="1491.57" cy="391.08" r="16.88"/><text class="cls-12" transform="translate(1480.4 400.98)">C</text></g><g id="vit-e"><line class="cls-10" x1="1536.45" y1="394.91" x2="1536" y2="338"/><circle class="cls-11" cx="1536.57" cy="413.08" r="16.88"/><text class="cls-12" transform="translate(1529.21 423)">E</text></g><g id="vit-k"><line class="cls-10" x1="1580.5" y1="415.2" x2="1580" y2="338"/><circle class="cls-11" cx="1580.62" cy="433.37" r="16.88"/><text class="cls-12" transform="translate(1571.94 442.93)">K</text></g></g></g><g id="mineralen"><rect class="cls-3" x="1348.5" y="532.5" width="348" height="150" rx="30"/><text id="titel-mineralen" class="cls-9" transform="translate(1414.42 583.11)">Mineralen</text><text class="cls-13" transform="translate(1414.14 622.23)">Zoals Kalium, zink <tspan x="0" y="33.6">en ijzer</tspan></text></g><g id="vet"><rect class="cls-3" x="1348.5" y="737.5" width="348" height="123" rx="30"/><text class="cls-9" transform="translate(1413.42 788.11)">Onverzadigd vet</text><text class="cls-13" transform="translate(1413.14 827.23)">Zoals oliezuur</text></g></g><g id="lichaam"><path class="cls-14" d="M144.92,649.63a42.94,42.94,0,0,0-11.25,8.09c-3.1,3.14-2.56,3.61-8,10.34-5.18,6.44-8.36,9.35-7.51,10.71.59.92,2.72.55,3.49.41,2.56-.45,3.91-2,7.26-4.9,1.16-1,2.92-2.49,5.19-4.23a141.27,141.27,0,0,1-5.81,14.82c-3.54,7.67-7.07,13.47-5,15.81a2.07,2.07,0,0,0,1.37.74c2.5.15,4.53-5,8.4-12.85,2.7-5.45,6.42-12.37,6.9-12.16.31.13-.5,3.15-5.09,18.29-1.93,6.35-3.49,11.45-1.5,12.95a2.35,2.35,0,0,0,1.74.37c3.08-.5,4.06-6.74,6.6-15.5,2.32-8,5.05-15.17,5.47-15s-1,8-2.42,14.62c-1.73,7.86-3.38,13.25-1.55,14.31a1.85,1.85,0,0,0,1.43.07c2.75-.73,3.65-5.4,4.61-9.65,2-9.17,4.37-16.61,4.72-16.55s.1,5.81-.75,12.38c-.54,4.21-1.24,7.82.32,8.71a2,2,0,0,0,1.62.06c2.77-.93,2.28-7,3.37-15.34,1.4-10.79,3.77-12.68,4.16-23.25.11-2.83,0-5.17-.06-6.72,20.1-41.33,26.1-57.35,27.45-63.87a99.52,99.52,0,0,1,4.79-16.93c.69-1.78,1.14-2.8,3.24-7.91s3.87-9.51,5-12.39l4.32,39.18c-.87,3.07-1.66,6.41-2.3,10a106.3,106.3,0,0,0-1.68,20.38c-2.24,12.45-4.1,25.78-5.36,39.94A455.48,455.48,0,0,0,199.53,758c.2,7.37.48,18.58.75,32.29.33,16.8.43,26.77.5,30.38.28,14.85,2.34,37.46,10.54,70.46a7.4,7.4,0,0,0,0,10.3q-1.17,6-2.33,11.95c-6.29,4.49-8.83,10.72-7,14.61a7.19,7.19,0,0,0,3.65,3.32h24.74a10.89,10.89,0,0,0,5-4.32c1.24-2.18,1.57-4.9-.75-14.69-.76-3.2-1.85-7.37-3.4-12.2a10.56,10.56,0,0,0,2.16-7.72,10.16,10.16,0,0,0-2.16-4.9,186.08,186.08,0,0,1,1.16-26.2c1.77-15.33,4.4-21.33,5.48-33.64a115.05,115.05,0,0,0-1.83-32.29c4.28-22.07,7.9-46.15,10.29-72,1.34-14.5,2.19-28.46,2.66-41.84l6.64.17c.36,14.16,1.17,29,2.53,44.53,2.27,25.69,5.77,49.54,9.92,71.34a111.69,111.69,0,0,0-1.95,31.5c.38,4.6,1.79,12.49,4.61,28.26.42,2.4,4,22.49,1.24,30.38a17.2,17.2,0,0,0-1,4.6,18.22,18.22,0,0,0,1.25,7.85,121.92,121.92,0,0,1-2.61,12.45c-1.6,5.94-2.77,8.42-1.87,11.7,1,3.51,3.7,5.78,5.64,7.06l25.9.66c1.67-.66,3.93-1.86,4.56-4,1-3.26-2.53-6.41-5.23-10.71-2.09-3.34-4.49-8.67-5-16.85a11.71,11.71,0,0,0,1-6.43,11.44,11.44,0,0,0-1.16-3.7c.59-3.44,6.56-38.33,9.5-58.93.39-2.69,1.05-7.46,1.37-13.82a145,145,0,0,0-.41-20.37c-.14-18.35.74-33.12,1.53-43,1.77-22,4.09-31.75,4-52.91-.06-11.09-.76-19.55-1.37-26.89a421.91,421.91,0,0,0-7-48.68c.1-3.34.14-8.41-.25-14.57-.5-8-1.48-13.89-1.74-15.56C298,588.22,297.6,576,301,555a164,164,0,0,1,6.89,16.44c3.78,10.61,4.24,15.41,7.09,24.77,2.33,7.65,5.25,14.11,11.08,27,3.72,8.22,8.77,18.82,15.28,31a68.52,68.52,0,0,0-.09,10.17c.73,11,3.47,12,4.61,22.91.73,7,.29,13.21,3,14.19a1.77,1.77,0,0,0,1.37,0c1.43-.75.72-4.17.37-8.84-.27-3.61-.45-9.72.25-9.84s2.89,6.66,4.23,12.2c1.53,6.33,2,11,4.11,11.33a1.9,1.9,0,0,0,1.37-.37c1.91-1.39.74-5.79-.62-12.08-.63-2.87-2.81-13-2.25-13.12s3.59,6.5,6.11,14.49c2.07,6.59,3.14,12.14,5.6,12.33a2,2,0,0,0,1.25-.37c2-1.45.64-6.36-1.87-15.19-2.76-9.69-4-13.75-3.62-13.88.49-.19,5,7.88,8.78,15.63,1.65,3.36,3.68,7.66,5.92,7.46a2.17,2.17,0,0,0,1.33-.71c1.89-2.11-1-7.55-3.32-12.11-2.09-4.17-4.91-10.13-8-17.77a43.94,43.94,0,0,1,6.34,5.24c2.16,2.16,3.36,3.83,5.86,4.56,1.19.34,3.52.72,4.15-.25.77-1.18-1.4-3.72-4.15-7.14-8.93-11.1-7.32-10.78-11.62-14.94a62.08,62.08,0,0,0-10.87-8.38c-3.27-15.9-5.21-28.9-6.39-38s-1.51-13.49-3.12-20.29a106.31,106.31,0,0,0-12.41-30.34,124.84,124.84,0,0,1-8.88-33c-1.44-11.78-.56-19.41-6-29.63-2-3.74-5.42-10-12.87-14.2a30.79,30.79,0,0,0-17.1-3.65l-21.24-14.27.49-5.15a15.26,15.26,0,0,0,4.24.5c2.22-.05,5.29-.13,7.13-2.24,2.58-3,.83-7.68.75-7.89a3.65,3.65,0,0,0,.33-6.14,2.74,2.74,0,0,0,2.66-1.66,2.71,2.71,0,0,0-.5-2.82c.06-.72.11-1.44.17-2.16,3.74.75,4.7-.2,5-.58s.86-1.66-3.16-8.55c-1.83-3.14-3.52-5.58-4.64-7.14.49-1.27,1-2.54,1.49-3.82-.75-3.57-3.91-16.61-15.94-24.9-10.73-7.39-30-12-41.75-.58-8.13,7.91-10.26,21.15-5.89,33.45q5.56,13.86,11.12,27.72l-1.49,9.13-20.42,17.1a31.76,31.76,0,0,0-20.33,5.65c-7.06,5.11-9.75,11.92-11.46,16.27a44.62,44.62,0,0,0-2.9,20.08,138.28,138.28,0,0,1-6,26.06c-5.09,15.25-9.42,19.35-13.94,34.45-1.4,4.66-1.83,7.08-5.23,27.64C148.69,626.6,146.52,639.86,144.92,649.63Z"/><path class="cls-15" d="M297.62,715.54a69.55,69.55,0,0,1-11-6.32c-.19,1.57.69,2.48,1.07,3.52a72.67,72.67,0,0,1,4.37,15.89c.29,2.32,1.67,4.22,2.95,6.14,1.05,1.57,2.32,3,2.56,5.13l-4.66-5.67c.74,6.16-.63,12.27.57,18.29.58,2.88,2.61,5.15,3.21,8l-.58,0-2.9-4.6c-.61,4.59.27,8.68.26,12.78h-.93c-1.05-9.72-1-19.49-1.61-29.23a68.87,68.87,0,0,0-6-25.35c-.21-.43-.46-.84-.95-1.73-.42,3,.36,5.49.49,8,.27,5.08,1,10.13,1.3,15.2.36,6.36.28,12.75.71,19.1.48,7,.33,14.1.4,21.15a5.72,5.72,0,0,0,1.71,3.58,24.63,24.63,0,0,0,2.24,2.44c3.32,3.26,3.91,7.15,2.73,11.47a3.79,3.79,0,0,0-.06,1c0,3.47-.67,4.7-4.13,5.21-2.83.42-2.74,1.95-2.39,3.88.87,4.83,1.86,9.65,2.72,14.49A180.17,180.17,0,0,1,292,838.3a157.83,157.83,0,0,1,0,20.86l-.81,0c.65-5.08-.1-10.14-.19-15.2a166.07,166.07,0,0,0-3.77-30.21,2.81,2.81,0,0,0-.87-1.55c0,5.09.14,10.2,0,15.29-.43,13-.91,26.11-1.59,39.16-.15,2.95-.26,5.92-.4,8.88a3.75,3.75,0,0,1-.47,0c0-13.88.47-27.75.72-41.62.19-10.55.11-21.1.29-31.65,0-1.64-.28-2.35-2.16-2.49-3.67-.27-4.62-1.89-4.18-5.68a10.57,10.57,0,0,0-.42-4.48c-.88-2.53,0-4.48,1.4-6.4a17.15,17.15,0,0,1,1.55-2c3-3.05,3.58-6.74,3.3-10.84-.45-6.61-.63-13.23-1-19.85-1.11-19.67-2.88-39.27-7.65-58.46-.8-3.21-1.91-6.34-2.89-9.51-.09-.29-.25-.56-.58-1.29-1.86,16.8-1.35,33.14-1,49.45.25,10.94,1.16,21.87,2.46,32.75.88,7.32,2,14.61,3.2,21.9a18.1,18.1,0,0,1,.2,6.34c-.63,3.1.18,5.86,1.08,8.68h-.92l-.68-1.2c-2,6.25-1.3,12.2,1.09,18.06h-.89c-.58-1.38-1.15-2.75-2-4.82-.33,7.24-1.67,13.74.64,20.15h-.69a5.34,5.34,0,0,0-.49,3.48c.36,4.47.67,9,1,13.42l-.52,0a182.84,182.84,0,0,1-1.47-34.6c.23-6.26,1-12.51,1.81-18.72.74-5.58-.18-10.94-1.12-16.38Q271.38,765,270,750c-.66-7.36-1.45-14.7-1.57-22.09a4.31,4.31,0,0,0-.77-2.5c-1.17,2.44-1.5,4.94-2,7.87a17.65,17.65,0,0,1,1-8.89c1.89-5,1.24-10,.62-15.07-1.46-12-3.87-23.81-3.36-36a4.45,4.45,0,0,1,.05-1.27c2.15-5.9-1.41-9.71-5.05-13.67-1.54,2.54-3.24,4.78-2.28,8.17a11.25,11.25,0,0,1-.6,7.27,8.12,8.12,0,0,0-.83,4c.19,1.78-.83,1.9-2.19,1.85-1.7-.06-1.4-1.18-1.14-2.15a6,6,0,0,0-.7-4.42,12.74,12.74,0,0,1-1.51-7.63c.19-1.49-.69-2.6-1-3.89-.21-.8-.75-.83-1.38-.62-2.62.85-5.2.32-7.78-.22-.1-.18-.19-.41-.41-.12a3.21,3.21,0,0,0,.28.25c7.79,8.56,7.66,19,6.9,29.55-.18-4.55-.14-9.14-1.21-13.61-1.23-5.09-2.87-10-7-13.6-1.47-1.29-2.3-1.5-3.33.58a96.88,96.88,0,0,0-7.33,19.26,3.57,3.57,0,0,0,.77,3.73c2.31,2.5,4.6,5,6.74,7.64,3.82,4.71,3.79,6.53.1,11.38-.31.42-.74.73-.26,1.29,3.53,4.09,3,8.87,2.05,13.58-1.28,6.4-1,12.85-1.14,19.3a57.29,57.29,0,0,1,0-19.85,25.12,25.12,0,0,0,.13-6.87,7.7,7.7,0,0,0-3.89-6,15.49,15.49,0,0,1-7-8.17c-1,5.2-.85,9.89-.87,14.56,0,9.88,0,19.76,0,29.64a6.78,6.78,0,0,0,.83,3.41c4.3,7.82,5.94,16.38,6.94,25.12a28.14,28.14,0,0,1,.48,5.57l-.45,0c-1.36-9.17-3.21-18.19-7.56-27.36-.1,1.42-.18,2.11-.18,2.79,0,9,0,18.05-.09,27.08a7.64,7.64,0,0,0,2,5.31,34.39,34.39,0,0,1,4.93,6.78c2.93,6,.92,10.27-5.66,11.35-1.76.29-2.08.87-2.23,2.52-.76,8.08,2.27,15.17,5.49,22.24a2.29,2.29,0,0,1,.4,2c-1.59-1.75-2.22-3.83-3.22-5.67a59.39,59.39,0,0,0-3.11-5.69c0,9.09-3,18.31,1.52,27.2l-.95,0c-.51-1-1-2-1.54-2.92,0-.06-.13-.09-.71-.48v25.34l-.79,0c0-13.45-.18-26.91.11-40.35.1-4.58.2-9.16-.1-13.82-1.34,6.21-2.76,12.4-4,18.62a109,109,0,0,0-2.15,21.24c0,1.18.19,2.36.29,3.54l-.81,0c-1.35-12.51,1.38-24.61,3.64-36.76.12-.68,1.11-1.65-.47-2a1.56,1.56,0,0,1-.2-.16c2.66-3.94,2.91-8.61,4-13,.3-1.2-.1-1.8-1.36-1.76a3.94,3.94,0,0,1-.77-.06c-5.21-1-7.11-4.18-5.59-9.3,1.05-3.54,2.9-6.71,4.54-10a32.82,32.82,0,0,0,3.89-16.4c-.4-10-.16-20.07-.72-30.07-.55-9.78-.17-19.55-.52-29.74a12.55,12.55,0,0,0-3,5.38c-2.59,7.74-3.08,15.66-2.71,23.82.49,10.68.79,21.41-.88,32.06l-.56,0c.1-6.31,1-12.6.44-19.24-1.59,1.43-1.94,3.38-3,4.88l-.63,0a21.36,21.36,0,0,1,1.42-3.81c3-4.9,1.36-10.11,1.18-15.21,0-1.35-.31-2.69-.49-4.08-1.13-.18-.84,1.66-2,1.47-.07-.12-.24-.31-.2-.38,2.84-4.8,2.39-10.32,3.37-15.53s2.59-9.83,6-13.88c1.93-2.3,1.65-2.83-1.2-3.39s-5.17-2.35-7.34-5c0,2.15.1,3.85-.56,5.44a3.7,3.7,0,0,1-.83,1.31c1.42-5.22-.87-10-1.39-15A18.63,18.63,0,0,1,211,673.34c3.2-4.26,8.15-3.93,11.57.56.5.65.9,1.37,1.57,2.42a117.45,117.45,0,0,1,4.55-11.92c.11-.23.12-.53.27-.71,3.27-3.73,1.65-6.66-1.43-9.44a5.57,5.57,0,0,0-2.24-1.12,5.36,5.36,0,0,1-4.16-4.63,1.87,1.87,0,0,0-.7-1.53c-2.2-1.54-3.73-3.47-3.52-6.37,0-.65-.44-1.08-.87-1.5a7.42,7.42,0,0,1-2.21-4.49,17.13,17.13,0,0,0-2.14-7.19,3.52,3.52,0,0,1-.15-3.23c1-1.94.64-3.79.13-5.65a4.39,4.39,0,0,1,.32-2.72,3.68,3.68,0,0,0,.13-2.71,5.26,5.26,0,0,1-.07-4.19c0-.08.12-.19.09-.24-1.5-3-.68-6.09-.6-9.2.09-3.63-.68-7.28-.59-10.91s3.48-6.39,7-6.49,7.18-.15,10.23,2.26c.6.48,1.29.28,2,.31s1.88-.16,2.21.25c1.75,2.22,4.79,1.47,6.75,3.11.66.55,1.46.29,2.21.29,1,0,2.12-.22,3,.43,3.61,2.7,8.12,2.4,12.18,3.31a12.56,12.56,0,0,0,6.54-.36c4.21-1.48,3.87-5.23,4.6-8.5l.22-.26-.28.2c-12,6.77-24.07,4.83-35.94-.2-5.2-2.2-8.42-6.76-11-11.67a3.46,3.46,0,0,0-2.83-2.17,17.13,17.13,0,0,1-2.41-.82c-4.07-1.15-5.28-4.1-5.6-8-.79-10-.73-19.89,1.9-29.58,3.21-11.85,8.88-22.57,16-32.51.33-.46,1-.8.83-1.46s-1-.48-1.56-.41c-6.46.87-12.67,2.4-17.74,6.89a4.37,4.37,0,0,0-1.6,2.77c-.5,3.7-1.31,7.36-.48,11.11a5.9,5.9,0,0,1-.12,2.28c-1.22-3.89-1.25-7.93-1.23-12-3.38,1.78-4.47,4.2-3.89,7.63a58.86,58.86,0,0,1-.8,23.75l-.63,0c.72-7.93,1.41-15.85-1-24.27-2.08,4-5.16,6.75-4.17,11.64.89,4.45.16,9.12-.86,13.62l-.67,0c.23-4.48.56-9-.52-13.86A97.38,97.38,0,0,0,188,538.32c-6.2,16.4-10.18,33.44-14.45,50.39-1.7,6.75-3.08,13.59-5.1,20.23-1.36,4.51-.36,8.69.37,13l-.83,0-1.32-5.19c-4.49,18.71-8.86,36.9-13.23,55.1-.46-3.59.28-7.06,1-10.52q9.21-41.62,18.44-83.26a1.79,1.79,0,0,0-.22-1.21c-3.55,8.34-8.75,16.1-8.43,26.1l-1.14-2.16a237.84,237.84,0,0,0-6.8,26.95c-.1.5,0,1-.09,1.53-.31,2.6,1.1,5.07-1.16,7.9-1.64,2-1.09,5.86-1.44,8.89-.65,5.6-1.56,11.15-3.84,16.41.62-3.78,1.29-7.56,1.86-11.35,1.28-8.46,1.91-17,3.51-25.45,3.87-20.28,9-40.14,19.75-58.08a6.33,6.33,0,0,0,.66-1.64c1.45-5.41,2.87-10.84,4.31-16.25a2.09,2.09,0,0,0,.05-1.82c-1.61.39-1.79,2.12-2.82,3l-.56-.55a9.94,9.94,0,0,1,2.32-4.21c3.39-3.48,4.68-8,6.32-12.32,1.47-3.93,3.07-7.82,4.91-12.47a33.56,33.56,0,0,0-8.47,7c.14-2.32,1.91-3.6,3.22-5.08a16.18,16.18,0,0,1,3.94-3.19c3.61-2.09,5.07-5.82,7.24-9,.85-1.25.33-1.75-1-2.06a40,40,0,0,0-8.82-.57c3-1.55,6.24-1.63,9.51-1.24,1,.12,2.08.75,2.9-.08a45.91,45.91,0,0,0,3.78-4.46c.4-.54-.36-.83-.72-1.14a14.32,14.32,0,0,0-8.67-3.21c-1.59-.12-3.19,0-5.32,0,2.67-1.52,9.59-1.51,12.63.24s4.92,1.68,7.68-.7c6.1-5.24,13.69-7.29,21.53-7.06,4.67.14,8.48-2,12.74-2.78a.79.79,0,0,0,.7-.89,2.91,2.91,0,0,0-1.4-2.57,16,16,0,0,0-7.27-2.09c-5.36-.3-10.41,1.1-15.4,2.86-.79.28-1.6.53-2.4.8l-.74-.1c3.05-2.47,6.91-3.19,11-5H219l0-.58a20.91,20.91,0,0,1,9.08-.14,10.52,10.52,0,0,0,3.54.1,22.68,22.68,0,0,1,8.8.46c1.66.42,1.65-.73,1.5-1.79-1.42-10.33-1-20.71-.91-31.08,0-3.3.57-6.59.67-9.9.06-2.08-.83-4.07-.32-6.31.28-1.22-1.54-1.29-2.57-1.39-1.77-.17-3.57.06-5.3-.57-2.3-.85-3.82-2.29-3.51-4.91.12-1-.2-1.06-1-1.26a6.85,6.85,0,0,1-5.34-6.32c-.32-9.29,2.23-17.55,9.75-23.53,5-3.95,11-4.19,17-3.76,8.29.6,16,3.06,22.55,8.4a15,15,0,0,1,5.29,8.22c.94,3.86-.37,6.43-4.07,7.86a24,24,0,0,1-10,1.43,3.38,3.38,0,0,0-3.53,1.7c-2.11,3.27-5.79,3.62-9.26,3.89-2,.15-2.3.82-3.22,2.77-1.82,3.88-1.45,8.34-3.88,11.9-1.12,1.63-.74,3.53-.75,5.66,1.23-1.21,1.68-2.7,3-3.37l.07.06c0,.17.06.39,0,.5-4.55,6.5-3.25,13.92-2.94,21,.35,8.29,1,16.61,3.43,24.64a38,38,0,0,0,2.9,7.83c1-.44.6-1.22.61-1.83a144.9,144.9,0,0,1,1.79-21.79c.41-2.54.33-5.28.87-7.9a3.38,3.38,0,0,0-1-3c-5-5.32-4.58-11.31-2.22-17.56a45.34,45.34,0,0,1,5.85-11.55,9.89,9.89,0,0,1,6-4,50,50,0,0,1,17.22-.12,10.51,10.51,0,0,1,6.65,4.41c1.69,2.24,3.3,4.54,4.94,6.81.42.59,1.22,1.15.51,2a2.28,2.28,0,0,1-2.15.53,1.89,1.89,0,0,1-.91-.41c-5.51-4.72-12.1-3.11-18.35-3-3,.06-5.43,2.12-7.23,4.76,1.21.5,2.05-.31,3-.58,4.25-1.28,8.55-2.1,13-1.33,4.29.75,6.13,2.5,7,6.6a3,3,0,0,1,.09.44c-2.46.95-1.05,3.42-1.94,5a6.14,6.14,0,0,1-5.81,3.4,119.81,119.81,0,0,0-15.27.39c-1.25.15-2.42,0-2.27,1.81a1.07,1.07,0,0,1-.39.88c-3,1-1.09,2.21-.1,3.26,4,4.2,3.94,4.5,1.05,9.55-1.21,2.1-1,4.61-1.26,7-.39,4-.6,7.93-.91,12.09,1.9-.27,3-1.52,4.5-2.1a28.49,28.49,0,0,1,16-1.71c4.83.87,9.72,1.3,14.33,3.27a34.71,34.71,0,0,1,10.67,6.81c2.33,2.24,4.64,3.28,7.77,2.27a5.46,5.46,0,0,1,1.52-.06l0,0c-1.31,1.25-3.05,1.32-4.93,1.73,1.75,3,4.16,5.38,5.68,8.37.46.91,1.08,1.74,1.5,2.66,1.25,2.69,2.5,5.36,6.16,6.79-1.57.33-3.31-.63-2.26,1.56,4.17,8.77,5.69,18.25,7.05,27.74A25.12,25.12,0,0,0,330.68,557a6.48,6.48,0,0,1,1.19,3.6l-2.62-3.7-.51.11c.28,1.47.52,2.95.85,4.41,2.48,11,6.47,21.43,10.09,32,.11.32.18.65.27,1H339c-5.17-13.57-10.37-27.12-13-41.49-1.35-7.25-2.27-14.59-4.3-21.69-3.31-11.57-8.16-22.37-16.3-31.4a26.24,26.24,0,0,0-7.7-6.17c-.11-.17-.21-.4-.43-.11,0,0,.18.18.27.28,1.41,1.89,2.89,3.73,4.21,5.67a66.65,66.65,0,0,1,11.07,29.3c2.37,18.8,7.3,36.88,13.38,54.74,2.2,6.48,5.54,12.39,8.43,18.52a252.54,252.54,0,0,1,13.12,32.84c.24.81.38,1.65.57,2.47l-.58,0a202.17,202.17,0,0,0-14.38-33.84l2.19,7.71-.61.58c-7.23-19.87-15.29-39.45-20.71-60-2.18-8.22-2.86-16.72-4.83-25-2.19-9.17-5.4-17.91-11-25.59-6.87-9.39-15.89-14.11-27.93-12.48,1.9,1.71,4.28,2.59,6.06,4.37,6.79,6.79,11.35,15,15.38,23.6,3,6.38,5.64,13,6.51,20a101.52,101.52,0,0,1,.16,26.18c-.47,3.42-3.63,5.59-8.8,6.35a18.59,18.59,0,0,1-6,.41c1.8,1.94,3.67,3,4.63,5,.74,1.5.78,2.8-.64,3.83a3,3,0,0,1-3.95-.31,11.54,11.54,0,0,1-2.78-3.93,9.53,9.53,0,0,0-6.28-5.19c-.6-.16-1.43-.38-1.4.44.06,1.81-1,3.72,1.23,5.3,3.14,2.25,3.06,6.06,3.66,9.45a22,22,0,0,1,.13,2.63c2.07-.34,3.91-1.56,6-.65a6.65,6.65,0,0,1,3.56,3.13,3,3,0,0,0,2.58,2.08,2.59,2.59,0,0,1,1.74,1c1.38,2.19,3.5,4.41,3.69,6.75.37,4.44,1.75,8.67,1.27,13.39-.47,4.56-1.94,9.05-1.55,13.7,0,.17,0,.43-.06.5-3.12,2.42-1.66,7.29-5.08,9.54-.6.39-.44,1.07-.63,1.61-1.47,4.29-3.78,6.06-8.35,6-2.19,0-3.84,0-4.44,2.74-.41,1.93-2.12,3.24-3.9,4.18-1.4.73-3.05,1-3.82,2.72a.94.94,0,0,1-1.5.36c-2.05-1.5-2.84-1.79-7.18-2.68.49,1.84,2,2.94,3,4.3a92.4,92.4,0,0,1,16.66,36.61c.38,1.81.5,3.83,2.84,4.36,2.17.49,3.73-.68,5.24-2A10.05,10.05,0,0,0,291.9,684c1.59-.24,0,3.5,2.55,1.74-1.3,7.08-4.83,11.51-10.89,13.64,3.71,4,8.45,5.82,13.53,7,0,.21,0,.43,0,.64-4.61,0-8.71-1.78-12.73-3.82-.18-.25-.5-.56-.69-.26s.27.38.5.5c1.38,3.41,4.53,5.06,7.14,7.27,2,1.71,4.81,2.41,6.27,4.83ZM256.81,455.83l-.25-.26.2.3c.12.3.31.51.66.45.06,0,.09-.12.13-.18ZM225.12,608.19a.59.59,0,0,0-.1-.17s-.08,0-.13,0l.23.2c-.15.86.46,1.19,1.06,1.55a48.29,48.29,0,0,0,9.87,4.7c1.53.49,3,1,3.58,2.9-.42-2.15,1.89-2.6,2.53-4.72-2.5,2.08-4.55,1.45-6.75.57C231.85,611.76,228.6,609.75,225.12,608.19Zm37.17-.91c-.58.13-1.33-.43-2,.72,2.71.68,5.37,1.23,7.69,2.74a17.07,17.07,0,0,0,6.64,2.4c1.17.19,2.61.64,3.5-1-4.74.56-12.25-2.29-15.5-6.68-.55.5-.15,1.11-.19,1.66Zm5.68,88.3a141.26,141.26,0,0,1,1.52-18.94c.37-2.16-.64-3.8-2.19-5.7-1.6,8.48-.49,16.55-.2,24.61.19,1.71.38,3.42.58,5.13H268Zm-4.57-162c1.56.06,1.63-1.28,2-2.23,1.46-3.67,1-7.54,1-11.35a13.85,13.85,0,0,0-1.56-6.37c-1.18-2.29-3.41-2.71-6-2.74a4.47,4.47,0,0,1,4.06-1.8c1.69.05,3.37.33,5.06.44.63,0,1.47.35,1.8-.48s-.49-1.29-1.09-1.74c-7.12-5.22-14.57-3.46-18.39,4.39a3.38,3.38,0,0,1-2.48,2.07c-3.14.86-4.87,3.46-5.49,6.47a7.54,7.54,0,0,0,1.83,7.07,32.26,32.26,0,0,0,5,3.91,3,3,0,0,1,1.5,2.93c0,6.55,0,13.1,0,19.65,0,1.1.21,2.29-.39,3.26-1.82,2.94-.74,5.9-.26,8.88a4.55,4.55,0,0,0,3,3.46c2.66,1.22,5.48,1,8.27,1,2.4,0,4.8-.23,6.49,2a1.79,1.79,0,0,0,2.13.4c.84-.3.45-1.15.61-1.77.76-2.89-.21-4.72-3.15-5.53a9.45,9.45,0,0,1-2.26-1.15c-4.89-2.87-8-6.71-7.4-12.83a79.4,79.4,0,0,0,.25-15.26c-.14-1.39.53-1,1.34-1,1.62.11,3.44.54,4-1.75ZM209.26,685.3a13.81,13.81,0,0,0,3.29,9.57,7.69,7.69,0,0,0,5.74,3.36c1.45.07,2.18-.45,2.25-2a61,61,0,0,1,2.12-13.5,8.84,8.84,0,0,0-1.67-7.87c-2.73-3.85-6.77-3.67-9.2.42A18,18,0,0,0,209.26,685.3ZM235,629.63c1.63,1.8,3.56,2.67,6,1.73a20.52,20.52,0,0,0,6.62-4.25c2.7-2.53,3-5.19,1.35-8.53-.3-.61-.73-1.15-1.08-1.73a1.14,1.14,0,0,1,.14-1.61c.54-.43.9.21,1.3.45,1.59,1,3.19,1.93,4.75,3,3.85,2.54,4.53,4.7,3.13,9.11a17.39,17.39,0,0,1-6.54,8.56c-.41.32-1.16.48-.69,1.46a12.69,12.69,0,0,0,4.88-3.92c1.74-2.08,3.68-1,5.34-.27s-.3,1.95-.17,3c3.21-1.12,3.21-1.12,5.25.43.46-.81-.19-1.25-.59-1.76-1.68-2.17-4.14-2.89-6.64-3.48-.95-.22-1.44-.43-.85-1.46a12.48,12.48,0,0,0,1.25-9.43,55.17,55.17,0,0,0,13.73,4c1.12.14,1.71.92,2.54,1.47.94-1.54,1.17-2.21-1.11-2.46A50.21,50.21,0,0,1,250.07,615a3.94,3.94,0,0,1-1.34-5.59c.49-.94.91-1.9,1.37-2.86-1.95.73-2.21,2.6-3.16,4.21a18.81,18.81,0,0,0-7.95-4.6c-3-1-6.44-1-7.45-5.57a2.65,2.65,0,0,0,.33,3.42c1,1.36,2.61,1.79,4.15,2.31,3.28,1.12,6.75,1.84,9.34,4.44a4.51,4.51,0,0,1,1.12,5.33,6.27,6.27,0,0,1-7.08,3.66c-3.14-.59-6.3-1.09-9.45-1.63,1.79,1.55,10.47,3.14,12.39,2.62a8.17,8.17,0,0,0,3-1.35c.64-.49,1.06-1.68,2-1.25s1.21,1.58,1.28,2.63c.13,1.79.16,3.51-1.14,5C244,629.93,239.85,631.18,235,629.63ZM221.05,781.52l-.49-.2c-2.05,4.24-4.32,8.39-6.11,12.74-1.89,4.57,0,7.21,4.87,8,1.5.24,1.75-.18,1.74-1.46C221,794.25,221.05,787.88,221.05,781.52Zm5.45-93.44c-2.45,5.95-.27,10.63,3.25,14.94.86,1.07,2,2.42,3.64,1.34s2.69-2.62,2.16-4.76a6.7,6.7,0,0,0-1.46-2.93C231.62,693.88,229.15,691.09,226.5,688.08Zm-2.24,96.73a1.86,1.86,0,0,0-.63,1.74c-.11,4.39.05,8.79-.46,13.18-.33,2.8-.07,2.88,2.74,2.15,4.8-1.25,6.3-4.24,4.29-8.75A31.36,31.36,0,0,0,224.26,784.81Zm22.81-142.89a29.82,29.82,0,0,1-3,0c-3-.31-3.9-2.42-2.14-4.84a9.46,9.46,0,0,1,3.72-2.61c2-1,4-2,5-4.29a53.74,53.74,0,0,1-7.51,4.45c-3.3,1.74-10.4.82-12.88-2.06a4,4,0,0,1-.56-4.51c.65-1.61,1.72-1.92,3.35-2,2.87-.23,5.83-.52,8.24-2.63-5.57,1.55-11.1,3.09-16.53-.62a5.07,5.07,0,0,0,2.79,2.37c.67.34,2.11.1,1.86,1.17a3.32,3.32,0,0,1-1.77,2.64c-.43.17-1.06,0-1.29.78.62.6,1.93.41,2.08,1.77.24,2.23,2,3.1,3.88,3.74a25,25,0,0,0,6.65,1.62c.56,0,1.53-.05,1.34.71-.37,1.55.27,3.73-2.36,4.16-1,.16-2.36,0-3.13,1.7,1.54-.36,2.73-.72,3.95-.93,1-.16,1.79-.74,2.93-.23,1.47.66-.35,1.93.82,2.63C243.64,643.37,245.54,643.23,247.07,641.92Zm3.43-.72c1.54.65,2.69-.33,3.94-.3s2.61-.26,3.6.85c-.61.93-2.07.48-2.14,2.53,2.87-2.48,5.71-1.29,8.56-.88a4.91,4.91,0,0,0,2-.23c.83-.24,1.52-.22,2,.62.35.66.85,1.38.29,2.13a2.55,2.55,0,0,1-2.21,1c-.82,0-1.39-1-2.51-.59,1.14,1.8,2.59,2,4.31,1.24s2.13-1.86,1.35-3.49c-.58-1.23-.66-2.23.87-2.83.49-.19.46-.66.07-1a.58.58,0,0,0-.89,0c-3.26,3.23-6.85,2.18-10.31.57A9,9,0,0,0,250.5,641.2Zm36.41,139.25c0,3.08,0,5.75,0,8.42,0,.49,0,1.11.61,1.21a5,5,0,0,0,3.8-1.05c1.08-.8.92-1.95.37-3A18,18,0,0,0,286.91,780.45Zm-2.49-.66L282,783c-1,1.33-2.3,2.51-2.35,4.39-.06,2.3,1.68,2.57,3.24,2.79,2,.3,1.46-1.39,1.49-2.43C284.47,785.32,284.42,782.94,284.42,779.79ZM272.49,615c-8-.35-15.66-1.15-19.5-9.75a12,12,0,0,0,7.71,8.85c3.36,1.35,7.3,1.23,9.94,4.36.64-1.32-.95-1.58-.58-2.47C270.81,615.63,271.83,616.3,272.49,615Zm14.37,181.75c.05,1.08-.15,2.17,1.18,2a6.83,6.83,0,0,0,3.88-1.65,1.84,1.84,0,0,0,.42-2.3c-.47-.85-1.18,0-1.78.05a22.07,22.07,0,0,1-2.21.43C287.09,795.3,286.76,796,286.86,796.79Zm-2.06.41c.32-2.93-2.25-1.5-3.37-2.23-.54-.36-1.53-.66-2,.26s0,1.6.67,2.24a5.74,5.74,0,0,0,3,1.3C284.36,799.08,285,798.52,284.8,797.2ZM271.17,583c-1.76,2.09-1.79,4.44-2.44,6.55-.18.59.24.94.76,1.1s.74-.09,1-.5C271.91,588,271.85,585.69,271.17,583Zm-10.11,46.77c3.8-.55,6.56.73,9.37,2.12-2.67-2.17-5.57-3.95-8.07-6.27.19,1.29,1.56,1.6,1.67,2.81C263.27,628.9,262.28,628.25,261.06,629.77Zm31.47,161.6c-.1-.14-.28-.53-.37-.5-1.7.39-3.4.8-5.06,1.33-.17.06-.17.94-.09,1.42s.58.59,1,.47c1.2-.36,2.51-.42,3.56-1.22A1.93,1.93,0,0,0,292.53,791.37Zm-11.73,0c-.67-.06-1.14.16-1,.65.64,1.89,2.48,1.78,4,2.17a.8.8,0,0,0,1-1.09C284,791,281.86,792.23,280.8,791.32ZM180.59,547l-.16-.36c-.05.05-.16.12-.15.15a3,3,0,0,0,.15.38Z"/></g></svg>