<?xml version="1.0" encoding="utf-8"?>
<!-- Generator: Adobe Illustrator 24.1.2, SVG Export Plug-In . SVG Version: 6.00 Build 0)  -->
<svg version="1.1" id="Laag_1" xmlns="http://www.w3.org/2000/svg" xmlns:xlink="http://www.w3.org/1999/xlink" x="0px" y="0px"
	 viewBox="0 0 1920 1080" style="enable-background:new 0 0 1920 1080;" xml:space="preserve">
<style type="text/css">
	.st0{fill:#033B2B;}
	.st1{fill:#E7E7A9;}
	.st2{font-family:'Poppins-Medium';}
	.st3{font-size:18px;}
	.st4{fill:#F53D04;}
	.st5{font-family:'Poppins-Bold';}
	.st6{font-size:38px;}
	.st7{font-size:30px;}
	.st8{fill:none;stroke:#E7E7A9;stroke-miterlimit:10;}
	.st9{font-family:'Poppins-Regular';}
	.st10{font-size:15px;}
	.st11{font-size:20px;}
</style>
<rect id="Achtergrond" class="st0" width="1920" height="1080"/>
<rect id="Balk_Tomaat_1_" x="1327.8" y="872.7" class="st1" width="497" height="72"/>
<image style="overflow:visible;enable-background:new    ;" width="1414" height="2000" id="Tomaat_2_" xlink:href="../images/Tomaat.png"  transform="matrix(0.286 0 0 0.286 1359.5765 569.1312)">
</image>
<rect id="Balk_avocado_1_" x="245" y="224.8" class="st1" width="497" height="720"/>
<text transform="matrix(1 0 0 1 260.9077 261.6624)" class="st0 st2 st3">Dat is </text>
<text transform="matrix(1 0 0 1 316.2937 261.6624)" class="st4 st2 st3">vier keer</text>
<text transform="matrix(1 0 0 1 394.7357 261.6624)" class="st0 st2 st3"> zoveel als nodig is om </text>
<text transform="matrix(1 0 0 1 260.9077 283.2624)" class="st0 st2 st3">een kilo sinaasappels te produceren </text>
<text transform="matrix(1 0 0 1 260.9077 304.8624)" class="st0 st2 st3">en </text>
<text transform="matrix(1 0 0 1 288.3758 304.8624)" class="st4 st2 st3">tien keer</text>
<text transform="matrix(1 0 0 1 367.6458 304.8624)" class="st0 st2 st3"> zoveel als nodig is om </text>
<text transform="matrix(1 0 0 1 260.9077 326.4624)" class="st0 st2 st3">een kilo tomaten te produceren</text>
<image style="overflow:visible;enable-background:new    ;" width="322" height="456" id="Avocado_2_" xlink:href="../images/avocado.png"  transform="matrix(1.127 0 0 1.127 334.1648 482.1614)">
</image>
<g id="Tekst_1">
	<text transform="matrix(1 0 0 1 120.6576 125.0634)" class="st1 st5 st6">De avocado is een echte watersluper</text>
	<text transform="matrix(1 0 0 1 120.6576 162.0634)" class="st1 st5 st6">met een hele hoge watervoetafdruk</text>
</g>
<g id="Tekst_2">
	<text transform="matrix(1 0 0 1 1078.4534 252.4621)" class="st4 st2 st7">“</text>
	<text transform="matrix(1 0 0 1 1092.7634 252.4621)" class="st1 st2 st7">Je hebt gemiddeld tweeduizend liter  </text>
	<text transform="matrix(1 0 0 1 1078.4534 289.4621)" class="st1 st2 st7">water nodig om een kilogram te kweken</text>
	<text transform="matrix(1 0 0 1 1690.5952 289.4621)" class="st4 st2 st7">”</text>
	<text transform="matrix(1 0 0 1 1078.4534 326.4621)" class="st4 st2 st7">Water Footprint Network</text>
</g>
<rect id="Balk_sinaasappel" x="786.8" y="764.6" class="st1" width="497" height="180"/>
<line id="Line_23" class="st8" x1="216.3" y1="226.4" x2="207.3" y2="226.4"/>
<g id="Grafiek">
	<line id="Line_1" class="st8" x1="214.3" y1="944.4" x2="1824.3" y2="944.4"/>
	<line id="Line_2" class="st8" x1="216.3" y1="945.9" x2="216.3" y2="224.4"/>
	<line id="Line_4" class="st8" x1="216.3" y1="910.4" x2="207.3" y2="910.4"/>
	<line id="Line_5" class="st8" x1="216.3" y1="874.4" x2="207.3" y2="874.4"/>
	<line id="Line_6" class="st8" x1="216.3" y1="838.4" x2="207.3" y2="838.4"/>
	<line id="Line_7" class="st8" x1="216.3" y1="802.4" x2="207.3" y2="802.4"/>
	<line id="Line_8" class="st8" x1="216.3" y1="766.4" x2="207.3" y2="766.4"/>
	<line id="Line_9" class="st8" x1="216.3" y1="730.4" x2="207.3" y2="730.4"/>
	<line id="Line_10" class="st8" x1="216.3" y1="694.4" x2="207.3" y2="694.4"/>
	<line id="Line_11" class="st8" x1="216.3" y1="658.4" x2="207.3" y2="658.4"/>
	<line id="Line_12" class="st8" x1="216.3" y1="622.4" x2="207.3" y2="622.4"/>
	<line id="Line_13" class="st8" x1="216.3" y1="586.4" x2="207.3" y2="586.4"/>
	<line id="Line_14" class="st8" x1="216.3" y1="550.4" x2="207.3" y2="550.4"/>
	<line id="Line_15" class="st8" x1="216.3" y1="514.4" x2="207.3" y2="514.4"/>
	<line id="Line_16" class="st8" x1="216.3" y1="478.4" x2="207.3" y2="478.4"/>
	<line id="Line_17" class="st8" x1="216.3" y1="442.4" x2="207.3" y2="442.4"/>
	<line id="Line_18" class="st8" x1="216.3" y1="406.4" x2="207.3" y2="406.4"/>
	<line id="Line_19" class="st8" x1="216.3" y1="370.4" x2="207.3" y2="370.4"/>
	<line id="Line_20" class="st8" x1="216.3" y1="334.4" x2="207.3" y2="334.4"/>
	<line id="Line_21" class="st8" x1="216.3" y1="298.4" x2="207.3" y2="298.4"/>
	<line id="Line_22" class="st8" x1="216.3" y1="262.4" x2="207.3" y2="262.4"/>
	<g id="_200">
		<text transform="matrix(1 0 0 1 163.8214 880.8755)" class="st1 st2 st3">200</text>
	</g>
	<g id="_400">
		<text transform="matrix(1 0 0 1 162.8214 808.8755)" class="st1 st2 st3">400</text>
	</g>
	<g id="_600">
		<text transform="matrix(1 0 0 1 162.8214 736.8755)" class="st1 st2 st3">600</text>
	</g>
	<g id="_800">
		<text transform="matrix(1 0 0 1 162.8214 664.8755)" class="st1 st2 st3">800</text>
	</g>
	<g id="_1000">
		<text transform="matrix(1 0 0 1 155.8214 592.8755)" class="st1 st2 st3">1000</text>
	</g>
	<g id="_1200">
		<text transform="matrix(1 0 0 1 155.8214 520.8755)" class="st1 st2 st3">1200</text>
	</g>
	<g id="_1400">
		<text transform="matrix(1 0 0 1 155.8214 448.8755)" class="st1 st2 st3">1400</text>
	</g>
	<g id="_1600">
		<text transform="matrix(1 0 0 1 155.8214 376.8755)" class="st1 st2 st3">1600</text>
	</g>
	<g id="_1800">
		<text transform="matrix(1 0 0 1 155.8214 304.8755)" class="st1 st2 st3">1800</text>
	</g>
	<g id="_2000">
		<text transform="matrix(1 0 0 1 152.8214 232.8755)" class="st1 st2 st3">2000</text>
	</g>
	<g id="_300">
		<text transform="matrix(1 0 0 1 169.8214 843.8755)" class="st1 st9 st10">300</text>
	</g>
	<g id="_500">
		<text transform="matrix(1 0 0 1 169.8214 771.8755)" class="st1 st9 st10">500</text>
	</g>
	<g id="_700">
		<text transform="matrix(1 0 0 1 169.8214 699.8755)" class="st1 st9 st10">700</text>
	</g>
	<g id="_900">
		<text transform="matrix(1 0 0 1 169.8214 627.8755)" class="st1 st9 st10">900</text>
	</g>
	<g id="_1100">
		<text transform="matrix(1 0 0 1 169.8214 555.8755)" class="st1 st9 st10">1100</text>
	</g>
	<g id="_1300">
		<text transform="matrix(1 0 0 1 165.8214 483.8755)" class="st1 st9 st10">1300</text>
	</g>
	<g id="_1500">
		<text transform="matrix(1 0 0 1 164.8214 411.8755)" class="st1 st9 st10">1500</text>
	</g>
	<g id="_1700">
		<text transform="matrix(1 0 0 1 165.8214 339.8755)" class="st1 st9 st10">1700</text>
	</g>
	<g id="_1900">
		<text transform="matrix(1 0 0 1 163.8214 267.8755)" class="st1 st9 st10">1900</text>
	</g>
	<g id="_100">
		<text transform="matrix(1 0 0 1 173.8214 915.8755)" class="st1 st9 st10">100</text>
	</g>
	<g id="Water_in_Liter_per_kilogram">
		<text transform="matrix(1 0 0 1 211.8214 978.8755)" class="st1 st2 st11">Water in Liter per kilogram</text>
	</g>
	<g id="Liter_">
		<text transform="matrix(6.123234e-17 -1 1 6.123234e-17 135.8214 262.876)" class="st1 st2 st11">Liter</text>
	</g>
</g>
<image style="overflow:visible;enable-background:new    ;" width="1414" height="2000" id="Sinaasappel_1_" xlink:href="../images/sinaasappel.png"  transform="matrix(0.382 0 0 0.382 765.2474 463.7303)">
</image>
</svg>
