<svg id="Laag_1" data-name="Laag 1" xmlns="http://www.w3.org/2000/svg" xmlns:xlink="http://www.w3.org/1999/xlink" viewBox="0 0 1920.305 1080"><defs><style>.cls-1,.cls-10,.cls-11,.cls-12,.cls-13,.cls-4,.cls-5,.cls-6,.cls-7,.cls-8,.cls-9{fill:#e7e7a9;}.cls-14,.cls-15,.cls-2,.cls-22,.cls-23{fill:#033a2b;}.cls-10,.cls-11,.cls-12,.cls-13,.cls-14,.cls-15,.cls-20,.cls-21,.cls-22,.cls-23,.cls-3,.cls-4,.cls-5,.cls-6,.cls-7,.cls-8,.cls-9{isolation:isolate;}.cls-4{font-size:36px;}.cls-11,.cls-12,.cls-14,.cls-4,.cls-5,.cls-6,.cls-8,.cls-9{font-family:Poppins-Bold, Poppins;font-weight:700;}.cls-5{font-size:41.475px;}.cls-6{font-size:82.949px;}.cls-7{font-size:31.106px;}.cls-10,.cls-13,.cls-20,.cls-22,.cls-23,.cls-7{font-family:Poppins-Regular, Poppins;}.cls-8{font-size:27.014px;}.cls-9{font-size:54.028px;}.cls-10{font-size:20.26px;}.cls-11{font-size:19.61px;}.cls-12{font-size:39.219px;}.cls-13{font-size:14.709px;}.cls-14{font-size:24.563px;}.cls-15{opacity:0.23;}.cls-16{fill:#fdfdfc;}.cls-16,.cls-17{stroke:#033a2b;stroke-miterlimit:10;}.cls-17,.cls-18{fill:#fff;}.cls-17{stroke-width:2px;}.cls-19{fill:#e64019;fill-rule:evenodd;}.cls-20,.cls-21,.cls-22,.cls-23{font-size:20.469px;}.cls-20,.cls-21{fill:#1d1d1b;}.cls-21{font-family:Poppins-Medium, Poppins;font-weight:500;}.cls-23{opacity:0.4;}</style></defs><g id="Achtergrond"><rect class="cls-1" width="1920" height="1080"/><path id="Golf" class="cls-2" d="M0,.209S612.877,55.1,860.118,580.174,1920.305,1079.8,1920.305,1079.8L0,1080Z"/><g id="De_avocado_tekst" data-name="De avocado tekst" class="cls-3"><text class="cls-4" transform="translate(79.489 569.507)">De avocado: </text><text class="cls-4" transform="translate(79.489 616.038)">Je hebt hem vast wel </text><text class="cls-4" transform="translate(79.489 662.57)">eens voorbij zien komen...</text></g></g><g id="Hashtags"><g id="Hashtag_1" data-name="Hashtag 1"><rect class="cls-2" x="1304.667" y="440.069" width="534.484" height="155.788" rx="36.074"/><text class="cls-5" transform="translate(1484.285 505.901)">#AVOCADO</text><text class="cls-6" transform="translate(1349.577 544.181)">#</text><text class="cls-7" transform="translate(1485.114 555.683)">12,7 mln berichten</text></g><g id="Hashtag_2" data-name="Hashtag 2"><rect class="cls-2" x="1304.667" y="651.598" width="349.649" height="101.541" rx="21.784"/><text class="cls-8" transform="translate(1422.596 699.385)">#TOMATO</text><text class="cls-9" transform="translate(1333.919 719.41)">#</text><text class="cls-10" transform="translate(1423.134 731.809)">7,6 mln berichten</text></g><g id="Hashtag_3" data-name="Hashtag 3"><rect class="cls-2" x="1306.189" y="808.88" width="252.705" height="80" rx="19.052"/><text class="cls-11" transform="translate(1389.592 846.351)">#SPINACH</text><text class="cls-12" transform="translate(1325.901 864.448)">#</text><text class="cls-13" transform="translate(1389.983 869.886)">5,6 mln berichten</text></g><g id="De_populairste_tekst" data-name="De populairste tekst" class="cls-3"><text class="cls-14" transform="translate(1306.189 367.656)">De populairste #groente op </text><text class="cls-14" transform="translate(1306.189 397.132)">Instagram</text></g></g><g id="Instagrampost"><g id="Instagrampost-2"><rect class="cls-15" x="691.602" y="142.3" width="536.491" height="754.405" rx="12"/><rect class="cls-16" x="691.602" y="142.3" width="527.682" height="746.333" rx="12"/><rect class="cls-1" x="721.17" y="242.475" width="468.817" height="456.203"/><circle class="cls-2" cx="1182.311" cy="181.209" r="5.218"/><circle class="cls-2" cx="1182.311" cy="196.563" r="5.218"/><circle class="cls-2" cx="1182.311" cy="212.544" r="5.218"/><polygon class="cls-2" points="1153.739 719.239 1186.172 719.239 1186.172 762.554 1169.956 751.719 1153.739 762.554 1153.739 719.239"/><circle class="cls-2" cx="796.048" cy="739.235" r="18.007"/><polyline class="cls-17" points="801.233 751.454 819.032 757.242 808.498 742.782"/><circle class="cls-18" cx="796.048" cy="739.235" r="16.191"/><path class="cls-19" d="M744.9,760.469C733.65,749.4,722.921,739.9,722.921,731.7c0-7.574,6.13-10.371,10.551-10.371,2.621,0,8.293,1,11.426,8.9,3.177-7.927,8.919-8.885,11.44-8.885,5.075,0,10.537,3.239,10.537,10.352,0,8.129-10.261,17.232-21.977,28.774"/><text class="cls-20" transform="translate(722.922 796.603)">10.9800 Likes</text><text class="cls-21" transform="translate(721.17 826.624)">Avocado_Lover</text><g class="cls-3"><text class="cls-20" transform="translate(889.463 826.624)">Heerlijke avocado </text><text class="cls-22" transform="translate(1077.571 826.624)">#avocado</text></g><text class="cls-23" transform="translate(721.17 856.93)">4.000 reacties</text><text id="Profielnaam" class="cls-21" transform="translate(796.047 203.137)">Avocado_Lover</text><circle id="Rondje_profielfoto" data-name="Rondje profielfoto" class="cls-2" cx="753.362" cy="193.748" r="32.192"/><image class="cls-3" width="342" height="483" transform="translate(741.361 172.253) scale(0.089)" xlink:href="Halve%20avocado.png"/></g></g></svg>