<svg xmlns="http://www.w3.org/2000/svg" xmlns:xlink="http://www.w3.org/1999/xlink" viewBox="0 0 1920 1080"><defs><style>.cls-1{fill:#e6e6a9;}.cls-2{font-size:60px;}.cls-2,.cls-6,.cls-7,.cls-8{fill:#03392b;}.cls-2,.cls-5,.cls-7{font-family:Poppins-Bold, Poppins;font-weight:700;}.cls-3,.cls-5{fill:#e12813;}.cls-4{letter-spacing:0em;}.cls-5{font-size:36px;}.cls-7{font-size:21px;}.cls-8{font-size:24px;font-family:Poppins-Medium, Poppins;font-weight:500;}.cls-9{fill:none;stroke:#03392b;stroke-miterlimit:10;}</style></defs><g id="achtergrond"><rect class="cls-1" width="1920" height="1080"/></g><g id="titel"><text class="cls-2" transform="translate(96.65 147.35)">Elke <tspan class="cls-3" x="136.92" y="0">5 jaar verdubbelt </tspan><tspan class="cls-4" x="680.75" y="0">in Nederland </tspan><tspan x="0" y="72">het aantal import avocado’s, </tspan><tspan x="0" y="144">in kilo&apos;s</tspan></text><text class="cls-5" transform="translate(120.29 747.58)">15 mln</text><text class="cls-5" transform="translate(380.15 664.88)">43 mln</text><text class="cls-5" transform="translate(674.96 582.73)">85 mln</text><text class="cls-5" transform="translate(1051.67 429.73)">163 mln</text><text class="cls-5" transform="translate(1520.58 275.54)">373 mln</text></g><g id="avocado_import_cijfers" data-name="avocado import cijfers"><g id="avocado-achtergrond"><path id="achtergrond-avocado-koelkast" class="cls-6" d="M1608.41,289c-24.55,0-61.48,13.57-84.81,46.57-33.4,47.23-51.61,125-73.3,180.91-31.72,81.84-52.4,161.37-52.4,217.43,0,121.17,99.42,181,210.51,181s210.5-59.8,210.5-181c0-56.06-20.67-135.59-52.4-217.43-21.69-55.93-39.89-133.68-73.29-180.91-23.34-33-60.26-46.57-84.81-46.57"/></g><g id="avocado-achtergrond-2" data-name="avocado-achtergrond"><path id="achtergrond-avocado-koelkast-2" data-name="achtergrond-avocado-koelkast" class="cls-6" d="M1122.54,440c-18.61,0-46.6,10.29-64.29,35.3-25.32,35.8-39.12,94.74-55.56,137.14C978.64,674.48,963,734.77,963,777.27c0,91.84,75.36,137.18,159.57,137.18s159.57-45.34,159.57-137.18c0-42.5-15.67-102.79-39.72-164.83C1226,570,1212.15,511.1,1186.83,475.3c-17.69-25-45.68-35.3-64.29-35.3"/></g><g id="avocado-achtergrond-3" data-name="avocado-achtergrond"><path id="achtergrond-avocado-koelkast-3" data-name="achtergrond-avocado-koelkast" class="cls-6" d="M751.45,595c-12.54,0-31.41,6.93-43.33,23.79-17.07,24.13-26.37,63.86-37.45,92.43C654.46,753,643.9,793.63,643.9,822.27c0,61.91,50.79,92.46,107.55,92.46S859,884.18,859,822.27c0-28.64-10.56-69.28-26.77-111.09-11.08-28.57-20.38-68.3-37.45-92.43C782.86,601.89,764,595,751.45,595"/></g><g id="avocado-achtergrond-4" data-name="avocado-achtergrond"><path id="achtergrond-avocado-koelkast-4" data-name="achtergrond-avocado-koelkast" class="cls-6" d="M444.46,689.8c-8.81,0-22.06,4.87-30.43,16.71-12,17-18.52,44.85-26.31,64.92-11.38,29.37-18.8,57.91-18.8,78,0,43.48,35.67,64.94,75.54,64.94S520,892.94,520,849.46c0-20.12-7.42-48.66-18.8-78-7.79-20.07-14.32-48-26.31-64.92-8.37-11.84-21.62-16.71-30.43-16.71"/></g><g id="avocado-achtergrond-5" data-name="avocado-achtergrond"><path id="achtergrond-avocado-koelkast-5" data-name="achtergrond-avocado-koelkast" class="cls-6" d="M179.3,770c-5.64,0-14.13,3.12-19.49,10.7C152.14,791.55,148,809.42,143,822.27c-7.29,18.8-12,37.08-12,50,0,27.84,22.84,41.58,48.37,41.58s48.37-13.74,48.37-41.58c0-12.88-4.75-31.16-12-50-5-12.85-9.17-30.72-16.85-41.57-5.36-7.58-13.84-10.7-19.48-10.7"/></g></g><g id="avocado-afb-"><image id="avocado-jaar2005" width="647" height="1024" transform="translate(137 791) scale(0.12)" xlink:href="afbeeldingen/avocado-pit.png"/><image id="avocado-jaar2010" width="451" height="407" transform="translate(608 802.27) rotate(-51.86) scale(0.48)" xlink:href="afbeeldingen/avocado-rot.png"/><image id="avocado-jaar2020" width="224" height="359" transform="translate(1750.6 886) rotate(180) scale(1.42)" xlink:href="afbeeldingen/avocado-rot2.png"/><image id="avocado-jaar2005-2" data-name="avocado-jaar2005" width="444" height="431" transform="translate(566.78 807.78) rotate(131.32) scale(0.36)" xlink:href="afbeeldingen/avocado-rot4.png"/><image id="avocado-jaar2015" width="284" height="399" transform="translate(1025 559) scale(0.73)" xlink:href="afbeeldingen/avocadoo2.png"/></g><g id="jaartallen"><text class="cls-7" transform="translate(1615.52 975.03)">2020</text><text class="cls-7" transform="translate(1111.02 975.46)">2015</text><text class="cls-7" transform="translate(735.67 976.38)">2010</text><text class="cls-7" transform="translate(423.7 975.83)">2005</text><text class="cls-7" transform="translate(150.28 978.03)">2000</text><text class="cls-8" transform="translate(1795.13 1000.21)">Jaar</text><polyline id="tijdlijn" class="cls-9" points="97 961 97 981.79 1845.63 975.38 1845.63 962.72 1845.63 122.01"/><text class="cls-8" transform="translate(1770.63 113.25)">Aantal kg</text></g></svg>