<svg xmlns="http://www.w3.org/2000/svg" viewBox="0 0 1920 1080"><defs><style>.cls-1,.cls-9{fill:#e6e6a9;}.cls-2{fill:none;stroke:#03392b;stroke-miterlimit:10;stroke-width:4px;}.cls-3{font-size:28px;}.cls-3,.cls-5,.cls-6{fill:#03392b;}.cls-3,.cls-4,.cls-6,.cls-9{font-family:Poppins-Bold, Poppins;font-weight:700;}.cls-4,.cls-6,.cls-9{font-size:36px;}.cls-4{fill:#f53d04;}.cls-7{fill:#e12813;}.cls-8{letter-spacing:0em;}</style></defs><g id="achtergrond"><rect class="cls-1" width="1920" height="1080"/></g><g id="grafiek"><line class="cls-2" x1="1749" y1="542" x2="1762" y2="542"/><text class="cls-3" transform="translate(1765.78 123.27)">400</text><text class="cls-3" transform="translate(1773.61 550.28)">200</text><text class="cls-3" transform="translate(1680.12 84.29)">Aantal in kg</text><polyline class="cls-2" points="1759.88 111.78 1750 111.78 1750 977 236 977 236 969.94"/><line class="cls-2" x1="1458" y1="978" x2="1457.95" y2="991"/><text class="cls-3" transform="translate(1427.61 1021.28)">2020</text><line class="cls-2" x1="965" y1="977" x2="964.95" y2="990"/><text class="cls-3" transform="translate(934.61 1020.28)">2015</text><line class="cls-2" x1="666" y1="977" x2="665.95" y2="990"/><text class="cls-3" transform="translate(635.61 1020.28)">2010</text><line class="cls-2" x1="447" y1="977" x2="446.95" y2="990"/><text class="cls-3" transform="translate(416.61 1020.28)">2005</text><line class="cls-2" x1="281" y1="978" x2="280.95" y2="991"/><text class="cls-3" transform="translate(250.61 1021.28)">2000</text><text class="cls-3" transform="translate(1720.51 1019.95)">Jaar</text></g><g id="avocado-import-cijfers"><g id="import-2020"><text class="cls-4" transform="translate(1387.1 152.8)">373 mln</text><g id="avocado-achtergrond"><path id="achtergrond-avocado-koelkast" class="cls-5" d="M1456.16,182.46c-29.72,0-74.42,17.23-102.67,59.1-40.44,59.92-62.48,158.58-88.73,229.56C1226.35,575,1201.32,675.87,1201.32,747c0,153.75,120.35,229.63,254.84,229.63S1711,900.76,1711,747c0-71.14-25-172.06-63.44-275.89-26.25-71-48.29-169.64-88.73-229.56-28.25-41.87-72.95-59.1-102.67-59.1"/></g></g><g id="import-2015"><g id="avocado-achtergrond-2" data-name="avocado-achtergrond"><path id="achtergrond-avocado-koelkast-2" data-name="achtergrond-avocado-koelkast" class="cls-5" d="M967.78,615c-13.49,0-33.77,7.82-46.59,26.81-18.35,27.2-28.35,72-40.26,104.17-17.43,47.12-28.79,92.91-28.79,125.19,0,69.76,54.61,104.19,115.64,104.19s115.63-34.43,115.63-104.19c0-32.28-11.35-78.07-28.78-125.19-11.92-32.21-21.92-77-40.26-104.17-12.82-19-33.11-26.81-46.59-26.81"/></g><text class="cls-4" transform="translate(894.41 579.4)">163 mln</text></g><g id="import-2010"><g id="avocado-achtergrond-3" data-name="avocado-achtergrond"><path id="achtergrond-avocado-koelkast-3" data-name="achtergrond-avocado-koelkast" class="cls-5" d="M666.91,782c-7.24,0-18.13,4.2-25,14.4C632,811,626.67,835,620.27,852.33c-9.35,25.3-15.45,49.89-15.45,67.22,0,37.46,29.32,56,62.09,56S729,957,729,919.55c0-17.33-6.1-41.92-15.46-67.22C707.15,835,701.78,811,691.93,796.4c-6.89-10.2-17.78-14.4-25-14.4"/></g><text class="cls-4" transform="translate(604.77 742.82)">85 mln</text></g><g id="import-2005"><g id="avocado-achtergrond-4" data-name="avocado-achtergrond"><path id="achtergrond-avocado-koelkast-4" data-name="achtergrond-avocado-koelkast" class="cls-5" d="M450.2,879a16.87,16.87,0,0,0-13,7.15c-5.13,7.25-7.93,19.19-11.26,27.78-4.87,12.56-8,24.77-8,33.38,0,18.61,15.26,27.79,32.32,27.79s32.32-9.18,32.32-27.79c0-8.61-3.17-20.82-8-33.38-3.32-8.59-6.12-20.53-11.25-27.78a16.87,16.87,0,0,0-13-7.15"/></g><text class="cls-4" transform="translate(387.53 853.79)">43 mln</text></g><g id="import-2000"><g id="avocado-achtergrond-5" data-name="avocado-achtergrond"><path id="achtergrond-avocado-koelkast-5" data-name="achtergrond-avocado-koelkast" class="cls-5" d="M281.06,937.29a6.77,6.77,0,0,0-5.21,2.86c-2.06,2.91-3.17,7.69-4.51,11.12-1.95,5-3.22,9.92-3.22,13.37,0,7.45,6.11,11.12,12.94,11.12S294,972.09,294,964.64c0-3.45-1.27-8.34-3.22-13.37-1.33-3.43-2.45-8.21-4.51-11.12a6.77,6.77,0,0,0-5.21-2.86"/></g><text class="cls-4" transform="translate(235.81 912.79)">15 mln</text></g></g><g id="import-titel"><text class="cls-6" transform="translate(81.65 103.35)">Elke <tspan class="cls-7" x="82.15" y="0">5 jaar verdubbelt </tspan><tspan class="cls-8" x="408.45" y="0">in Nederland </tspan><tspan x="0" y="43.2">het aantal import avocado’s, </tspan><tspan x="0" y="86.4">in kilo&apos;s</tspan></text></g><g id="bronvermelding-import"><circle class="cls-5" cx="253.5" cy="179.5" r="21.92"/><text class="cls-9" transform="translate(247.7 192.73)">i</text></g></svg>