<?xml version="1.0" encoding="utf-8"?>
<!-- Generator: Adobe Illustrator 24.1.2, SVG Export Plug-In . SVG Version: 6.00 Build 0)  -->
<svg version="1.1" id="Layer_1" xmlns="http://www.w3.org/2000/svg" xmlns:xlink="http://www.w3.org/1999/xlink" x="0px" y="0px"
	 viewBox="0 0 1921 1080.8" style="enable-background:new 0 0 1921 1080.8;" xml:space="preserve">
<style type="text/css">
	.st0{fill:#E6E6A9;}
	.st1{fill:#03392B;}
	.st2{fill:#E5E5A7;stroke:#FFFFFF;stroke-width:15.76;stroke-linecap:round;stroke-linejoin:round;}
	.st3{fill:#FFFFFF;stroke:#FFFFFF;stroke-width:1.99;stroke-linecap:round;stroke-linejoin:round;}
	.st4{fill:#FFFFFF;}
	.st5{fill:#E5E5A7;}
	.st6{fill:#FFFFFF;stroke:#FFFFFF;stroke-width:0.94;stroke-linecap:round;stroke-linejoin:round;}
	.st7{fill:#E5E5A7;stroke:#FFFFFF;stroke-width:15.23;stroke-miterlimit:10;}
	.st8{fill:none;stroke:#FFFFFF;stroke-width:11.93;stroke-linecap:round;stroke-linejoin:round;}
	.st9{fill:none;stroke:#FFFFFF;stroke-width:11.63;stroke-linecap:round;stroke-linejoin:round;}
	.st10{fill:none;stroke:#FFFFFF;stroke-width:9.31;stroke-linecap:round;stroke-linejoin:round;}
	.st11{font-family:'Poppins-Bold';}
	.st12{font-size:60px;}
	.st13{opacity:0.73;fill:#FF6F64;enable-background:new    ;}
	.st14{font-size:36px;}
	.st15{fill:#D42016;}
</style>
<g id="achtergrond">
	<rect class="st0" width="1921" height="1080"/>
	<path id="Path_81" class="st1" d="M1921,1080.8c0,0-735.7-113-916.2-629.4C881.1,97.6,4.7,0,4.7,0H1921V1080.8z"/>
</g>
<path id="boven_Lichaam" class="st2" d="M641.5,801.5h113.7c10.4-53.5,23.2-108.5,32.2-107.8c3.5,0.3,6.5,9.2,10.6,51.1
	c4.4,45.2,6.5,90.5,6.2,135.9l387.7-1.7c-2.2-44.4-1.7-88.9,1.6-133.3c3.9-53.7,8.1-57.6,10.3-57.8c5.6-0.5,15.4,20.4,34.1,112
	h113.7c-16-89.1-45.8-155-68.6-196.6c-34.2-62.5-63-85.9-76.2-96c-38.6-29.4-78-40.9-102.7-45.9c-5,6.3-43.6,52.9-109.8,53.7
	c-64.8,0.8-104.2-43-109.6-49.2c-32.9,6.9-64,20.4-91.6,39.5c-45.2,31.7-66.9,70.2-88.5,109.5C683,653.9,654.6,716.8,641.5,801.5z"
	/>
<g id="linker-arm_met_mes">
	<path class="st3" d="M838.8,808.3c7.5-10.1,15.8-19.7,24.7-28.6c9.8-9.7,15.4-15.2,25-19.8c5.7-2.7,11.5-4.2,23.2-7
		c19.1-4.6,21.7-2.8,22.7-1.5c2.3,2.9,0.1,8.6-1.7,11.5c-4.4,7.6-12.1,8.5-25.3,14.8c-6.3,3-12.4,6.6-18.2,10.6
		c3.8-0.1,8.4-0.4,13.8-0.8c6.8-0.5,9.8-1,18-2c22.5-2.6,27-2.3,30.9,0.7c0.9,0.7,4.8,3.6,4.6,7.5c-0.2,3.5-3.6,5.8-4.1,6.1
		c-6.1,4-15.4,0.5-15.4,0.6s9.7,0,12.8,5.1c0.9,1.6,1.3,3.4,1.3,5.2c-0.1,1.5-0.6,3-1.6,4.3c-3.2,4.1-10.5,2.9-10.5,3.9
		s7,0.9,8.6,4.7c0.4,1.3,0.4,2.7,0,4c-0.4,1.7-1.4,3.1-2.8,4.1c-2.5,1.4-5.6,0.1-5.7,0.5s4.3,1,5.5,3.8c0.4,1,0.4,2.1,0,3
		c-0.8,0.6-2.2,1.5-3.9,2.6c-31.8,19.7-60.7-2.5-111.5,1.8c-0.5,0-17.6,3.7-51.9,11c-47.1,10-50.6,10.9-59.5,11.1
		c-14.1,0.3-48.4,1.1-71.9-21.6c-4.8-4.6-12.7-12.5-14.8-24.9c-3.1-18.2,8.1-36.6,22.6-45.5c10.7-6.6,21.4-6.8,29.1-6.8
		c17.3-0.1,25.6,5.4,47.7,13.4c12.3,4.5,34.9,10,80.2,21.4C822.7,804.5,832.5,806.9,838.8,808.3z"/>
	<path class="st4" d="M897.1,801.5c6.5,1.9,13.2,2.6,19.9,2.1c5.8-0.4,11.4-1.6,16.8-3.6"/>
	<path class="st5" d="M897.1,801.5c12.1,3.4,24.8,1.9,36.7-1.5c0,0,0.1,0.1,0,0.1C922.6,805.3,908.4,805.3,897.1,801.5L897.1,801.5z
		"/>
	<path class="st4" d="M898,818.1c12.1,4,25.1,4.6,37.5,1.5"/>
	<path class="st5" d="M898,818.1c12.1,3.9,25,3.6,37.4,1.5c0,0,0,0,0,0.1c0,0,0,0,0,0C923.4,823.5,909.4,822.4,898,818.1L898,818.1z
		"/>
	<path class="st4" d="M902.5,836.5c9.7,4.1,20.7,3.6,30-1.4"/>
	<path class="st5" d="M902.5,836.5c9.7,4,20.5,2.7,30-1.4 M932.5,835.2c-8.6,5.8-21.1,5.7-30,1.3L932.5,835.2z"/>
	<path class="st6" d="M936.4,779.8c2.6-1.1,5.5-1.7,8.4-1.5c3,0,5.8,0.9,8.3,2.5c1.4,1,1.7,1.7,2.2,1.5c1.6-0.5-0.3-7.3,0.9-17.1
		c0.3-2,0.6-3.7,0.8-4.8l8.2,2.2c1.5-4.3,11.8-34,11.2-52.4c-0.3-7.3-2.2-11.2-4.2-13.8c-2.8-3.5-6.6-6.1-10.8-7.3L936.4,779.8z"/>
</g>
<g id="hoofd">
	<path id="_haar_" class="st7" d="M868.4,289l-42.9,2.8c-11.5-5.8-18.1-17-16.6-27.6c1.2-8.3,6.9-13.5,9-15.2
		c-13-8.7-16.4-26.2-7.8-39.1c3.2-4.8,7.9-8.5,13.3-10.6c-8.3-4.5-13.5-12.9-13.1-21.4c0.5-11.5,11.1-21.8,24.9-22.1
		c-7.6-11.1-6.9-25.7,1.4-35.2c9.3-10.8,26.2-12.9,38.7-4.2c-0.4-2.5-1.9-13.3,4.8-21.4c8.1-9.9,25.2-12.3,40.1-3.4
		c0.5-2.3,2.5-9.4,9-13.8c8-5.5,19.8-4.8,29,2.1c4.2-7.5,12.2-12,20.8-11.8c12.7,0.4,19,11.2,19.3,11.8c4.3-8.6,12.6-14.3,21.4-14.5
		c11.9-0.3,23.3,9.2,25.6,22.8c0.9-0.8,11.2-9,23.5-5.5c10.8,3,18.7,13.8,18.7,26.3c14.3-4.1,29.1,0.5,36.6,11.1
		c6.9,9.7,5.3,20.8,4.8,23.5c1.9,0.6,16.7,5.3,22.8,20.7c5.4,13.6,0.2,25.5-0.8,27.6c1.2,0.7,16.3,9.6,17.3,27
		c0.7,12.1-5.9,20.7-7.6,22.8c1.1,1.1,11.1,11.3,9,26.3c-2.4,16.9-17.9,23.9-18.7,24.2l-40.4-8.3L868.4,289z"/>
	<path id="_gezicht_" class="st7" d="M844.8,363.1c11,16.7,27.6,22.7,33.8,24.6c10.3,54.5,56.8,94.7,110.7,96.8
		c57.2,2.3,109-38.9,120-96.8c5.9-2.1,26.6-10.4,37.5-32.3c3.3-6.7,14.4-29.1,2.2-47c-10.9-16-32.2-16.4-34.7-16.4
		c1.3-7.3,0.8-14.8-1.4-21.8c-15.6-48.4-113.7-50-118-50c-48.1-0.3-117.1,16.4-125,52.6c-1.1,5.1-1,10.5,0.2,15.6
		c-5.1,1-19.5,4.6-28.6,17.4C828.1,324.4,835.8,349.3,844.8,363.1z"/>
	<g id="_Groep_bril_">
		<path class="st8" d="M895.8,306.6h73.2c3.1,0,5.6,2.5,5.6,5.6v44.4c0,3.1-2.5,5.6-5.6,5.6h-73.2c-3.1,0-5.6-2.5-5.6-5.6v-44.4
			C890.2,309.1,892.7,306.6,895.8,306.6z"/>
		<path class="st8" d="M1016.8,304.2h73.2c3.1,0,5.6,2.5,5.6,5.6v44.4c0,3.1-2.5,5.6-5.6,5.6h-73.2c-3.1,0-5.6-2.5-5.6-5.6v-44.4
			C1011.1,306.7,1013.7,304.2,1016.8,304.2z"/>
		<line class="st9" x1="974.7" y1="332" x2="1010" y2="332"/>
	</g>
	<path id="mond" class="st10" d="M1051.1,414.9c-33.8,24.6-79.5,24.6-113.3,0"/>
</g>
<path id="tafel" class="st1" d="M589.2,952.5h766.5c15.6,0,28.2,12.6,28.2,28.2v11c0,15.6-12.6,28.2-28.2,28.2H589.2
	c-15.6,0-28.2-12.6-28.2-28.2v-11C561,965.2,573.6,952.5,589.2,952.5z"/>
<g id="titel">
	<text transform="matrix(1 0 0 1 42.4 498.03)" class="st1 st11 st12">Nu wil je vast een </text>
	<text transform="matrix(1 0 0 1 42.4 570.03)" class="st1 st11 st12">avocado gaan eten?</text>
</g>
<g id="tekst-keerzijde">
</g>
<image style="overflow:visible;" width="934" height="329" xlink:href="project-id/images/bord.png"  transform="matrix(0.4339 0 0 -0.4216 793.9243 987.7875)">
</image>
<image style="overflow:visible;" width="322" height="456" xlink:href="project-id/images/avocado.png"  transform="matrix(3.240041e-17 -0.5291 0.5291 3.240041e-17 873.7674 961.3192)">
</image>
<g id="rechter-arm">
	<path class="st3" d="M1157.6,815.1c-7.7-10-16.1-19.4-25.2-28.2c-9.9-9.5-15.6-14.9-25.3-19.4c-5.7-2.7-11.6-4-23.3-6.6
		c-19.1-4.3-21.7-2.5-22.7-1.2c-2.2,3,0.1,8.6,1.8,11.5c4.6,7.5,12.3,8.3,25.6,14.4c6.4,3,12.6,6.4,18.4,10.4
		c-3.8-0.1-8.4-0.2-13.8-0.6c-6.8-0.4-9.8-0.9-18-1.7c-22.6-2.2-27.1-1.8-30.9,1.1c-0.9,0.7-4.7,3.7-4.5,7.5
		c0.2,3.5,3.7,5.7,4.2,6.1c6.2,3.9,15.4,0.3,15.4,0.4s-9.7,0.1-12.7,5.2c-0.9,1.6-1.3,3.4-1.2,5.2c0.1,1.5,0.7,3,1.6,4.3
		c3.2,4,10.6,2.8,10.6,3.8s-7,1-8.5,4.8c-0.4,1.3-0.4,2.7,0,4c0.4,1.7,1.4,3.1,2.8,4.1c2.5,1.4,5.6,0,5.7,0.4s-4.3,1.1-5.4,3.9
		c-0.4,1-0.4,2,0,3c0.8,0.6,2.2,1.5,3.9,2.5c32.1,19.2,60.6-3.5,111.5,0c0.5,0,17.7,3.4,52.1,10.2c47.3,9.3,50.8,10.1,59.7,10.2
		c14.1,0.1,48.4,0.4,71.5-22.7c4.8-4.8,12.6-12.8,14.5-25.2c2.8-18.2-8.7-36.5-23.3-45.2c-10.8-6.4-21.5-6.4-29.2-6.4
		c-17.3,0.2-25.5,5.8-47.4,14.2c-12.2,4.7-34.8,10.5-79.8,22.6C1173.6,811.1,1163.8,813.6,1157.6,815.1z"/>
	<path class="st4" d="M1099.2,809.2c-6.4,2-13.1,2.8-19.8,2.4c-5.8-0.3-11.5-1.4-16.9-3.4"/>
	<path class="st5" d="M1099.2,809.3c-11.8,3.8-25.3,4.2-36.8-0.9c-0.1,0,0-0.1,0-0.1c6,1.6,12.1,2.6,18.3,3
		C1086.8,811.6,1093.5,810.5,1099.2,809.3L1099.2,809.3z"/>
	<path class="st4" d="M1098.5,825.8c-12,4.2-25,4.9-37.4,2"/>
	<path class="st5" d="M1098.5,825.9c-11.8,4.3-25.3,5.8-37.4,2c0,0,0-0.1,0-0.1c6.2,1,12.5,1.4,18.8,1.3
		C1086.1,829,1092.7,827.4,1098.5,825.9L1098.5,825.9z"/>
	<path class="st4" d="M1094.3,844.3c-9.6,4.2-20.7,3.9-30-1"/>
	<path class="st5" d="M1094.4,844.4c-9.3,4.4-21.2,4.8-30.1-1c0,0,0-0.1,0-0.1C1074.4,847.4,1084.2,848.2,1094.4,844.4L1094.4,844.4
		z"/>
</g>
<g id="avocado_bord">
	<path class="st0" d="M1323.9,170.6h484.2c12.3,0,22.2,9.9,22.2,22.2v227.6c0,12.3-9.9,22.2-22.2,22.2h-484.2
		c-12.3,0-22.2-9.9-22.2-22.2V192.8C1301.8,180.5,1311.7,170.6,1323.9,170.6z"/>
	<path id="achtergrond-avocado" class="st13" d="M1413.5,187.3c-8.9-0.4-22.5,4-31.5,15.6c-12.8,16.6-20.7,44.5-29.4,64.4
		c-12.8,29.2-21.5,57.7-22.4,78c-1.9,43.9,33.2,67.1,73.4,68.9s77.2-18.4,79.1-62.3c0.9-20.3-5.4-49.5-15.6-79.6
		c-7-20.6-12.3-49.1-23.7-66.7C1435.6,193.3,1422.4,187.8,1413.5,187.3"/>
	<text transform="matrix(1 0 0 1 1526.3922 277.82)" class="st11 st14">Eet bewust </text>
	<text transform="matrix(1 0 0 1 1526.3922 321.02)" class="st11 st14">avocado’s zijn </text>
	<text transform="matrix(1 0 0 1 1526.3922 364.22)" class="st15 st11 st14">niet duurzaam!</text>
	
		<image style="overflow:visible;enable-background:new    ;" width="322" height="456" xlink:href="project-id/images/avocado.png"  transform="matrix(0.41 0 0 0.41 1347.3622 228.56)">
	</image>
</g>
</svg>
