<svg id="Laag_1" data-name="Laag 1" xmlns="http://www.w3.org/2000/svg" xmlns:xlink="http://www.w3.org/1999/xlink" viewBox="0 0 1920 1080"><defs><style>.cls-1{fill:none;}.cls-18,.cls-2,.cls-9{fill:#033b2b;}.cls-10,.cls-11,.cls-18,.cls-19,.cls-22,.cls-3,.cls-4{isolation:isolate;}.cls-4{font-size:38px;font-family:Poppins-Bold, Poppins;}.cls-11,.cls-4{fill:#e7e7a9;}.cls-10,.cls-11,.cls-18,.cls-19,.cls-22,.cls-4{font-weight:700;}.cls-5{fill:#084c35;}.cls-6{fill:#054431;}.cls-7{fill:#084431;}.cls-8{clip-path:url(#clip-path);}.cls-9{opacity:0.4;}.cls-10,.cls-11,.cls-18,.cls-19,.cls-22{font-size:20px;font-family:HelveticaNeue-Bold, Helvetica Neue;}.cls-10{fill:#f53d04;}.cls-12{letter-spacing:-0.018em;}.cls-13{letter-spacing:-0.092em;}.cls-14{letter-spacing:-0.018em;}.cls-15{letter-spacing:0em;}.cls-16{letter-spacing:-0.111em;}.cls-17{letter-spacing:-0.074em;}.cls-19{fill:#ed3b04;}.cls-20{letter-spacing:0em;}.cls-21{letter-spacing:-0.278em;}.cls-22{fill:#ee3b04;}.cls-23{letter-spacing:-0.055em;}</style><clipPath id="clip-path"><path class="cls-1" d="M580.383,1076.507s39.3-47.4-125.035-123.252c0,0-5.954-58.07,176.24-73.477,0,0,135.753-18.961,19.054-93.623,0,0-16.672-94.809,433.456-74.662,0,0,48.824-28.443,97.647-22.517s98.711,6.723,98.711,6.723-204.693,99.937-260.662,174.6c0,0-129.8,82.958-13.1,80.588,0,0,150.043,13.036,83.357,47.4,0,0-40.339,30.53,134.637,80.446Z"/></clipPath></defs><rect id="Achtergrond" class="cls-2" x="0.456" y="-1.265" width="1920" height="1080"/><g id="Tekst" class="cls-3"><text class="cls-4" transform="translate(1115.05 114.193)">Nadat de avocadoplantages naar </text><text class="cls-4" transform="translate(1115.05 151.193)">Petorca verhuisden, droogde</text><text class="cls-4" transform="translate(1115.05 188.193)">de rivier La Ligua op</text></g><path id="berg" class="cls-5" d="M1920.456,601.094s-542.357,5.278-652.643,87.07l-341.235,106.8-21.1,283.414,1014.98,2.239Z"/><path id="berg-2" data-name="berg" class="cls-6" d="M1.489,737.237.456,1080.615l619.224-2.239S477.334,889.129,236.456,840.855c0,0-144.535-28.031-150.633-62.564S1.489,737.237,1.489,737.237Z"/><path id="berg-3" data-name="berg" class="cls-7" d="M.456,578.04,1.465,930.072l453.883,24.459s4.763-60.731,176.24-73.83c0,0,133.372-16.672,19.054-94.075S.456,578.04.456,578.04Z"/><path id="berg-4" data-name="berg" class="cls-6" d="M.456,96.02,1.465,719.758l649.177,66.868,439.41-29.77,393.565-126.063S773.905,459.778,605.1,234.4c0,0-221.2-143.211-278.36-147.974S229.093,76.9,229.093,76.9,192.178,42.367,114.775,53.084.456,96.02.456,96.02Z"/><g id="rivier_vol" data-name="rivier vol"><g class="cls-8"><image width="2520" height="1418" transform="translate(348.456 291.735) scale(0.555)" xlink:href="../Desktop/pexels-photo-627924-1.jpg"/></g></g><g id="Man"><image width="683" height="1024" transform="translate(42.456 91.735) scale(0.714)" xlink:href="man.png"/><rect class="cls-9" x="107.456" y="91.735" width="423" height="607"/><g id="_When_I_was_a_young_man_the_rivers_were_full_of_water._Then_the_big_avocado_plantations_arrived_on_the_mountainsides_which_are_not_at_all_suitable_for_avocado_farming._They_dug_deep_wells._Today_the_rivers_are_dry_because_the_avocado_plantations_have_ta" data-name=" When I was a young man the rivers were full of water. Then the big avocado plantations arrived on the mountainsides which are not at all suitable for avocado farming. They dug deep wells. Today the rivers are dry because the avocado plantations have ta" class="cls-3"><text class="cls-10" transform="translate(134.984 136.356)">“</text><text class="cls-11" transform="translate(144.244 136.356)">When I was a young man, the </text><text class="cls-11" transform="translate(134.984 161.356)">rivers we<tspan class="cls-12" x="86.659" y="0">r</tspan><tspan x="94.079" y="0">e full of wate</tspan><tspan class="cls-13" x="216.237" y="0">r</tspan><tspan x="222.177" y="0">. Then </tspan></text><text class="cls-11" transform="translate(134.984 186.356)">the big avocado plantations </text><text class="cls-11" transform="translate(134.984 211.356)">arrived on the mountainsides, </text><text class="cls-11" transform="translate(134.984 236.356)">which a<tspan class="cls-14" x="73.679" y="0">r</tspan><tspan class="cls-15" x="81.099" y="0">e not at all suitable </tspan></text><text class="cls-11" transform="translate(134.984 261.356)">for avocado farming. They dug </text><text class="cls-11" transform="translate(134.984 286.356)">deep wells. <tspan class="cls-16" x="112.898" y="0">T</tspan><tspan x="122.898" y="0">oda</tspan><tspan class="cls-17" x="158.818" y="0">y</tspan><tspan x="167.718" y="0">, the rivers </tspan></text><text class="cls-11" transform="translate(134.984 311.356)">a<tspan class="cls-12" x="11.48" y="0">r</tspan><tspan x="18.9" y="0">e dry because the avocado </tspan></text><text class="cls-11" transform="translate(134.984 336.356)">plantations have taken the </text><text class="cls-11" transform="translate(134.984 361.356)">water</text><text class="cls-10" transform="translate(189.043 361.356)">”</text><text class="cls-18" transform="translate(198.303 361.356)"> </text><text class="cls-10" transform="translate(134.984 386.356)">Guillermo <tspan class="cls-16" x="97.679" y="0">T</tspan><tspan x="107.679" y="0">oledo</tspan></text></g></g><g id="Vrouw"><image width="1000" height="662" transform="translate(1405.456 578.361) scale(0.515)" xlink:href="vrouw.png"/><rect class="cls-9" x="1405.456" y="578.735" width="390" height="341"/><g id="_In_order_to_send_good_avocados_to_Europeans_we_end_up_drinking_water_with_shit_in_it._Veronica_Vilches" data-name=" In order to send good avocados to Europeans we end up drinking water with shit in it. Veronica Vilches" class="cls-3"><text class="cls-19" transform="translate(1421.203 610.56)">“</text><text class="cls-11" transform="translate(1430.463 610.56)">In o<tspan class="cls-12" x="35.54" y="0">r</tspan><tspan class="cls-20" x="42.959" y="0">der to send good </tspan></text><text class="cls-11" transform="translate(1421.203 635.56)">avocados to Eu<tspan class="cls-14" x="147.438" y="0">r</tspan><tspan x="154.858" y="0">opeans, we </tspan></text><text class="cls-11" transform="translate(1421.203 660.56)">end up <tspan class="cls-21" x="70.759" y="0">​​</tspan><tspan class="cls-20" x="70.759" y="0">drinking water with </tspan></text><text class="cls-11" transform="translate(1421.203 685.56)">shit in it</text><text class="cls-18" transform="translate(1496.341 685.56)">.</text><text class="cls-22" transform="translate(1501.901 685.56)">”</text><text class="cls-19" transform="translate(1421.203 710.56)"><tspan class="cls-23">V</tspan><tspan class="cls-15" x="11.5" y="0">e</tspan><tspan class="cls-14" x="22.979" y="0">r</tspan><tspan x="30.4" y="0">onica </tspan><tspan class="cls-14" x="88.159" y="0">V</tspan><tspan x="100.399" y="0">ilches</tspan></text></g></g></svg>