<?xml version="1.0" encoding="utf-8"?>
<!-- Generator: Adobe Illustrator 24.1.2, SVG Export Plug-In . SVG Version: 6.00 Build 0)  -->
<svg version="1.1" id="Laag_1" xmlns="http://www.w3.org/2000/svg" xmlns:xlink="http://www.w3.org/1999/xlink" x="0px" y="0px"
	 viewBox="0 0 1920 1081" style="enable-background:new 0 0 1920 1081;" xml:space="preserve">
<style type="text/css">
	.st0{fill:#033B2B;}
	.st1{fill:#E7E7A9;}
	.st2{font-family:'Poppins-Bold';}
	.st3{font-size:38px;}
	.st4{opacity:0.4;fill:#033B2B;enable-background:new    ;}
	.st5{fill:#F53D04;}
	.st6{font-family:'HelveticaNeue-Bold';}
	.st7{font-size:20px;}
	.st8{letter-spacing:-1;}
	.st9{letter-spacing:-2;}
	.st10{fill:#ED3B04;}
	.st11{letter-spacing:-5;}
	.st12{fill:#EE3B04;}
	.st13{fill:#B0DFFC;}
	.st14{fill:#529CC1;}
</style>
<rect id="Achtergrond_1_" y="0" class="st0" width="1920" height="1081"/>
<g id="Tekst_1_">
	<text transform="matrix(1 0 0 1 47.5929 95.46)" class="st1 st2 st3">Nadat de avocadoplantages naar</text>
	<text transform="matrix(1 0 0 1 47.5929 132.46)" class="st1 st2 st3">Petorca verhuisden, droogde</text>
	<text transform="matrix(1 0 0 1 47.5929 169.46)" class="st1 st2 st3">de rivier La Ligua op</text>
</g>
<g id="Man_1_">
	
		<image style="overflow:visible;enable-background:new    ;" width="683" height="1024" xlink:href="../images/man-rivier.png"  transform="matrix(0.714 0 0 0.714 45 307.002)">
	</image>
	<rect x="110" y="307" class="st4" width="423" height="607"/>
	
		<g id="_When_I_was_a_young_man_the_rivers_were_full_of_water._Then_the_big_avocado_plantations_arrived_on_the_mountainsides_which_are_not_at_all_suitable_for_avocado_farming._They_dug_deep_wells._Today_the_rivers_are_dry_because_the_avocado_plantations_have_t_1_">
		<text transform="matrix(1 0 0 1 137.528 351.623)" class="st5 st6 st7">“</text>
		<text transform="matrix(1 0 0 1 146.7882 351.623)" class="st1 st6 st7">When I was a young man, the</text>
		<text transform="matrix(1 0 0 1 137.528 376.623)" class="st1 st6 st7">rivers we</text>
		<text transform="matrix(1 0 0 1 224.1871 376.623)" class="st1 st6 st7">r</text>
		<text transform="matrix(1 0 0 1 231.6071 376.623)" class="st1 st6 st7">e full of wate</text>
		<text transform="matrix(1 0 0 1 353.7648 376.623)" class="st1 st6 st7 st8">r</text>
		<text transform="matrix(1 0 0 1 359.7052 376.623)" class="st1 st6 st7">. Then</text>
		<text transform="matrix(1 0 0 1 137.528 401.623)" class="st1 st6 st7">the big avocado plantations</text>
		<text transform="matrix(1 0 0 1 137.528 426.623)" class="st1 st6 st7">arrived on the mountainsides,</text>
		<text transform="matrix(1 0 0 1 137.528 451.623)" class="st1 st6 st7">which a</text>
		<text transform="matrix(1 0 0 1 211.2072 451.623)" class="st1 st6 st7">r</text>
		<text transform="matrix(1 0 0 1 218.6271 451.623)" class="st1 st6 st7">e not at all suitable</text>
		<text transform="matrix(1 0 0 1 137.528 476.623)" class="st1 st6 st7">for avocado farming. They dug</text>
		<text transform="matrix(1 0 0 1 137.528 501.6229)" class="st1 st6 st7">deep wells. </text>
		<text transform="matrix(1 0 0 1 250.4259 501.6229)" class="st1 st6 st7 st9">T</text>
		<text transform="matrix(1 0 0 1 260.4259 501.6229)" class="st1 st6 st7">oda</text>
		<text transform="matrix(1 0 0 1 296.3459 501.6229)" class="st1 st6 st7 st8">y</text>
		<text transform="matrix(1 0 0 1 305.2462 501.6229)" class="st1 st6 st7">, the rivers</text>
		<text transform="matrix(1 0 0 1 137.528 526.6229)" class="st1 st6 st7">a</text>
		<text transform="matrix(1 0 0 1 149.0079 526.6229)" class="st1 st6 st7">r</text>
		<text transform="matrix(1 0 0 1 156.4279 526.6229)" class="st1 st6 st7">e dry because the avocado</text>
		<text transform="matrix(1 0 0 1 137.528 551.6229)" class="st1 st6 st7">plantations have taken the</text>
		<text transform="matrix(1 0 0 1 137.528 576.6229)" class="st1 st6 st7">water</text>
		<text transform="matrix(1 0 0 1 191.5871 576.6229)" class="st5 st6 st7">”</text>
		<text transform="matrix(1 0 0 1 137.528 601.6229)" class="st5 st6 st7">Guillermo </text>
		<text transform="matrix(1 0 0 1 235.2072 601.6229)" class="st5 st6 st7 st9">T</text>
		<text transform="matrix(1 0 0 1 245.2072 601.6229)" class="st5 st6 st7">oledo</text>
	</g>
</g>
<g id="vrachtwagen_1_">
</g>
<g id="droge_rivier_1_">
</g>
<g id="Vrouw_1_">
	
		<image style="overflow:visible;enable-background:new    ;" width="1000" height="662" xlink:href="../images/vrouw-rivier.png"  transform="matrix(0.515 0 0 0.515 1382 516.6279)">
	</image>
	<rect x="1382" y="517" class="st4" width="390" height="341"/>
	<g id="_In_order_to_send_good_avocados_to_Europeans_we_end_up_drinking_water_with_shit_in_it._Veronica_Vilches_1_">
		<text transform="matrix(1 0 0 1 1397.746 548.827)" class="st10 st6 st7">“</text>
		<text transform="matrix(1 0 0 1 1407.006 548.827)" class="st1 st6 st7">In o</text>
		<text transform="matrix(1 0 0 1 1442.546 548.827)" class="st1 st6 st7">r</text>
		<text transform="matrix(1 0 0 1 1449.965 548.827)" class="st1 st6 st7">der to send good</text>
		<text transform="matrix(1 0 0 1 1397.746 573.827)" class="st1 st6 st7">avocados to Eu</text>
		<text transform="matrix(1 0 0 1 1545.184 573.827)" class="st1 st6 st7">r</text>
		<text transform="matrix(1 0 0 1 1552.6039 573.827)" class="st1 st6 st7">opeans, we</text>
		<text transform="matrix(1 0 0 1 1397.746 598.827)" class="st1 st6 st7">end up </text>
		<text transform="matrix(1 0 0 1 1457.9449 598.827)" class="st1 st6 st7 st11">​​</text>
		<text transform="matrix(1 0 0 1 1468.505 598.827)" class="st1 st6 st7">drinking water with</text>
		<text transform="matrix(1 0 0 1 1397.746 623.827)" class="st1 st6 st7">shit in it</text>
		<text transform="matrix(1 0 0 1 1472.8849 623.827)" class="st0 st6 st7">.</text>
		<text transform="matrix(1 0 0 1 1478.4449 623.827)" class="st12 st6 st7">”</text>
		<text transform="matrix(1 0 0 1 1397.746 648.827)" class="st10 st6 st7 st8">V</text>
		<text transform="matrix(1 0 0 1 1409.246 648.827)" class="st10 st6 st7">e</text>
		<text transform="matrix(1 0 0 1 1420.725 648.827)" class="st10 st6 st7">r</text>
		<text transform="matrix(1 0 0 1 1428.1459 648.827)" class="st10 st6 st7">onica </text>
		<text transform="matrix(1 0 0 1 1485.9049 648.827)" class="st10 st6 st7">V</text>
		<text transform="matrix(1 0 0 1 1498.1449 648.827)" class="st10 st6 st7">ilches</text>
	</g>
</g>
<path id="rivier_water_1_" class="st13" d="M1515,0c0.7,73.3,0.6,147.7,1.3,221c-2.4,25.9-10.2,63.7-37.9,96
	c-32.2,37.6-82.6,59.3-323,74c-55.1,3.4-121.1,6.5-195.7,8c-78.4,9.4-137.5,64.5-144.2,128c-6.2,58.9,35,110.2,75.8,134
	c27.3,16,63.5,17.4,134.7,22c27.2,1.8,49.8,2.1,65.2,2c19.5,2.3,84.4,12.4,136.9,65.4c68.6,69.2,61.2,156.5,59.8,170.2V1081h-209.5
	l0.1-109c-0.5-14.2-3.7-35.7-20-50c-23.1-20.2-56.3-15.6-86.3-14c-36.3,2-88.7-0.5-155.4-22c-28.5-9.7-55.2-23.9-79.3-42
	c-104.7-79.2-136-223.6-121-342c4-31.7,19-113.3,88.4-186c99.3-103.9,233.3-109.2,258.3-109.7l285.7-0.3c21.7-4.2,33-13,38.9-19
	c20.4-20.8,16.1-48.9,14.7-144c-0.3-18.7,0.6-34.7,0.5-43L1515,0z"/>
<path id="Streepje1_1_" class="st14" d="M1343.5,33L1343.5,33c6.4,0,11.5,5.1,11.5,11.5v76c0,6.4-5.1,11.5-11.5,11.5l0,0
	c-6.4,0-11.5-5.1-11.5-11.5v-76C1332,38.1,1337.1,33,1343.5,33z"/>
<path id="Streepje2_1_" class="st14" d="M1382.5,99L1382.5,99c6.4,0,11.5,5.1,11.5,11.5v76c0,6.4-5.1,11.5-11.5,11.5l0,0
	c-6.4,0-11.5-5.1-11.5-11.5v-76C1371,104.1,1376.1,99,1382.5,99z"/>
<path id="Streepje3_1_" class="st14" d="M1034.6,878.1c-2.1,2.3-3.1,5.3-2.8,8.3c0.2,3,1.6,5.9,3.9,7.9c27.7,2.9,50.6,22.9,57.2,50
	c2.3,2,5.3,3,8.3,2.8c3-0.3,5.8-1.7,7.9-3.9c4.3-4.9,2.5-11.4,2.4-11.9c-9.5-30.5-35.9-52.5-67.6-56.4
	C1043.5,874.9,1038.3,874.2,1034.6,878.1z"/>
<path id="Streepje4_1_" class="st14" d="M1130,362.5L1130,362.5c0,6.4-5.1,11.5-11.5,11.5h-76c-6.4,0-11.5-5.1-11.5-11.5l0,0
	c0-6.4,5.1-11.5,11.5-11.5h76C1124.9,351,1130,356.1,1130,362.5z"/>
<path id="Streepje5_1_" class="st14" d="M1059,306.5L1059,306.5c0,6.4-5.1,11.5-11.5,11.5h-76c-6.4,0-11.5-5.1-11.5-11.5l0,0
	c0-6.4,5.1-11.5,11.5-11.5h76C1053.9,295,1059,300.1,1059,306.5z"/>
<path id="Streepje6_1_" class="st14" d="M812.3,614.9c4.5-4.5,11.8-4.4,16.3,0.1c11.9,23,30.6,41.9,53.5,54c2.1,2.2,3.3,5.1,3.3,8.1
	c0,6.3-5.2,11.5-11.5,11.5c-3.1,0-6-1.2-8.1-3.4c-22.9-12.1-41.6-30.9-53.5-54C808.5,625.6,808.6,618.6,812.3,614.9z"/>
</svg>
