<svg id="Laag_1" data-name="Laag 1" xmlns="http://www.w3.org/2000/svg" xmlns:xlink="http://www.w3.org/1999/xlink" viewBox="0 0 1920 1081"><defs><style>.cls-1,.cls-13,.cls-4{fill:#033b2b;}.cls-13,.cls-14,.cls-17,.cls-2,.cls-3,.cls-5,.cls-6{isolation:isolate;}.cls-3{font-size:38px;font-family:Poppins-Bold, Poppins;}.cls-3,.cls-6{fill:#e7e7a9;}.cls-13,.cls-14,.cls-17,.cls-3,.cls-5,.cls-6{font-weight:700;}.cls-4{opacity:0.4;}.cls-13,.cls-14,.cls-17,.cls-5,.cls-6{font-size:20px;font-family:HelveticaNeue-Bold, Helvetica Neue;}.cls-5{fill:#f53d04;}.cls-7{letter-spacing:-0.018em;}.cls-8{letter-spacing:-0.092em;}.cls-9{letter-spacing:-0.018em;}.cls-10{letter-spacing:0em;}.cls-11{letter-spacing:-0.111em;}.cls-12{letter-spacing:-0.074em;}.cls-14{fill:#ed3b04;}.cls-15{letter-spacing:0em;}.cls-16{letter-spacing:-0.278em;}.cls-17{fill:#ee3b04;}.cls-18{letter-spacing:-0.055em;}.cls-19{fill:#b0dffc;}.cls-20{fill:#529cc1;}</style></defs><rect id="Achtergrond" class="cls-1" width="1920" height="1080"/><g id="Tekst" class="cls-2"><text class="cls-3" transform="translate(47.593 95.458)">Nadat de avocadoplantages naar </text><text class="cls-3" transform="translate(47.593 132.458)">Petorca verhuisden, droogde</text><text class="cls-3" transform="translate(47.593 169.458)">de rivier La Ligua op</text></g><g id="Man"><image width="683" height="1024" transform="translate(45 307) scale(0.714)" xlink:href="../Desktop/20160501danwatch0225_01-683x1024.png"/><rect class="cls-4" x="110" y="307" width="423" height="607"/><g id="_When_I_was_a_young_man_the_rivers_were_full_of_water._Then_the_big_avocado_plantations_arrived_on_the_mountainsides_which_are_not_at_all_suitable_for_avocado_farming._They_dug_deep_wells._Today_the_rivers_are_dry_because_the_avocado_plantations_have_ta" data-name=" When I was a young man the rivers were full of water. Then the big avocado plantations arrived on the mountainsides which are not at all suitable for avocado farming. They dug deep wells. Today the rivers are dry because the avocado plantations have ta" class="cls-2"><text class="cls-5" transform="translate(137.528 351.621)">“</text><text class="cls-6" transform="translate(146.788 351.621)">When I was a young man, the </text><text class="cls-6" transform="translate(137.528 376.621)">rivers we<tspan class="cls-7" x="86.659" y="0">r</tspan><tspan x="94.079" y="0">e full of wate</tspan><tspan class="cls-8" x="216.237" y="0">r</tspan><tspan x="222.177" y="0">. Then </tspan></text><text class="cls-6" transform="translate(137.528 401.621)">the big avocado plantations </text><text class="cls-6" transform="translate(137.528 426.621)">arrived on the mountainsides, </text><text class="cls-6" transform="translate(137.528 451.621)">which a<tspan class="cls-9" x="73.679" y="0">r</tspan><tspan class="cls-10" x="81.099" y="0">e not at all suitable </tspan></text><text class="cls-6" transform="translate(137.528 476.621)">for avocado farming. They dug </text><text class="cls-6" transform="translate(137.528 501.621)">deep wells. <tspan class="cls-11" x="112.898" y="0">T</tspan><tspan x="122.898" y="0">oda</tspan><tspan class="cls-12" x="158.818" y="0">y</tspan><tspan x="167.718" y="0">, the rivers </tspan></text><text class="cls-6" transform="translate(137.528 526.621)">a<tspan class="cls-7" x="11.48" y="0">r</tspan><tspan x="18.9" y="0">e dry because the avocado </tspan></text><text class="cls-6" transform="translate(137.528 551.621)">plantations have taken the </text><text class="cls-6" transform="translate(137.528 576.621)">water</text><text class="cls-5" transform="translate(191.587 576.621)">”</text><text class="cls-13" transform="translate(200.847 576.621)"> </text><text class="cls-5" transform="translate(137.528 601.621)">Guillermo <tspan class="cls-11" x="97.679" y="0">T</tspan><tspan x="107.679" y="0">oledo</tspan></text></g></g><g id="Vrouw"><image width="1000" height="662" transform="translate(1382 516.626) scale(0.515)" xlink:href="../Desktop/veronica-vilches-amnistia-internacional.png"/><rect class="cls-4" x="1382" y="517" width="390" height="341"/><g id="_In_order_to_send_good_avocados_to_Europeans_we_end_up_drinking_water_with_shit_in_it._Veronica_Vilches" data-name=" In order to send good avocados to Europeans we end up drinking water with shit in it. Veronica Vilches" class="cls-2"><text class="cls-14" transform="translate(1397.746 548.825)">“</text><text class="cls-6" transform="translate(1407.006 548.825)">In o<tspan class="cls-7" x="35.54" y="0">r</tspan><tspan class="cls-15" x="42.959" y="0">der to send good </tspan></text><text class="cls-6" transform="translate(1397.746 573.825)">avocados to Eu<tspan class="cls-9" x="147.438" y="0">r</tspan><tspan x="154.858" y="0">opeans, we </tspan></text><text class="cls-6" transform="translate(1397.746 598.825)">end up <tspan class="cls-16" x="70.759" y="0">​​</tspan><tspan class="cls-15" x="70.759" y="0">drinking water with </tspan></text><text class="cls-6" transform="translate(1397.746 623.825)">shit in it</text><text class="cls-13" transform="translate(1472.885 623.825)">.</text><text class="cls-17" transform="translate(1478.445 623.825)">”</text><text class="cls-14" transform="translate(1397.746 648.825)"><tspan class="cls-18">V</tspan><tspan class="cls-10" x="11.5" y="0">e</tspan><tspan class="cls-9" x="22.979" y="0">r</tspan><tspan x="30.4" y="0">onica </tspan><tspan class="cls-9" x="88.159" y="0">V</tspan><tspan x="100.399" y="0">ilches</tspan></text></g></g><path id="Rivier" class="cls-19" d="M1514.232,1q1.053,110,2.105,220c-2.38,25.893-10.179,63.672-37.879,96-32.223,37.606-82.645,59.269-323.023,74-55.149,3.38-121.053,6.465-195.708,8-78.371,9.432-137.5,64.507-144.151,128-6.168,58.87,35.042,110.169,75.758,134,27.333,16,63.48,17.414,134.681,22,27.18,1.75,49.757,2.051,65.236,2,19.484,2.33,84.448,12.447,136.927,65.432,68.57,69.232,61.214,156.514,59.822,170.172V1081H1078.49l.135-109c-.458-14.159-3.684-35.732-19.992-50-23.075-20.188-56.32-15.641-86.28-14-36.295,1.988-88.684-.5-155.353-22a285.555,285.555,0,0,1-79.286-42C633,764.8,601.7,620.367,616.712,502c4.016-31.668,18.971-113.338,88.384-186,99.3-103.948,233.343-109.158,258.259-109.693L1249.08,206c21.7-4.22,32.99-12.957,38.931-19,20.422-20.772,16.112-48.894,14.731-144-.273-18.722-.339-33.7-.359-42Z"/><rect class="cls-20" x="1332" y="33" width="23" height="99" rx="11.5"/><rect id="Streepje2" class="cls-20" x="1371" y="99" width="23" height="99" rx="11.5"/><path id="Streepje3" class="cls-20" d="M1034.646,878.089a10.992,10.992,0,0,0-2.8,8.339,11.465,11.465,0,0,0,3.895,7.887,65.952,65.952,0,0,1,57.242,49.994,11.821,11.821,0,0,0,8.339,2.8,12.06,12.06,0,0,0,7.887-3.895c4.34-4.9,2.519-11.416,2.388-11.855a81.087,81.087,0,0,0-67.6-56.381C1043.472,874.9,1038.307,874.246,1034.646,878.089Z"/><rect id="Streepje4" class="cls-20" x="1069" y="313" width="23" height="99" rx="11.5" transform="translate(1443 -718) rotate(90)"/><rect id="Streepje5" class="cls-20" x="998" y="257" width="23" height="99" rx="11.5" transform="translate(1316 -703) rotate(90)"/><path id="Streepje6" class="cls-20" d="M812.335,614.932a11.533,11.533,0,0,1,16.263.078,127.2,127.2,0,0,0,53.483,54,11.779,11.779,0,0,1,3.316,8.147,11.487,11.487,0,0,1-19.657,8.038,126.536,126.536,0,0,1-53.483-54C808.475,625.552,808.616,618.616,812.335,614.932Z"/></svg>