<svg id="Laag_1" data-name="Laag 1" xmlns="http://www.w3.org/2000/svg" xmlns:xlink="http://www.w3.org/1999/xlink" viewBox="0 0 1920 1080"><defs><style>.cls-1{fill:#e7e7a9;}.cls-2,.cls-5{font-size:34.953px;font-family:Poppins-Bold, Poppins;font-weight:700;}.cls-2{fill:#033b2b;}.cls-3,.cls-5{fill:#f53d04;}.cls-4{letter-spacing:0em;}</style><image id="image" width="322" height="456" xlink:href="Hele%20avocado.png"/></defs><rect class="cls-1" width="1920" height="1080"/><use transform="translate(759.21 763) rotate(5.973) scale(0.342)" xlink:href="#image"/><use transform="translate(1726.21 763) rotate(5.973) scale(0.342)" xlink:href="#image"/><use transform="translate(1613.21 763) rotate(5.973) scale(0.342)" xlink:href="#image"/><use transform="translate(1501.21 763) rotate(5.973) scale(0.342)" xlink:href="#image"/><use transform="translate(1394.21 763) rotate(5.973) scale(0.342)" xlink:href="#image"/><use transform="translate(1286.21 763) rotate(5.973) scale(0.342)" xlink:href="#image"/><use transform="translate(1188.21 763) rotate(5.973) scale(0.342)" xlink:href="#image"/><use transform="translate(1091.21 763) rotate(5.973) scale(0.342)" xlink:href="#image"/><use transform="translate(992.21 763) rotate(5.973) scale(0.342)" xlink:href="#image"/><g id="Tekst"><text class="cls-2" transform="translate(44.134 75.401)">Maarliefst<tspan class="cls-3" x="182.943" y="0" xml:space="preserve"> 2,5 miljoen kilo</tspan><tspan class="cls-4" x="457.638" y="0" xml:space="preserve"> avocados </tspan><tspan x="0" y="41.944">worden wekelijks weggegooid </tspan></text></g><use transform="translate(875.091 762) rotate(7.039) scale(0.342)" xlink:href="#image"/><use transform="translate(1540 959) scale(0.224)" xlink:href="#image"/><text class="cls-5" transform="translate(1619.684 1021.765)">= 200.000 kilo </text><use transform="translate(768.21 631) rotate(5.973) scale(0.342)" xlink:href="#image"/><use transform="translate(1735.21 631) rotate(5.973) scale(0.342)" xlink:href="#image"/><use transform="translate(1622.21 631) rotate(5.973) scale(0.342)" xlink:href="#image"/><use transform="translate(1510.21 631) rotate(5.973) scale(0.342)" xlink:href="#image"/><use transform="translate(1403.21 631) rotate(5.973) scale(0.342)" xlink:href="#image"/><use transform="translate(1295.21 631) rotate(5.973) scale(0.342)" xlink:href="#image"/><use transform="translate(1197.21 631) rotate(5.973) scale(0.342)" xlink:href="#image"/><use transform="translate(1100.21 631) rotate(5.973) scale(0.342)" xlink:href="#image"/><use transform="translate(1001.21 631) rotate(5.973) scale(0.342)" xlink:href="#image"/><use transform="translate(884.091 630) rotate(7.039) scale(0.342)" xlink:href="#image"/><use transform="translate(768.21 484) rotate(5.973) scale(0.342)" xlink:href="#image"/><use transform="translate(1735.21 484) rotate(5.973) scale(0.342)" xlink:href="#image"/><use transform="translate(1622.21 484) rotate(5.973) scale(0.342)" xlink:href="#image"/><use transform="translate(1510.21 484) rotate(5.973) scale(0.342)" xlink:href="#image"/><use transform="translate(1403.21 484) rotate(5.973) scale(0.342)" xlink:href="#image"/><use transform="translate(1295.21 484) rotate(5.973) scale(0.342)" xlink:href="#image"/><use transform="translate(1197.21 484) rotate(5.973) scale(0.342)" xlink:href="#image"/><use transform="translate(1100.21 484) rotate(5.973) scale(0.342)" xlink:href="#image"/><use transform="translate(1001.21 484) rotate(5.973) scale(0.342)" xlink:href="#image"/><use transform="translate(884.091 483) rotate(7.039) scale(0.342)" xlink:href="#image"/><use transform="translate(768.21 332) rotate(5.973) scale(0.342)" xlink:href="#image"/><use transform="translate(1735.21 332) rotate(5.973) scale(0.342)" xlink:href="#image"/><use transform="translate(1622.21 332) rotate(5.973) scale(0.342)" xlink:href="#image"/><use transform="translate(1510.21 332) rotate(5.973) scale(0.342)" xlink:href="#image"/><use transform="translate(1403.21 332) rotate(5.973) scale(0.342)" xlink:href="#image"/><use transform="translate(1295.21 332) rotate(5.973) scale(0.342)" xlink:href="#image"/><use transform="translate(1197.21 332) rotate(5.973) scale(0.342)" xlink:href="#image"/><use transform="translate(1100.21 332) rotate(5.973) scale(0.342)" xlink:href="#image"/><use transform="translate(1001.21 332) rotate(5.973) scale(0.342)" xlink:href="#image"/><use transform="translate(884.091 331) rotate(7.039) scale(0.342)" xlink:href="#image"/><use transform="translate(768.21 179) rotate(5.973) scale(0.342)" xlink:href="#image"/><use transform="translate(1735.21 179) rotate(5.973) scale(0.342)" xlink:href="#image"/><use transform="translate(1622.21 179) rotate(5.973) scale(0.342)" xlink:href="#image"/><use transform="translate(1510.21 179) rotate(5.973) scale(0.342)" xlink:href="#image"/><use transform="translate(1403.21 179) rotate(5.973) scale(0.342)" xlink:href="#image"/><use transform="translate(1295.21 179) rotate(5.973) scale(0.342)" xlink:href="#image"/><use transform="translate(1197.21 179) rotate(5.973) scale(0.342)" xlink:href="#image"/><use transform="translate(1100.21 179) rotate(5.973) scale(0.342)" xlink:href="#image"/><use transform="translate(1001.21 179) rotate(5.973) scale(0.342)" xlink:href="#image"/><use transform="translate(884.091 178) rotate(7.039) scale(0.342)" xlink:href="#image"/><use transform="translate(768.21 26) rotate(5.973) scale(0.342)" xlink:href="#image"/><use transform="translate(1735.21 26) rotate(5.973) scale(0.342)" xlink:href="#image"/><use transform="translate(1622.21 26) rotate(5.973) scale(0.342)" xlink:href="#image"/><use transform="translate(1510.21 26) rotate(5.973) scale(0.342)" xlink:href="#image"/><use transform="translate(1403.21 26) rotate(5.973) scale(0.342)" xlink:href="#image"/><use transform="translate(1295.21 26) rotate(5.973) scale(0.342)" xlink:href="#image"/><use transform="translate(1197.21 26) rotate(5.973) scale(0.342)" xlink:href="#image"/><use transform="translate(1100.21 26) rotate(5.973) scale(0.342)" xlink:href="#image"/><use transform="translate(1001.21 26) rotate(5.973) scale(0.342)" xlink:href="#image"/><use transform="translate(884.091 25) rotate(7.039) scale(0.342)" xlink:href="#image"/><image id="prullenbak" width="1414" height="2000" transform="translate(-171 66) scale(0.697)" xlink:href="trash.png"/></svg>