<?xml version="1.0" encoding="utf-8"?>
<!-- Generator: Adobe Illustrator 24.1.2, SVG Export Plug-In . SVG Version: 6.00 Build 0)  -->
<svg version="1.1" id="Laag_1" xmlns="http://www.w3.org/2000/svg" xmlns:xlink="http://www.w3.org/1999/xlink" x="0px" y="0px"
	 viewBox="0 0 1920 1080" style="enable-background:new 0 0 1920 1080;" xml:space="preserve">
<style type="text/css">
	.st0{fill:#E7E7A9;}
	.st1{fill:#033B2B;}
	.st2{font-family:'Poppins-Bold';}
	.st3{font-size:34.953px;}
	.st4{fill:#F53D04;}
</style>
<rect class="st0" width="1920" height="1080"/>
<image style="overflow:visible;" width="694" height="1367" xlink:href="../images/prullenbak2.png"  transform="matrix(-0.4349 0 0 0.4349 551.1836 295.9868)">
</image>
<g id="Tekst">
	<text transform="matrix(1 0 0 1 44.134 75.401)" class="st1 st2 st3">Maarliefst</text>
	<text transform="matrix(1 0 0 1 227.077 75.401)" class="st4 st2 st3"> 2,5 miljoen kilo</text>
	<text transform="matrix(1 0 0 1 501.772 75.401)" class="st1 st2 st3"> avocados </text>
	<text transform="matrix(1 0 0 1 44.134 117.345)" class="st1 st2 st3">worden wekelijks weggegooid</text>
</g>
<g id="legenda" transform="translate(1540 959) scale(0.224)">
	<text transform="matrix(1 0 0 1 117.1732 201.1559)" class="st4 st2 st3">= 200.000 kilo</text>
	
		<image style="overflow:visible;enable-background:new    ;" width="322" height="456" id="image_11_" xlink:href="../images/avocado.png"  transform="matrix(0.1827 0 0 0.1827 44.134 147.8008)">
	</image>
</g>
<g id="naar_x5F_prullenbak">
	<g transform="translate(759.21 763) rotate(5.973) scale(0.342)">
		
			<image style="overflow:visible;enable-background:new    ;" width="322" height="456" id="image" xlink:href="../images/avocado.png"  transform="matrix(0.2775 2.903135e-02 -2.903135e-02 0.2775 767.805 778.3446)">
		</image>
	</g>
	<g transform="translate(1091.21 763) rotate(5.973) scale(0.342)">
		
			<image style="overflow:visible;enable-background:new    ;" width="322" height="456" id="image_8_" xlink:href="../images/avocado.png"  transform="matrix(0.2775 2.903135e-02 -2.903135e-02 0.2775 1091.5798 778.3446)">
		</image>
	</g>
	<g transform="translate(992.21 763) rotate(5.973) scale(0.342)">
		
			<image style="overflow:visible;enable-background:new    ;" width="322" height="456" id="image_9_" xlink:href="../images/avocado.png"  transform="matrix(0.2775 2.903135e-02 -2.903135e-02 0.2775 984.3756 778.3446)">
		</image>
	</g>
	<g transform="translate(875.091 762) rotate(7.039) scale(0.342)">
		
			<image style="overflow:visible;enable-background:new    ;" width="322" height="456" id="image_10_" xlink:href="../images/avocado.png"  transform="matrix(0.2769 3.418847e-02 -3.418847e-02 0.2769 877.3608 777.5018)">
		</image>
	</g>
	<g transform="translate(768.21 631) rotate(5.973) scale(0.342)">
		
			<image style="overflow:visible;enable-background:new    ;" width="322" height="456" id="image_12_" xlink:href="../images/avocado.png"  transform="matrix(0.2775 2.903135e-02 -2.903135e-02 0.2775 776.805 630.9446)">
		</image>
	</g>
	<g transform="translate(1100.21 631) rotate(5.973) scale(0.342)">
		
			<image style="overflow:visible;enable-background:new    ;" width="322" height="456" id="image_19_" xlink:href="../images/avocado.png"  transform="matrix(0.2775 2.903135e-02 -2.903135e-02 0.2775 1100.5798 630.9446)">
		</image>
	</g>
	<g transform="translate(1001.21 631) rotate(5.973) scale(0.342)">
		
			<image style="overflow:visible;enable-background:new    ;" width="322" height="456" id="image_20_" xlink:href="../images/avocado.png"  transform="matrix(0.2775 2.903135e-02 -2.903135e-02 0.2775 993.3756 630.9446)">
		</image>
	</g>
	<g transform="translate(884.091 630) rotate(7.039) scale(0.342)">
		
			<image style="overflow:visible;enable-background:new    ;" width="322" height="456" id="image_21_" xlink:href="../images/avocado.png"  transform="matrix(0.2769 3.418847e-02 -3.418847e-02 0.2769 886.3608 630.1019)">
		</image>
	</g>
	<g transform="translate(768.21 484) rotate(5.973) scale(0.342)">
		
			<image style="overflow:visible;enable-background:new    ;" width="322" height="456" id="image_22_" xlink:href="../images/avocado.png"  transform="matrix(0.2775 2.903135e-02 -2.903135e-02 0.2775 776.805 483.5446)">
		</image>
	</g>
	<g transform="translate(1100.21 484) rotate(5.973) scale(0.342)">
		
			<image style="overflow:visible;enable-background:new    ;" width="322" height="456" id="image_29_" xlink:href="../images/avocado.png"  transform="matrix(0.2775 2.903135e-02 -2.903135e-02 0.2775 1100.5798 483.5446)">
		</image>
	</g>
	<g transform="translate(1001.21 484) rotate(5.973) scale(0.342)">
		
			<image style="overflow:visible;enable-background:new    ;" width="322" height="456" id="image_30_" xlink:href="../images/avocado.png"  transform="matrix(0.2775 2.903135e-02 -2.903135e-02 0.2775 993.3756 483.5446)">
		</image>
	</g>
	<g transform="translate(884.091 483) rotate(7.039) scale(0.342)">
		
			<image style="overflow:visible;enable-background:new    ;" width="322" height="456" id="image_31_" xlink:href="../images/avocado.png"  transform="matrix(0.2769 3.418847e-02 -3.418847e-02 0.2769 886.3608 482.7018)">
		</image>
	</g>
</g>
<g id="overige_x5F_avocados">
	<g transform="translate(1726.21 763) rotate(5.973) scale(0.342)">
		
			<image style="overflow:visible;enable-background:new    ;" width="322" height="456" id="image_2_" xlink:href="../images/avocado.png"  transform="matrix(0.2775 2.903135e-02 -2.903135e-02 0.2775 1734.8049 778.3446)">
		</image>
	</g>
	<g transform="translate(1613.21 763) rotate(5.973) scale(0.342)">
		
			<image style="overflow:visible;enable-background:new    ;" width="322" height="456" id="image_3_" xlink:href="../images/avocado.png"  transform="matrix(0.2775 2.903135e-02 -2.903135e-02 0.2775 1627.6007 778.3446)">
		</image>
	</g>
	<g transform="translate(1501.21 763) rotate(5.973) scale(0.342)">
		
			<image style="overflow:visible;enable-background:new    ;" width="322" height="456" id="image_4_" xlink:href="../images/avocado.png"  transform="matrix(0.2775 2.903135e-02 -2.903135e-02 0.2775 1520.3966 778.3446)">
		</image>
	</g>
	<g transform="translate(1394.21 763) rotate(5.973) scale(0.342)">
		
			<image style="overflow:visible;enable-background:new    ;" width="322" height="456" id="image_5_" xlink:href="../images/avocado.png"  transform="matrix(0.2775 2.903135e-02 -2.903135e-02 0.2775 1413.1924 778.3446)">
		</image>
	</g>
	<g transform="translate(1286.21 763) rotate(5.973) scale(0.342)">
		
			<image style="overflow:visible;enable-background:new    ;" width="322" height="456" id="image_6_" xlink:href="../images/avocado.png"  transform="matrix(0.2775 2.903135e-02 -2.903135e-02 0.2775 1305.9882 778.3446)">
		</image>
	</g>
	<g transform="translate(1188.21 763) rotate(5.973) scale(0.342)">
		
			<image style="overflow:visible;enable-background:new    ;" width="322" height="456" id="image_7_" xlink:href="../images/avocado.png"  transform="matrix(0.2775 2.903135e-02 -2.903135e-02 0.2775 1198.7839 778.3446)">
		</image>
	</g>
	<g transform="translate(1735.21 631) rotate(5.973) scale(0.342)">
		
			<image style="overflow:visible;enable-background:new    ;" width="322" height="456" id="image_13_" xlink:href="../images/avocado.png"  transform="matrix(0.2775 2.903135e-02 -2.903135e-02 0.2775 1743.8049 630.9446)">
		</image>
	</g>
	<g transform="translate(1622.21 631) rotate(5.973) scale(0.342)">
		
			<image style="overflow:visible;enable-background:new    ;" width="322" height="456" id="image_14_" xlink:href="../images/avocado.png"  transform="matrix(0.2775 2.903135e-02 -2.903135e-02 0.2775 1636.6007 630.9446)">
		</image>
	</g>
	<g transform="translate(1510.21 631) rotate(5.973) scale(0.342)">
		
			<image style="overflow:visible;enable-background:new    ;" width="322" height="456" id="image_15_" xlink:href="../images/avocado.png"  transform="matrix(0.2775 2.903135e-02 -2.903135e-02 0.2775 1529.3966 630.9446)">
		</image>
	</g>
	<g transform="translate(1403.21 631) rotate(5.973) scale(0.342)">
		
			<image style="overflow:visible;enable-background:new    ;" width="322" height="456" id="image_16_" xlink:href="../images/avocado.png"  transform="matrix(0.2775 2.903135e-02 -2.903135e-02 0.2775 1422.1924 630.9446)">
		</image>
	</g>
	<g transform="translate(1295.21 631) rotate(5.973) scale(0.342)">
		
			<image style="overflow:visible;enable-background:new    ;" width="322" height="456" id="image_17_" xlink:href="../images/avocado.png"  transform="matrix(0.2775 2.903135e-02 -2.903135e-02 0.2775 1314.9882 630.9446)">
		</image>
	</g>
	<g transform="translate(1197.21 631) rotate(5.973) scale(0.342)">
		
			<image style="overflow:visible;enable-background:new    ;" width="322" height="456" id="image_18_" xlink:href="../images/avocado.png"  transform="matrix(0.2775 2.903135e-02 -2.903135e-02 0.2775 1207.7839 630.9446)">
		</image>
	</g>
	<g transform="translate(1735.21 484) rotate(5.973) scale(0.342)">
		
			<image style="overflow:visible;enable-background:new    ;" width="322" height="456" id="image_23_" xlink:href="../images/avocado.png"  transform="matrix(0.2775 2.903135e-02 -2.903135e-02 0.2775 1743.8049 483.5446)">
		</image>
	</g>
	<g transform="translate(1622.21 484) rotate(5.973) scale(0.342)">
		
			<image style="overflow:visible;enable-background:new    ;" width="322" height="456" id="image_24_" xlink:href="../images/avocado.png"  transform="matrix(0.2775 2.903135e-02 -2.903135e-02 0.2775 1636.6007 483.5446)">
		</image>
	</g>
	<g transform="translate(1510.21 484) rotate(5.973) scale(0.342)">
		
			<image style="overflow:visible;enable-background:new    ;" width="322" height="456" id="image_25_" xlink:href="../images/avocado.png"  transform="matrix(0.2775 2.903135e-02 -2.903135e-02 0.2775 1529.3966 483.5446)">
		</image>
	</g>
	<g transform="translate(1403.21 484) rotate(5.973) scale(0.342)">
		
			<image style="overflow:visible;enable-background:new    ;" width="322" height="456" id="image_26_" xlink:href="../images/avocado.png"  transform="matrix(0.2775 2.903135e-02 -2.903135e-02 0.2775 1422.1924 483.5446)">
		</image>
	</g>
	<g transform="translate(1295.21 484) rotate(5.973) scale(0.342)">
		
			<image style="overflow:visible;enable-background:new    ;" width="322" height="456" id="image_27_" xlink:href="../images/avocado.png"  transform="matrix(0.2775 2.903135e-02 -2.903135e-02 0.2775 1314.9882 483.5446)">
		</image>
	</g>
	<g transform="translate(1197.21 484) rotate(5.973) scale(0.342)">
		
			<image style="overflow:visible;enable-background:new    ;" width="322" height="456" id="image_28_" xlink:href="../images/avocado.png"  transform="matrix(0.2775 2.903135e-02 -2.903135e-02 0.2775 1207.7839 483.5446)">
		</image>
	</g>
	<g transform="translate(768.21 332) rotate(5.973) scale(0.342)">
		
			<image style="overflow:visible;enable-background:new    ;" width="322" height="456" id="image_32_" xlink:href="../images/avocado.png"  transform="matrix(0.2775 2.903135e-02 -2.903135e-02 0.2775 776.805 336.1446)">
		</image>
	</g>
	<g transform="translate(1735.21 332) rotate(5.973) scale(0.342)">
		
			<image style="overflow:visible;enable-background:new    ;" width="322" height="456" id="image_33_" xlink:href="../images/avocado.png"  transform="matrix(0.2775 2.903135e-02 -2.903135e-02 0.2775 1743.8049 336.1446)">
		</image>
	</g>
	<g transform="translate(1622.21 332) rotate(5.973) scale(0.342)">
		
			<image style="overflow:visible;enable-background:new    ;" width="322" height="456" id="image_34_" xlink:href="../images/avocado.png"  transform="matrix(0.2775 2.903135e-02 -2.903135e-02 0.2775 1636.6007 336.1446)">
		</image>
	</g>
	<g transform="translate(1510.21 332) rotate(5.973) scale(0.342)">
		
			<image style="overflow:visible;enable-background:new    ;" width="322" height="456" id="image_35_" xlink:href="../images/avocado.png"  transform="matrix(0.2775 2.903135e-02 -2.903135e-02 0.2775 1529.3966 336.1446)">
		</image>
	</g>
	<g transform="translate(1403.21 332) rotate(5.973) scale(0.342)">
		
			<image style="overflow:visible;enable-background:new    ;" width="322" height="456" id="image_36_" xlink:href="../images/avocado.png"  transform="matrix(0.2775 2.903135e-02 -2.903135e-02 0.2775 1422.1924 336.1446)">
		</image>
	</g>
	<g transform="translate(1295.21 332) rotate(5.973) scale(0.342)">
		
			<image style="overflow:visible;enable-background:new    ;" width="322" height="456" id="image_37_" xlink:href="../images/avocado.png"  transform="matrix(0.2775 2.903135e-02 -2.903135e-02 0.2775 1314.9882 336.1446)">
		</image>
	</g>
	<g transform="translate(1197.21 332) rotate(5.973) scale(0.342)">
		
			<image style="overflow:visible;enable-background:new    ;" width="322" height="456" id="image_38_" xlink:href="../images/avocado.png"  transform="matrix(0.2775 2.903135e-02 -2.903135e-02 0.2775 1207.7839 336.1446)">
		</image>
	</g>
	<g transform="translate(1100.21 332) rotate(5.973) scale(0.342)">
		
			<image style="overflow:visible;enable-background:new    ;" width="322" height="456" id="image_39_" xlink:href="../images/avocado.png"  transform="matrix(0.2775 2.903135e-02 -2.903135e-02 0.2775 1100.5798 336.1446)">
		</image>
	</g>
	<g transform="translate(1001.21 332) rotate(5.973) scale(0.342)">
		
			<image style="overflow:visible;enable-background:new    ;" width="322" height="456" id="image_40_" xlink:href="../images/avocado.png"  transform="matrix(0.2775 2.903135e-02 -2.903135e-02 0.2775 993.3756 336.1446)">
		</image>
	</g>
	<g transform="translate(884.091 331) rotate(7.039) scale(0.342)">
		
			<image style="overflow:visible;enable-background:new    ;" width="322" height="456" id="image_41_" xlink:href="../images/avocado.png"  transform="matrix(0.2769 3.418847e-02 -3.418847e-02 0.2769 886.3608 335.3018)">
		</image>
	</g>
	<g transform="translate(768.21 179) rotate(5.973) scale(0.342)">
		
			<image style="overflow:visible;enable-background:new    ;" width="322" height="456" id="image_42_" xlink:href="../images/avocado.png"  transform="matrix(0.2775 2.903135e-02 -2.903135e-02 0.2775 776.805 188.7446)">
		</image>
	</g>
	<g transform="translate(1735.21 179) rotate(5.973) scale(0.342)">
		
			<image style="overflow:visible;enable-background:new    ;" width="322" height="456" id="image_43_" xlink:href="../images/avocado.png"  transform="matrix(0.2775 2.903135e-02 -2.903135e-02 0.2775 1743.8049 188.7446)">
		</image>
	</g>
	<g transform="translate(1622.21 179) rotate(5.973) scale(0.342)">
		
			<image style="overflow:visible;enable-background:new    ;" width="322" height="456" id="image_44_" xlink:href="../images/avocado.png"  transform="matrix(0.2775 2.903135e-02 -2.903135e-02 0.2775 1636.6007 188.7446)">
		</image>
	</g>
	<g transform="translate(1510.21 179) rotate(5.973) scale(0.342)">
		
			<image style="overflow:visible;enable-background:new    ;" width="322" height="456" id="image_45_" xlink:href="../images/avocado.png"  transform="matrix(0.2775 2.903135e-02 -2.903135e-02 0.2775 1529.3966 188.7446)">
		</image>
	</g>
	<g transform="translate(1403.21 179) rotate(5.973) scale(0.342)">
		
			<image style="overflow:visible;enable-background:new    ;" width="322" height="456" id="image_46_" xlink:href="../images/avocado.png"  transform="matrix(0.2775 2.903135e-02 -2.903135e-02 0.2775 1422.1924 188.7446)">
		</image>
	</g>
	<g transform="translate(1295.21 179) rotate(5.973) scale(0.342)">
		
			<image style="overflow:visible;enable-background:new    ;" width="322" height="456" id="image_47_" xlink:href="../images/avocado.png"  transform="matrix(0.2775 2.903135e-02 -2.903135e-02 0.2775 1314.9882 188.7446)">
		</image>
	</g>
	<g transform="translate(1197.21 179) rotate(5.973) scale(0.342)">
		
			<image style="overflow:visible;enable-background:new    ;" width="322" height="456" id="image_48_" xlink:href="../images/avocado.png"  transform="matrix(0.2775 2.903135e-02 -2.903135e-02 0.2775 1207.7839 188.7446)">
		</image>
	</g>
	<g transform="translate(1100.21 179) rotate(5.973) scale(0.342)">
		
			<image style="overflow:visible;enable-background:new    ;" width="322" height="456" id="image_49_" xlink:href="../images/avocado.png"  transform="matrix(0.2775 2.903135e-02 -2.903135e-02 0.2775 1100.5798 188.7446)">
		</image>
	</g>
	<g transform="translate(1001.21 179) rotate(5.973) scale(0.342)">
		
			<image style="overflow:visible;enable-background:new    ;" width="322" height="456" id="image_50_" xlink:href="../images/avocado.png"  transform="matrix(0.2775 2.903135e-02 -2.903135e-02 0.2775 993.3756 188.7446)">
		</image>
	</g>
	<g transform="translate(884.091 178) rotate(7.039) scale(0.342)">
		
			<image style="overflow:visible;enable-background:new    ;" width="322" height="456" id="image_51_" xlink:href="../images/avocado.png"  transform="matrix(0.2769 3.418847e-02 -3.418847e-02 0.2769 886.3608 187.9019)">
		</image>
	</g>
	<g transform="translate(768.21 26) rotate(5.973) scale(0.342)">
		
			<image style="overflow:visible;enable-background:new    ;" width="322" height="456" id="image_52_" xlink:href="../images/avocado.png"  transform="matrix(0.2775 2.903135e-02 -2.903135e-02 0.2775 776.805 41.3446)">
		</image>
	</g>
	<g transform="translate(1735.21 26) rotate(5.973) scale(0.342)">
		
			<image style="overflow:visible;enable-background:new    ;" width="322" height="456" id="image_53_" xlink:href="../images/avocado.png"  transform="matrix(0.2775 2.903135e-02 -2.903135e-02 0.2775 1743.8049 41.3446)">
		</image>
	</g>
	<g transform="translate(1622.21 26) rotate(5.973) scale(0.342)">
		
			<image style="overflow:visible;enable-background:new    ;" width="322" height="456" id="image_54_" xlink:href="../images/avocado.png"  transform="matrix(0.2775 2.903135e-02 -2.903135e-02 0.2775 1636.6007 41.3446)">
		</image>
	</g>
	<g transform="translate(1510.21 26) rotate(5.973) scale(0.342)">
		
			<image style="overflow:visible;enable-background:new    ;" width="322" height="456" id="image_55_" xlink:href="../images/avocado.png"  transform="matrix(0.2775 2.903135e-02 -2.903135e-02 0.2775 1529.3966 41.3446)">
		</image>
	</g>
	<g transform="translate(1403.21 26) rotate(5.973) scale(0.342)">
		
			<image style="overflow:visible;enable-background:new    ;" width="322" height="456" id="image_56_" xlink:href="../images/avocado.png"  transform="matrix(0.2775 2.903135e-02 -2.903135e-02 0.2775 1422.1924 41.3446)">
		</image>
	</g>
	<g transform="translate(1295.21 26) rotate(5.973) scale(0.342)">
		
			<image style="overflow:visible;enable-background:new    ;" width="322" height="456" id="image_57_" xlink:href="../images/avocado.png"  transform="matrix(0.2775 2.903135e-02 -2.903135e-02 0.2775 1314.9882 41.3446)">
		</image>
	</g>
	<g transform="translate(1197.21 26) rotate(5.973) scale(0.342)">
		
			<image style="overflow:visible;enable-background:new    ;" width="322" height="456" id="image_58_" xlink:href="../images/avocado.png"  transform="matrix(0.2775 2.903135e-02 -2.903135e-02 0.2775 1207.7839 41.3446)">
		</image>
	</g>
	<g transform="translate(1100.21 26) rotate(5.973) scale(0.342)">
		
			<image style="overflow:visible;enable-background:new    ;" width="322" height="456" id="image_59_" xlink:href="../images/avocado.png"  transform="matrix(0.2775 2.903135e-02 -2.903135e-02 0.2775 1100.5798 41.3446)">
		</image>
	</g>
	<g transform="translate(1001.21 26) rotate(5.973) scale(0.342)">
		
			<image style="overflow:visible;enable-background:new    ;" width="322" height="456" id="image_60_" xlink:href="../images/avocado.png"  transform="matrix(0.2775 2.903135e-02 -2.903135e-02 0.2775 993.3756 41.3446)">
		</image>
	</g>
	<g transform="translate(884.091 25) rotate(7.039) scale(0.342)">
		
			<image style="overflow:visible;enable-background:new    ;" width="322" height="456" id="image_61_" xlink:href="../images/avocado.png"  transform="matrix(0.2769 3.418847e-02 -3.418847e-02 0.2769 886.3608 40.5019)">
		</image>
	</g>
</g>
<g>
	<defs>
		<path id="SVGID_1_" d="M448.5,462.1l13.1-3c0,0,2.7,1.5,7.7,0c5.1-1.5,3.3-2.4,3.3-2.4l42.2-12.5c0,0,8.6-5.1,5.7-16.1l22.9-1.2
			c0,0,11.9,11.9,10.7,27.4s-24.7,360.2-24.7,360.2s-68.7,68.4-136.2,80.9C325.7,907.9,267.1,822,267.1,822l-22.3-409h38.1
			c0,0-0.7,2.6,3.8,5.5c4.5,2.8,39.9,26,65.7,37.4c25.8,11.4,40.6,11.6,40.6,11.6S412.8,470.9,448.5,462.1z"/>
	</defs>
	<clipPath id="SVGID_2_">
		<use xlink:href="#SVGID_1_"  style="overflow:visible;"/>
	</clipPath>
	<g style="clip-path:url(#SVGID_2_);">
		
			<image style="overflow:visible;" width="694" height="1367" xlink:href="../images/prullenbak2.png"  transform="matrix(-0.4349 0 0 0.4349 550.8654 295.9505)">
		</image>
	</g>
</g>
</svg>
