<?xml version="1.0" encoding="utf-8"?>
<!-- Generator: Adobe Illustrator 24.1.2, SVG Export Plug-In . SVG Version: 6.00 Build 0)  -->
<svg version="1.1" id="Laag_1" xmlns="http://www.w3.org/2000/svg" xmlns:xlink="http://www.w3.org/1999/xlink" x="0px" y="0px"
	 viewBox="0 0 1920 1080" style="enable-background:new 0 0 1920 1080;" xml:space="preserve">
<style type="text/css">
	.st0{fill:#033B2B;}
	.st1{fill:#E7E7A9;}
	.st2{font-family:'Poppins-Bold';}
	.st3{font-size:38px;}
	.st4{fill:#F53D04;}
	.st5{font-family:'Poppins-Medium';}
	.st6{font-size:30px;}
	.st7{fill:none;stroke:#E7E7A9;stroke-miterlimit:10;}
	.st8{font-size:18px;}
	.st9{font-family:'Poppins-Regular';}
	.st10{font-size:15px;}
	.st11{font-size:20px;}
</style>
<rect id="Achtergrond" class="st0" width="1920" height="1080"/>
<g id="Tekst_1">
	<text transform="matrix(1 0 0 1 44 58)" class="st1 st2 st3">De avocado is een echte watersluper</text>
	<text transform="matrix(1 0 0 1 44 95)" class="st1 st2 st3">met een hele hoge watervoetafdruk</text>
</g>
<g id="Tekst_2">
	<text transform="matrix(1 0 0 1 44 152)" class="st4 st5 st6">“</text>
	<text transform="matrix(1 0 0 1 58.31 152)" class="st1 st5 st6">Je hebt gemiddeld tweeduizend liter  </text>
	<text transform="matrix(1 0 0 1 44 189)" class="st1 st5 st6">water nodig om een kilogram te kweken</text>
	<text transform="matrix(1 0 0 1 656.142 189)" class="st4 st5 st6">”</text>
	<text transform="matrix(1 0 0 1 44 226)" class="st4 st5 st6">Water Footprint Network</text>
</g>
<rect id="Balk_Tomaat" x="264" y="941" class="st1" width="497" height="72"/>
<rect id="Balk_sinaasappel" x="806" y="833" class="st1" width="497" height="180"/>
<rect id="Balk_avocado" x="1347" y="293" class="st1" width="497" height="720"/>
<line id="Line_23" class="st7" x1="235.5" y1="293.5" x2="226.5" y2="293.5"/>
<g id="Grafiek">
	<line id="Line_1" class="st7" x1="233.5" y1="1011.5" x2="1843.5" y2="1011.5"/>
	<line id="Line_2" class="st7" x1="235.5" y1="1013" x2="235.5" y2="291.5"/>
	<line id="Line_4" class="st7" x1="235.5" y1="977.5" x2="226.5" y2="977.5"/>
	<line id="Line_5" class="st7" x1="235.5" y1="941.5" x2="226.5" y2="941.5"/>
	<line id="Line_6" class="st7" x1="235.5" y1="905.5" x2="226.5" y2="905.5"/>
	<line id="Line_7" class="st7" x1="235.5" y1="869.5" x2="226.5" y2="869.5"/>
	<line id="Line_8" class="st7" x1="235.5" y1="833.5" x2="226.5" y2="833.5"/>
	<line id="Line_9" class="st7" x1="235.5" y1="797.5" x2="226.5" y2="797.5"/>
	<line id="Line_10" class="st7" x1="235.5" y1="761.5" x2="226.5" y2="761.5"/>
	<line id="Line_11" class="st7" x1="235.5" y1="725.5" x2="226.5" y2="725.5"/>
	<line id="Line_12" class="st7" x1="235.5" y1="689.5" x2="226.5" y2="689.5"/>
	<line id="Line_13" class="st7" x1="235.5" y1="653.5" x2="226.5" y2="653.5"/>
	<line id="Line_14" class="st7" x1="235.5" y1="617.5" x2="226.5" y2="617.5"/>
	<line id="Line_15" class="st7" x1="235.5" y1="581.5" x2="226.5" y2="581.5"/>
	<line id="Line_16" class="st7" x1="235.5" y1="545.5" x2="226.5" y2="545.5"/>
	<line id="Line_17" class="st7" x1="235.5" y1="509.5" x2="226.5" y2="509.5"/>
	<line id="Line_18" class="st7" x1="235.5" y1="473.5" x2="226.5" y2="473.5"/>
	<line id="Line_19" class="st7" x1="235.5" y1="437.5" x2="226.5" y2="437.5"/>
	<line id="Line_20" class="st7" x1="235.5" y1="401.5" x2="226.5" y2="401.5"/>
	<line id="Line_21" class="st7" x1="235.5" y1="365.5" x2="226.5" y2="365.5"/>
	<line id="Line_22" class="st7" x1="235.5" y1="329.5" x2="226.5" y2="329.5"/>
	<g id="_200">
		<text transform="matrix(1 0 0 1 183 948)" class="st1 st5 st8">200</text>
	</g>
	<g id="_400">
		<text transform="matrix(1 0 0 1 182 876)" class="st1 st5 st8">400</text>
	</g>
	<g id="_600">
		<text transform="matrix(1 0 0 1 182 804)" class="st1 st5 st8">600</text>
	</g>
	<g id="_800">
		<text transform="matrix(1 0 0 1 182 732)" class="st1 st5 st8">800</text>
	</g>
	<g id="_1000">
		<text transform="matrix(1 0 0 1 175 660)" class="st1 st5 st8">1000</text>
	</g>
	<g id="_1200">
		<text transform="matrix(1 0 0 1 175 588)" class="st1 st5 st8">1200</text>
	</g>
	<g id="_1400">
		<text transform="matrix(1 0 0 1 175 516)" class="st1 st5 st8">1400</text>
	</g>
	<g id="_1600">
		<text transform="matrix(1 0 0 1 175 444)" class="st1 st5 st8">1600</text>
	</g>
	<g id="_1800">
		<text transform="matrix(1 0 0 1 175 372)" class="st1 st5 st8">1800</text>
	</g>
	<g id="_2000">
		<text transform="matrix(1 0 0 1 172 300)" class="st1 st5 st8">2000</text>
	</g>
	<g id="_300">
		<text transform="matrix(1 0 0 1 189 911)" class="st1 st9 st10">300</text>
	</g>
	<g id="_500">
		<text transform="matrix(1 0 0 1 189 839)" class="st1 st9 st10">500</text>
	</g>
	<g id="_700">
		<text transform="matrix(1 0 0 1 189 767)" class="st1 st9 st10">700</text>
	</g>
	<g id="_900">
		<text transform="matrix(1 0 0 1 189 695)" class="st1 st9 st10">900</text>
	</g>
	<g id="_1100">
		<text transform="matrix(1 0 0 1 189 623)" class="st1 st9 st10">1100</text>
	</g>
	<g id="_1300">
		<text transform="matrix(1 0 0 1 185 551)" class="st1 st9 st10">1300</text>
	</g>
	<g id="_1500">
		<text transform="matrix(1 0 0 1 184 479)" class="st1 st9 st10">1500</text>
	</g>
	<g id="_1700">
		<text transform="matrix(1 0 0 1 185 407)" class="st1 st9 st10">1700</text>
	</g>
	<g id="_1900">
		<text transform="matrix(1 0 0 1 183 335)" class="st1 st9 st10">1900</text>
	</g>
	<g id="_100">
		<text transform="matrix(1 0 0 1 193 983)" class="st1 st9 st10">100</text>
	</g>
	<g id="Water_in_Liter_per_kilogram">
		<text transform="matrix(1 0 0 1 231 1046)" class="st1 st5 st11">Water in Liter per kilogram</text>
	</g>
	<g id="Liter_">
		<text transform="matrix(6.123234e-17 -1 1 6.123234e-17 155 329.9999)" class="st1 st5 st11">Liter</text>
	</g>
</g>
<text transform="matrix(1 0 0 1 1362.9189 329.908)" class="st0 st5 st8">Dat is </text>
<text transform="matrix(1 0 0 1 1418.3049 329.908)" class="st4 st5 st8">vier keer</text>
<text transform="matrix(1 0 0 1 1496.7469 329.908)" class="st0 st5 st8"> zoveel als nodig is om </text>
<text transform="matrix(1 0 0 1 1362.9189 351.508)" class="st0 st5 st8">een kilo sinaasappels te produceren </text>
<text transform="matrix(1 0 0 1 1362.9189 373.108)" class="st0 st5 st8">en </text>
<text transform="matrix(1 0 0 1 1390.387 373.108)" class="st4 st5 st8">tien keer</text>
<text transform="matrix(1 0 0 1 1469.657 373.108)" class="st0 st5 st8"> zoveel als nodig is om </text>
<text transform="matrix(1 0 0 1 1362.9189 394.708)" class="st0 st5 st8">een kilo tomaten te produceren</text>
<image style="overflow:visible;enable-background:new    ;" width="322" height="456" id="Avocado_1_" xlink:href="../Documents/School/Jaar 3/Project/project-id/images/avocado.png"  transform="matrix(1.127 0 0 1.127 1436.176 550.407)">
</image>
<image style="overflow:visible;enable-background:new    ;" width="1414" height="2000" id="Sinaasappel_1_" xlink:href="../Documents/School/Jaar 3/Project/project-id/images/sinaasappel.png"  transform="matrix(0.382 0 0 0.382 784.426 532.0855)">
</image>
<image style="overflow:visible;enable-background:new    ;" width="1414" height="2000" id="Tomaat_1_" xlink:href="../Documents/School/Jaar 3/Project/project-id/images/Tomaat.png"  transform="matrix(0.286 0 0 0.286 295.7594 637.407)">
</image>
</svg>
