<?xml version="1.0" encoding="utf-8"?>
<!-- Generator: Adobe Illustrator 24.1.2, SVG Export Plug-In . SVG Version: 6.00 Build 0)  -->
<svg version="1.1" id="Laag_1" xmlns="http://www.w3.org/2000/svg" xmlns:xlink="http://www.w3.org/1999/xlink" x="0px" y="0px"
	 viewBox="0 0 1920 1080" style="enable-background:new 0 0 1920 1080;" xml:space="preserve">
<style type="text/css">
	.st0{fill:#033B2B;}
	.st1{fill:#E7E7A9;}
	.st2{font-family:'Poppins-Bold';}
	.st3{font-size:38px;}
	.st4{fill:#F53D04;}
	.st5{font-family:'Poppins-Medium';}
	.st6{font-size:30px;}
	.st7{fill:#E7E7A9;stroke:#E7E7A9;stroke-miterlimit:10;}
	.st8{fill:none;stroke:#E7E7A9;stroke-width:4;}
	.st9{fill:none;stroke:#E7E7A9;stroke-width:3;}
	.st10{fill:none;stroke:#E7E7A9;stroke-width:4;stroke-miterlimit:10;}
	.st11{font-size:18px;}
	.st12{font-family:'Poppins-Regular';}
	.st13{font-size:15px;}
	.st14{font-size:20px;}
</style>
<rect id="Achtergrond" x="-2.2" y="-12" class="st0" width="1925" height="1092.7"/>
<g id="Tekst_1">
	<text transform="matrix(1 0 0 1 54.8239 82.6766)" class="st1 st2 st3">De avocado is een echte watersluper</text>
	<text transform="matrix(1 0 0 1 54.8239 119.6766)" class="st1 st2 st3">met een hele hoge watervoetafdruk</text>
</g>
<g id="Tekst_2">
	<text transform="matrix(1 0 0 1 1016.824 360.7046)" class="st4 st5 st6">“</text>
	<text transform="matrix(1 0 0 1 1031.134 360.7046)" class="st1 st5 st6">Je hebt gemiddeld tweeduizend liter  </text>
	<text transform="matrix(1 0 0 1 1016.824 397.7046)" class="st1 st5 st6">water nodig om een kilogram te kweken</text>
	<text transform="matrix(1 0 0 1 1628.9661 397.7046)" class="st4 st5 st6">”</text>
	<text transform="matrix(1 0 0 1 1016.824 434.7046)" class="st4 st5 st6">Water Footprint Network</text>
</g>
<rect id="Balk_Tomaat" x="1286.5" y="828.6" class="st7" width="497" height="72"/>
<rect id="Balk_sinaasappel" x="745.8" y="720.7" class="st7" width="497" height="180"/>
<rect id="Balk_avocado" x="199.5" y="179.6" class="st7" width="497" height="720"/>
<line id="Line_23" class="st8" x1="175" y1="181.1" x2="166" y2="181.1"/>
<g id="Grafiek">
	<line id="Line_1" class="st9" x1="173.3" y1="899.2" x2="1783.3" y2="899.2"/>
	<line id="Line_2" class="st8" x1="175.3" y1="900.7" x2="175.3" y2="179.2"/>
	<line id="Line_4" class="st10" x1="175.3" y1="865.2" x2="166.3" y2="865.2"/>
	<line id="Line_5" class="st8" x1="175.3" y1="829.2" x2="166.3" y2="829.2"/>
	<line id="Line_6" class="st10" x1="175.3" y1="793.2" x2="166.3" y2="793.2"/>
	<line id="Line_7" class="st8" x1="175.3" y1="757.2" x2="166.3" y2="757.2"/>
	<line id="Line_8" class="st10" x1="175.3" y1="721.2" x2="166.3" y2="721.2"/>
	<line id="Line_9" class="st8" x1="175.3" y1="685.2" x2="166.3" y2="685.2"/>
	<line id="Line_10" class="st8" x1="175.3" y1="649.2" x2="166.3" y2="649.2"/>
	<line id="Line_11" class="st8" x1="175.3" y1="613.2" x2="166.3" y2="613.2"/>
	<line id="Line_12" class="st8" x1="175.3" y1="577.2" x2="166.3" y2="577.2"/>
	<line id="Line_13" class="st10" x1="175.3" y1="541.2" x2="166.3" y2="541.2"/>
	<line id="Line_14" class="st8" x1="175.3" y1="505.2" x2="166.3" y2="505.2"/>
	<line id="Line_15" class="st10" x1="175.3" y1="469.2" x2="166.3" y2="469.2"/>
	<line id="Line_16" class="st8" x1="175.3" y1="433.2" x2="166.3" y2="433.2"/>
	<line id="Line_17" class="st10" x1="175.3" y1="397.2" x2="166.3" y2="397.2"/>
	<line id="Line_18" class="st8" x1="175.3" y1="361.2" x2="166.3" y2="361.2"/>
	<line id="Line_19" class="st10" x1="175.3" y1="325.2" x2="166.3" y2="325.2"/>
	<line id="Line_20" class="st8" x1="175.3" y1="289.2" x2="166.3" y2="289.2"/>
	<line id="Line_21" class="st10" x1="175.3" y1="253.2" x2="166.3" y2="253.2"/>
	<line id="Line_22" class="st8" x1="175.3" y1="217.2" x2="166.3" y2="217.2"/>
	<g id="_200">
		<text transform="matrix(1 0 0 1 122.8241 835.7047)" class="st1 st5 st11">200</text>
	</g>
	<g id="_400">
		<text transform="matrix(1 0 0 1 121.8241 763.7047)" class="st1 st5 st11">400</text>
	</g>
	<g id="_600">
		<text transform="matrix(1 0 0 1 121.8241 691.7047)" class="st1 st5 st11">600</text>
	</g>
	<g id="_800">
		<text transform="matrix(1 0 0 1 121.8241 619.7047)" class="st1 st5 st11">800</text>
	</g>
	<g id="_1000">
		<text transform="matrix(1 0 0 1 114.8241 547.7047)" class="st1 st5 st11">1000</text>
	</g>
	<g id="_1200">
		<text transform="matrix(1 0 0 1 114.8241 475.7047)" class="st1 st5 st11">1200</text>
	</g>
	<g id="_1400">
		<text transform="matrix(1 0 0 1 114.8241 403.7046)" class="st1 st5 st11">1400</text>
	</g>
	<g id="_1600">
		<text transform="matrix(1 0 0 1 114.8241 331.7046)" class="st1 st5 st11">1600</text>
	</g>
	<g id="_1800">
		<text transform="matrix(1 0 0 1 114.8241 259.7046)" class="st1 st5 st11">1800</text>
	</g>
	<g id="_2000">
		<text transform="matrix(1 0 0 1 111.8241 187.7047)" class="st1 st5 st11">2000</text>
	</g>
	<g id="_300">
		<text transform="matrix(1 0 0 1 128.8241 798.7047)" class="st1 st12 st13">300</text>
	</g>
	<g id="_500">
		<text transform="matrix(1 0 0 1 128.8241 726.7047)" class="st1 st12 st13">500</text>
	</g>
	<g id="_700">
		<text transform="matrix(1 0 0 1 128.8241 654.7047)" class="st1 st12 st13">700</text>
	</g>
	<g id="_900">
		<text transform="matrix(1 0 0 1 128.8241 582.7047)" class="st1 st12 st13">900</text>
	</g>
	<g id="_1100">
		<text transform="matrix(1 0 0 1 128.8241 510.7047)" class="st1 st12 st13">1100</text>
	</g>
	<g id="_1300">
		<text transform="matrix(1 0 0 1 124.8241 438.7046)" class="st1 st12 st13">1300</text>
	</g>
	<g id="_1500">
		<text transform="matrix(1 0 0 1 123.8241 366.7046)" class="st1 st12 st13">1500</text>
	</g>
	<g id="_1700">
		<text transform="matrix(1 0 0 1 124.8241 294.7046)" class="st1 st12 st13">1700</text>
	</g>
	<g id="_1900">
		<text transform="matrix(1 0 0 1 122.8241 222.7046)" class="st1 st12 st13">1900</text>
	</g>
	<g id="_100">
		<text transform="matrix(1 0 0 1 132.8241 870.7047)" class="st1 st12 st13">100</text>
	</g>
	<g id="Water_in_Liter_per_kilogram">
		<text transform="matrix(1 0 0 1 170.8241 933.7047)" class="st1 st5 st14">Water in Liter per kilogram</text>
	</g>
	<g id="Liter_">
		<text transform="matrix(6.123234e-17 -1 1 6.123234e-17 94.824 217.7041)" class="st1 st5 st14">Liter</text>
	</g>
</g>
<image style="overflow:visible;enable-background:new    ;" width="322" height="456" id="Avocado" xlink:href="../images/avocado.png"  transform="matrix(1.127 0 0 1.127 277.0001 428.1116)">
</image>
<image style="overflow:visible;enable-background:new    ;" width="1414" height="2000" id="Tomaat" xlink:href="../images/Tomaat.png"  transform="matrix(0.286 0 0 0.286 1333 513.1116)">
</image>
<text transform="matrix(1 0 0 1 220.7431 222.6126)" class="st0 st5 st11">Dat is </text>
<text transform="matrix(1 0 0 1 276.1291 222.6126)" class="st4 st5 st11">vier keer</text>
<text transform="matrix(1 0 0 1 354.571 222.6126)" class="st0 st5 st11"> zoveel als nodig is om </text>
<text transform="matrix(1 0 0 1 220.7431 244.2126)" class="st0 st5 st11">een kilo sinaasappels te produceren </text>
<text transform="matrix(1 0 0 1 220.7431 265.8127)" class="st0 st5 st11">en </text>
<text transform="matrix(1 0 0 1 248.2111 265.8127)" class="st4 st5 st11">tien keer</text>
<text transform="matrix(1 0 0 1 327.481 265.8127)" class="st0 st5 st11"> zoveel als nodig is om </text>
<text transform="matrix(1 0 0 1 220.7431 287.4127)" class="st0 st5 st11">een kilo tomaten te produceren</text>
<image style="overflow:visible;enable-background:new    ;" width="1414" height="2000" xlink:href="../images/Sinaasappel.png"  transform="matrix(0.403 0 0 0.403 710.0001 385.1116)">
</image>
</svg>
