<?xml version="1.0" encoding="utf-8"?>
<!-- Generator: Adobe Illustrator 24.1.2, SVG Export Plug-In . SVG Version: 6.00 Build 0)  -->
<svg version="1.1" id="Laag_1" xmlns="http://www.w3.org/2000/svg" xmlns:xlink="http://www.w3.org/1999/xlink" x="0px" y="0px"
	 viewBox="0 0 1920 1080" style="enable-background:new 0 0 1920 1080;" xml:space="preserve">
<style type="text/css">
	.st0{fill:#033B2B;}
	.st1{fill:#E7E7A9;}
	.st2{font-family:'Poppins-Bold';}
	.st3{font-size:38px;}
	.st4{fill:#F53D04;}
	.st5{font-family:'Poppins-Medium';}
	.st6{font-size:30px;}
	.st7{fill:#B0DFFC;}
	.st8{fill:none;stroke:#B0DFFC;stroke-width:4;}
	.st9{fill:none;stroke:#B0DFFC;stroke-width:3;}
	.st10{fill:none;stroke:#B0DFFC;stroke-width:4;stroke-miterlimit:10;}
	.st11{font-size:18px;}
	.st12{font-family:'Poppins-Regular';}
	.st13{font-size:15px;}
	.st14{font-size:20px;}
</style>
<rect id="Achtergrond" x="-2.2" y="-12" class="st0" width="1925" height="1092.7"/>
<g id="Tekst_1">
	<text transform="matrix(1 0 0 1 50.824 126.593)" class="st1 st2 st3">De avocado is een echte watersluper</text>
	<text transform="matrix(1 0 0 1 50.824 163.593)" class="st1 st2 st3">met een hele hoge watervoetafdruk</text>
</g>
<g id="Tekst_2">
	<text transform="matrix(1 0 0 1 491.824 317.593)" class="st4 st5 st6">“</text>
	<text transform="matrix(1 0 0 1 506.134 317.593)" class="st1 st5 st6">Je hebt gemiddeld tweeduizend liter  </text>
	<text transform="matrix(1 0 0 1 491.824 354.593)" class="st1 st5 st6">water nodig om een kilogram te kweken</text>
	<text transform="matrix(1 0 0 1 1103.9659 354.593)" class="st4 st5 st6">”</text>
	<text transform="matrix(1 0 0 1 491.824 391.593)" class="st4 st5 st6">Water Footprint Network</text>
</g>
<rect id="Balk_Tomaat" x="214.8" y="939.6" class="st7" width="497" height="72"/>
<rect id="Balk_sinaasappel" x="761.8" y="831.6" class="st7" width="497" height="180"/>
<rect id="Balk_avocado" x="1302.8" y="291.6" class="st7" width="497" height="720"/>
<line id="Line_23" class="st8" x1="191" y1="292" x2="182" y2="292"/>
<g id="Grafiek">
	<line id="Line_1" class="st9" x1="189.3" y1="1010.1" x2="1799.3" y2="1010.1"/>
	<line id="Line_2" class="st8" x1="191.3" y1="1011.6" x2="191.3" y2="290.1"/>
	<line id="Line_4" class="st10" x1="191.3" y1="976.1" x2="182.3" y2="976.1"/>
	<line id="Line_5" class="st8" x1="191.3" y1="940.1" x2="182.3" y2="940.1"/>
	<line id="Line_6" class="st10" x1="191.3" y1="904.1" x2="182.3" y2="904.1"/>
	<line id="Line_7" class="st8" x1="191.3" y1="868.1" x2="182.3" y2="868.1"/>
	<line id="Line_8" class="st10" x1="191.3" y1="832.1" x2="182.3" y2="832.1"/>
	<line id="Line_9" class="st8" x1="191.3" y1="796.1" x2="182.3" y2="796.1"/>
	<line id="Line_10" class="st8" x1="191.3" y1="760.1" x2="182.3" y2="760.1"/>
	<line id="Line_11" class="st8" x1="191.3" y1="724.1" x2="182.3" y2="724.1"/>
	<line id="Line_12" class="st8" x1="191.3" y1="688.1" x2="182.3" y2="688.1"/>
	<line id="Line_13" class="st10" x1="191.3" y1="652.1" x2="182.3" y2="652.1"/>
	<line id="Line_14" class="st8" x1="191.3" y1="616.1" x2="182.3" y2="616.1"/>
	<line id="Line_15" class="st10" x1="191.3" y1="580.1" x2="182.3" y2="580.1"/>
	<line id="Line_16" class="st8" x1="191.3" y1="544.1" x2="182.3" y2="544.1"/>
	<line id="Line_17" class="st10" x1="191.3" y1="508.1" x2="182.3" y2="508.1"/>
	<line id="Line_18" class="st8" x1="191.3" y1="472.1" x2="182.3" y2="472.1"/>
	<line id="Line_19" class="st10" x1="191.3" y1="436.1" x2="182.3" y2="436.1"/>
	<line id="Line_20" class="st8" x1="191.3" y1="400.1" x2="182.3" y2="400.1"/>
	<line id="Line_21" class="st10" x1="191.3" y1="364.1" x2="182.3" y2="364.1"/>
	<line id="Line_22" class="st8" x1="191.3" y1="328.1" x2="182.3" y2="328.1"/>
	<g id="_200">
		<text transform="matrix(1 0 0 1 138.824 946.593)" class="st7 st5 st11">200</text>
	</g>
	<g id="_400">
		<text transform="matrix(1 0 0 1 137.824 874.593)" class="st7 st5 st11">400</text>
	</g>
	<g id="_600">
		<text transform="matrix(1 0 0 1 137.824 802.593)" class="st7 st5 st11">600</text>
	</g>
	<g id="_800">
		<text transform="matrix(1 0 0 1 137.824 730.593)" class="st7 st5 st11">800</text>
	</g>
	<g id="_1000">
		<text transform="matrix(1 0 0 1 130.824 658.593)" class="st7 st5 st11">1000</text>
	</g>
	<g id="_1200">
		<text transform="matrix(1 0 0 1 130.824 586.593)" class="st7 st5 st11">1200</text>
	</g>
	<g id="_1400">
		<text transform="matrix(1 0 0 1 130.824 514.593)" class="st7 st5 st11">1400</text>
	</g>
	<g id="_1600">
		<text transform="matrix(1 0 0 1 130.824 442.593)" class="st7 st5 st11">1600</text>
	</g>
	<g id="_1800">
		<text transform="matrix(1 0 0 1 130.824 370.593)" class="st7 st5 st11">1800</text>
	</g>
	<g id="_2000">
		<text transform="matrix(1 0 0 1 127.824 298.593)" class="st7 st5 st11">2000</text>
	</g>
	<g id="_300">
		<text transform="matrix(1 0 0 1 144.824 909.593)" class="st7 st12 st13">300</text>
	</g>
	<g id="_500">
		<text transform="matrix(1 0 0 1 144.824 837.593)" class="st7 st12 st13">500</text>
	</g>
	<g id="_700">
		<text transform="matrix(1 0 0 1 144.824 765.593)" class="st7 st12 st13">700</text>
	</g>
	<g id="_900">
		<text transform="matrix(1 0 0 1 144.824 693.593)" class="st7 st12 st13">900</text>
	</g>
	<g id="_1100">
		<text transform="matrix(1 0 0 1 144.824 621.593)" class="st7 st12 st13">1100</text>
	</g>
	<g id="_1300">
		<text transform="matrix(1 0 0 1 140.824 549.593)" class="st7 st12 st13">1300</text>
	</g>
	<g id="_1500">
		<text transform="matrix(1 0 0 1 139.824 477.593)" class="st7 st12 st13">1500</text>
	</g>
	<g id="_1700">
		<text transform="matrix(1 0 0 1 140.824 405.593)" class="st7 st12 st13">1700</text>
	</g>
	<g id="_1900">
		<text transform="matrix(1 0 0 1 138.824 333.593)" class="st7 st12 st13">1900</text>
	</g>
	<g id="_100">
		<text transform="matrix(1 0 0 1 148.824 981.593)" class="st7 st12 st13">100</text>
	</g>
	<g id="Water_in_Liter_per_kilogram">
		<text transform="matrix(1 0 0 1 186.824 1044.593)" class="st7 st5 st14">Water in Liter per kilogram</text>
	</g>
	<g id="Liter_">
		<text transform="matrix(6.123234e-17 -1 1 6.123234e-17 110.824 328.5928)" class="st7 st5 st14">Liter</text>
	</g>
</g>
<image style="overflow:visible;enable-background:new    ;" width="1414" height="2000" id="Tomaat" xlink:href="../images/Tomaat.png"  transform="matrix(0.286 0 0 0.286 252 636)">
</image>
<text transform="matrix(1 0 0 1 1365.743 332.501)" class="st0 st5 st11">Dat is </text>
<g>
	<text transform="matrix(1 0 0 1 1421.129 332.501)" class="st4 st5 st11">vier keer</text>
</g>
<text transform="matrix(1 0 0 1 1499.571 332.501)" class="st0 st5 st11"> zoveel als nodig is om </text>
<text transform="matrix(1 0 0 1 1365.743 354.101)" class="st0 st5 st11">een kilo sinaasappels te produceren </text>
<text transform="matrix(1 0 0 1 1365.743 375.701)" class="st0 st5 st11">en </text>
<g>
	<text transform="matrix(1 0 0 1 1393.2111 375.701)" class="st4 st5 st11">tien keer</text>
</g>
<text transform="matrix(1 0 0 1 1472.4811 375.701)" class="st0 st5 st11"> zoveel als nodig is om </text>
<text transform="matrix(1 0 0 1 1365.743 397.301)" class="st0 st5 st11">een kilo tomaten te produceren</text>
<rect x="1303" y="1008" class="st7" width="212" height="80"/>
<image style="overflow:visible;enable-background:new    ;" width="1414" height="2000" xlink:href="../images/Sinaasappel.png"  transform="matrix(0.403 0 0 0.403 712 502)">
</image>
<image style="overflow:visible;" width="322" height="456" xlink:href="../images/avocado.png"  transform="matrix(1.2491 0 0 1.2491 1365.743 488.8239)">
</image>
</svg>
