<svg xmlns="http://www.w3.org/2000/svg" xmlns:xlink="http://www.w3.org/1999/xlink" viewBox="0 0 1920 1080"><defs><style>.cls-1{fill:none;}.cls-2,.cls-6{fill:#e7e7a9;}.cls-3{font-size:34.953px;fill:#033b2b;font-family:Poppins-Bold, Poppins;font-weight:700;}.cls-4{clip-path:url(#clip-path);}.cls-5,.cls-7{fill:#043a2b;}.cls-6{font-size:18px;font-family:Poppins-Medium, Poppins;font-weight:500;}.cls-7{stroke:#043a2b;stroke-miterlimit:10;stroke-width:3px;}</style><clipPath id="clip-path"><circle class="cls-1" cx="1022.472" cy="599.046" r="569.75"/></clipPath></defs><g id="Laag_1" data-name="Laag 1"><rect id="Achtergrond" class="cls-2" width="1920" height="1080"/><text id="Tekst" class="cls-3" transform="translate(61.155 113.711)">Avocado’s leggen een <tspan x="0" y="41.944">lange weg af voordat je </tspan><tspan x="0" y="83.888">ze een knijpbeurt geeft in </tspan><tspan x="0" y="125.832">de supermarkt...</tspan></text><g id="kaart"><g class="cls-4"><image width="1593" height="1050" transform="translate(212 -360) scale(1.358)" xlink:href="world.png"/></g></g><g id="NL"><rect class="cls-5" x="1260.377" y="192.657" width="132" height="41"/><text class="cls-6" transform="translate(1272.61 219.608)">Nederlands</text><rect class="cls-5" x="1270.377" y="231.657" width="3" height="30"/></g><g id="Chili"><rect class="cls-5" x="795.377" y="696.657" width="70" height="41"/><text class="cls-6" transform="translate(808.714 723.537)">Chili</text><rect class="cls-5" x="818" y="737" width="3" height="30"/></g></g><g id="Streepjes"><path class="cls-7" d="M812.81,669.625c-.549,10.122-1,20.249-1.43,30.377"/><path class="cls-7" d="M815.878,627.023c-1,10.57-1.784,21.161-2.44,31.759"/><path class="cls-7" d="M821.231,584.317c-1.709,10.64-3.112,21.33-4.274,32.049"/><path class="cls-7" d="M827.2,550.059q-2.34,11.833-4.305,23.742"/><path class="cls-7" d="M836.856,510.507c-3.856,8.66-4.856,19.053-7.342,28.31"/><path class="cls-7" d="M847.491,473.269c-2.7,8.28-4.8,16.751-7.092,25.16"/><path class="cls-7" d="M860.784,437.153c-3.1,8.233-6.273,16.433-9.285,24.7"/><path class="cls-7" d="M878.4,399.958q-6.677,12.6-12.571,25.625"/><path class="cls-7" d="M900.277,362.778q-8.339,12.871-15.9,26.261"/><path class="cls-7" d="M926.892,328.037A199.9,199.9,0,0,0,906.861,352.9"/><path class="cls-7" d="M955.811,298.135Q945.026,308.126,935,318.96"/><path class="cls-7" d="M993.754,268.592a227.847,227.847,0,0,0-29.039,21.567"/><path class="cls-7" d="M1032.262,247.087a302.742,302.742,0,0,0-29.069,15.524"/><path class="cls-7" d="M1077.43,231.815c-11.805,1.983-23.174,5.824-34.239,10.469"/><path class="cls-7" d="M1123.988,221.381c-11.944,2.622-25.067,2.81-36.616,7.013"/><path class="cls-7" d="M1174.051,217.114c-13.445.4-26.877,1.346-40.239,2.957"/><path class="cls-7" d="M1224.486,218.788c-13.634-1.183-27.314-1.8-41-1.788"/><path class="cls-7" d="M1273.877,226.776c-12.877-3.8-25.877-4.84-39.1-6.9"/></g></svg>